<svg xmlns="http://www.w3.org/2000/svg" width="24" height="24" viewBox="0 0 24 24">
  <defs/>
  <path fill="#212135" d="M0,12 Q0,8.14 0.485,5.956 Q1.015,3.574 2.294,2.294 Q3.574,1.015 5.956,0.485 Q8.14,0 12,0 Q15.86,0 18.044,0.485 Q20.426,1.015 21.706,2.294 Q22.985,3.574 23.515,5.956 Q24,8.14 24,12 Q24,15.86 23.515,18.044 Q22.985,20.427 21.706,21.706 Q20.427,22.985 18.044,23.515 Q15.86,24 12,24 Q8.14,24 5.956,23.515 Q3.574,22.985 2.294,21.706 Q1.015,20.426 0.485,18.044 Q0,15.86 0,12 Z M2,12 Q2,15.64 2.438,17.61 Q2.841,19.424 3.708,20.292 Q4.576,21.159 6.39,21.562 Q8.36,22 12,22 Q15.64,22 17.61,21.562 Q19.424,21.159 20.292,20.292 Q21.159,19.424 21.562,17.61 Q22,15.64 22,12 Q22,8.36 21.562,6.39 Q21.159,4.576 20.292,3.708 Q19.424,2.841 17.61,2.438 Q15.64,2 12,2 Q8.359,2 6.39,2.438 Q4.576,2.841 3.708,3.708 Q2.841,4.576 2.438,6.39 Q2,8.359 2,12 Z"/>
  <path fill="#212135" d="M5.07,13.632 Q5.836,11.696 7.072,10.427 Q8.353,9.113 9.765,9.205 Q11.457,9.316 12.84,11.457 Q13.678,12.754 14.366,12.799 Q14.858,12.831 15.495,12.177 Q16.452,11.196 17.07,9.632 Q17.222,9.247 17.603,9.082 Q17.983,8.918 18.368,9.07 Q18.753,9.222 18.918,9.603 Q19.082,9.983 18.93,10.368 Q18.164,12.304 16.928,13.573 Q15.647,14.887 14.235,14.795 Q12.543,14.684 11.16,12.543 Q10.322,11.246 9.634,11.201 Q9.142,11.169 8.505,11.823 Q7.548,12.804 6.93,14.368 Q6.777,14.753 6.397,14.918 Q6.017,15.082 5.632,14.93 Q5.247,14.777 5.082,14.397 Q4.918,14.017 5.07,13.632 Z"/>
</svg>

