<svg xmlns="http://www.w3.org/2000/svg" width="24" height="24" viewBox="0 0 24 24">
  <defs/>
  <path fill="#212135" d="M12,24 C2.118,24 0,21.882 0,12 C0,2.118 2.118,0 12,0 C21.882,0 24,2.118 24,12 C24,21.882 21.882,24 12,24 Z M6,14 L6.93,14.368 L6.934,14.358 C6.938,14.348 6.945,14.332 6.954,14.311 C6.972,14.268 6.999,14.203 7.037,14.121 C7.111,13.955 7.222,13.722 7.364,13.457 C7.656,12.914 8.051,12.289 8.505,11.823 C8.977,11.338 9.356,11.183 9.634,11.201 C9.887,11.218 10.426,11.406 11.16,12.543 C12.041,13.906 13.06,14.718 14.235,14.795 C15.385,14.87 16.304,14.213 16.928,13.573 C17.57,12.914 18.069,12.102 18.398,11.488 C18.566,11.175 18.697,10.901 18.786,10.703 C18.831,10.603 18.866,10.523 18.89,10.465 C18.902,10.437 18.911,10.414 18.918,10.398 L18.926,10.378 L18.928,10.372 L18.929,10.369 C18.929,10.369 18.93,10.368 18,10 L18.93,10.368 C19.133,9.854 18.881,9.273 18.368,9.07 C17.855,8.867 17.274,9.118 17.07,9.631 L17.07,9.632 L17.066,9.642 C17.064,9.648 17.06,9.656 17.056,9.666 C17.053,9.673 17.05,9.681 17.046,9.689 C17.028,9.732 17,9.797 16.963,9.879 C16.889,10.045 16.778,10.278 16.636,10.543 C16.344,11.086 15.949,11.711 15.495,12.177 C15.023,12.662 14.644,12.817 14.366,12.799 C14.113,12.782 13.574,12.594 12.84,11.457 C11.959,10.094 10.94,9.282 9.765,9.205 C8.615,9.13 7.696,9.787 7.072,10.427 C6.43,11.086 5.931,11.898 5.602,12.512 C5.434,12.825 5.303,13.099 5.214,13.297 C5.169,13.397 5.134,13.477 5.11,13.535 C5.098,13.563 5.089,13.586 5.082,13.602 L5.074,13.622 L5.072,13.628 L5.071,13.631 C5.071,13.631 5.07,13.632 6,14 Z M6.929,14.369 C6.929,14.369 6.93,14.368 6,14 L5.07,13.632 C4.867,14.146 5.119,14.727 5.632,14.93 C6.145,15.133 6.726,14.882 6.929,14.369 Z"/>
</svg>

