<svg xmlns="http://www.w3.org/2000/svg" width="24" height="24" viewBox="0 0 24 24">
  <defs/>
  <path fill="#212135" d="M0,12 C0,2.118 2.118,0 12,0 C21.882,0 24,2.118 24,12 C24,21.882 21.882,24 12,24 C2.118,24 0,21.882 0,12 Z M7,12 C7,12.552 7.448,13 8,13 L11,13 L11,16 C11,16.552 11.448,17 12,17 C12.552,17 13,16.552 13,16 L13,13 L16,13 C16.552,13 17,12.552 17,12 C17,11.448 16.552,11 16,11 L13,11 L13,8 C13,7.448 12.552,7 12,7 C11.448,7 11,7.448 11,8 L11,11 L8,11 C7.448,11 7,11.448 7,12 Z"/>
</svg>

