<svg xmlns="http://www.w3.org/2000/svg" width="24" height="24" viewBox="0 0 24 24">
  <defs/>
  <path fill="#212135" d="M5.5,11 C0.971,11 0,10.029 0,5.5 C0,0.971 0.971,0 5.5,0 C10.029,0 11,0.971 11,5.5 C11,10.029 10.029,11 5.5,11 Z"/>
  <path fill="#212135" d="M5.5,24 C0.971,24 0,23.029 0,18.5 C0,13.971 0.971,13 5.5,13 C10.029,13 11,13.971 11,18.5 C11,23.029 10.029,24 5.5,24 Z"/>
  <path fill="#212135" d="M13,18.5 C13,23.029 13.971,24 18.5,24 C23.029,24 24,23.029 24,18.5 C24,13.971 23.029,13 18.5,13 C13.971,13 13,13.971 13,18.5 Z"/>
  <path fill="#212135" d="M19.5,2 C19.5,1.448 19.052,1 18.5,1 C17.948,1 17.5,1.448 17.5,2 L17.5,4.5 L15,4.5 C14.448,4.5 14,4.948 14,5.5 C14,6.052 14.448,6.5 15,6.5 L17.5,6.5 L17.5,9 C17.5,9.552 17.948,10 18.5,10 C19.052,10 19.5,9.552 19.5,9 L19.5,6.5 L22,6.5 C22.552,6.5 23,6.052 23,5.5 C23,4.948 22.552,4.5 22,4.5 L19.5,4.5 L19.5,2 Z"/>
</svg>

