<svg xmlns="http://www.w3.org/2000/svg" width="24" height="24" viewBox="0 0 24 24">
  <defs/>
  <path fill="#212135" d="M12,24 C2.118,24 0,21.882 0,12 C0,11.019 0.021,10.114 0.068,9.281 C0.077,9.123 0.208,9 0.366,9 L4.7,9 C4.866,9 5,9.134 5,9.3 L5,10 C5,11.657 6.343,13 8,13 L16,13 C17.657,13 19,11.657 19,10 L19,9.3 C19,9.134 19.134,9 19.3,9 L23.634,9 C23.792,9 23.923,9.123 23.932,9.281 C23.979,10.114 24,11.019 24,12 C24,21.882 21.882,24 12,24 Z M12,17 C12.552,17 13,16.552 13,16 C13,15.448 12.552,15 12,15 C11.448,15 11,15.448 11,16 C11,16.552 11.448,17 12,17 Z"/>
  <path fill="#212135" d="M23.651,6.653 C23.682,6.834 23.542,7 23.358,7 L0.641,7 C0.458,7 0.318,6.834 0.349,6.653 C1.267,1.306 4.239,0 12,0 C19.761,0 22.733,1.306 23.651,6.653 Z"/>
  <path fill="#212135" d="M7,10 L7,9.3 C7,9.134 7.134,9 7.3,9 L16.7,9 C16.866,9 17,9.134 17,9.3 L17,10 C17,10.552 16.552,11 16,11 L8,11 C7.448,11 7,10.552 7,10 Z"/>
</svg>

