<svg xmlns="http://www.w3.org/2000/svg" width="24" height="22" viewBox="0 0 24 22">
  <defs/>
  <path fill="#212135" d="M12,0 C11.448,0 11,0.448 11,1 L11,4 C11,4.552 11.448,5 12,5 C12.552,5 13,4.552 13,4 L13,1 C13,0.448 12.552,0 12,0 Z"/>
  <path fill="#212135" d="M17.514,1.877 C17.036,1.601 16.424,1.765 16.148,2.243 L15.5,3.366 C15.224,3.844 15.388,4.456 15.866,4.732 C16.344,5.008 16.956,4.844 17.232,4.366 L17.88,3.243 C18.156,2.765 17.992,2.153 17.514,1.877 Z"/>
  <path fill="#212135" d="M5.851,3.242 C5.575,2.763 5.739,2.152 6.217,1.876 C6.695,1.6 7.307,1.763 7.583,2.242 L8.232,3.366 C8.508,3.844 8.344,4.456 7.866,4.732 C7.388,5.008 6.776,4.844 6.5,4.366 L5.851,3.242 Z"/>
  <path fill="#212135" d="M19.957,19 L22.5,19 C23.328,19 24,19.672 24,20.5 C24,21.328 23.328,22 22.5,22 L1.5,22 C0.672,22 0,21.328 0,20.5 C0,19.672 0.672,19 1.5,19 L4.043,19 C4.626,19 5.085,18.504 5.059,17.921 C5.018,17.006 5,15.942 5,14.708 C5,8.5 7.5,6 12,6 C16.5,6 19,8.5 19,14.708 C19,15.942 18.982,17.006 18.941,17.921 C18.915,18.504 19.374,19 19.957,19 Z M14,18 C14,18.552 14.448,19 15,19 C15.552,19 16,18.552 16,18 L16,17 C16,14.791 14.209,13 12,13 C9.791,13 8,14.791 8,17 L8,18 C8,18.552 8.448,19 9,19 C9.552,19 10,18.552 10,18 L10,17 C10,15.895 10.895,15 12,15 C13.105,15 14,15.895 14,17 Z"/>
</svg>

