<svg xmlns="http://www.w3.org/2000/svg" width="24" height="24" viewBox="0 0 24 24">
  <defs/>
  <path fill="#212135" d="M13,1 L13,4 Q13,4.414 12.707,4.707 Q12.414,5 12,5 Q11.586,5 11.293,4.707 Q11,4.414 11,4 L11,1 Q11,0.586 11.293,0.293 Q11.586,0 12,0 Q12.414,0 12.707,0.293 Q13,0.586 13,1 Z M18.332,3.055 L17.332,4.555 Q17.102,4.899 16.696,4.981 Q16.29,5.062 15.945,4.832 Q15.601,4.602 15.519,4.196 Q15.438,3.79 15.668,3.445 L16.668,1.945 Q16.898,1.601 17.304,1.519 Q17.71,1.438 18.055,1.668 Q18.399,1.898 18.481,2.304 Q18.562,2.71 18.332,3.055 Z M7.332,1.945 L8.332,3.445 Q8.562,3.79 8.481,4.196 Q8.399,4.602 8.055,4.832 Q7.71,5.062 7.304,4.981 Q6.898,4.899 6.668,4.555 L5.668,3.055 Q5.438,2.71 5.519,2.304 Q5.601,1.898 5.945,1.668 Q6.29,1.438 6.696,1.519 Q7.102,1.601 7.332,1.945 Z"/>
  <path fill="#212135" d="M16.747,20.062 C16.922,18.933 17,17.248 17,14.708 C17,11.815 16.408,10.2 15.662,9.319 C14.975,8.509 13.88,8 12,8 C10.12,8 9.025,8.509 8.338,9.319 C7.592,10.2 7,11.815 7,14.708 C7,17.248 7.078,18.933 7.253,20.062 L5.233,20.062 C5.064,18.79 5,17.059 5,14.708 C5,8.5 7.5,6 12,6 C16.5,6 19,8.5 19,14.708 C19,17.059 18.935,18.79 18.767,20.062 Z"/>
  <path fill="#212135" d="M15,19 L21.5,19 Q24,19 24,21.5 Q24,24 21.5,24 L2.5,24 Q0,24 0,21.5 Q0,19 2.5,19 L9,19 L9,17 Q9,14 12,14 Q15,14 15,17 L15,19 Z M10,21 L2.5,21 Q2,21 2,21.5 Q2,22 2.5,22 L21.5,22 Q22,22 22,21.5 Q22,21 21.5,21 L10,21 Z M11,19 L13,19 L13,17 Q13,16 12,16 Q11,16 11,17 L11,19 Z"/>
</svg>

