<svg xmlns="http://www.w3.org/2000/svg" width="14" height="10" viewBox="0 0 14 10">
  <defs/>
  <path fill="#212135" d="M1,0 L13,0 Q13.199,0 13.383,0.076 Q13.566,0.152 13.707,0.293 Q13.848,0.434 13.924,0.617 Q14,0.801 14,1 Q14,1.199 13.924,1.383 Q13.848,1.566 13.707,1.707 Q13.566,1.848 13.383,1.924 Q13.199,2 13,2 L1,2 Q0.801,2 0.617,1.924 Q0.434,1.848 0.293,1.707 Q0.152,1.566 0.076,1.383 Q0,1.199 0,1 Q0,0.801 0.076,0.617 Q0.152,0.434 0.293,0.293 Q0.434,0.152 0.617,0.076 Q0.801,0 1,0 Z M1,8 L9,8 Q9.199,8 9.383,8.076 Q9.566,8.152 9.707,8.293 Q9.848,8.434 9.924,8.617 Q10,8.801 10,9 Q10,9.199 9.924,9.383 Q9.848,9.566 9.707,9.707 Q9.566,9.848 9.383,9.924 Q9.199,10 9,10 L1,10 Q0.801,10 0.617,9.924 Q0.434,9.848 0.293,9.707 Q0.152,9.566 0.076,9.383 Q0,9.199 0,9 Q0,8.801 0.076,8.617 Q0.152,8.434 0.293,8.293 Q0.434,8.152 0.617,8.076 Q0.801,8 1,8 Z M1,4 L5,4 Q5.199,4 5.383,4.076 Q5.566,4.152 5.707,4.293 Q5.848,4.434 5.924,4.617 Q6,4.801 6,5 Q6,5.199 5.924,5.383 Q5.848,5.566 5.707,5.707 Q5.566,5.848 5.383,5.924 Q5.199,6 5,6 L1,6 Q0.801,6 0.617,5.924 Q0.434,5.848 0.293,5.707 Q0.152,5.566 0.076,5.383 Q0,5.199 0,5 Q0,4.801 0.076,4.617 Q0.152,4.434 0.293,4.293 Q0.434,4.152 0.617,4.076 Q0.801,4 1,4 Z"/>
</svg>

