<svg xmlns="http://www.w3.org/2000/svg" width="14" height="10" viewBox="0 0 14 10">
  <defs/>
  <path fill="#212135" d="M13,2 L1,2 Q0.801,2 0.617,1.924 Q0.434,1.848 0.293,1.707 Q0.152,1.566 0.076,1.383 Q0,1.199 0,1 Q0,0.801 0.076,0.617 Q0.152,0.434 0.293,0.293 Q0.434,0.152 0.617,0.076 Q0.801,0 1,0 L13,0 Q13.199,0 13.383,0.076 Q13.566,0.152 13.707,0.293 Q13.848,0.434 13.924,0.617 Q14,0.801 14,1 Q14,1.199 13.924,1.383 Q13.848,1.566 13.707,1.707 Q13.566,1.848 13.383,1.924 Q13.199,2 13,2 Z M13,10 L5,10 Q4.801,10 4.617,9.924 Q4.434,9.848 4.293,9.707 Q4.152,9.566 4.076,9.383 Q4,9.199 4,9 Q4,8.801 4.076,8.617 Q4.152,8.434 4.293,8.293 Q4.434,8.152 4.617,8.076 Q4.801,8 5,8 L13,8 Q13.199,8 13.383,8.076 Q13.566,8.152 13.707,8.293 Q13.848,8.434 13.924,8.617 Q14,8.801 14,9 Q14,9.199 13.924,9.383 Q13.848,9.566 13.707,9.707 Q13.566,9.848 13.383,9.924 Q13.199,10 13,10 Z M13,6 L9,6 Q8.801,6 8.617,5.924 Q8.434,5.848 8.293,5.707 Q8.152,5.566 8.076,5.383 Q8,5.199 8,5 Q8,4.801 8.076,4.617 Q8.152,4.434 8.293,4.293 Q8.434,4.152 8.617,4.076 Q8.801,4 9,4 L13,4 Q13.199,4 13.383,4.076 Q13.566,4.152 13.707,4.293 Q13.848,4.434 13.924,4.617 Q14,4.801 14,5 Q14,5.199 13.924,5.383 Q13.848,5.566 13.707,5.707 Q13.566,5.848 13.383,5.924 Q13.199,6 13,6 Z"/>
</svg>

