<svg xmlns="http://www.w3.org/2000/svg" width="14" height="10" viewBox="0 0 14 10">
  <defs/>
  <path fill="#212135" d="M1,0 L13,0 Q13.199,0 13.383,0.076 Q13.566,0.152 13.707,0.293 Q13.848,0.434 13.924,0.617 Q14,0.801 14,1 Q14,1.199 13.924,1.383 Q13.848,1.566 13.707,1.707 Q13.566,1.848 13.383,1.924 Q13.199,2 13,2 L1,2 Q0.801,2 0.617,1.924 Q0.434,1.848 0.293,1.707 Q0.152,1.566 0.076,1.383 Q0,1.199 0,1 Q0,0.801 0.076,0.617 Q0.152,0.434 0.293,0.293 Q0.434,0.152 0.617,0.076 Q0.801,0 1,0 Z M3,8 L11,8 Q11.199,8 11.383,8.076 Q11.566,8.152 11.707,8.293 Q11.848,8.434 11.924,8.617 Q12,8.801 12,9 Q12,9.199 11.924,9.383 Q11.848,9.566 11.707,9.707 Q11.566,9.848 11.383,9.924 Q11.199,10 11,10 L3,10 Q2.801,10 2.617,9.924 Q2.434,9.848 2.293,9.707 Q2.152,9.566 2.076,9.383 Q2,9.199 2,9 Q2,8.801 2.076,8.617 Q2.152,8.434 2.293,8.293 Q2.434,8.152 2.617,8.076 Q2.801,8 3,8 Z M5,4 L9,4 Q9.199,4 9.383,4.076 Q9.566,4.152 9.707,4.293 Q9.848,4.434 9.924,4.617 Q10,4.801 10,5 Q10,5.199 9.924,5.383 Q9.848,5.566 9.707,5.707 Q9.566,5.848 9.383,5.924 Q9.199,6 9,6 L5,6 Q4.801,6 4.617,5.924 Q4.434,5.848 4.293,5.707 Q4.152,5.566 4.076,5.383 Q4,5.199 4,5 Q4,4.801 4.076,4.617 Q4.152,4.434 4.293,4.293 Q4.434,4.152 4.617,4.076 Q4.801,4 5,4 Z"/>
</svg>

