<svg xmlns="http://www.w3.org/2000/svg" width="24" height="24" viewBox="0 0 24 24">
  <defs/>
  <path fill="#212135" d="M0,12 Q0,8.14 0.485,5.956 Q1.015,3.574 2.294,2.294 Q3.574,1.015 5.956,0.485 Q8.14,0 12,0 Q15.86,0 18.044,0.485 Q20.426,1.015 21.706,2.294 Q22.985,3.574 23.515,5.956 Q24,8.14 24,12 Q24,15.86 23.515,18.044 Q22.985,20.427 21.706,21.706 Q20.427,22.985 18.044,23.515 Q15.86,24 12,24 Q8.14,24 5.956,23.515 Q3.574,22.985 2.294,21.706 Q1.015,20.426 0.485,18.044 Q0,15.86 0,12 Z M2,12 Q2,15.64 2.438,17.61 Q2.841,19.424 3.708,20.292 Q4.576,21.159 6.39,21.562 Q8.36,22 12,22 Q15.64,22 17.61,21.562 Q19.424,21.159 20.292,20.292 Q21.159,19.424 21.562,17.61 Q22,15.64 22,12 Q22,8.36 21.562,6.39 Q21.159,4.576 20.292,3.708 Q19.424,2.841 17.61,2.438 Q15.64,2 12,2 Q8.359,2 6.39,2.438 Q4.576,2.841 3.708,3.708 Q2.841,4.576 2.438,6.39 Q2,8.359 2,12 Z"/>
  <path fill="#212135" d="M8.111,6.18 Q9.771,5.07 11.767,5.004 Q12.28,4.987 12.645,5.348 Q13,5.7 13,6.2 L13,11 L17.8,11 Q18.301,11 18.652,11.355 Q19.013,11.72 18.996,12.233 Q18.929,14.229 17.82,15.889 Q16.64,17.655 14.679,18.467 Q12.717,19.28 10.634,18.865 Q8.552,18.451 7.05,16.95 Q5.549,15.448 5.135,13.366 Q4.72,11.283 5.533,9.321 Q6.345,7.359 8.111,6.18 Z M9.222,7.843 Q7.961,8.685 7.381,10.087 Q6.8,11.488 7.096,12.975 Q7.392,14.463 8.464,15.536 Q9.537,16.608 11.024,16.904 Q12.512,17.2 13.913,16.619 Q15.315,16.039 16.157,14.778 Q16.712,13.947 16.902,13 L12.2,13 Q11,13 11,11.8 L11,7.098 Q10.052,7.288 9.222,7.843 Z"/>
</svg>

