<svg xmlns="http://www.w3.org/2000/svg" width="24" height="24" viewBox="0 0 24 24">
  <defs/>
  <path fill="#212135" d="M7.096,12.976 C6.903,12.005 7.002,11 7.381,10.087 C7.759,9.173 8.4,8.392 9.222,7.843 C9.764,7.481 10.368,7.23 11,7.101 L11,11.8 C11,12.463 11.537,13 12.2,13 L16.899,13 C16.77,13.632 16.519,14.236 16.157,14.778 C15.608,15.6 14.827,16.241 13.913,16.619 C13,16.998 11.995,17.097 11.024,16.904 C10.055,16.711 9.164,16.235 8.464,15.536 C7.765,14.836 7.289,13.945 7.096,12.976 Z"/>
  <path fill="#212135" d="M12,24 C2.118,24 0,21.882 0,12 C0,2.118 2.118,0 12,0 C21.882,0 24,2.118 24,12 C24,21.882 21.882,24 12,24 Z M5.533,9.321 C5.003,10.6 4.864,12.008 5.135,13.366 C5.405,14.724 6.071,15.971 7.05,16.95 C8.029,17.929 9.276,18.595 10.634,18.865 C11.992,19.136 13.4,18.997 14.679,18.467 C15.958,17.937 17.051,17.04 17.82,15.889 C18.546,14.803 18.953,13.536 18.996,12.233 C19.019,11.536 18.454,11 17.8,11 L13,11 L13,6.2 C13,5.546 12.464,4.981 11.767,5.004 C10.464,5.047 9.197,5.454 8.111,6.18 C6.96,6.949 6.063,8.042 5.533,9.321 Z"/>
</svg>

