<svg xmlns="http://www.w3.org/2000/svg" width="16" height="24" viewBox="0 0 16 24">
  <defs/>
  <path fill="#212135" d="M5.828,1.846 C5.563,1.846 5.309,1.943 5.121,2.117 L4.707,2.499 C4.317,2.859 3.683,2.859 3.293,2.499 C2.902,2.138 2.902,1.554 3.293,1.193 L3.707,0.811 C4.27,0.292 5.033,0 5.828,0 L11,0 C11.552,0 12,0.413 12,0.923 C12,1.433 11.552,1.846 11,1.846 L9,1.846 L9,3.692 C9,3.692 9,3.692 9,3.692 L10,3.692 C11.094,3.692 11.162,4.329 11.235,5.007 C11.318,5.774 11.406,6.593 13,6.593 C16,6.593 16,10.464 16,15.159 C16,22.439 14.588,24 8,24 C1.412,24 0,22.526 0,15.159 C0,10.37 0,6.593 3,6.593 C4.594,6.593 4.682,5.774 4.765,5.007 C4.838,4.329 4.907,3.692 6,3.692 L7,3.692 C7,3.692 7,3.692 7,3.692 L7,1.846 L5.828,1.846 Z"/>
</svg>

