<svg xmlns="http://www.w3.org/2000/svg" width="16" height="24" viewBox="0 0 16 24">
  <defs/>
  <path fill="#212135" d="M10,4 Q10.188,4 10.343,4.025 Q10.642,4.073 10.865,4.279 Q11.088,4.485 11.158,4.78 Q11.172,4.838 11.183,4.903 Q11.205,5.025 11.231,5.258 L11.231,5.262 L11.25,5.429 Q11.33,6.116 11.594,6.411 Q11.993,6.857 13,6.857 Q14.079,6.857 14.734,7.525 Q15.328,8.13 15.625,9.341 Q16,10.872 16,15.292 Q16,18.093 15.676,19.678 Q15.323,21.407 14.47,22.335 Q12.941,24 8,24 Q3.042,24 1.529,22.367 Q0.676,21.446 0.324,19.714 Q0,18.124 0,15.292 L0,15.292 Q0,10.825 0.375,9.306 Q0.671,8.107 1.266,7.512 Q1.92,6.857 3,6.857 Q4.007,6.857 4.406,6.411 Q4.67,6.116 4.749,5.433 L4.768,5.265 L4.768,5.264 Q4.794,5.027 4.816,4.904 Q4.828,4.839 4.842,4.781 Q4.912,4.485 5.135,4.279 Q5.357,4.073 5.657,4.025 Q5.812,4 6,4 Z M9.314,6 L6.686,6 Q6.491,7.08 5.897,7.744 Q4.901,8.857 3,8.857 Q2.749,8.857 2.681,8.925 Q2.479,9.127 2.317,9.785 Q2,11.068 2,15.292 L2,15.292 Q2,17.923 2.283,19.316 Q2.524,20.498 2.997,21.008 Q3.916,22 8,22 Q12.062,22 12.998,20.982 Q13.475,20.463 13.717,19.278 Q14,17.891 14,15.292 Q14,11.113 13.682,9.817 Q13.516,9.139 13.307,8.926 Q13.24,8.857 13,8.857 Q11.099,8.857 10.103,7.744 Q9.508,7.079 9.314,6 Z"/>
  <path fill="#212135" d="M3.106,1.553 Q3.882,0 6,0 L6.775,0 L8,0 L11,0 Q11.414,0 11.707,0.293 Q12,0.586 12,1 Q12,1.414 11.707,1.707 Q11.414,2 11,2 L9,2 L9,4 Q9,4.414 8.707,4.707 Q8.414,5 8,5 Q7.586,5 7.293,4.707 Q7,4.414 7,4 L7,2 L6.775,2 L6,2 Q5.118,2 4.894,2.447 Q4.709,2.818 4.316,2.949 Q3.923,3.08 3.553,2.894 Q3.182,2.709 3.051,2.316 Q2.92,1.923 3.106,1.553 Z"/>
</svg>

