<svg xmlns="http://www.w3.org/2000/svg" width="18" height="25" viewBox="0 0 18 25">
  <defs/>
  <path fill="#212135" d="M7.821,9.042 C7.276,8.897 6.714,9.221 6.574,9.763 C4.699,16.997 5.233,18.837 9.123,19.87 C13.183,20.949 14.519,19.454 16.695,11.4 C18.871,3.346 18.467,1.388 14.407,0.309 C11.999,-0.331 10.549,-0.065 9.314,1.937 C8.984,2.472 9.308,3.147 9.919,3.31 L9.952,3.318 C10.421,3.443 10.9,3.215 11.171,2.816 C11.266,2.675 11.356,2.559 11.442,2.463 C11.711,2.162 11.911,2.08 12.135,2.045 C12.449,1.996 12.968,2.023 13.879,2.265 C14.79,2.508 15.253,2.742 15.499,2.94 C15.676,3.081 15.808,3.251 15.889,3.645 C15.987,4.118 15.998,4.877 15.808,6.116 C15.621,7.337 15.261,8.884 14.723,10.876 C14.185,12.868 13.716,14.386 13.263,15.536 C12.803,16.704 12.411,17.355 12.088,17.717 C11.819,18.018 11.619,18.099 11.395,18.134 C11.081,18.183 10.562,18.156 9.651,17.914 C8.74,17.672 8.277,17.438 8.03,17.24 C7.853,17.098 7.722,16.929 7.64,16.535 C7.543,16.062 7.531,15.303 7.722,14.063 C7.877,13.05 8.151,11.813 8.547,10.283 C8.687,9.742 8.365,9.186 7.821,9.042 Z"/>
  <path fill="#212135" d="M4.121,22.735 C5.032,22.977 5.551,23.004 5.865,22.955 C6.089,22.919 6.289,22.838 6.558,22.537 C6.644,22.441 6.734,22.325 6.83,22.184 C7.1,21.785 7.579,21.557 8.048,21.681 L8.081,21.69 C8.692,21.853 9.016,22.528 8.686,23.063 C7.451,25.065 6.001,25.331 3.593,24.691 C-0.467,23.612 -0.871,21.654 1.305,13.6 C3.481,5.546 4.817,4.051 8.877,5.13 C12.767,6.163 13.301,8.003 11.426,15.237 C11.286,15.779 10.724,16.103 10.179,15.958 C9.635,15.814 9.313,15.258 9.453,14.717 C9.849,13.187 10.123,11.95 10.278,10.937 C10.469,9.697 10.457,8.938 10.36,8.465 C10.278,8.071 10.146,7.902 9.97,7.76 C9.723,7.562 9.26,7.328 8.349,7.086 C7.438,6.844 6.919,6.817 6.605,6.866 C6.381,6.901 6.181,6.982 5.912,7.283 C5.589,7.645 5.197,8.296 4.737,9.464 C4.284,10.614 3.815,12.132 3.277,14.124 C2.739,16.116 2.379,17.663 2.192,18.884 C2.002,20.123 2.013,20.882 2.111,21.355 C2.192,21.749 2.324,21.919 2.5,22.061 C2.747,22.259 3.21,22.492 4.121,22.735 Z"/>
</svg>

