<svg xmlns="http://www.w3.org/2000/svg" width="17" height="24" viewBox="0 0 17 24">
  <defs/>
  <path fill="#212135" d="M16.09,2.256 Q16.968,5.325 15.085,12.354 Q13.247,19.214 10.916,21.637 Q8.577,24.069 4.959,23.1 Q1.341,22.13 0.531,18.855 Q-0.276,15.59 1.562,8.731 Q3.332,2.125 7.071,0.834 Q10.531,-0.362 12.226,2.574 Q13.865,5.414 11.434,12.456 Q9.662,18.666 6.382,17.787 Q3.331,16.969 4.599,11.648 Q5.142,9.366 6.128,7.196 L6.128,7.196 Q6.3,6.819 6.688,6.674 Q7.076,6.528 7.453,6.7 Q7.83,6.871 7.975,7.259 Q8.12,7.647 7.949,8.024 L7.949,8.024 Q7.043,10.018 6.544,12.111 Q5.727,15.541 6.9,15.855 Q8.283,16.226 9.518,11.882 Q9.525,11.855 9.534,11.829 Q11.68,5.628 10.494,3.574 Q9.624,2.068 7.724,2.724 Q4.989,3.669 3.494,9.249 Q1.789,15.61 2.473,18.375 Q2.999,20.504 5.477,21.168 Q7.954,21.832 9.475,20.251 Q11.449,18.198 13.153,11.837 Q14.893,5.343 14.168,2.806 Q14.054,2.408 14.255,2.046 Q14.456,1.683 14.854,1.57 Q15.252,1.456 15.614,1.657 Q15.977,1.858 16.09,2.256 Z"/>
</svg>

