<svg xmlns="http://www.w3.org/2000/svg" width="24" height="24" viewBox="0 0 24 24">
  <defs/>
  <path fill="#212135" d="M4.976,1.888 C7.171,-0.629 16.829,-0.629 19.024,1.888 C19.452,2.379 19.714,3.291 19.857,4.442 C23.122,5.038 24,6.348 24,9 C24,11.84 22.992,13.141 19.124,13.675 C17.995,16 15.679,17.615 13,17.94 L13,22 L15,22 C15.552,22 16,22.448 16,23 C16,23.552 15.552,24 15,24 L9,24 C8.448,24 8,23.552 8,23 C8,22.448 8.448,22 9,22 L11,22 L11,17.94 C8.321,17.615 6.005,16 4.876,13.675 C1.008,13.141 0,11.84 0,9 C0,6.348 0.878,5.038 4.143,4.442 C4.286,3.291 4.548,2.379 4.976,1.888 Z M19.781,11.539 L19.781,11.535 C20.265,11.435 20.642,11.321 20.937,11.198 C21.486,10.969 21.658,10.75 21.75,10.577 C21.878,10.337 22,9.894 22,9 C22,8.106 21.878,7.663 21.75,7.423 C21.658,7.25 21.486,7.031 20.937,6.802 C20.687,6.698 20.377,6.6 19.993,6.511 C20.023,7.934 19.952,9.509 19.837,11.025 C19.824,11.197 19.805,11.367 19.781,11.535 Z M4.007,6.511 C3.623,6.6 3.313,6.698 3.063,6.802 C2.514,7.031 2.342,7.25 2.25,7.423 C2.122,7.663 2,8.106 2,9 C2,9.894 2.122,10.337 2.25,10.577 C2.342,10.75 2.514,10.969 3.063,11.198 C3.358,11.321 3.735,11.435 4.219,11.535 C4.195,11.368 4.176,11.197 4.163,11.025 C4.048,9.509 3.977,7.934 4.007,6.511 Z"/>
</svg>

