<svg xmlns="http://www.w3.org/2000/svg" width="24" height="24" viewBox="0 0 24 24">
  <defs/>
  <path fill="#212135" d="M4.976,1.993 C7.171,-0.664 16.829,-0.664 19.024,1.993 C19.422,2.475 19.676,3.341 19.825,4.436 C23.116,5.03 24,6.34 24,9 C24,11.743 23.06,13.051 19.509,13.618 C18.538,16.806 15.485,19 12,19 C8.515,19 5.462,16.806 4.491,13.618 C0.94,13.051 0,11.743 0,9 C0,6.34 0.884,5.03 4.175,4.436 C4.324,3.341 4.578,2.475 4.976,1.993 Z M6.518,3.267 C6.52,3.263 6.52,3.265 6.516,3.271 C6.496,3.308 6.388,3.507 6.279,4.005 C6.16,4.544 6.077,5.253 6.034,6.106 C5.949,7.81 6.032,9.873 6.185,11.869 C6.407,14.766 8.913,17 12,17 C15.087,17 17.593,14.766 17.815,11.869 C17.968,9.873 18.051,7.81 17.966,6.107 C17.923,5.253 17.84,4.544 17.722,4.005 C17.612,3.507 17.503,3.307 17.484,3.271 L17.483,3.27 C17.48,3.264 17.48,3.263 17.482,3.267 C17.337,3.091 16.821,2.73 15.698,2.431 C14.651,2.153 13.347,2 12,2 C10.653,2 9.349,2.153 8.302,2.431 C7.179,2.73 6.663,3.091 6.518,3.267 Z M19.846,11.522 C20.299,11.424 20.655,11.315 20.937,11.198 C21.486,10.969 21.658,10.75 21.75,10.577 C21.878,10.337 22,9.894 22,9 C22,8.106 21.878,7.663 21.75,7.423 C21.658,7.25 21.486,7.031 20.937,6.802 C20.684,6.697 20.372,6.598 19.984,6.509 C20.033,8.068 19.965,9.827 19.846,11.522 Z M4.016,6.509 C3.628,6.598 3.316,6.697 3.063,6.802 C2.514,7.031 2.342,7.25 2.25,7.423 C2.122,7.663 2,8.106 2,9 C2,9.894 2.122,10.337 2.25,10.577 C2.342,10.75 2.514,10.969 3.063,11.198 C3.345,11.315 3.702,11.424 4.154,11.522 C4.035,9.827 3.967,8.068 4.016,6.509 Z"/>
  <path fill="#212135" d="M13,19 L13,22 L15,22 Q15.414,22 15.707,22.293 Q16,22.586 16,23 Q16,23.414 15.707,23.707 Q15.414,24 15,24 L9,24 Q8.586,24 8.293,23.707 Q8,23.414 8,23 Q8,22.586 8.293,22.293 Q8.586,22 9,22 L11,22 L11,19 Q11,18.586 11.293,18.293 Q11.586,18 12,18 Q12.414,18 12.707,18.293 Q13,18.586 13,19 Z"/>
</svg>

