<svg xmlns="http://www.w3.org/2000/svg" width="24" height="24" viewBox="0 0 24 24">
  <defs/>
  <path fill="#212135" d="M16.102,1.503 C17.17,2.452 17.879,3.819 17.986,5.54 C21.491,6.483 22.081,8.809 23.305,13.628 C23.377,13.91 23.451,14.201 23.527,14.5 C25.449,23 21.493,24 12,24 C2.507,24 -1.449,23 0.473,14.5 C0.549,14.201 0.623,13.91 0.695,13.628 C1.918,8.809 2.509,6.483 6.014,5.54 C6.121,3.819 6.83,2.452 7.898,1.503 C9.041,0.487 10.537,0 12,0 C13.463,0 14.959,0.487 16.102,1.503 Z M7,9 C6.448,9 6,9.448 6,10 C6,10.552 6.448,11 7,11 L17,11 C17.552,11 18,10.552 18,10 C18,9.448 17.552,9 17,9 Z M12,5 C13.543,5 14.839,5.053 15.935,5.174 C15.775,4.21 15.336,3.498 14.773,2.997 C14.041,2.347 13.037,2 12,2 C10.963,2 9.959,2.347 9.227,2.997 C8.664,3.498 8.225,4.21 8.065,5.174 C9.161,5.053 10.457,5 12,5 Z"/>
</svg>

