<svg xmlns="http://www.w3.org/2000/svg" width="24" height="24" viewBox="0 0 24 24">
  <defs/>
  <path fill="#212135" d="M16.004,5.593 Q15.667,2 12,2 Q8.333,2 7.996,5.593 Q7.957,6.006 7.638,6.27 Q7.319,6.534 6.907,6.496 Q6.494,6.457 6.23,6.138 Q5.966,5.819 6.004,5.407 Q6.511,0 12,0 Q17.489,0 17.996,5.407 Q18.034,5.819 17.77,6.138 Q17.506,6.457 17.093,6.496 Q16.681,6.534 16.362,6.27 Q16.043,6.006 16.004,5.593 Z"/>
  <path fill="#212135" d="M0.697,13.617 L0.698,13.617 Q1.39,10.892 1.749,9.852 Q2.424,7.899 3.397,6.938 Q5.358,5 12,5 Q18.642,5 20.603,6.938 Q21.576,7.899 22.251,9.852 Q22.61,10.892 23.302,13.617 L23.302,13.617 L23.524,14.487 Q23.528,14.501 23.531,14.514 Q24.24,17.662 23.872,19.57 Q23.51,21.443 22.044,22.438 Q20.687,23.358 18.076,23.711 Q15.938,24 12,24 Q8.062,24 5.924,23.711 Q3.313,23.358 1.956,22.438 Q0.49,21.443 0.128,19.57 Q-0.24,17.662 0.469,14.514 Q0.472,14.501 0.476,14.487 Z M2.636,14.11 L2.417,14.968 Q1.803,17.697 2.092,19.191 Q2.297,20.252 3.079,20.782 Q4.047,21.439 6.192,21.729 Q8.197,22 12,22 Q15.803,22 17.808,21.729 Q19.953,21.439 20.922,20.782 Q21.703,20.252 21.908,19.191 Q22.197,17.697 21.583,14.968 L21.364,14.111 L21.364,14.109 Q20.692,11.466 20.36,10.505 Q19.838,8.993 19.198,8.36 Q17.821,7 12,7 Q6.179,7 4.803,8.36 Q4.162,8.993 3.64,10.505 Q3.308,11.466 2.636,14.11 Z"/>
  <path fill="#212135" d="M7,9 L17,9 Q17.414,9 17.707,9.293 Q18,9.586 18,10 Q18,10.414 17.707,10.707 Q17.414,11 17,11 L7,11 Q6.586,11 6.293,10.707 Q6,10.414 6,10 Q6,9.586 6.293,9.293 Q6.586,9 7,9 Z"/>
</svg>

