<svg xmlns="http://www.w3.org/2000/svg" width="24" height="24" viewBox="0 0 24 24">
  <defs/>
  <path fill="#212135" d="M17.659,4.669 L16.726,5.028 C16.871,5.405 17.229,5.658 17.633,5.668 L17.659,4.669 Z M19.99,14.205 L19.567,13.299 C19.21,13.465 18.984,13.826 18.99,14.221 L19.99,14.205 Z M4.01,14.205 L5.01,14.221 C5.016,13.826 4.79,13.465 4.433,13.299 L4.01,14.205 Z M6.341,4.669 L6.367,5.668 C6.771,5.658 7.129,5.405 7.274,5.028 L6.341,4.669 Z M18.593,4.309 C17.61,1.759 14.997,0 12,0 L12,2 C14.23,2 16.062,3.304 16.726,5.028 L18.593,4.309 Z M24,9.708 C24,6.352 21.109,3.758 17.686,3.669 L17.633,5.668 C20.137,5.734 22,7.593 22,9.708 L24,9.708 Z M20.413,15.111 C22.504,14.136 24,12.109 24,9.708 L22,9.708 C22,11.233 21.049,12.608 19.567,13.299 L20.413,15.111 Z M21,15.678 C21,15.147 20.997,14.651 20.99,14.189 L18.99,14.221 C18.997,14.669 19,15.153 19,15.678 L21,15.678 Z M19.803,22.698 C20.497,21.984 20.758,21.014 20.88,19.93 C21.002,18.843 21,17.43 21,15.678 L19,15.678 C19,17.479 18.998,18.757 18.892,19.707 C18.785,20.662 18.589,21.078 18.369,21.305 L19.803,22.698 Z M12,24 C14.034,24 15.63,24.002 16.833,23.869 C18.026,23.738 19.067,23.457 19.803,22.698 L18.369,21.305 C18.136,21.544 17.693,21.763 16.614,21.881 C15.547,21.998 14.084,22 12,22 L12,24 Z M4.197,22.698 C4.934,23.457 5.974,23.738 7.167,23.869 C8.37,24.002 9.966,24 12,24 L12,22 C9.916,22 8.453,21.998 7.386,21.881 C6.307,21.763 5.864,21.544 5.632,21.305 L4.197,22.698 Z M3,15.678 C3,17.43 2.998,18.843 3.12,19.93 C3.242,21.014 3.503,21.984 4.197,22.698 L5.632,21.305 C5.411,21.078 5.215,20.662 5.108,19.707 C5.002,18.757 5,17.479 5,15.678 L3,15.678 Z M3.01,14.189 C3.003,14.651 3,15.147 3,15.678 L5,15.678 C5,15.153 5.003,14.669 5.01,14.221 L3.01,14.189 Z M4.433,13.299 C2.951,12.608 2,11.233 2,9.708 L0,9.708 C0,12.109 1.496,14.136 3.587,15.111 L4.433,13.299 Z M2,9.708 C2,7.593 3.863,5.734 6.367,5.668 L6.315,3.669 C2.891,3.758 0,6.352 0,9.708 L2,9.708 Z M12,0 C9.003,0 6.39,1.759 5.407,4.309 L7.274,5.028 C7.938,3.304 9.77,2 12,2 L12,0 Z"/>
  <path fill="#212135" d="M19.846,19 L3.09,19 L3.09,17 L20.846,17 L20.846,19 Z"/>
</svg>

