<svg xmlns="http://www.w3.org/2000/svg" width="24" height="24" viewBox="0 0 24 24">
  <defs/>
  <path fill="#212135" d="M18.641,4.031 C18.359,4.004 18.111,3.828 17.988,3.574 C16.972,1.469 14.673,0 12,0 C9.327,0 7.028,1.469 6.012,3.574 C5.889,3.828 5.641,4.004 5.359,4.031 C2.347,4.324 0,6.661 0,9.5 C0,11.49 1.153,13.233 2.88,14.199 C3.121,14.334 3.281,14.583 3.278,14.859 C3.274,15.224 3.273,15.608 3.273,16.012 C3.273,16.11 3.273,16.206 3.273,16.302 C3.273,16.688 3.586,17 3.972,17 L20.028,17 C20.414,17 20.727,16.688 20.727,16.302 C20.727,16.206 20.727,16.11 20.727,16.012 C20.727,15.608 20.726,15.224 20.722,14.859 C20.719,14.583 20.879,14.334 21.12,14.199 C22.847,13.233 24,11.49 24,9.5 C24,6.661 21.653,4.324 18.641,4.031 Z"/>
  <path fill="#212135" d="M20.669,19.722 C20.692,19.327 20.374,19 19.979,19 L4.021,19 C3.626,19 3.308,19.327 3.331,19.722 C3.422,21.288 3.659,22.281 4.27,22.91 C5.328,24 7.508,24 12,24 C16.492,24 18.672,24 19.73,22.91 C20.341,22.281 20.578,21.288 20.669,19.722 Z"/>
</svg>

