<svg xmlns="http://www.w3.org/2000/svg" width="22" height="22" viewBox="0 0 22 22">
  <defs/>
  <path fill="#212135" d="M11.706,14.532 C11.316,14.922 10.684,14.922 10.294,14.532 C9.904,14.142 9.904,13.51 10.294,13.12 C10.684,12.73 11.316,12.73 11.706,13.12 C12.096,13.51 12.096,14.142 11.706,14.532 Z M8.881,11.708 C8.491,12.098 7.859,12.098 7.469,11.708 C7.079,11.318 7.079,10.685 7.469,10.295 C7.859,9.905 8.491,9.905 8.881,10.295 C9.271,10.685 9.271,11.318 8.881,11.708 Z M11.706,8.883 C11.316,9.273 10.684,9.273 10.294,8.883 C9.904,8.493 9.904,7.861 10.294,7.471 C10.684,7.081 11.316,7.081 11.706,7.471 C12.096,7.861 12.096,8.493 11.706,8.883 Z M14.531,10.295 C14.921,10.685 14.921,11.318 14.531,11.708 C14.141,12.098 13.508,12.098 13.118,11.708 C12.728,11.318 12.728,10.685 13.118,10.295 C13.508,9.905 14.141,9.905 14.531,10.295 Z"/>
  <path fill="#212135" d="M10.497,19.99 Q8.763,18.649 6.057,15.943 Q3.354,13.24 2.013,11.507 Q-0.151,8.709 0.013,6.732 Q0.166,4.885 2.526,2.526 Q4.885,0.166 6.732,0.013 Q8.709,-0.151 11.507,2.013 Q13.24,3.354 15.943,6.057 Q18.653,8.766 19.994,10.502 Q22.152,13.296 21.987,15.272 Q21.832,17.116 19.474,19.474 Q17.115,21.833 15.27,21.987 Q13.293,22.151 10.497,19.99 Z M11.72,18.407 Q13.901,20.094 15.104,19.994 Q16.219,19.901 18.06,18.06 Q19.9,16.22 19.994,15.105 Q20.094,13.903 18.411,11.725 Q17.148,10.09 14.529,7.471 Q11.916,4.858 10.284,3.595 Q8.1,1.906 6.897,2.006 Q5.781,2.099 3.94,3.94 Q2.099,5.781 2.006,6.897 Q1.906,8.1 3.595,10.284 Q4.858,11.916 7.471,14.529 Q10.087,17.145 11.72,18.407 Z"/>
</svg>

