<svg xmlns="http://www.w3.org/2000/svg" width="22" height="22" viewBox="0 0 22 22">
  <defs/>
  <path fill="#212135" d="M11.73,20.157 C11.509,20.378 11.543,20.747 11.808,20.913 C14.836,22.805 16.783,22.166 19.474,19.474 C22.166,16.783 22.805,14.836 20.913,11.809 C20.747,11.543 20.378,11.509 20.157,11.73 L11.73,20.157 Z"/>
  <path fill="#212135" d="M10.032,19.03 C9.849,19.213 9.556,19.226 9.36,19.057 C8.38,18.212 7.29,17.177 6.057,15.943 C4.824,14.71 3.789,13.621 2.944,12.641 C2.774,12.445 2.788,12.152 2.971,11.969 L11.969,2.971 C12.152,2.788 12.445,2.774 12.641,2.944 C13.621,3.789 14.71,4.824 15.943,6.057 C17.177,7.29 18.212,8.38 19.057,9.36 C19.226,9.556 19.213,9.849 19.03,10.032 Z M11.706,8.883 C12.096,8.493 12.096,7.861 11.706,7.471 C11.316,7.081 10.684,7.081 10.294,7.471 C9.904,7.861 9.904,8.493 10.294,8.883 C10.684,9.273 11.316,9.273 11.706,8.883 Z M8.881,10.295 C8.491,9.905 7.859,9.905 7.469,10.295 C7.079,10.685 7.079,11.318 7.469,11.708 C7.859,12.098 8.491,12.098 8.881,11.708 C9.271,11.318 9.271,10.685 8.881,10.295 Z M11.706,14.532 C12.096,14.142 12.096,13.51 11.706,13.12 C11.316,12.73 10.684,12.73 10.294,13.12 C9.904,13.51 9.904,14.142 10.294,14.532 C10.684,14.922 11.316,14.922 11.706,14.532 Z M14.531,10.295 C14.141,9.905 13.508,9.905 13.118,10.295 C12.728,10.685 12.728,11.318 13.118,11.708 C13.508,12.098 14.141,12.098 14.531,11.708 C14.921,11.318 14.921,10.685 14.531,10.295 Z"/>
  <path fill="#212135" d="M2.526,2.526 C5.218,-0.166 7.165,-0.805 10.193,1.088 C10.458,1.254 10.492,1.623 10.271,1.844 L1.844,10.271 C1.623,10.492 1.254,10.458 1.088,10.193 C-0.805,7.165 -0.166,5.218 2.526,2.526 Z"/>
</svg>

