<svg xmlns="http://www.w3.org/2000/svg" width="24" height="24" viewBox="0 0 24 24">
  <defs/>
  <path fill="#212135" d="M2.566,21.315 C4.437,23.234 7.452,24 12,24 C16.547,24 19.563,23.234 21.434,21.315 C19.803,20.55 18.461,19.22 17.52,17.546 L15.949,17.966 C15.416,18.109 14.867,17.793 14.725,17.259 C14.582,16.726 14.898,16.177 15.432,16.035 L16.691,15.697 C16.396,14.846 16.191,13.94 16.084,13 L14.947,13 C14.395,13 13.947,12.552 13.947,12 C13.947,11.448 14.395,11 14.947,11 L16.009,11 C16.045,10.031 16.186,9.09 16.42,8.197 L15.433,7.933 C14.9,7.79 14.583,7.242 14.726,6.708 C14.869,6.175 15.417,5.858 15.951,6.001 L17.088,6.306 C17.91,4.495 19.162,3.002 20.732,2.059 C18.838,0.598 16.017,0 12,0 C7.983,0 5.162,0.598 3.268,2.059 C4.821,2.992 6.064,4.463 6.885,6.248 L7.875,5.983 C8.408,5.84 8.957,6.156 9.1,6.69 C9.243,7.223 8.926,7.772 8.392,7.915 L7.564,8.136 C7.808,9.047 7.954,10.009 7.991,11 L8.947,11 C9.499,11 9.947,11.448 9.947,12 C9.947,12.552 9.499,13 8.947,13 L7.916,13 C7.807,13.962 7.594,14.888 7.288,15.757 L8.379,16.049 C8.913,16.192 9.23,16.74 9.087,17.274 C8.944,17.807 8.395,18.124 7.862,17.981 L6.448,17.602 C5.508,19.25 4.179,20.559 2.566,21.315 Z"/>
  <path fill="#212135" d="M1.367,19.646 C2.567,19.171 3.632,18.275 4.437,17.063 L3.994,16.944 C3.46,16.802 3.143,16.253 3.286,15.72 C3.429,15.186 3.978,14.87 4.511,15.013 L5.358,15.239 C5.613,14.548 5.8,13.798 5.904,13 L4.947,13 C4.394,13 3.947,12.552 3.947,12 C3.947,11.448 4.394,11 4.947,11 L5.99,11 C5.955,10.171 5.834,9.385 5.64,8.652 L4.538,8.947 C4.004,9.09 3.456,8.774 3.313,8.24 C3.17,7.707 3.487,7.158 4.02,7.016 L4.926,6.773 C4.181,5.315 3.1,4.202 1.841,3.567 C0.538,5.454 0,8.189 0,12 C0,15.311 0.406,17.81 1.367,19.646 Z"/>
  <path fill="#212135" d="M24,12 C24,15.311 23.594,17.81 22.633,19.646 C21.415,19.163 20.336,18.248 19.526,17.008 L19.808,16.933 C20.342,16.79 20.658,16.241 20.515,15.708 C20.372,15.174 19.824,14.858 19.291,15.001 L18.62,15.18 C18.376,14.505 18.197,13.775 18.096,13 L18.947,13 C19.499,13 19.947,12.552 19.947,12 C19.947,11.448 19.499,11 18.947,11 L18.01,11 C18.044,10.194 18.159,9.428 18.344,8.713 L19.297,8.968 C19.831,9.111 20.379,8.795 20.522,8.261 C20.665,7.728 20.348,7.179 19.815,7.036 L19.045,6.83 C19.79,5.345 20.883,4.211 22.159,3.567 C23.462,5.454 24,8.189 24,12 Z"/>
</svg>

