<svg xmlns="http://www.w3.org/2000/svg" width="24" height="24" viewBox="0 0 24 24">
  <defs/>
  <path fill="#212135" d="M3.267,2.775 C2.995,2.658 2.919,2.3 3.15,2.115 C4.822,0.775 7.236,0.134 10.587,0 C10.812,-0.009 10.998,0.172 10.998,0.398 L10.998,10.598 C10.998,10.819 10.819,10.998 10.598,10.998 L9.359,10.998 C9.146,10.998 8.971,10.831 8.952,10.618 C8.635,7.079 6.426,4.141 3.267,2.775 Z"/>
  <path fill="#212135" d="M1.701,4.324 C1.524,4.269 1.334,4.35 1.253,4.516 C0.491,6.062 0.101,8.058 0,10.587 C-0.009,10.812 0.172,10.998 0.398,10.998 L6.549,10.998 C6.78,10.998 6.964,10.802 6.936,10.573 C6.583,7.616 4.552,5.215 1.701,4.324 Z"/>
  <path fill="#212135" d="M6.735,13.477 C6.8,13.233 6.61,13.002 6.358,13.002 L0.398,13.002 C0.172,13.002 -0.009,13.188 0,13.413 C0.082,15.461 0.353,17.159 0.857,18.551 C0.924,18.734 1.117,18.837 1.305,18.788 C4.008,18.095 6.044,16.073 6.735,13.477 Z"/>
  <path fill="#212135" d="M2.542,20.505 C2.276,20.596 2.166,20.921 2.354,21.131 C4.019,22.99 6.661,23.843 10.587,24 C10.812,24.009 10.998,23.828 10.998,23.602 L10.998,13.402 C10.998,13.181 10.819,13.002 10.598,13.002 L9.219,13.002 C9.022,13.002 8.855,13.146 8.818,13.34 C8.173,16.703 5.782,19.398 2.542,20.505 Z"/>
  <path fill="#212135" d="M13.402,13.002 C13.181,13.002 13.002,13.181 13.002,13.402 L13.002,23.602 C13.002,23.828 13.188,24.009 13.413,24 C17.34,23.843 19.981,22.99 21.647,21.131 C21.835,20.921 21.725,20.595 21.458,20.504 C18.218,19.398 15.828,16.703 15.182,13.34 C15.145,13.146 14.978,13.002 14.781,13.002 L13.402,13.002 Z"/>
  <path fill="#212135" d="M23.602,13.002 C23.828,13.002 24.009,13.188 24,13.413 C23.918,15.46 23.647,17.158 23.143,18.55 C23.077,18.733 22.884,18.836 22.695,18.788 C19.993,18.094 17.956,16.073 17.265,13.477 C17.2,13.233 17.39,13.002 17.642,13.002 L23.602,13.002 Z"/>
  <path fill="#212135" d="M24,10.587 C24.009,10.812 23.828,10.998 23.602,10.998 L17.451,10.998 C17.22,10.998 17.036,10.802 17.064,10.573 C17.416,7.615 19.448,5.214 22.298,4.323 C22.475,4.268 22.665,4.349 22.747,4.516 C23.509,6.061 23.899,8.057 24,10.587 Z"/>
  <path fill="#212135" d="M13.002,0.398 C13.002,0.172 13.188,-0.009 13.413,0 C16.763,0.134 19.178,0.775 20.849,2.114 C21.08,2.3 21.004,2.657 20.732,2.775 C17.574,4.141 15.364,7.079 15.048,10.618 C15.029,10.831 14.854,10.998 14.641,10.998 L13.402,10.998 C13.181,10.998 13.002,10.819 13.002,10.598 L13.002,0.398 Z"/>
</svg>

