<svg xmlns="http://www.w3.org/2000/svg" width="24" height="27" viewBox="0 0 24 27">
  <defs/>
  <path fill="#212135" d="M0,15 Q0,11.14 0.485,8.956 Q1.015,6.574 2.294,5.294 Q3.574,4.015 5.956,3.485 Q8.14,3 12,3 Q15.86,3 18.044,3.485 Q20.426,4.015 21.706,5.294 Q22.985,6.574 23.515,8.956 Q24,11.14 24,15 Q24,18.86 23.515,21.044 Q22.985,23.427 21.706,24.706 Q20.427,25.985 18.044,26.515 Q15.86,27 12,27 Q8.14,27 5.956,26.515 Q3.574,25.985 2.294,24.706 Q1.015,23.426 0.485,21.044 Q0,18.86 0,15 Z M2,15 Q2,18.64 2.438,20.61 Q2.841,22.424 3.708,23.292 Q4.576,24.159 6.39,24.562 Q8.36,25 12,25 Q15.64,25 17.61,24.562 Q19.424,24.159 20.292,23.292 Q21.159,22.424 21.562,20.61 Q22,18.64 22,15 Q22,11.36 21.562,9.39 Q21.159,7.576 20.292,6.708 Q19.424,5.841 17.61,5.438 Q15.64,5 12,5 Q8.359,5 6.39,5.438 Q4.576,5.841 3.708,6.708 Q2.841,7.576 2.438,9.39 Q2,11.36 2,15 Z"/>
  <path fill="#212135" d="M13.781,10.625 L11.081,14 L15,14 Q15.414,14 15.707,14.293 Q16,14.586 16,15 Q16,15.351 15.781,15.625 L11.781,20.625 Q11.522,20.948 11.11,20.994 Q10.699,21.04 10.375,20.781 Q10.052,20.522 10.006,20.11 Q9.96,19.699 10.219,19.375 L12.919,16 L9,16 Q8.649,16 8.375,15.781 Q8.052,15.522 8.006,15.11 Q7.96,14.699 8.219,14.375 L12.219,9.375 Q12.478,9.052 12.89,9.006 Q13.301,8.96 13.625,9.219 Q13.948,9.478 13.994,9.89 Q14.04,10.301 13.781,10.625 Z"/>
  <path fill="#212135" d="M10,0 C10.552,0 11,0.448 11,1 L11,2 L13,2 L13,1 C13,0.448 13.448,0 14,0 C14.552,0 15,0.448 15,1 L15,2 L16,2 C17.105,2 18,2.895 18,4 C18,5.105 17.105,6 16,6 L8,6 C6.895,6 6,5.105 6,4 C6,2.895 6.895,2 8,2 L9,2 L9,1 C9,0.448 9.448,0 10,0 Z"/>
</svg>

