<svg xmlns="http://www.w3.org/2000/svg" width="24" height="27" viewBox="0 0 24 27">
  <defs/>
  <path fill="#212135" d="M9,1 C9,0.448 9.448,0 10,0 C10.552,0 11,0.448 11,1 L11,2 L13,2 L13,1 C13,0.448 13.448,0 14,0 C14.552,0 15,0.448 15,1 L15,2 L16,2 C16.882,2 17.632,2.572 17.897,3.365 C18.19,3.413 18.468,3.466 18.732,3.525 C20.353,3.885 21.313,4.413 21.95,5.05 C22.587,5.687 23.115,6.647 23.475,8.268 C23.841,9.916 24,12.09 24,15 C24,17.91 23.841,20.084 23.475,21.732 C23.115,23.353 22.587,24.313 21.95,24.95 C21.313,25.587 20.353,26.115 18.732,26.475 C17.084,26.841 14.91,27 12,27 C9.09,27 6.916,26.841 5.268,26.475 C3.647,26.115 2.687,25.587 2.05,24.95 C1.413,24.313 0.885,23.353 0.525,21.732 C0.159,20.084 0,17.91 0,15 C0,12.09 0.159,9.916 0.525,8.268 C0.885,6.647 1.413,5.687 2.05,5.05 C2.687,4.413 3.647,3.885 5.268,3.525 C5.532,3.466 5.811,3.413 6.103,3.365 C6.369,2.572 7.117,2 8,2 L9,2 Z M14.137,9.75 C14.551,9.232 14.467,8.477 13.95,8.063 C13.432,7.649 12.677,7.733 12.263,8.25 L7.463,14.25 C7.175,14.611 7.119,15.104 7.318,15.52 C7.518,15.936 7.939,16.2 8.4,16.2 L13.103,16.2 L9.863,20.25 C9.449,20.768 9.533,21.523 10.05,21.937 C10.568,22.351 11.323,22.267 11.737,21.75 L16.537,15.75 C16.825,15.389 16.881,14.896 16.682,14.48 C16.482,14.064 16.061,13.8 15.6,13.8 L10.897,13.8 Z"/>
</svg>

