<svg xmlns="http://www.w3.org/2000/svg" width="24" height="24" viewBox="0 0 24 24">
  <defs/>
  <path fill="#212135" d="M10.029,7.851 L12.906,7.851 C13.353,7.851 13.729,8.006 14.035,8.314 C14.341,8.611 14.494,8.983 14.494,9.429 C14.494,9.874 14.341,10.251 14.035,10.56 C13.729,10.857 13.353,11.006 12.906,11.006 L10.029,11.006 L10.029,7.851 Z"/>
  <path fill="#212135" d="M14.476,15.669 C14.159,15.989 13.765,16.149 13.294,16.149 L10.029,16.149 L10.029,12.789 L13.294,12.789 C13.765,12.789 14.159,12.954 14.476,13.286 C14.806,13.606 14.971,14 14.971,14.469 C14.971,14.937 14.806,15.337 14.476,15.669 Z"/>
  <path fill="#212135" d="M12,24 C2.118,24 0,21.882 0,12 C0,2.118 2.118,0 12,0 C21.882,0 24,2.118 24,12 C24,21.882 21.882,24 12,24 Z M16.541,12.909 C16.235,12.429 15.812,12.051 15.271,11.777 C16.106,11.183 16.524,10.366 16.524,9.326 C16.524,8.377 16.171,7.589 15.465,6.96 C14.771,6.32 13.918,6 12.906,6 L9,6 C8.448,6 8,6.448 8,7 L8,17 C8,17.552 8.448,18 9,18 L13.294,18 C14.329,18 15.206,17.674 15.924,17.023 C16.641,16.371 17,15.554 17,14.571 C17,13.943 16.847,13.389 16.541,12.909 Z"/>
</svg>

