<svg xmlns="http://www.w3.org/2000/svg" width="24" height="24" viewBox="0 0 24 24">
  <defs/>
  <path fill="#212135" d="M0,12 Q0,8.14 0.485,5.956 Q1.015,3.574 2.294,2.294 Q3.574,1.015 5.956,0.485 Q8.14,0 12,0 Q15.86,0 18.044,0.485 Q20.426,1.015 21.706,2.294 Q22.985,3.574 23.515,5.956 Q24,8.14 24,12 Q24,15.86 23.515,18.044 Q22.985,20.427 21.706,21.706 Q20.427,22.985 18.044,23.515 Q15.86,24 12,24 Q8.14,24 5.956,23.515 Q3.574,22.985 2.294,21.706 Q1.015,20.426 0.485,18.044 Q0,15.86 0,12 Z M2,12 Q2,15.64 2.438,17.61 Q2.841,19.424 3.708,20.292 Q4.576,21.159 6.39,21.562 Q8.36,22 12,22 Q15.64,22 17.61,21.562 Q19.424,21.159 20.292,20.292 Q21.159,19.424 21.562,17.61 Q22,15.64 22,12 Q22,8.36 21.562,6.39 Q21.159,4.576 20.292,3.708 Q19.424,2.841 17.61,2.438 Q15.64,2 12,2 Q8.359,2 6.39,2.438 Q4.576,2.841 3.708,3.708 Q2.841,4.576 2.438,6.39 Q2,8.359 2,12 Z"/>
  <path fill="#212135" d="M8,12 L8,9.84 L8,8 Q8,6.814 8.454,6.392 Q8.877,6 10.077,6 L11.961,6 L13.846,6 Q15.13,6 16.062,7.009 Q17,8.026 17,9.5 Q17,10.88 16.178,11.858 Q16.979,12.73 17,14.488 Q17.017,15.968 16.066,16.993 Q15.132,18 13.846,18 L10.077,18 Q8,18 8,16 L8,16 L8,14.16 L8,12 Z M13.846,11 Q15,11 15,9.5 Q15,8.808 14.592,8.366 Q14.254,8 13.846,8 L11.961,8 L10.077,8 Q10.037,8 10,8 L10,9.84 L10,11 Z M13.846,13 L10,13 L10,14.16 L10,16 Q10.037,16 10.077,16 L13.846,16 Q14.259,16 14.6,15.632 Q15.008,15.193 15,14.512 Q14.982,13 13.846,13 Z"/>
</svg>

