<svg xmlns="http://www.w3.org/2000/svg" width="20" height="25" viewBox="0 0 20 25">
  <defs/>
  <path fill="#212135" d="M4.795,23.478 Q3.437,24.43 1.943,23.731 Q0.441,23.029 0.312,21.362 Q0,17.341 0,11.9 L0,11.818 Q0,8.4 0.135,7.029 Q0.378,4.544 1.322,3.089 Q3.307,0.028 9.992,0 Q16.684,-0.027 18.681,3.068 Q19.622,4.527 19.866,7.02 Q20,8.396 20,11.819 L20,11.9 Q20,17.341 19.688,21.362 Q19.559,23.029 18.057,23.731 Q16.562,24.43 15.203,23.477 L15.202,23.476 Q14.138,22.748 12.414,21.375 L12.402,21.366 L12.392,21.358 Q11.767,20.86 11.542,20.694 Q10.967,20.267 10.585,20.114 Q10.303,20 10,20 Q9.697,20 9.415,20.114 Q9.362,20.135 9.305,20.162 Q9.503,20.47 9.447,20.841 Q9.386,21.25 9.054,21.497 Q8.721,21.744 8.311,21.683 Q7.914,21.624 7.67,21.309 Q7.636,21.336 7.6,21.364 L7.6,21.365 L7.585,21.376 Q5.862,22.748 4.797,23.477 L4.795,23.478 Z M3.68,21.818 Q4.683,21.131 6.341,19.81 L6.354,19.8 L6.354,19.8 Q7.013,19.276 7.267,19.087 L7.268,19.087 Q8.049,18.508 8.668,18.258 Q9.309,18 10,18 Q10.69,18 11.332,18.258 Q11.952,18.508 12.733,19.087 Q12.985,19.274 13.637,19.793 L13.644,19.799 L13.659,19.811 Q15.327,21.138 16.334,21.827 L16.352,21.84 Q16.763,22.128 17.21,21.92 Q17.655,21.712 17.694,21.207 Q18,17.264 18,11.9 L18,11.819 Q18,8.493 17.875,7.215 Q17.678,5.204 17,4.152 Q15.597,1.977 10,2 Q4.396,2.023 3,4.177 Q2.321,5.224 2.125,7.224 Q2,8.498 2,11.818 L2,11.9 Q2,17.264 2.306,21.207 Q2.345,21.712 2.79,21.92 Q3.237,22.128 3.647,21.84 L3.657,21.833 Q3.668,21.826 3.68,21.818 Z"/>
  <path fill="#212135" d="M12,4.004 L12.015,4.004 Q13.917,4.004 14.956,5.04 Q16,6.081 16,10 Q16,10.414 15.707,10.707 Q15.414,11 15,11 Q14.586,11 14.293,10.707 Q14,10.414 14,10 Q14,6.911 13.544,6.456 Q13.09,6.004 12.015,6.004 L12,6.004 Q11.586,6.004 11.293,5.711 Q11,5.418 11,5.004 Q11,4.59 11.293,4.297 Q11.586,4.004 12,4.004 Z"/>
</svg>

