<svg xmlns="http://www.w3.org/2000/svg" width="20" height="24" viewBox="0 0 20 24">
  <defs/>
  <path fill="#212135" d="M0.312,21.361 C0.177,19.628 0,16.474 0,11.899 L0,11.818 C0,10.027 0,8.4 0.135,7.028 C0.271,5.639 0.563,4.259 1.322,3.089 C2.955,0.571 6.026,0.017 9.992,0 C13.966,-0.016 17.045,0.532 18.681,3.068 C19.438,4.241 19.729,5.627 19.865,7.02 C20,8.395 20,10.025 20,11.814 L20,11.899 C20,16.474 19.823,19.628 19.688,21.361 C19.514,23.6 17.001,24.737 15.203,23.476 C14.137,22.747 13.156,21.965 12.414,21.374 C12.065,21.097 11.769,20.861 11.542,20.693 C10.703,20.071 10.344,19.999 10,19.999 C9.656,19.999 9.297,20.071 8.458,20.693 C8.231,20.861 7.935,21.097 7.586,21.374 C6.844,21.965 5.863,22.747 4.797,23.476 C2.999,24.737 0.485,23.6 0.312,21.361 Z M12,6 C12.541,6 12.769,6.006 12.959,6.057 C13.091,6.093 13.257,6.166 13.544,6.452 L13.544,6.452 L13.544,6.452 C13.546,6.455 13.57,6.482 13.605,6.552 C13.643,6.627 13.684,6.731 13.725,6.868 C13.807,7.145 13.869,7.495 13.912,7.886 C13.999,8.668 14,9.492 14,9.996 C14,10.548 14.448,10.996 15,10.996 C15.552,10.996 16,10.548 16,9.996 L16,9.984 C16,9.486 16,8.565 15.9,7.665 C15.85,7.212 15.771,6.733 15.642,6.299 C15.52,5.888 15.32,5.399 14.956,5.036 C14.493,4.575 14.034,4.276 13.479,4.126 C13.007,3.999 12.515,4 12.074,4 L12.074,4 L12,4 C11.448,4 11,4.448 11,5 C11,5.552 11.448,6 12,6 Z"/>
</svg>

