<svg xmlns="http://www.w3.org/2000/svg" width="24" height="24" viewBox="0 0 24 24">
  <defs/>
  <path fill="#212135" d="M0,9 Q0,4.203 1.57,2.393 Q3.221,0.49 8,0.126 Q9.651,0 12,0 Q14.349,0 16,0.126 Q20.779,0.49 22.43,2.393 Q24,4.203 24,9 Q24,11.312 23.5,13.011 Q22.877,15.127 21.481,16.282 Q20.396,17.181 18.817,17.507 Q18.011,17.674 16.653,17.725 L16.494,17.731 Q15.964,17.752 15.769,17.795 Q15.635,17.824 15.57,17.872 Q15.5,17.922 15.5,18 L15.5,20.5 Q15.5,24 12,24 Q9.042,24 8.584,21.5 L8.5,21.5 Q8.086,21.5 7.793,21.207 Q7.5,20.914 7.5,20.5 Q7.5,20.086 7.793,19.793 Q8.086,19.5 8.5,19.5 L8.5,18 Q8.5,17.922 8.43,17.872 Q8.365,17.824 8.231,17.795 Q8.036,17.752 7.508,17.731 L7.348,17.725 Q5.989,17.674 5.183,17.507 Q3.604,17.18 2.519,16.282 Q1.123,15.127 0.5,13.011 Q0,11.312 0,9 Z M2,9 Q2,11.023 2.419,12.446 Q2.869,13.976 3.794,14.742 Q4.496,15.323 5.589,15.549 Q6.231,15.682 7.423,15.727 L7.584,15.733 Q8.289,15.761 8.656,15.84 Q9.202,15.959 9.608,16.255 Q10.5,16.905 10.5,18 L10.5,20.5 Q10.5,22 12,22 Q13.5,22 13.5,20.5 L13.5,18 Q13.5,16.905 14.392,16.255 Q14.798,15.959 15.344,15.84 Q15.711,15.761 16.415,15.733 L16.576,15.727 Q17.769,15.682 18.411,15.549 Q19.504,15.323 20.206,14.742 Q21.131,13.976 21.581,12.446 Q22,11.024 22,9 Q22,4.95 20.919,3.704 Q19.807,2.422 15.848,2.12 Q14.273,2 12,2 Q9.727,2 8.152,2.12 Q4.193,2.422 3.081,3.704 Q2,4.95 2,9 Z"/>
</svg>

