<svg xmlns="http://www.w3.org/2000/svg" width="24" height="24" viewBox="0 0 24 24">
  <defs/>
  <path fill="#212135" d="M9.914,0.005 C10.234,-0.001 10.531,0.186 10.661,0.477 L12.625,4.88 C12.657,4.95 12.727,4.996 12.804,4.996 C12.912,4.996 13,4.908 13,4.8 L13,0.797 C13,0.353 13.362,-0.007 13.806,0 C14.157,0.006 14.495,0.013 14.823,0.023 C15.136,0.033 15.358,0.333 15.439,0.635 L17.047,6.636 C17.103,6.848 17.296,6.996 17.515,6.996 C17.783,6.996 18,6.779 18,6.511 L18,0.298 C18,0.263 18.031,0.236 18.066,0.24 C23.292,0.865 24,2.855 24,8.387 C24,9.504 23.971,10.476 23.882,11.322 C23.841,11.713 23.504,11.998 23.112,11.998 L0.888,11.998 C0.496,11.998 0.159,11.713 0.118,11.322 C0.029,10.476 0,9.504 0,8.387 C0,1.68 1.041,0.179 9.914,0.005 Z"/>
  <path fill="#212135" d="M7.064,16.643 C8.14,16.726 9,17.601 9,18.68 L9,20.996 C9,22.653 10.343,23.996 12,23.996 C13.657,23.996 15,22.653 15,20.996 L15,18.68 C15,17.601 15.86,16.726 16.936,16.643 C19.623,16.437 21.306,15.974 22.35,15.045 C22.802,14.643 22.439,13.998 21.834,13.998 L2.166,13.998 C1.561,13.998 1.198,14.643 1.65,15.045 C2.694,15.974 4.377,16.437 7.064,16.643 Z"/>
</svg>

