<svg xmlns="http://www.w3.org/2000/svg" width="24" height="21" viewBox="0 0 24 21">
  <defs/>
  <path fill="#212135" d="M13,4.849 C13,5.402 12.552,5.849 12,5.849 C11.448,5.849 11,5.402 11,4.849 C11,4.297 11.448,3.849 12,3.849 C12.552,3.849 13,4.297 13,4.849 Z M16,8 C15.448,8 15,7.552 15,7 C15,6.448 15.448,6 16,6 C16.552,6 17,6.448 17,7 C17,7.552 16.552,8 16,8 Z M9,7 C9,7.552 8.552,8 8,8 C7.448,8 7,7.552 7,7 C7,6.448 7.448,6 8,6 C8.552,6 9,6.448 9,7 Z"/>
  <path fill="#212135" d="M2.016,10.047 C2.11,7.337 2.638,4.915 4.048,3.111 C5.665,1.043 8.265,0 12,0 C15.735,0 18.335,1.043 19.952,3.111 C21.363,4.916 21.89,7.34 21.984,10.051 C23.019,10.269 24,11.166 24,12.5 C24,13.826 23.031,14.72 22.003,14.945 C21.978,15.925 21.798,17.251 20.823,18.398 C19.465,19.994 16.828,21 12,21 C7.172,21 4.535,19.994 3.178,18.398 C2.204,17.253 2.022,15.93 1.997,14.95 C0.846,14.718 0,13.705 0,12.5 C0,11.284 0.87,10.273 2.016,10.047 Z M19.981,10 C19.882,7.529 19.394,5.645 18.377,4.343 C17.27,2.927 15.37,2 12,2 C8.63,2 6.73,2.927 5.623,4.343 C4.606,5.645 4.119,7.529 4.019,10 Z M4.005,15 C4.032,15.752 4.159,16.465 4.701,17.102 C5.47,18.006 7.333,19 12,19 C16.667,19 18.53,18.006 19.299,17.102 C19.841,16.465 19.968,15.752 19.995,15 L11.132,15 L10.394,16.275 C10.096,16.789 9.568,16.993 9.129,17 C8.691,17.006 8.16,16.818 7.846,16.32 L7.014,15 Z M21,13 L21.5,13 C21.599,13 21.735,12.954 21.844,12.854 C21.941,12.766 22,12.651 22,12.5 C22,12.349 21.941,12.234 21.844,12.146 C21.735,12.045 21.599,12 21.5,12 L12.866,12 C12.85,12.033 12.833,12.066 12.814,12.098 L12.292,13 L21,13 Z M7.487,12 L8.412,13.467 L9.088,14.54 L9.691,13.499 L10.559,12 Z M3,13 L5.753,13 L5.213,12.143 C5.183,12.096 5.157,12.048 5.134,12 L2.5,12 C2.226,12 2,12.225 2,12.5 C2,12.781 2.217,13 2.5,13 L3,13 Z"/>
</svg>

