<svg xmlns="http://www.w3.org/2000/svg" width="24" height="20" viewBox="0 0 24 20">
  <defs/>
  <path fill="#212135" d="M21.979,8.999 C22.003,9.551 21.552,10 21,10 L3,10 C2.448,10 1.997,9.551 2.021,8.999 C2.255,3.509 4.549,0 12,0 C19.451,0 21.745,3.509 21.979,8.999 Z M13,3.849 C13,3.297 12.552,2.849 12,2.849 C11.448,2.849 11,3.297 11,3.849 C11,4.402 11.448,4.849 12,4.849 C12.552,4.849 13,4.402 13,3.849 Z M16,6.849 C16.552,6.849 17,6.402 17,5.849 C17,5.297 16.552,4.849 16,4.849 C15.448,4.849 15,5.297 15,5.849 C15,6.402 15.448,6.849 16,6.849 Z M8,6.849 C8.552,6.849 9,6.402 9,5.849 C9,5.297 8.552,4.849 8,4.849 C7.448,4.849 7,5.297 7,5.849 C7,6.402 7.448,6.849 8,6.849 Z"/>
  <path fill="#212135" d="M1,13 C0.448,13 0,12.552 0,12 C0,11.448 0.448,11 1,11 L23,11 C23.552,11 24,11.448 24,12 C24,12.552 23.552,13 23,13 L12.103,13 C11.811,13 11.534,13.128 11.344,13.349 L9.5,15.5 C9.271,15.796 8.744,15.79 8.5,15.5 L6.751,13.366 C6.561,13.134 6.277,13 5.978,13 L1,13 Z"/>
  <path fill="#212135" d="M2.141,15.157 C2.077,14.548 2.552,14 3.165,14 L5.459,14 C5.737,14 6.002,14.116 6.192,14.319 L8.486,16.786 C8.791,17.077 9.214,17.082 9.5,16.786 L11.804,14.318 C11.993,14.115 12.258,14 12.535,14 L20.835,14 C21.448,14 21.923,14.548 21.859,15.157 L21.857,15.182 C21.55,18.116 21.353,20 12,20 C2.647,20 2.45,18.116 2.143,15.182 L2.141,15.157 Z"/>
</svg>

