<svg xmlns="http://www.w3.org/2000/svg" width="24" height="26" viewBox="0 0 24 26">
  <defs/>
  <path fill="#212135" d="M6,15 L9,15 Q9.414,15 9.707,15.293 Q10,15.586 10,16 Q10,16.414 9.707,16.707 Q9.414,17 9,17 L6,17 Q5.586,17 5.293,16.707 Q5,16.414 5,16 Q5,15.586 5.293,15.293 Q5.586,15 6,15 Z"/>
  <path fill="#212135" d="M6,19 L9,19 Q9.414,19 9.707,19.293 Q10,19.586 10,20 Q10,20.414 9.707,20.707 Q9.414,21 9,21 L6,21 Q5.586,21 5.293,20.707 Q5,20.414 5,20 Q5,19.586 5.293,19.293 Q5.586,19 6,19 Z"/>
  <path fill="#212135" d="M8,0 C8.552,0 9,0.448 9,1 L9,2.085 C9.91,2.026 10.908,2 12,2 C13.092,2 14.09,2.026 15,2.085 L15,1 C15,0.448 15.448,0 16,0 C16.552,0 17,0.448 17,1 L17,2.293 C21.566,2.981 23.327,5.035 23.832,10 C23.865,10.321 23.892,10.654 23.915,11 C23.936,11.322 23.952,11.655 23.965,11.999 C23.989,12.628 24,13.294 24,14 C24,14.706 23.989,15.372 23.965,16 C23.953,16.345 23.936,16.678 23.915,17 C23.892,17.345 23.865,17.677 23.833,17.997 C23.293,23.313 21.313,25.293 15.997,25.833 C15.677,25.865 15.345,25.892 15,25.915 C14.678,25.936 14.345,25.953 14,25.965 C13.372,25.989 12.706,26 12,26 C2.118,26 0,23.882 0,14 C0,13.294 0.011,12.628 0.034,11.999 C0.047,11.655 0.064,11.322 0.085,11 C0.108,10.654 0.135,10.321 0.168,10 C0.673,5.035 2.435,2.981 7,2.293 L7,1 C7,0.448 7.448,0 8,0 Z M14.071,23.264 C14.271,21.754 14.818,19.768 16.293,18.293 C17.768,16.817 19.754,16.271 21.264,16.071 C21.507,16.039 21.742,16.015 21.964,15.998 C21.989,15.379 22,14.715 22,14 C22,13.285 21.989,12.619 21.964,12 L2.036,12 C2.011,12.619 2,13.285 2,14 C2,16.425 2.133,18.237 2.438,19.61 C2.738,20.961 3.178,21.761 3.708,22.292 C4.239,22.822 5.039,23.262 6.39,23.562 C7.763,23.868 9.575,24 12,24 C12.715,24 13.379,23.989 13.998,23.964 C14.015,23.742 14.039,23.507 14.071,23.264 Z M7,4.319 C5.656,4.547 4.748,4.897 4.108,5.366 C3.164,6.059 2.483,7.275 2.179,10 L21.821,10 C21.517,7.275 20.836,6.059 19.892,5.366 C19.252,4.897 18.344,4.547 17,4.319 L17,5 C17,5.552 16.552,6 16,6 C15.448,6 15,5.552 15,5 L15,4.091 C14.132,4.03 13.139,4 12,4 C10.861,4 9.868,4.03 9,4.091 L9,5 C9,5.552 8.552,6 8,6 C7.448,6 7,5.552 7,5 Z M21.526,18.054 C20.204,18.229 18.732,18.683 17.707,19.707 C16.683,20.732 16.229,22.204 16.054,23.526 C16.041,23.625 16.029,23.723 16.019,23.819 C18.351,23.556 19.566,23.017 20.292,22.292 C21.017,21.566 21.556,20.351 21.819,18.019 C21.723,18.029 21.625,18.041 21.526,18.054 Z"/>
</svg>

