<svg xmlns="http://www.w3.org/2000/svg" width="24" height="26" viewBox="0 0 24 26">
  <defs/>
  <path fill="#212135" d="M15,1 C15,0.448 15.448,0 16,0 C16.552,0 17,0.448 17,1 L17,5 C17,5.552 16.552,6 16,6 C15.448,6 15,5.552 15,5 L15,1 Z"/>
  <path fill="#212135" d="M14,2.034 C13.371,2.011 12.706,2 12,2 C11.294,2 10.629,2.011 10,2.034 L10,5 C10,6.105 9.105,7 8,7 C6.895,7 6,6.105 6,5 L6,2.476 C2.492,3.243 0.907,5.072 0.308,8.901 C0.216,9.486 0.682,10 1.275,10 L22.725,10 C23.318,10 23.784,9.486 23.692,8.901 C23.093,5.072 21.508,3.243 18,2.476 L18,5 C18,6.105 17.105,7 16,7 C14.895,7 14,6.105 14,5 L14,2.034 Z"/>
  <path fill="#212135" d="M12,26 C2.118,26 0,23.882 0,14 C0,13.644 0.003,13.299 0.008,12.963 C0.018,12.425 0.46,12 0.998,12 L23.003,12 C23.54,12 23.982,12.425 23.992,12.963 C23.997,13.299 24,13.644 24,14 C24,23.882 21.882,26 12,26 Z M14,16 C14,16.552 14.448,17 15,17 L18,17 C18.552,17 19,16.552 19,16 C19,15.448 18.552,15 18,15 L15,15 C14.448,15 14,15.448 14,16 Z M15,19 C14.448,19 14,19.448 14,20 C14,20.552 14.448,21 15,21 L18,21 C18.552,21 19,20.552 19,20 C19,19.448 18.552,19 18,19 Z M5,16 C5,16.552 5.448,17 6,17 L9,17 C9.552,17 10,16.552 10,16 C10,15.448 9.552,15 9,15 L6,15 C5.448,15 5,15.448 5,16 Z M6,19 C5.448,19 5,19.448 5,20 C5,20.552 5.448,21 6,21 L9,21 C9.552,21 10,20.552 10,20 C10,19.448 9.552,19 9,19 Z"/>
  <path fill="#212135" d="M7,1 C7,0.448 7.448,0 8,0 C8.552,0 9,0.448 9,1 L9,5 C9,5.552 8.552,6 8,6 C7.448,6 7,5.552 7,5 L7,1 Z"/>
</svg>

