<svg xmlns="http://www.w3.org/2000/svg" width="24" height="24" viewBox="0 0 24 24">
  <defs/>
  <path fill="#212135" d="M12.585,15.142 C13.359,15.687 14.169,16.145 15.005,16.491 C15.524,16.679 16.338,16.146 16.937,15.755 C17.087,15.657 17.223,15.568 17.338,15.501 L17.375,15.48 C17.939,15.163 18.566,14.811 19.371,14.981 C20.094,15.129 22.576,17.085 23.262,17.779 C23.711,18.224 23.961,18.695 23.998,19.178 C24.073,20.973 21.666,22.991 21.092,23.338 C19.87,24.229 18.236,24.217 16.265,23.325 C14.157,22.471 11.637,20.676 9.205,18.497 C8.335,17.717 6.662,16.075 6.187,15.526 C3.729,12.864 1.659,10.005 0.686,7.689 C0.225,6.711 0,5.808 0,5.003 C0,4.21 0.225,3.505 0.661,2.898 C0.923,2.44 3.031,-0.061 4.889,0.001 C5.351,0.051 5.825,0.286 6.286,0.732 C6.985,1.413 8.993,3.876 9.143,4.607 C9.314,5.394 8.959,6.015 8.64,6.574 L8.619,6.612 C8.547,6.736 8.45,6.884 8.343,7.045 C7.95,7.638 7.434,8.418 7.62,8.915 C8.083,10.054 8.744,11.168 9.541,12.196 C10.425,13.253 11.812,14.597 12.585,15.142 Z"/>
</svg>

