<svg xmlns="http://www.w3.org/2000/svg" width="24" height="24" viewBox="0 0 24 24">
  <defs/>
  <path fill="#212135" d="M13.112,14.062 L13.113,14.062 Q14.096,14.755 15.097,15.176 Q15.133,15.158 15.978,14.605 L15.981,14.603 Q16.262,14.419 16.389,14.345 L16.438,14.317 Q17.856,13.521 18.963,13.754 Q20.546,14.079 23.035,16.594 Q23.915,17.468 23.995,18.502 L23.997,18.52 L23.998,18.538 Q24.111,21.264 20.887,23.227 Q18.747,24.755 15.516,23.301 Q12.565,22.099 8.771,18.7 Q6.918,17.04 5.926,15.899 Q2.112,11.766 0.715,8.456 Q0,6.931 0,5.586 Q0,4.203 0.765,3.114 Q1.219,2.349 2.347,1.389 Q4.033,-0.048 5.515,0.002 L5.552,0.003 L5.589,0.007 Q6.591,0.114 7.457,0.951 Q10.043,3.472 10.361,5.022 Q10.596,6.107 9.789,7.522 L9.77,7.556 Q9.685,7.702 9.482,8.009 L9.482,8.01 L9.482,8.01 Q9.134,8.535 9.023,8.772 L8.922,8.822 Q9.495,10.221 10.525,11.552 Q11.929,13.229 13.112,14.062 Z M11.961,15.698 Q10.558,14.709 8.979,12.821 L8.967,12.807 L8.955,12.792 Q7.739,11.225 7.058,9.548 L7.053,9.535 L7.048,9.522 Q6.7,8.59 7.814,6.906 L7.814,6.906 L7.814,6.906 Q7.984,6.648 8.032,6.566 L8.052,6.531 Q8.479,5.782 8.401,5.423 Q8.207,4.475 6.068,2.39 Q5.713,2.047 5.406,1.999 Q3.722,1.971 2.474,4.153 L2.448,4.198 L2.418,4.241 Q2,4.821 2,5.586 Q2,6.492 2.533,7.622 L2.542,7.641 L2.551,7.661 Q3.811,10.66 7.406,14.554 L7.416,14.565 L7.426,14.577 Q8.337,15.626 10.105,17.211 Q13.652,20.387 16.285,21.455 L16.304,21.462 L16.322,21.47 Q18.531,22.47 19.745,21.585 L19.78,21.559 L19.817,21.537 Q22.049,20.189 22,18.642 Q21.969,18.354 21.613,18.001 Q19.551,15.916 18.55,15.711 Q18.18,15.633 17.416,16.062 L17.397,16.073 Q17.314,16.121 17.075,16.277 L17.073,16.279 Q15.36,17.4 14.414,17.057 L14.392,17.049 L14.371,17.041 Q13.146,16.532 11.961,15.698 Z"/>
</svg>

