<svg xmlns="http://www.w3.org/2000/svg" width="24" height="24" viewBox="0 0 24 24">
  <defs/>
  <path fill="#212135" d="M12,10 C10.343,10 9,11.343 9,13 C9,14.657 10.343,16 12,16 C13.657,16 15,14.657 15,13 C15,11.343 13.657,10 12,10 Z"/>
  <path fill="#212135" d="M12,24 C2.118,24 0,22.258 0,13.551 C0,7.892 0,3.429 4.5,3.429 C6.891,3.429 7.023,2.46 7.147,1.553 C7.257,0.753 7.36,0 9,0 L15,0 C16.64,0 16.743,0.753 16.852,1.553 L16.853,1.553 C16.976,2.46 17.109,3.429 19.5,3.429 C24,3.429 24,8.003 24,13.551 C24,22.156 21.882,24 12,24 Z M12,8 C9.239,8 7,10.238 7,13 C7,15.761 9.239,18 12,18 C14.761,18 17,15.761 17,13 C17,10.238 14.761,8 12,8 Z M17,8 C17,8.552 17.448,9 18,9 C18.552,9 19,8.552 19,8 C19,7.448 18.552,7 18,7 C17.448,7 17,7.448 17,8 Z"/>
</svg>

