<svg xmlns="http://www.w3.org/2000/svg" width="24" height="24" viewBox="0 0 24 24">
  <defs/>
  <path fill="#212135" d="M12,24 C2.507,24 -1.449,22.737 0.473,12 C0.549,11.622 0.623,11.255 0.695,10.899 C2.418,2.329 2.886,0 12,0 C21.114,0 21.582,2.329 23.305,10.899 C23.377,11.255 23.451,11.622 23.527,12 C25.449,22.737 21.493,24 12,24 Z M16,6 C16,7.395 15.487,8.368 14.773,9.003 C14.041,9.653 13.037,10 12,10 C10.963,10 9.959,9.653 9.227,9.003 C8.513,8.368 8,7.395 8,6 C8,5.448 7.552,5 7,5 C6.448,5 6,5.448 6,6 C6,7.938 6.737,9.465 7.898,10.497 C9.041,11.513 10.537,12 12,12 C13.463,12 14.959,11.513 16.102,10.497 C17.263,9.465 18,7.938 18,6 C18,5.448 17.552,5 17,5 C16.448,5 16,5.448 16,6 Z"/>
</svg>

