<svg xmlns="http://www.w3.org/2000/svg" width="22" height="22" viewBox="0 0 22 22">
  <defs/>
  <path fill="#212135" d="M11.083,20.18 A1.82 1.82 0 1 1 7.444,20.18 A1.82 1.82 0 1 1 11.083,20.18 Z"/>
  <path fill="#212135" d="M17.148,20.18 A1.82 1.82 0 1 1 13.509,20.18 A1.82 1.82 0 1 1 17.148,20.18 Z"/>
  <path fill="#212135" d="M1.495,0.153 Q4.268,1.54 4.717,4.018 L18.967,4.018 Q20.28,4.018 21.065,4.864 Q21.787,5.643 21.787,6.837 Q21.787,12.558 19.523,14.822 Q17.41,16.935 12.296,16.935 Q7.07,16.935 5.016,14.539 Q2.805,11.958 2.805,5.018 L2.804,5.018 Q2.804,3.044 0.6,1.942 Q0.23,1.757 0.099,1.364 Q-0.032,0.971 0.153,0.6 Q0.338,0.23 0.731,0.099 Q1.124,-0.032 1.495,0.153 Z M4.816,6.018 Q4.948,11.386 6.535,13.237 Q7.99,14.935 12.296,14.935 Q16.582,14.935 18.109,13.408 Q19.787,11.73 19.787,6.837 Q19.787,6.427 19.599,6.224 Q19.407,6.018 18.967,6.018 L4.816,6.018 Z"/>
</svg>

