<svg xmlns="http://www.w3.org/2000/svg" width="24" height="20" viewBox="0 0 24 20">
  <defs/>
  <path fill="#212135" d="M9.707,1.707 L4.051,7.364 Q4.209,8.716 4.413,10.744 Q4.939,15.966 5.794,16.878 Q6.846,18 12,18 Q17.154,18 18.206,16.878 Q19.061,15.966 19.587,10.744 Q19.791,8.716 19.949,7.364 L14.293,1.707 Q14,1.414 14,1 Q14,0.586 14.293,0.293 Q14.586,0 15,0 Q15.414,0 15.707,0.293 L21.707,6.293 Q22.052,6.638 21.993,7.122 Q21.817,8.556 21.577,10.944 Q20.983,16.84 19.665,18.246 Q18.021,20 12,20 Q5.979,20 4.335,18.246 Q3.017,16.84 2.423,10.944 Q2.183,8.556 2.007,7.122 Q1.948,6.638 2.293,6.293 L8.293,0.293 Q8.586,0 9,0 Q9.414,0 9.707,0.293 Q10,0.586 10,1 Q10,1.414 9.707,1.707 Z"/>
  <path fill="#212135" d="M1,6 L23,6 Q23.414,6 23.707,6.293 Q24,6.586 24,7 Q24,7.414 23.707,7.707 Q23.414,8 23,8 L1,8 Q0.586,8 0.293,7.707 Q0,7.414 0,7 Q0,6.586 0.293,6.293 Q0.586,6 1,6 Z"/>
  <path fill="#212135" d="M11,11 L11,15 Q11,15.414 10.707,15.707 Q10.414,16 10,16 Q9.586,16 9.293,15.707 Q9,15.414 9,15 L9,11 Q9,10.586 9.293,10.293 Q9.586,10 10,10 Q10.414,10 10.707,10.293 Q11,10.586 11,11 Z M15,11 L15,15 Q15,15.414 14.707,15.707 Q14.414,16 14,16 Q13.586,16 13.293,15.707 Q13,15.414 13,15 L13,11 Q13,10.586 13.293,10.293 Q13.586,10 14,10 Q14.414,10 14.707,10.293 Q15,10.586 15,11 Z"/>
</svg>

