<svg xmlns="http://www.w3.org/2000/svg" width="24" height="24" viewBox="0 0 24 24">
  <defs/>
  <path fill="#212135" d="M8,6 Q8,10 12,10 Q16,10 16,6 Q16,5.586 16.293,5.293 Q16.586,5 17,5 Q17.414,5 17.707,5.293 Q18,5.586 18,6 Q18,8.81 16.102,10.497 Q14.411,12 12,12 Q9.589,12 7.898,10.497 Q6,8.81 6,6 Q6,5.586 6.293,5.293 Q6.586,5 7,5 Q7.414,5 7.707,5.293 Q8,5.586 8,6 Z"/>
  <path fill="#212135" d="M0.697,10.89 L0.697,10.889 Q1.39,7.444 1.749,6.128 Q2.424,3.662 3.397,2.447 Q5.358,0 12,0 Q18.642,0 20.603,2.447 Q21.576,3.661 22.251,6.128 Q22.611,7.444 23.303,10.889 L23.525,11.99 Q23.528,12.001 23.53,12.012 Q24.884,19.593 22.044,22.026 Q20.687,23.189 18.076,23.635 Q15.938,24 12,24 Q8.062,24 5.924,23.635 Q3.313,23.189 1.956,22.026 Q-0.884,19.593 0.47,12.012 Q0.472,12.001 0.475,11.99 Z M2.657,11.284 L2.437,12.374 Q1.288,18.82 3.257,20.507 Q4.195,21.311 6.261,21.663 Q8.231,22 12,22 Q15.769,22 17.739,21.663 Q19.805,21.311 20.743,20.507 Q22.712,18.82 21.563,12.374 L21.343,11.285 Q20.663,7.906 20.322,6.656 Q19.756,4.589 19.042,3.698 Q17.682,2 12,2 Q6.318,2 4.958,3.698 Q4.244,4.589 3.678,6.656 Q3.337,7.905 2.657,11.283 L2.657,11.284 Z"/>
</svg>

