<svg xmlns="http://www.w3.org/2000/svg" width="21" height="22" viewBox="0 0 21 22">
  <defs/>
  <path fill="#212135" d="M1.601,0.11 C1.054,-0.147 0.39,0.061 0.117,0.574 C-0.156,1.087 0.065,1.71 0.612,1.967 L1.721,2.488 C2.064,2.649 2.293,2.964 2.328,3.322 C2.355,3.602 2.381,3.878 2.407,4.152 L2.41,4.185 C3.032,10.755 3.501,15.714 11.557,15.714 C19.961,15.714 20.517,10.115 21,5.238 C21,4.66 20.53,4.19 19.949,4.19 L5.544,4.19 C5.025,4.19 4.593,3.793 4.544,3.276 C4.54,3.229 4.535,3.182 4.531,3.134 C4.427,2.06 3.738,1.113 2.71,0.631 L1.601,0.11 Z"/>
  <path fill="#212135" d="M8.5,22 C9.66,22 10.601,21.062 10.601,19.905 C10.601,18.748 9.66,17.809 8.5,17.809 C7.34,17.809 6.399,18.748 6.399,19.905 C6.399,21.062 7.34,22 8.5,22 Z"/>
  <path fill="#212135" d="M16.804,19.905 C16.804,21.062 15.863,22 14.702,22 C13.542,22 12.601,21.062 12.601,19.905 C12.601,18.748 13.542,17.809 14.702,17.809 C15.863,17.809 16.804,18.748 16.804,19.905 Z"/>
</svg>

