<svg xmlns="http://www.w3.org/2000/svg" width="24" height="24" viewBox="0 0 24 24">
  <defs/>
  <path fill="#212135" d="M12,14 C10.895,14 10,13.105 10,12 C10,10.895 10.895,10 12,10 C13.105,10 14,10.895 14,12 C14,13.105 13.105,14 12,14 Z"/>
  <path fill="#212135" d="M6.148,7.772 C6.512,7.621 6.843,7.4 7.121,7.121 C7.4,6.843 7.621,6.512 7.772,6.148 C7.792,6.099 7.811,6.05 7.828,6 L16.172,6 C16.189,6.05 16.208,6.099 16.228,6.148 C16.379,6.512 16.6,6.843 16.879,7.121 C17.157,7.4 17.488,7.621 17.852,7.772 C17.901,7.792 17.95,7.811 18,7.828 L18,16.172 C17.95,16.189 17.901,16.208 17.852,16.228 C17.488,16.379 17.157,16.6 16.879,16.879 C16.6,17.157 16.379,17.488 16.228,17.852 C16.208,17.901 16.189,17.95 16.172,18 L7.828,18 C7.811,17.95 7.792,17.901 7.772,17.852 C7.621,17.488 7.4,17.157 7.121,16.879 C6.843,16.6 6.512,16.379 6.148,16.228 C6.099,16.208 6.05,16.189 6,16.172 L6,7.828 C6.05,7.811 6.099,7.792 6.148,7.772 Z M12,16 C14.209,16 16,14.209 16,12 C16,9.791 14.209,8 12,8 C9.791,8 8,9.791 8,12 C8,14.209 9.791,16 12,16 Z"/>
  <path fill="#212135" d="M12,24 C2.118,24 0,21.882 0,12 C0,2.118 2.118,0 12,0 C21.882,0 24,2.118 24,12 C24,21.882 21.882,24 12,24 Z M6,5 L6,5.015 C5.998,5.141 5.972,5.266 5.924,5.383 C5.874,5.504 5.8,5.614 5.707,5.707 C5.614,5.8 5.504,5.874 5.383,5.924 C5.266,5.972 5.141,5.998 5.015,6 L5,6 C4.448,6 4,6.448 4,7 L4,17 C4,17.552 4.448,18 5,18 L5.015,18 C5.141,18.002 5.266,18.028 5.383,18.076 C5.504,18.126 5.614,18.2 5.707,18.293 C5.8,18.386 5.874,18.496 5.924,18.617 C5.972,18.734 5.998,18.859 6,18.985 L6,19 C6,19.552 6.448,20 7,20 L17,20 C17.552,20 18,19.552 18,19 L18,18.985 C18.002,18.859 18.028,18.734 18.076,18.617 C18.126,18.496 18.2,18.386 18.293,18.293 C18.386,18.2 18.496,18.126 18.617,18.076 C18.734,18.028 18.859,18.002 18.985,18 L19,18 C19.552,18 20,17.552 20,17 L20,7 C20,6.448 19.552,6 19,6 L18.985,6 C18.859,5.998 18.734,5.972 18.617,5.924 C18.496,5.874 18.386,5.8 18.293,5.707 C18.2,5.614 18.126,5.504 18.076,5.383 C18.028,5.266 18.002,5.141 18,5.015 L18,5 C18,4.448 17.552,4 17,4 L7,4 C6.448,4 6,4.448 6,5 Z"/>
</svg>

