<svg xmlns="http://www.w3.org/2000/svg" width="24" height="24" viewBox="0 0 24 24">
  <defs/>
  <path fill="#212135" d="M12,24 C2.118,24 0,21.882 0,12 C0,2.118 2.118,0 12,0 C21.882,0 24,2.118 24,12 C24,21.882 21.882,24 12,24 Z M13,7 C13,6.448 12.552,6 12,6 C11.448,6 11,6.448 11,7 L11,17 C11,17.552 11.448,18 12,18 C12.552,18 13,17.552 13,17 Z M17,10 C16.448,10 16,10.448 16,11 L16,17 C16,17.552 16.448,18 17,18 C17.552,18 18,17.552 18,17 L18,11 C18,10.448 17.552,10 17,10 Z M7,12 C6.448,12 6,12.448 6,13 L6,17 C6,17.552 6.448,18 7,18 C7.552,18 8,17.552 8,17 L8,13 C8,12.448 7.552,12 7,12 Z"/>
</svg>

