<svg xmlns="http://www.w3.org/2000/svg" width="24" height="24" viewBox="0 0 24 24">
  <defs/>
  <path fill="#212135" d="M0,12 C0,2.118 2.118,0 12,0 C21.882,0 24,2.118 24,12 C24,21.882 21.882,24 12,24 C2.118,24 0,21.882 0,12 Z M16.707,8.293 C16.317,7.902 15.683,7.902 15.293,8.293 L11,12.586 L9.207,10.793 C8.817,10.402 8.183,10.402 7.793,10.793 C7.402,11.183 7.402,11.817 7.793,12.207 L10.293,14.707 C10.683,15.098 11.317,15.098 11.707,14.707 L16.707,9.707 C17.098,9.317 17.098,8.683 16.707,8.293 Z"/>
</svg>

