<svg xmlns="http://www.w3.org/2000/svg" width="24" height="24" viewBox="0 0 24 24">
  <defs/>
  <path fill="#212135" d="M10.909,12 C10.909,12.499 10.932,12.824 10.964,13.036 C11.176,13.068 11.501,13.091 12,13.091 C12.499,13.091 12.824,13.068 13.036,13.036 C13.068,12.824 13.091,12.499 13.091,12 C13.091,11.501 13.068,11.176 13.036,10.964 C12.824,10.932 12.499,10.909 12,10.909 C11.501,10.909 11.176,10.932 10.964,10.964 C10.932,11.176 10.909,11.501 10.909,12 Z"/>
  <path fill="#212135" d="M8.727,3.436 L8.727,1.091 C8.727,0.488 9.216,0 9.818,0 C10.421,0 10.909,0.488 10.909,1.091 L10.909,3.286 C11.257,3.277 11.621,3.273 12,3.273 C12.379,3.273 12.743,3.277 13.091,3.286 L13.091,1.091 C13.091,0.488 13.579,0 14.182,0 C14.784,0 15.273,0.488 15.273,1.091 L15.273,3.436 C18.745,3.868 20.132,5.255 20.564,8.727 L22.909,8.727 C23.512,8.727 24,9.216 24,9.818 C24,10.421 23.512,10.909 22.909,10.909 L20.714,10.909 C20.723,11.257 20.727,11.621 20.727,12 C20.727,12.379 20.723,12.743 20.714,13.091 L22.909,13.091 C23.512,13.091 24,13.579 24,14.182 C24,14.784 23.512,15.273 22.909,15.273 L20.564,15.273 C20.132,18.745 18.745,20.132 15.273,20.564 L15.273,22.909 C15.273,23.512 14.784,24 14.182,24 C13.579,24 13.091,23.512 13.091,22.909 L13.091,20.714 C12.743,20.723 12.379,20.727 12,20.727 C11.621,20.727 11.257,20.723 10.909,20.714 L10.909,22.909 C10.909,23.512 10.421,24 9.818,24 C9.216,24 8.727,23.512 8.727,22.909 L8.727,20.564 C5.255,20.132 3.868,18.745 3.436,15.273 L1.091,15.273 C0.488,15.273 0,14.784 0,14.182 C0,13.579 0.488,13.091 1.091,13.091 L3.286,13.091 C3.277,12.743 3.273,12.379 3.273,12 C3.273,11.621 3.277,11.257 3.286,10.909 L1.091,10.909 C0.488,10.909 0,10.421 0,9.818 C0,9.216 0.488,8.727 1.091,8.727 L3.436,8.727 C3.868,5.255 5.255,3.868 8.727,3.436 Z M8.727,12 C8.727,14.695 9.305,15.273 12,15.273 C14.695,15.273 15.273,14.695 15.273,12 C15.273,9.305 14.695,8.727 12,8.727 C9.305,8.727 8.727,9.305 8.727,12 Z"/>
</svg>

