<svg xmlns="http://www.w3.org/2000/svg" width="22" height="22" viewBox="0 0 22 22">
  <defs/>
  <path fill="#212135" d="M8,11 Q8,10.035 8.121,9.489 Q8.254,8.893 8.574,8.574 Q8.893,8.254 9.489,8.121 Q10.035,8 11,8 Q11.965,8 12.511,8.121 Q13.107,8.254 13.426,8.574 Q13.746,8.894 13.879,9.489 Q14,10.035 14,11 Q14,11.965 13.879,12.511 Q13.746,13.106 13.426,13.426 Q13.106,13.746 12.511,13.879 Q11.965,14 11,14 Q10.035,14 9.489,13.879 Q8.894,13.746 8.574,13.426 Q8.254,13.107 8.121,12.511 Q8,11.965 8,11 Z M10,11 Q10,11.616 10.05,11.95 Q10.384,12 11,12 Q11.616,12 11.95,11.95 Q12,11.616 12,11 Q12,10.384 11.95,10.05 Q11.616,10 11,10 Q10.384,10 10.05,10.05 Q10,10.384 10,11 Z"/>
  <path fill="#212135" d="M9,0 C9.552,0 10,0.448 10,1 L10,3 L10,3.012 C10.319,3.004 10.652,3 11,3 C11.348,3 11.681,3.004 12,3.012 L12,3 L12,1 C12,0.448 12.448,0 13,0 C13.552,0 14,0.448 14,1 L14,3 C14,3.05 13.996,3.1 13.989,3.148 C17.184,3.543 18.457,4.816 18.852,8.011 C18.9,8.004 18.95,8 19,8 L21,8 C21.552,8 22,8.448 22,9 C22,9.552 21.552,10 21,10 L19,10 L18.988,10 C18.996,10.319 19,10.652 19,11 C19,11.348 18.996,11.681 18.988,12 L19,12 L21,12 C21.552,12 22,12.448 22,13 C22,13.552 21.552,14 21,14 L19,14 C18.95,14 18.9,13.996 18.852,13.989 C18.457,17.184 17.184,18.457 13.989,18.852 C13.996,18.9 14,18.95 14,19 L14,21 C14,21.552 13.552,22 13,22 C12.448,22 12,21.552 12,21 L12,19 L12,18.988 C11.681,18.996 11.348,19 11,19 C10.652,19 10.319,18.996 10,18.988 L10,19 L10,21 C10,21.552 9.552,22 9,22 C8.448,22 8,21.552 8,21 L8,19 C8,18.95 8.004,18.9 8.011,18.852 C4.816,18.457 3.543,17.184 3.148,13.989 C3.1,13.996 3.05,14 3,14 L1,14 C0.448,14 0,13.552 0,13 C0,12.448 0.448,12 1,12 L3,12 C3.004,12 3.008,12 3.012,12 C3.004,11.681 3,11.348 3,11 C3,10.652 3.004,10.319 3.012,10 L3,10 L1,10 C0.448,10 0,9.552 0,9 C0,8.448 0.448,8 1,8 L3,8 C3.05,8 3.1,8.004 3.148,8.011 C3.543,4.816 4.816,3.543 8.011,3.148 C8.004,3.1 8,3.05 8,3 L8,1 C8,0.448 8.448,0 9,0 Z M5.276,14.595 C5.458,15.416 5.707,15.82 5.944,16.056 C6.18,16.293 6.584,16.542 7.405,16.724 C8.248,16.912 9.399,17 11,17 C12.601,17 13.752,16.912 14.595,16.724 C15.416,16.542 15.82,16.293 16.056,16.056 C16.293,15.82 16.542,15.416 16.724,14.595 C16.912,13.752 17,12.601 17,11 C17,9.399 16.912,8.248 16.724,7.405 C16.542,6.584 16.293,6.18 16.056,5.944 C15.82,5.707 15.416,5.458 14.595,5.276 C13.752,5.088 12.601,5 11,5 C9.399,5 8.248,5.088 7.405,5.276 C6.584,5.458 6.18,5.707 5.944,5.944 C5.707,6.18 5.458,6.584 5.276,7.405 C5.088,8.248 5,9.399 5,11 C5,12.601 5.088,13.752 5.276,14.595 Z"/>
</svg>

