<svg xmlns="http://www.w3.org/2000/svg" width="24" height="24" viewBox="0 0 24 24">
  <defs/>
  <path fill="#212135" d="M0,12 C0,17.087 1.253,20.383 4.082,22.21 C4.273,22.333 4.522,22.299 4.683,22.139 L10.347,16.475 C10.619,16.203 10.495,15.727 10.154,15.55 C9.719,15.323 9.332,15.019 9.009,14.656 L1.311,6.958 C1.046,6.693 0.597,6.804 0.507,7.167 C0.164,8.554 0,10.16 0,12 Z"/>
  <path fill="#212135" d="M1.791,4.08 C1.668,4.271 1.702,4.52 1.862,4.681 L7.526,10.345 C7.798,10.617 8.274,10.493 8.451,10.152 C9.119,8.873 10.457,8 12,8 L23.071,8 C23.384,8 23.62,7.715 23.55,7.41 C22.364,2.218 18.766,0 12,0 C6.914,0 3.619,1.253 1.791,4.08 Z"/>
  <path fill="#212135" d="M10.709,13.528 L10.472,13.291 C10.178,12.942 10,12.492 10,12 C10,10.895 10.895,10 12,10 C13.105,10 14,10.895 14,12 C14,12.502 13.815,12.961 13.509,13.312 L13.312,13.509 C12.961,13.815 12.502,14 12,14 C11.508,14 11.058,13.822 10.709,13.528 Z"/>
  <path fill="#212135" d="M12,24 C10.161,24 8.556,23.836 7.17,23.493 C6.806,23.403 6.695,22.955 6.96,22.69 L14.686,14.964 C15.493,14.232 16,13.175 16,12 C16,11.579 15.935,11.173 15.814,10.791 C15.698,10.424 15.947,10 16.332,10 L23.465,10 C23.726,10 23.944,10.201 23.959,10.462 C23.986,10.956 24,11.468 24,12 C24,20.5 20.5,24 12,24 Z"/>
</svg>

