<svg xmlns="http://www.w3.org/2000/svg" width="24" height="24" viewBox="0 0 24 24">
  <defs/>
  <path fill="#212135" d="M0,12 Q0,8.14 0.485,5.956 Q1.015,3.574 2.294,2.294 Q3.574,1.015 5.956,0.485 Q8.14,0 12,0 Q15.86,0 18.044,0.485 Q20.426,1.015 21.706,2.294 Q22.985,3.574 23.515,5.956 Q24,8.14 24,12 Q24,15.86 23.515,18.044 Q22.985,20.427 21.706,21.706 Q20.427,22.985 18.044,23.515 Q15.86,24 12,24 Q8.14,24 5.956,23.515 Q3.574,22.985 2.294,21.706 Q1.015,20.426 0.485,18.044 Q0,15.86 0,12 Z M2,12 Q2,15.64 2.438,17.61 Q2.841,19.424 3.708,20.292 Q4.576,21.159 6.39,21.562 Q8.36,22 12,22 Q15.64,22 17.61,21.562 Q19.424,21.159 20.292,20.292 Q21.159,19.424 21.562,17.61 Q22,15.64 22,12 Q22,8.36 21.562,6.39 Q21.159,4.576 20.292,3.708 Q19.424,2.841 17.61,2.438 Q15.64,2 12,2 Q8.359,2 6.39,2.438 Q4.576,2.841 3.708,3.708 Q2.841,4.576 2.438,6.39 Q2,8.359 2,12 Z"/>
  <path fill="#212135" d="M15.707,9.707 L13.414,12 L15.707,14.293 Q16,14.586 16,15 Q16,15.414 15.707,15.707 Q15.414,16 15,16 Q14.586,16 14.293,15.707 L12,13.414 L9.707,15.707 Q9.414,16 9,16 Q8.586,16 8.293,15.707 Q8,15.414 8,15 Q8,14.586 8.293,14.293 L10.586,12 L8.293,9.707 Q8,9.414 8,9 Q8,8.586 8.293,8.293 Q8.586,8 9,8 Q9.414,8 9.707,8.293 L12,10.586 L14.293,8.293 Q14.586,8 15,8 Q15.414,8 15.707,8.293 Q16,8.586 16,9 Q16,9.414 15.707,9.707 Z"/>
</svg>

