<svg xmlns="http://www.w3.org/2000/svg" width="24" height="24" viewBox="0 0 24 24">
  <defs/>
  <path fill="#212135" d="M0,12 C0,2.118 2.118,0 12,0 C21.882,0 24,2.118 24,12 C24,21.882 21.882,24 12,24 C2.118,24 0,21.882 0,12 Z M8.465,8.464 C8.074,8.855 8.074,9.488 8.465,9.879 L10.586,12 L8.465,14.121 C8.074,14.512 8.074,15.145 8.465,15.536 C8.855,15.926 9.488,15.926 9.879,15.536 L12,13.414 L14.121,15.535 C14.512,15.926 15.145,15.926 15.536,15.535 C15.926,15.145 15.926,14.512 15.536,14.121 L13.414,12 L15.536,9.879 C15.926,9.488 15.926,8.855 15.536,8.465 C15.145,8.074 14.512,8.074 14.121,8.465 L12,10.586 L9.879,8.464 C9.488,8.074 8.855,8.074 8.465,8.464 Z"/>
</svg>

