<svg xmlns="http://www.w3.org/2000/svg" width="29" height="22" viewBox="0 0 29 22">
  <defs/>
  <path fill="#212135" d="M9.681,8.312 Q9.334,9.363 9.335,9.998 Q9.335,10.839 9.659,11.615 Q9.818,11.998 9.66,12.381 Q9.503,12.764 9.12,12.923 Q8.738,13.082 8.355,12.925 Q7.972,12.767 7.813,12.385 Q7.336,11.24 7.335,10 Q7.334,9.042 7.783,7.684 Q7.913,7.291 8.283,7.105 Q8.653,6.918 9.046,7.049 Q9.439,7.179 9.625,7.549 Q9.812,7.919 9.681,8.312 Z"/>
  <path fill="#212135" d="M8.084,6.668 Q10.735,0 18,0 Q22.532,0 25.766,3.229 Q29,6.46 29,10.991 Q29,15.504 25.765,18.765 Q22.505,22.052 17.988,22 L8,22 Q4.778,22 2.429,19.863 Q0,17.654 0,14.488 Q0,11.305 2.263,8.995 Q4.549,6.661 7.75,6.661 Q7.918,6.661 8.084,6.668 Z M9.703,8.058 Q9.586,8.4 9.277,8.588 Q8.968,8.777 8.61,8.724 Q8.184,8.661 7.75,8.661 Q5.39,8.661 3.691,10.395 Q2,12.122 2,14.488 Q2,16.769 3.775,18.384 Q5.551,20 8,20 L18.012,20 Q21.681,20.043 24.345,17.357 Q27,14.681 27,10.991 Q27,7.289 24.352,4.645 Q21.705,2 18,2 Q11.771,2 9.703,8.058 Z"/>
</svg>

