<svg xmlns="http://www.w3.org/2000/svg" width="24" height="24" viewBox="0 0 24 24">
  <defs/>
  <path fill="#212135" d="M0,12 Q0,8.14 0.485,5.956 Q1.015,3.574 2.294,2.294 Q3.574,1.015 5.956,0.485 Q8.14,0 12,0 Q15.86,0 18.044,0.485 Q20.426,1.015 21.706,2.294 Q22.985,3.574 23.515,5.956 Q24,8.14 24,12 Q24,15.86 23.515,18.044 Q22.985,20.427 21.706,21.706 Q20.427,22.985 18.044,23.515 Q15.86,24 12,24 Q8.14,24 5.956,23.515 Q3.574,22.985 2.294,21.706 Q1.015,20.426 0.485,18.044 Q0,15.86 0,12 Z M2,12 Q2,15.64 2.438,17.61 Q2.841,19.424 3.708,20.292 Q4.576,21.159 6.39,21.562 Q8.36,22 12,22 Q15.64,22 17.61,21.562 Q19.424,21.159 20.292,20.292 Q21.159,19.424 21.562,17.61 Q22,15.64 22,12 Q22,8.36 21.562,6.39 Q21.159,4.576 20.292,3.708 Q19.424,2.841 17.61,2.438 Q15.64,2 12,2 Q8.359,2 6.39,2.438 Q4.576,2.841 3.708,3.708 Q2.841,4.576 2.438,6.39 Q2,8.359 2,12 Z"/>
  <path fill="#212135" d="M8.707,10.707 L7.414,12 L8.707,13.293 Q9,13.586 9,14 Q9,14.414 8.707,14.707 Q8.414,15 8,15 Q7.586,15 7.293,14.707 L5.293,12.707 Q5,12.414 5,12 Q5,11.586 5.293,11.293 L7.293,9.293 Q7.586,9 8,9 Q8.414,9 8.707,9.293 Q9,9.586 9,10 Q9,10.414 8.707,10.707 Z"/>
  <path fill="#212135" d="M16.707,9.293 L18.707,11.293 Q19,11.586 19,12 Q19,12.414 18.707,12.707 L16.707,14.707 Q16.414,15 16,15 Q15.586,15 15.293,14.707 Q15,14.414 15,14 Q15,13.586 15.293,13.293 L16.586,12 L15.293,10.707 Q15,10.414 15,10 Q15,9.586 15.293,9.293 Q15.586,9 16,9 Q16.414,9 16.707,9.293 Z"/>
  <path fill="#212135" d="M10.018,17.058 L12.01,6.809 Q12.09,6.403 12.433,6.171 Q12.776,5.939 13.183,6.018 Q13.59,6.097 13.821,6.441 Q14.053,6.784 13.974,7.191 L11.982,17.439 Q11.903,17.846 11.559,18.078 Q11.216,18.309 10.809,18.23 Q10.403,18.151 10.171,17.808 Q9.939,17.464 10.018,17.058 Z"/>
</svg>

