<svg xmlns="http://www.w3.org/2000/svg" width="24" height="24" viewBox="0 0 24 24">
  <defs/>
  <path fill="#212135" d="M12,24 C2.118,24 0,21.882 0,12 C0,2.118 2.118,0 12,0 C21.882,0 24,2.118 24,12 C24,21.882 21.882,24 12,24 Z M10.809,18.23 C11.351,18.336 11.876,17.982 11.982,17.439 L13.974,7.191 C14.079,6.649 13.725,6.124 13.183,6.018 C12.641,5.913 12.116,6.267 12.01,6.809 L10.018,17.058 C9.913,17.6 10.267,18.125 10.809,18.23 Z M8.707,10.707 C9.098,10.317 9.098,9.683 8.707,9.293 C8.317,8.902 7.683,8.902 7.293,9.293 L5.293,11.293 C4.902,11.683 4.902,12.317 5.293,12.707 L7.293,14.707 C7.683,15.098 8.317,15.098 8.707,14.707 C9.098,14.317 9.098,13.683 8.707,13.293 L7.414,12 Z M15.293,10.707 L16.586,12 L15.293,13.293 C14.902,13.683 14.902,14.317 15.293,14.707 C15.683,15.098 16.317,15.098 16.707,14.707 L18.707,12.707 C19.098,12.317 19.098,11.683 18.707,11.293 L16.707,9.293 C16.317,8.902 15.683,8.902 15.293,9.293 C14.902,9.683 14.902,10.317 15.293,10.707 Z"/>
</svg>

