<svg xmlns="http://www.w3.org/2000/svg" width="26" height="24" viewBox="0 0 26 24">
  <defs/>
  <path fill="#212135" d="M7,18 A1 1 0 1 1 5,18 A1 1 0 1 1 7,18 Z"/>
  <path fill="#212135" d="M6,24 C1.059,24 0,21.882 0,12 C0,2.118 1.059,0 6,0 C9.311,0 10.879,0.951 11.553,4.553 C16.239,0.366 18.289,0.319 21.212,3.243 C24.005,6.036 24.087,8.032 20.437,12.29 C24.875,12.859 26,14.399 26,18 C26,22.941 23.882,24 14,24 C11.661,24 9.757,23.941 8.213,23.785 C7.58,23.938 6.847,24 6,24 Z M2.23,17.823 C2.397,19.318 2.649,20.238 2.936,20.811 C3.187,21.314 3.455,21.538 3.79,21.687 C4.207,21.872 4.87,22 6,22 C7.13,22 7.793,21.872 8.21,21.687 C8.545,21.538 8.813,21.314 9.064,20.811 C9.351,20.238 9.603,19.318 9.77,17.823 C9.934,16.346 10,14.449 10,12 C10,9.551 9.934,7.654 9.77,6.177 C9.603,4.682 9.351,3.762 9.064,3.189 C8.813,2.686 8.545,2.462 8.21,2.313 C7.793,2.128 7.13,2 6,2 C4.87,2 4.207,2.128 3.79,2.313 C3.455,2.462 3.187,2.686 2.936,3.189 C2.649,3.762 2.397,4.682 2.23,6.177 C2.066,7.654 2,9.551 2,12 C2,14.449 2.066,16.346 2.23,17.823 Z M12,12 C12,14.511 11.932,16.521 11.748,18.122 C12.809,17.232 14.053,16.058 15.555,14.556 C17.287,12.825 18.582,11.436 19.51,10.276 C20.45,9.101 20.921,8.272 21.124,7.664 C21.302,7.131 21.271,6.784 21.139,6.441 C20.976,6.015 20.597,5.456 19.798,4.657 C18.999,3.858 18.44,3.479 18.014,3.316 C17.671,3.184 17.324,3.153 16.791,3.331 C16.183,3.533 15.354,4.005 14.179,4.945 C13.492,5.495 12.724,6.173 11.853,6.995 C11.958,8.387 12,10.041 12,12 Z M10.724,21.946 C11.689,21.983 12.776,22 14,22 C16.449,22 18.346,21.934 19.823,21.77 C21.318,21.604 22.238,21.351 22.811,21.064 C23.314,20.813 23.538,20.546 23.687,20.21 C23.872,19.793 24,19.13 24,18 C24,16.87 23.872,16.207 23.687,15.79 C23.538,15.455 23.314,15.187 22.811,14.936 C22.238,14.649 21.318,14.397 19.823,14.231 C19.492,14.194 19.139,14.162 18.763,14.134 C18.219,14.708 17.621,15.319 16.969,15.97 C14.521,18.419 12.654,20.102 11.112,21.104 C10.997,21.415 10.868,21.694 10.724,21.946 Z"/>
</svg>

