<svg xmlns="http://www.w3.org/2000/svg" width="26" height="24" viewBox="0 0 26 24">
  <defs/>
  <path fill="#212135" d="M0,12 C0,2.118 1.059,0 6,0 C10.941,0 12,2.118 12,12 C12,21.882 10.941,24 6,24 C1.059,24 0,21.882 0,12 Z M7,18 C7,17.448 6.552,17 6,17 C5.448,17 5,17.448 5,18 C5,18.552 5.448,19 6,19 C6.552,19 7,18.552 7,18 Z"/>
  <path fill="#212135" d="M14.072,19.623 C13.671,19.96 13.063,19.552 13.147,19.033 C13.43,17.265 13.5,14.956 13.5,12 C13.5,8.766 13.416,6.307 13.061,4.484 C13.023,4.286 13.091,4.08 13.244,3.95 C17.448,0.369 19.436,0.467 22.212,3.243 C25.706,6.736 24.957,8.983 17.97,15.97 C16.472,17.468 15.193,18.679 14.072,19.623 Z"/>
  <path fill="#212135" d="M13.008,23.996 C12.495,23.992 12.276,23.328 12.671,22.998 C14.301,21.635 16.234,19.801 18.595,17.44 C20.227,15.809 21.607,14.381 22.753,13.117 C22.901,12.955 23.131,12.894 23.333,12.978 C25.397,13.832 26,15.364 26,18 C26,22.941 23.882,24 14,24 C13.66,24 13.329,23.999 13.008,23.996 Z"/>
</svg>

