<svg xmlns="http://www.w3.org/2000/svg" width="18" height="24" viewBox="0 0 18 24">
  <defs/>
  <path fill="#212135" d="M4.997,9.15 L2.705,7.812 C2.059,7.435 1.624,6.773 1.522,6.011 C1.239,3.908 3.459,2.333 5.24,3.372 L5.411,3.472 C6.63,4.184 8.207,3.729 8.934,2.455 L9.139,2.096 C10.407,-0.123 12.867,-0.463 14.567,0.529 C16.266,1.52 17.205,3.844 15.937,6.064 L15.732,6.422 C15.005,7.696 15.404,9.304 16.622,10.016 L16.794,10.116 C18.575,11.155 18.336,13.886 16.393,14.69 C15.689,14.982 14.903,14.932 14.258,14.555 L11.965,13.217 L8.951,18.495 C8.529,19.234 8.006,19.909 7.397,20.501 L4.637,23.185 C2.686,25.083 -0.528,23.207 0.122,20.551 L1.041,16.792 C1.244,15.963 1.561,15.167 1.983,14.428 Z M5.989,7.414 L7.717,8.422 L11.23,10.472 L12.957,11.48 L15.25,12.819 C15.344,12.874 15.48,12.894 15.629,12.832 C15.851,12.74 15.984,12.547 16.006,12.305 C16.026,12.068 15.934,11.93 15.802,11.852 L15.63,11.752 C13.396,10.448 12.766,7.584 14.005,5.414 L14.005,5.414 L14.006,5.413 L14.006,5.412 L14.007,5.412 L14.007,5.411 L14.007,5.41 L14.008,5.41 L14.008,5.409 L14.009,5.408 L14.009,5.408 L14.009,5.407 L14.01,5.406 L14.01,5.405 L14.01,5.405 L14.011,5.404 L14.011,5.403 L14.012,5.403 L14.012,5.402 L14.012,5.401 L14.013,5.401 L14.013,5.4 L14.014,5.399 L14.014,5.399 L14.014,5.398 L14.015,5.397 L14.016,5.396 L14.016,5.395 L14.016,5.395 L14.017,5.394 L14.017,5.393 L14.017,5.393 L14.018,5.392 L14.018,5.391 L14.019,5.391 L14.019,5.39 L14.019,5.389 L14.02,5.389 L14.02,5.388 L14.021,5.387 L14.021,5.387 L14.021,5.386 L14.022,5.385 L14.022,5.384 L14.023,5.384 L14.023,5.383 L14.023,5.382 L14.024,5.382 L14.024,5.381 L14.024,5.38 L14.025,5.38 L14.025,5.379 L14.026,5.378 L14.026,5.377 L14.027,5.376 L14.027,5.376 L14.028,5.375 L14.028,5.374 L14.028,5.374 L14.029,5.373 L14.029,5.372 L14.03,5.371 L14.03,5.37 L14.031,5.37 L14.031,5.369 L14.031,5.368 L14.032,5.367 L14.032,5.367 L14.033,5.366 L14.033,5.365 L14.034,5.364 L14.034,5.363 L14.035,5.363 L14.035,5.362 L14.035,5.361 L14.036,5.361 L14.036,5.36 L14.037,5.359 L14.037,5.358 L14.038,5.357 L14.038,5.357 L14.038,5.356 L14.039,5.355 L14.039,5.355 L14.04,5.354 L14.04,5.353 L14.04,5.352 L14.041,5.352 L14.041,5.351 L14.042,5.35 L14.042,5.35 L14.042,5.349 L14.043,5.348 L14.043,5.348 L14.043,5.347 L14.044,5.346 L14.044,5.346 L14.045,5.345 L14.045,5.344 L14.045,5.344 L14.046,5.343 L14.046,5.342 L14.047,5.342 L14.047,5.341 L14.047,5.34 L14.048,5.339 L14.049,5.338 L14.049,5.337 L14.049,5.337 L14.05,5.336 L14.05,5.335 L14.05,5.335 L14.051,5.334 L14.051,5.333 L14.052,5.333 L14.052,5.332 L14.052,5.331 L14.053,5.331 L14.053,5.33 L14.054,5.329 L14.054,5.328 L14.054,5.328 L14.055,5.327 L14.055,5.326 L14.056,5.326 L14.056,5.325 L14.056,5.324 L14.057,5.324 L14.057,5.323 L14.058,5.322 L14.058,5.321 L14.059,5.32 L14.059,5.32 L14.06,5.319 L14.06,5.318 L14.061,5.317 L14.061,5.316 L14.061,5.315 L14.062,5.315 L14.062,5.314 L14.063,5.313 L14.063,5.313 L14.064,5.312 L14.064,5.311 L14.064,5.311 L14.065,5.31 L14.065,5.309 L14.066,5.309 L14.066,5.308 L14.066,5.307 L14.067,5.306 L14.068,5.305 L14.068,5.304 L14.068,5.304 L14.069,5.303 L14.069,5.302 L14.069,5.302 L14.07,5.301 L14.071,5.3 L14.071,5.299 L14.071,5.298 L14.072,5.297 L14.072,5.297 L14.073,5.296 L14.073,5.295 L14.074,5.294 L14.074,5.293 L14.075,5.293 L14.075,5.292 L14.075,5.291 L14.076,5.291 L14.076,5.29 L14.076,5.289 L14.077,5.288 L14.077,5.288 L14.078,5.287 L14.078,5.286 L14.078,5.286 L14.079,5.285 L14.079,5.284 L14.08,5.284 L14.08,5.282 L14.081,5.282 L14.081,5.281 L14.082,5.28 L14.082,5.279 L14.083,5.279 L14.083,5.278 L14.083,5.277 L14.084,5.277 L14.084,5.276 L14.085,5.275 L14.085,5.275 L14.085,5.274 L14.086,5.273 L14.086,5.272 L14.086,5.272 L14.087,5.271 L14.087,5.27 L14.088,5.27 L14.088,5.269 L14.088,5.268 L14.089,5.268 L14.089,5.267 L14.09,5.266 L14.09,5.266 L14.09,5.265 L14.091,5.264 L14.091,5.263 L14.092,5.263 L14.092,5.262 L14.092,5.261 L14.093,5.261 L14.093,5.26 L14.094,5.259 L14.094,5.259 L14.094,5.258 L14.095,5.257 L14.095,5.256 L14.096,5.256 L14.096,5.255 L14.096,5.254 L14.097,5.254 L14.097,5.253 L14.098,5.252 L14.098,5.251 L14.099,5.25 L14.099,5.249 L14.1,5.249 L14.1,5.248 L14.101,5.247 L14.101,5.246 L14.102,5.245 L14.102,5.245 L14.102,5.244 L14.103,5.243 L14.104,5.242 L14.104,5.241 L14.104,5.24 L14.105,5.24 L14.105,5.239 L14.106,5.238 L14.106,5.237 L14.107,5.236 L14.107,5.236 L14.108,5.235 L14.108,5.234 L14.108,5.233 L14.109,5.232 L14.11,5.231 L14.11,5.231 L14.11,5.23 L14.111,5.229 L14.111,5.228 L14.112,5.228 L14.112,5.227 L14.112,5.226 L14.113,5.226 L14.113,5.225 L14.114,5.224 L14.114,5.224 L14.114,5.223 L14.115,5.222 L14.116,5.221 L14.116,5.22 L14.116,5.219 L14.117,5.219 L14.117,5.218 L14.118,5.217 L14.118,5.217 L14.118,5.216 L14.119,5.215 L14.119,5.214 L14.12,5.214 L14.12,5.213 L14.12,5.212 L14.121,5.212 L14.121,5.211 L14.122,5.21 L14.122,5.21 L14.122,5.209 L14.123,5.208 L14.123,5.207 L14.124,5.206 L14.124,5.205 L14.125,5.205 L14.125,5.204 L14.126,5.203 L14.126,5.202 L14.126,5.202 L14.127,5.201 L14.127,5.2 L14.128,5.2 L14.128,5.199 L14.128,5.198 L14.129,5.198 L14.129,5.197 L14.13,5.196 L14.13,5.195 L14.13,5.195 L14.131,5.194 L14.131,5.193 L14.132,5.193 L14.132,5.192 L14.132,5.191 L14.133,5.19 L14.133,5.19 L14.134,5.189 L14.134,5.188 L14.135,5.187 L14.135,5.186 L14.136,5.186 L14.136,5.185 L14.137,5.184 L14.137,5.183 L14.138,5.182 L14.138,5.181 L14.139,5.181 L14.139,5.18 L14.139,5.179 L14.14,5.178 L14.14,5.178 L14.141,5.177 L14.141,5.176 L14.141,5.176 L14.142,5.175 L14.142,5.174 L14.143,5.173 L14.143,5.172 L14.144,5.171 L14.144,5.171 L14.145,5.17 L14.145,5.169 L14.145,5.169 L14.146,5.168 L14.146,5.167 L14.147,5.166 L14.147,5.166 L14.148,5.165 L14.148,5.164 L14.148,5.164 L14.149,5.163 L14.149,5.162 L14.149,5.161 L14.15,5.161 L14.151,5.159 L14.151,5.159 L14.151,5.158 L14.152,5.157 L14.152,5.156 L14.153,5.156 L14.153,5.155 L14.153,5.154 L14.154,5.154 L14.154,5.153 L14.155,5.152 L14.156,5.151 L14.156,5.15 L14.156,5.149 L14.157,5.149 L14.157,5.148 L14.158,5.147 L14.158,5.146 L14.158,5.146 L14.159,5.145 L14.159,5.144 L14.16,5.144 L14.16,5.143 L14.16,5.142 L14.161,5.141 L14.161,5.141 L14.162,5.14 L14.162,5.139 L14.163,5.139 L14.163,5.138 L14.163,5.137 L14.164,5.136 L14.164,5.136 L14.165,5.135 L14.165,5.134 L14.165,5.134 L14.166,5.133 L14.166,5.132 L14.167,5.131 L14.167,5.131 L14.167,5.13 L14.168,5.129 L14.168,5.129 L14.169,5.128 L14.169,5.127 L14.169,5.126 L14.17,5.126 L14.17,5.125 L14.171,5.124 L14.171,5.124 L14.172,5.123 L14.172,5.122 L14.172,5.121 L14.173,5.121 L14.173,5.12 L14.174,5.119 L14.174,5.119 L14.174,5.118 L14.175,5.117 L14.175,5.116 L14.176,5.115 L14.176,5.114 L14.177,5.114 L14.177,5.113 L14.178,5.112 L14.178,5.111 L14.178,5.111 L14.179,5.11 L14.179,5.109 L14.18,5.109 L14.18,5.108 L14.181,5.106 L14.181,5.106 L14.182,5.105 L14.182,5.104 L14.182,5.104 L14.183,5.103 L14.183,5.102 L14.184,5.101 L14.184,5.101 L14.185,5.1 L14.185,5.099 L14.185,5.098 L14.186,5.098 L14.186,5.097 L14.187,5.096 L14.187,5.096 L14.188,5.094 L14.188,5.093 L14.189,5.093 L14.189,5.092 L14.189,5.091 L14.19,5.091 L14.19,5.09 L14.191,5.089 L14.191,5.088 L14.192,5.088 L14.192,5.087 L14.193,5.086 L14.193,5.085 L14.194,5.084 L14.194,5.083 L14.195,5.082 L14.195,5.081 L14.196,5.08 L14.196,5.08 L14.196,5.079 L14.197,5.078 L14.197,5.078 L14.198,5.077 L14.198,5.076 L14.199,5.075 L14.199,5.075 L14.199,5.074 L14.2,5.073 L14.2,5.073 L14.201,5.072 L14.201,5.071 L14.201,5.07 L14.202,5.07 L14.202,5.069 L14.203,5.068 L14.203,5.067 L14.204,5.067 L14.204,5.066 L14.204,5.065 L14.205,5.065 L14.205,5.064 L14.206,5.063 L14.206,5.062 L14.207,5.062 L14.207,5.061 L14.207,5.06 L14.208,5.06 L14.208,5.059 L14.208,5.058 L14.209,5.057 L14.209,5.057 L14.21,5.056 C14.885,3.874 14.4,2.747 13.575,2.265 C12.75,1.784 11.542,1.922 10.867,3.105 L10.866,3.105 L10.866,3.106 L10.865,3.107 L10.865,3.108 L10.865,3.108 L10.864,3.109 L10.864,3.11 L10.863,3.111 L10.863,3.111 L10.862,3.112 L10.862,3.113 L10.862,3.113 L10.861,3.114 L10.861,3.115 L10.86,3.116 L10.86,3.116 L10.859,3.117 L10.859,3.118 L10.859,3.119 L10.858,3.119 L10.858,3.12 L10.857,3.121 L10.857,3.121 L10.857,3.122 L10.856,3.123 L10.856,3.124 L10.855,3.124 L10.855,3.125 L10.854,3.126 L10.854,3.127 L10.854,3.127 L10.853,3.128 L10.853,3.129 L10.852,3.129 L10.852,3.13 L10.852,3.131 L10.851,3.132 L10.851,3.132 L10.85,3.133 L10.85,3.134 L10.849,3.135 L10.849,3.135 L10.849,3.136 L10.848,3.138 L10.847,3.138 L10.847,3.139 L10.847,3.14 L10.846,3.141 L10.845,3.142 L10.845,3.143 L10.844,3.143 L10.844,3.144 L10.844,3.145 L10.843,3.145 L10.843,3.146 L10.842,3.147 L10.842,3.148 L10.842,3.148 L10.841,3.149 L10.841,3.15 L10.84,3.151 L10.84,3.151 L10.84,3.152 L10.839,3.153 L10.839,3.153 L10.838,3.154 L10.838,3.155 L10.837,3.156 L10.837,3.157 L10.836,3.158 L10.836,3.159 L10.835,3.159 L10.835,3.161 L10.834,3.161 L10.834,3.162 L10.833,3.163 L10.833,3.164 L10.833,3.164 L10.832,3.165 L10.832,3.166 L10.831,3.167 L10.831,3.167 L10.83,3.168 L10.83,3.169 L10.829,3.17 L10.829,3.171 L10.828,3.172 L10.828,3.172 L10.828,3.173 L10.827,3.174 L10.827,3.174 L10.826,3.175 L10.826,3.176 L10.825,3.177 L10.825,3.177 L10.825,3.178 L10.824,3.179 L10.824,3.179 L10.823,3.18 L10.823,3.181 L10.823,3.182 L10.822,3.182 L10.822,3.183 L10.821,3.184 L10.821,3.185 L10.821,3.185 L10.82,3.187 L10.819,3.187 L10.819,3.188 L10.818,3.189 L10.818,3.19 L10.818,3.19 L10.817,3.191 L10.817,3.192 L10.816,3.192 L10.816,3.193 L10.816,3.194 L10.815,3.195 L10.814,3.196 L10.814,3.197 L10.814,3.197 L10.813,3.198 L10.813,3.199 L10.812,3.2 L10.812,3.2 L10.812,3.201 L10.811,3.202 L10.811,3.202 L10.81,3.203 L10.81,3.204 L10.809,3.205 L10.809,3.205 L10.809,3.206 L10.808,3.207 L10.808,3.207 L10.807,3.208 L10.807,3.209 L10.807,3.21 L10.806,3.21 L10.806,3.211 L10.806,3.212 L10.805,3.212 L10.805,3.213 L10.804,3.214 L10.804,3.215 L10.803,3.215 L10.803,3.216 L10.803,3.217 L10.802,3.217 L10.802,3.218 L10.801,3.219 L10.801,3.22 L10.8,3.221 L10.8,3.222 L10.799,3.222 L10.799,3.223 L10.798,3.225 L10.798,3.225 L10.797,3.226 L10.797,3.227 L10.797,3.227 L10.796,3.228 L10.796,3.229 L10.795,3.23 L10.795,3.23 L10.795,3.231 L10.794,3.232 L10.794,3.232 L10.793,3.233 L10.793,3.234 L10.792,3.235 L10.792,3.235 L10.792,3.236 L10.791,3.237 L10.791,3.237 L10.79,3.238 L10.79,3.24 L10.789,3.24 L10.789,3.241 L10.788,3.242 L10.788,3.242 L10.788,3.243 L10.787,3.244 L10.787,3.244 L10.786,3.245 L10.786,3.246 L10.786,3.247 L10.785,3.247 L10.785,3.248 L10.784,3.249 L10.784,3.249 L10.783,3.25 L10.783,3.251 L10.783,3.252 L10.782,3.252 L10.782,3.253 L10.781,3.254 L10.781,3.254 L10.781,3.255 L10.78,3.256 L10.78,3.257 L10.78,3.257 L10.779,3.258 L10.779,3.259 L10.778,3.259 L10.778,3.26 L10.778,3.261 L10.777,3.261 L10.777,3.262 L10.776,3.263 L10.776,3.264 L10.776,3.264 L10.775,3.265 L10.775,3.266 L10.774,3.266 L10.774,3.267 L10.774,3.268 L10.773,3.268 L10.773,3.269 L10.772,3.27 L10.772,3.271 L10.771,3.271 L10.771,3.272 L10.771,3.273 L10.77,3.273 L10.77,3.274 L10.769,3.275 L10.769,3.276 L10.769,3.276 L10.768,3.277 L10.768,3.278 L10.767,3.278 L10.767,3.279 L10.767,3.28 L10.766,3.281 L10.765,3.282 L10.765,3.283 L10.765,3.283 L10.764,3.284 L10.764,3.285 L10.763,3.285 L10.763,3.286 L10.762,3.287 L10.762,3.288 L10.761,3.289 L10.761,3.29 L10.761,3.29 L10.76,3.291 L10.759,3.292 L10.759,3.293 L10.759,3.294 L10.758,3.294 L10.758,3.295 L10.757,3.296 L10.757,3.297 L10.756,3.298 L10.756,3.299 L10.755,3.299 L10.755,3.3 L10.755,3.301 L10.754,3.302 L10.753,3.303 L10.753,3.304 L10.753,3.304 L10.752,3.305 L10.752,3.306 L10.751,3.306 L10.751,3.307 L10.75,3.308 L10.75,3.309 L10.75,3.31 L10.749,3.311 L10.749,3.311 L10.748,3.312 L10.748,3.313 L10.748,3.313 L10.747,3.314 L10.747,3.315 L10.746,3.315 L10.746,3.316 L10.745,3.317 L10.745,3.317 L10.745,3.318 L10.744,3.319 L10.744,3.32 L10.743,3.32 L10.743,3.321 L10.743,3.322 L10.742,3.322 L10.742,3.323 L10.741,3.324 L10.741,3.324 L10.741,3.325 L10.74,3.326 L10.74,3.326 L10.74,3.327 L10.739,3.328 L10.739,3.329 L10.738,3.329 L10.738,3.33 L10.738,3.331 L10.737,3.331 L10.737,3.332 L10.736,3.333 L10.736,3.333 L10.736,3.334 L10.735,3.335 L10.735,3.336 L10.734,3.336 L10.734,3.337 L10.734,3.338 L10.733,3.338 L10.733,3.339 L10.732,3.34 L10.732,3.341 L10.731,3.342 L10.731,3.342 L10.73,3.343 L10.73,3.344 L10.73,3.344 L10.729,3.345 L10.729,3.347 L10.728,3.347 L10.728,3.348 L10.727,3.349 L10.727,3.349 L10.726,3.35 L10.726,3.351 L10.726,3.351 L10.725,3.352 L10.725,3.353 L10.724,3.353 L10.724,3.354 L10.724,3.355 L10.723,3.356 L10.723,3.356 L10.722,3.358 L10.722,3.358 L10.721,3.359 L10.721,3.36 L10.721,3.36 L10.72,3.361 L10.72,3.362 L10.719,3.362 L10.719,3.363 L10.719,3.364 L10.718,3.364 L10.718,3.365 L10.717,3.366 L10.717,3.367 L10.717,3.367 L10.716,3.368 L10.716,3.369 L10.715,3.369 L10.715,3.37 L10.715,3.371 L10.714,3.371 L10.714,3.372 L10.714,3.373 L10.713,3.373 L10.713,3.374 L10.712,3.375 L10.712,3.375 L10.712,3.376 L10.711,3.377 L10.711,3.377 L10.71,3.378 L10.71,3.379 L10.71,3.38 L10.709,3.38 L10.709,3.381 L10.708,3.382 L10.708,3.382 L10.708,3.383 L10.707,3.384 L10.707,3.384 L10.707,3.385 L10.706,3.386 L10.706,3.386 L10.705,3.387 L10.705,3.388 L10.705,3.388 L10.704,3.389 L10.704,3.39 L10.703,3.39 L10.703,3.391 L10.703,3.392 L10.702,3.393 L10.701,3.394 L10.701,3.395 L10.701,3.395 L10.7,3.396 L10.7,3.397 L10.7,3.397 L10.699,3.398 L10.699,3.399 L10.698,3.399 L10.698,3.4 L10.698,3.401 L10.697,3.401 L10.697,3.402 L10.696,3.403 L10.696,3.403 L10.696,3.404 L10.695,3.405 L10.695,3.405 L10.694,3.406 L10.694,3.407 L10.694,3.407 L10.693,3.408 L10.693,3.409 L10.693,3.409 L10.692,3.41 L10.692,3.411 L10.691,3.412 L10.691,3.412 L10.691,3.413 L10.69,3.414 L10.69,3.414 L10.689,3.415 L10.689,3.416 L10.689,3.416 L10.688,3.417 L10.688,3.418 L10.687,3.419 L10.687,3.42 L10.686,3.42 L10.686,3.421 L10.686,3.422 L10.685,3.422 L10.685,3.423 L10.684,3.424 L10.684,3.424 L10.684,3.425 L10.683,3.426 L10.683,3.426 L10.682,3.427 L10.682,3.428 L10.682,3.428 L10.681,3.429 L10.681,3.43 L10.681,3.43 L10.68,3.431 L10.68,3.432 L10.679,3.432 L10.679,3.433 L10.679,3.434 L10.678,3.435 L10.678,3.435 L10.677,3.436 L10.677,3.437 L10.677,3.437 L10.676,3.438 L10.676,3.439 L10.675,3.439 L10.675,3.44 L10.675,3.441 L10.674,3.441 L10.674,3.442 L10.674,3.443 L10.673,3.443 L10.673,3.444 L10.672,3.445 L10.672,3.445 L10.672,3.446 L10.671,3.447 L10.671,3.448 L10.67,3.449 L10.67,3.449 L10.669,3.45 L10.669,3.451 L10.669,3.451 L10.668,3.452 L10.668,3.453 L10.667,3.453 L10.667,3.455 L10.666,3.455 L10.666,3.456 L10.666,3.457 L10.665,3.457 L10.665,3.458 L10.664,3.459 L10.664,3.459 L10.664,3.46 L10.663,3.461 L10.663,3.462 L10.662,3.463 L10.662,3.463 C9.423,5.633 6.654,6.513 4.419,5.209 L4.248,5.109 C4.116,5.032 3.951,5.02 3.758,5.157 C3.562,5.297 3.463,5.51 3.495,5.75 C3.517,5.912 3.602,6.02 3.696,6.075 Z M6.725,10.158 L3.711,15.436 C3.381,16.013 3.134,16.634 2.975,17.281 L2.357,19.809 L2.31,20.001 L2.163,20.601 L2.056,21.04 C1.885,21.741 2.736,22.237 3.25,21.737 L3.573,21.424 L4.014,20.995 L4.154,20.858 L6.011,19.053 C6.486,18.591 6.894,18.063 7.224,17.486 L9.246,13.946 L10.238,12.209 L8.511,11.201 Z"/>
</svg>

