<svg xmlns="http://www.w3.org/2000/svg" width="24" height="24" viewBox="0 0 24 24">
  <defs/>
  <path fill="#212135" d="M12,0 Q15.878,0 18.044,0.417 Q20.43,0.876 21.706,2 Q24,4.022 24,10.667 Q24,15.393 22.938,17.5 Q22.313,18.739 21.258,19.354 Q20.15,20 18.5,20 Q16.989,20 16.066,20.625 Q15.454,21.04 14.844,22 L14.705,22.219 L14.704,22.22 Q14.176,23.06 13.824,23.375 Q13.128,24 12,24 Q10.873,24 10.176,23.375 Q9.824,23.059 9.295,22.219 L9.155,21.998 Q8.547,21.04 7.934,20.625 Q7.011,20 5.5,20 Q3.854,20 2.742,19.338 Q1.69,18.712 1.063,17.457 Q0,15.332 0,10.667 Q0,4.079 2.294,2.039 Q3.574,0.902 5.956,0.431 Q8.14,0 12,0 Z M12,2 Q8.336,2 6.344,2.394 Q4.495,2.759 3.623,3.534 Q2,4.977 2,10.667 Q2,14.86 2.852,16.563 Q3.216,17.293 3.765,17.62 Q4.404,18 5.5,18 Q7.625,18 9.056,18.969 Q10.012,19.617 10.846,20.93 L10.988,21.153 Q11.368,21.757 11.512,21.886 Q11.639,22 12,22 Q12.362,22 12.489,21.886 Q12.633,21.757 13.013,21.153 L13.014,21.152 L13.156,20.927 Q13.988,19.617 14.945,18.969 Q16.375,18 18.5,18 Q19.61,18 20.251,17.626 Q20.794,17.31 21.152,16.6 Q22,14.918 22,10.667 Q22,4.925 20.383,3.5 Q19.517,2.737 17.666,2.381 Q15.688,2 12,2 Z"/>
  <path fill="#212135" d="M9,11 A1 1 0 1 1 7,11 A1 1 0 1 1 9,11 Z"/>
  <path fill="#212135" d="M13,11 A1 1 0 1 1 11,11 A1 1 0 1 1 13,11 Z"/>
  <path fill="#212135" d="M17,11 A1 1 0 1 1 15,11 A1 1 0 1 1 17,11 Z"/>
</svg>

