<svg xmlns="http://www.w3.org/2000/svg" width="24" height="24" viewBox="0 0 24 24">
  <defs/>
  <path fill="#212135" d="M24,10.667 C24,16.444 23,20 18.5,20 C16.095,20 15.38,21.142 14.714,22.206 C14.134,23.133 13.591,24 12,24 C10.41,24 9.867,23.133 9.287,22.206 C8.62,21.142 7.905,20 5.5,20 C1,20 0,16.331 0,10.667 C0,1.883 2.118,0 12,0 C21.882,0 24,1.778 24,10.667 Z M13,11 C13,10.448 12.552,10 12,10 C11.448,10 11,10.448 11,11 C11,11.552 11.448,12 12,12 C12.552,12 13,11.552 13,11 Z M16,12 C16.552,12 17,11.552 17,11 C17,10.448 16.552,10 16,10 C15.448,10 15,10.448 15,11 C15,11.552 15.448,12 16,12 Z M8,12 C8.552,12 9,11.552 9,11 C9,10.448 8.552,10 8,10 C7.448,10 7,10.448 7,11 C7,11.552 7.448,12 8,12 Z"/>
</svg>

