<svg xmlns="http://www.w3.org/2000/svg" width="24" height="22" viewBox="0 0 24 22">
  <defs/>
  <path fill="#212135" d="M4,11 C4,10.448 4.448,10 5,10 L19,10 C19.552,10 20,10.448 20,11 C20,11.552 19.552,12 19,12 L5,12 C4.448,12 4,11.552 4,11 Z M13,15 L13,21 C13,21.552 12.552,22 12,22 C11.448,22 11,21.552 11,21 L11,15 C11,14.448 11.448,14 12,14 C12.552,14 13,14.448 13,15 Z M9,15 C9,15.502 8.99,16.459 8.789,17.346 C8.663,17.903 8.419,18.455 8.227,18.84 C8.128,19.038 8.036,19.206 7.968,19.326 C7.934,19.385 7.906,19.433 7.886,19.468 L7.861,19.508 L7.854,19.52 L7.852,19.524 L7.851,19.526 L7.85,19.526 L7.85,19.526 C7.85,19.527 7.85,19.527 7.04,19.025 L7.85,19.527 C7.559,19.996 6.943,20.141 6.473,19.85 C6.004,19.559 5.859,18.944 6.149,18.474 L6.15,18.474 L6.15,18.474 C6.15,18.473 6.151,18.474 6.982,18.989 L6.15,18.473 L6.153,18.469 L6.168,18.444 C6.182,18.42 6.203,18.384 6.23,18.337 C6.283,18.243 6.357,18.108 6.437,17.948 C6.603,17.615 6.765,17.23 6.839,16.904 C6.985,16.256 7,15.498 7,15 C7,14.448 7.448,14 8,14 C8.552,14 9,14.448 9,15 Z M15,15 C15,14.448 15.448,14 16,14 C16.552,14 17,14.448 17,15 C17,15.498 17.015,16.256 17.161,16.904 C17.235,17.23 17.397,17.615 17.563,17.948 C17.642,18.108 17.717,18.243 17.77,18.337 C17.797,18.384 17.818,18.42 17.832,18.444 L17.847,18.469 L17.85,18.473 L17,19 C17.844,18.477 17.85,18.474 17.85,18.474 L17.85,18.474 L17.851,18.474 C18.141,18.944 17.996,19.559 17.527,19.85 C17.057,20.141 16.441,19.996 16.15,19.527 L16.96,19.025 C16.156,19.523 16.15,19.526 16.15,19.526 L16.15,19.526 L16.149,19.526 L16.148,19.524 L16.146,19.52 L16.139,19.508 L16.114,19.468 C16.094,19.433 16.066,19.385 16.032,19.326 C15.964,19.206 15.872,19.038 15.773,18.84 C15.582,18.455 15.337,17.903 15.211,17.346 C15.01,16.459 15,15.502 15,15 Z"/>
  <path fill="#212135" d="M2,10 C2,14.142 2.589,15.731 3.575,16.552 C3.823,16.758 4,17.049 4,17.372 L4,17.47 C4,18.237 3.219,18.766 2.595,18.32 C0.589,16.886 0,14.343 0,10 C0,1.765 2.118,0 12,0 C21.882,0 24,1.765 24,10 C24,14.343 23.411,16.886 21.405,18.32 C20.781,18.766 20,18.237 20,17.47 L20,17.372 C20,17.049 20.177,16.758 20.425,16.552 C21.411,15.731 22,14.142 22,10 C22,5.858 21.411,4.269 20.425,3.448 C19.903,3.013 19.081,2.631 17.68,2.371 C16.273,2.111 14.433,2 12,2 C9.567,2 7.727,2.111 6.32,2.371 C4.919,2.631 4.097,3.013 3.575,3.448 C2.589,4.269 2,5.858 2,10 Z"/>
</svg>

