<svg xmlns="http://www.w3.org/2000/svg" width="24" height="24" viewBox="0 0 24 24">
  <defs/>
  <path fill="#212135" d="M19,18.086 L19,17 C19,15.895 18.105,15 17,15 L7,15 C5.895,15 5,15.895 5,17 L5,18.086 C5,18.742 4.374,19.226 3.77,18.969 C0.811,17.714 0,15.095 0,10 C0,1.765 2.118,0 12,0 C21.882,0 24,1.765 24,10 C24,15.095 23.189,17.714 20.23,18.969 C19.626,19.226 19,18.742 19,18.086 Z M5,10 C4.448,10 4,10.448 4,11 C4,11.552 4.448,12 5,12 L19,12 C19.552,12 20,11.552 20,11 C20,10.448 19.552,10 19,10 Z"/>
  <path fill="#212135" d="M15,17 C15,16.448 15.448,16 16,16 C16.552,16 17,16.448 17,17 C17,17.498 17.015,18.256 17.161,18.904 C17.235,19.23 17.397,19.616 17.563,19.948 C17.642,20.108 17.717,20.243 17.77,20.337 C17.797,20.384 17.818,20.42 17.832,20.444 L17.848,20.469 L17.85,20.473 L17,21 C17.85,20.473 17.85,20.473 17.85,20.473 L17.851,20.474 C18.141,20.944 17.996,21.559 17.527,21.85 C17.057,22.141 16.441,21.996 16.15,21.527 L16.96,21.025 C16.15,21.527 16.15,21.527 16.15,21.527 L16.149,21.526 L16.148,21.524 L16.146,21.52 L16.139,21.508 L16.114,21.468 C16.094,21.433 16.066,21.385 16.032,21.326 C15.964,21.206 15.872,21.038 15.773,20.84 C15.582,20.456 15.337,19.903 15.211,19.346 C15.01,18.459 15,17.502 15,17 Z"/>
  <path fill="#212135" d="M8,16 C8.552,16 9,16.448 9,17 C9,17.502 8.99,18.459 8.789,19.346 C8.663,19.903 8.419,20.456 8.227,20.84 C8.128,21.038 8.036,21.206 7.968,21.326 C7.934,21.385 7.906,21.433 7.886,21.468 L7.861,21.508 L7.854,21.52 L7.852,21.524 L7.851,21.526 C7.851,21.526 7.85,21.527 7.04,21.025 L7.85,21.527 C7.559,21.996 6.943,22.141 6.473,21.85 C6.004,21.559 5.859,20.944 6.149,20.474 C6.149,20.474 6.15,20.473 7,21 L6.15,20.473 L6.153,20.469 L6.168,20.444 C6.182,20.42 6.203,20.384 6.23,20.337 C6.283,20.243 6.357,20.108 6.437,19.948 C6.603,19.616 6.765,19.23 6.839,18.904 C6.985,18.256 7,17.498 7,17 C7,16.448 7.448,16 8,16 Z"/>
  <path fill="#212135" d="M12,16 C11.448,16 11,16.448 11,17 L11,23 C11,23.552 11.448,24 12,24 C12.552,24 13,23.552 13,23 L13,17 C13,16.448 12.552,16 12,16 Z"/>
</svg>

