<svg xmlns="http://www.w3.org/2000/svg" width="24" height="24" viewBox="0 0 24 24">
  <defs/>
  <path fill="#212135" d="M0,13.846 Q0,10.58 0.411,8.732 Q0.859,6.716 1.941,5.634 Q3.024,4.551 5.04,4.103 Q6.888,3.692 10.154,3.692 Q13.42,3.692 15.268,4.103 Q17.284,4.551 18.367,5.634 Q19.449,6.716 19.897,8.732 Q20.308,10.58 20.308,13.846 Q20.308,17.112 19.897,18.96 Q19.449,20.976 18.366,22.059 Q17.284,23.141 15.268,23.589 Q13.42,24 10.154,24 Q6.888,24 5.04,23.589 Q3.024,23.141 1.941,22.059 Q0.859,20.976 0.411,18.96 Q0,17.112 0,13.846 Z M2,13.846 Q2,16.893 2.363,18.526 Q2.685,19.974 3.356,20.645 Q4.026,21.315 5.474,21.637 Q7.107,22 10.154,22 Q13.201,22 14.834,21.637 Q16.281,21.315 16.952,20.645 Q17.623,19.974 17.945,18.526 Q18.308,16.893 18.308,13.846 Q18.308,10.799 17.945,9.166 Q17.623,7.719 16.952,7.048 Q16.282,6.377 14.834,6.055 Q13.201,5.692 10.154,5.692 Q7.107,5.692 5.474,6.055 Q4.026,6.377 3.356,7.048 Q2.685,7.719 2.363,9.166 Q2,10.799 2,13.846 Z"/>
  <path fill="#212135" d="M20.273,15.686 C20.505,15.559 20.681,15.422 20.821,15.283 C21.148,14.955 21.456,14.43 21.674,13.446 C21.898,12.439 22,11.085 22,9.231 C22,5.524 21.488,4.009 20.74,3.26 C19.991,2.512 18.476,2 14.769,2 C12.914,2 11.561,2.102 10.554,2.326 C9.57,2.544 9.045,2.852 8.717,3.179 C8.578,3.319 8.441,3.495 8.314,3.727 C7.497,3.762 6.757,3.822 6.086,3.916 C7.037,0.804 9.43,0 14.769,0 C22.154,0 24,1.846 24,9.231 C24,14.57 23.196,16.963 20.083,17.914 C20.178,17.243 20.238,16.503 20.273,15.686 Z"/>
</svg>

