<svg xmlns="http://www.w3.org/2000/svg" width="24" height="24" viewBox="0 0 24 24">
  <defs/>
  <path fill="#212135" d="M20.084,17.914 C20.178,17.243 20.238,16.503 20.273,15.686 C20.505,15.559 20.681,15.422 20.821,15.283 C21.148,14.955 21.456,14.43 21.674,13.446 C21.898,12.439 22,11.085 22,9.231 C22,5.524 21.488,4.009 20.74,3.26 C19.991,2.512 18.476,2 14.769,2 C12.915,2 11.561,2.102 10.554,2.326 C9.57,2.544 9.045,2.852 8.718,3.179 C8.578,3.319 8.442,3.495 8.314,3.727 C8.889,3.703 9.501,3.692 10.154,3.692 C18.515,3.692 20.308,5.484 20.308,13.846 C20.308,22.208 18.515,24 10.154,24 C1.792,24 0,22.208 0,13.846 C0,7.064 1.179,4.604 6.086,3.916 C7.037,0.804 9.43,0 14.769,0 C22.154,0 24,1.846 24,9.231 C24,14.57 23.196,16.963 20.084,17.914 Z"/>
</svg>

