<svg xmlns="http://www.w3.org/2000/svg" width="24" height="24" viewBox="0 0 24 24">
  <defs/>
  <path fill="#212135" d="M2.608,10.819 L2.573,10.982 L1.595,10.773 L0.618,10.563 L0.666,10.338 Q0.184,9.925 0.047,9.177 Q0.009,8.968 0.03,8.285 Q0.106,5.787 0.571,4.538 Q1.463,2.142 3.5,1 Q5.284,0 9.778,0 L14.222,0 Q18.716,0 20.5,1 Q22.537,2.142 23.429,4.538 Q23.882,5.756 23.966,8.163 L24.132,8.193 L23.953,9.174 L23.953,9.177 L23.952,9.177 L23.951,9.183 L23.773,10.16 L23.546,10.119 Q23.148,10.613 22.405,10.773 Q22.197,10.817 21.468,10.817 Q20.281,10.817 20.281,12.273 Q20.281,12.865 20.637,13.312 Q20.968,13.729 21.468,13.729 Q22.183,13.729 22.389,13.773 Q23.722,14.057 23.945,15.402 Q23.979,15.61 23.949,16.259 Q23.854,18.319 23.429,19.462 Q22.537,21.858 20.5,23 Q18.716,24 14.222,24 L9.778,24 Q5.284,24 3.5,23 Q1.463,21.858 0.571,19.462 Q0.146,18.319 0.051,16.259 Q0.021,15.61 0.055,15.402 Q0.278,14.057 1.611,13.773 Q1.817,13.729 2.532,13.729 Q3.719,13.729 3.719,12.273 Q3.719,10.865 2.608,10.819 Z M2.532,8.817 Q5.719,8.817 5.719,12.273 Q5.719,15.729 2.532,15.729 Q2.168,15.729 2.042,15.733 L2.029,15.729 L2.028,15.729 L2.033,15.732 Q2.034,15.841 2.049,16.167 Q2.129,17.914 2.446,18.764 Q3.082,20.473 4.478,21.255 Q5.806,22 9.778,22 L14.222,22 Q18.194,22 19.522,21.255 Q20.918,20.473 21.554,18.764 Q21.871,17.914 21.951,16.167 Q21.972,15.729 21.972,15.729 L21.972,15.729 L21.958,15.733 Q21.832,15.729 21.468,15.729 Q20.002,15.729 19.071,14.556 Q18.281,13.562 18.281,12.273 Q18.281,10.983 19.071,9.99 Q20.002,8.817 21.468,8.817 Q21.84,8.817 21.97,8.813 L21.985,8.817 Q21.985,8.81 21.971,8.346 Q21.905,6.177 21.554,5.236 Q20.918,3.527 19.522,2.745 Q18.194,2 14.222,2 L9.778,2 Q5.806,2 4.478,2.745 Q3.082,3.527 2.446,5.236 Q2.095,6.177 2.029,8.346 Q2.019,8.691 2.019,8.809 L2.015,8.817 L2.015,8.817 L2.03,8.813 Q2.16,8.817 2.532,8.817 Z"/>
  <path fill="#212135" d="M14.718,13.313 Q14.733,13.412 14.767,13.517 L15.163,14.736 Q15.291,15.13 15.103,15.499 Q14.915,15.868 14.521,15.996 Q14.037,16.154 13.625,15.854 L12.588,15.101 Q12.498,15.036 12.409,14.99 Q12.422,15.12 12.4,15.257 Q12.335,15.666 12,15.91 Q11.665,16.153 11.256,16.088 Q10.847,16.024 10.603,15.689 L10.375,15.854 Q10.04,16.098 9.631,16.033 Q9.222,15.968 8.979,15.633 Q8.679,15.221 8.837,14.736 L9.233,13.517 Q9.457,12.826 8.869,12.399 L7.832,11.646 Q7.497,11.402 7.433,10.993 Q7.368,10.584 7.611,10.249 Q7.911,9.837 8.42,9.837 L9.702,9.837 Q10.428,9.837 10.653,9.146 L11.049,7.927 Q11.177,7.533 11.546,7.345 Q11.915,7.157 12.309,7.285 Q12.794,7.442 12.951,7.927 L13.347,9.146 Q13.572,9.837 14.298,9.837 L15.58,9.837 Q15.994,9.837 16.287,10.13 Q16.58,10.423 16.58,10.837 Q16.58,11.346 16.167,11.646 L15.94,11.811 Q16.183,12.146 16.118,12.556 Q16.054,12.965 15.719,13.208 Q15.383,13.452 14.974,13.387 Q14.837,13.365 14.718,13.313 Z M11.319,12.938 Q12,12.747 12.681,12.938 Q12.71,12.231 13.103,11.642 Q12.439,11.396 12,10.841 Q11.561,11.396 10.897,11.642 Q11.29,12.231 11.319,12.938 Z"/>
</svg>

