<svg xmlns="http://www.w3.org/2000/svg" width="24" height="24" viewBox="0 0 24 24">
  <defs/>
  <path fill="#212135" d="M10.824,11.618 C11.28,11.434 11.684,11.141 12,10.765 C12.316,11.141 12.72,11.434 13.176,11.618 C12.916,12.035 12.761,12.509 12.727,12.999 C12.25,12.88 11.75,12.88 11.273,12.999 C11.239,12.509 11.084,12.035 10.824,11.618 Z"/>
  <path fill="#212135" d="M1.579,10.773 C0.801,10.606 0.171,9.958 0.028,9.177 C-0.01,8.968 -0.003,8.74 0.011,8.285 C0.062,6.62 0.197,5.494 0.553,4.538 C1.186,2.84 2.1,1.776 3.486,1 C4.741,0.298 6.551,0 9.775,0 L14.225,0 C17.449,0 19.259,0.298 20.514,1 C21.9,1.776 22.814,2.84 23.447,4.538 C23.803,5.494 23.938,6.62 23.989,8.285 L23.989,8.286 C24.003,8.741 24.01,8.968 23.972,9.177 C23.829,9.958 23.199,10.606 22.421,10.773 C22.213,10.817 21.97,10.817 21.483,10.817 C20.827,10.817 20.295,11.469 20.295,12.273 C20.295,13.077 20.827,13.729 21.483,13.729 C21.96,13.729 22.199,13.729 22.405,13.773 C23.189,13.94 23.833,14.613 23.964,15.402 C23.998,15.61 23.988,15.826 23.968,16.259 C23.905,17.632 23.763,18.614 23.447,19.462 C22.814,21.16 21.9,22.224 20.514,23 C19.259,23.702 17.449,24 14.225,24 L9.775,24 C6.551,24 4.741,23.702 3.486,23 C2.1,22.224 1.186,21.16 0.553,19.462 C0.237,18.614 0.095,17.632 0.032,16.259 C0.012,15.826 0.002,15.61 0.036,15.402 C0.167,14.613 0.811,13.94 1.595,13.773 C1.801,13.729 2.04,13.729 2.517,13.729 C3.173,13.729 3.705,13.077 3.705,12.273 C3.705,11.469 3.173,10.817 2.517,10.817 C2.03,10.817 1.787,10.817 1.579,10.773 Z M11.047,7.927 L10.651,9.146 C10.517,9.558 10.132,9.837 9.698,9.837 L8.415,9.837 C7.444,9.837 7.041,11.076 7.826,11.646 L8.864,12.399 C9.215,12.654 9.362,13.105 9.228,13.517 L8.832,14.736 C8.532,15.657 9.588,16.424 10.373,15.854 L11.411,15.101 C11.762,14.846 12.238,14.846 12.589,15.101 L13.627,15.854 C14.412,16.424 15.468,15.657 15.168,14.736 L14.772,13.517 C14.638,13.105 14.785,12.654 15.136,12.399 L16.174,11.646 C16.959,11.076 16.556,9.837 15.585,9.837 L14.302,9.837 C13.868,9.837 13.483,9.558 13.349,9.146 L12.953,7.927 C12.653,7.006 11.347,7.006 11.047,7.927 Z"/>
</svg>

