<svg xmlns="http://www.w3.org/2000/svg" width="24" height="24" viewBox="0 0 24 24">
  <defs/>
  <path fill="#212135" d="M0,12 C0,11.401 0.008,10.832 0.025,10.289 C0.03,10.127 0.162,10 0.323,10 L23.677,10 C23.838,10 23.971,10.127 23.975,10.289 C23.992,10.832 24,11.401 24,12 C24,21.882 21.882,24 12,24 C2.118,24 0,21.882 0,12 Z M18,19 C18.552,19 19,18.552 19,18 C19,17.448 18.552,17 18,17 L14,17 C13.448,17 13,17.448 13,18 C13,18.552 13.448,19 14,19 Z"/>
  <path fill="#212135" d="M0.561,5.636 C0.514,5.822 0.657,6 0.848,6 L23.152,6 C23.343,6 23.486,5.822 23.439,5.636 C22.315,1.138 19.243,0 12,0 C4.757,0 1.685,1.138 0.561,5.636 Z"/>
</svg>

