<svg xmlns="http://www.w3.org/2000/svg" width="24" height="24" viewBox="0 0 24 24">
  <defs/>
  <path fill="#212135" d="M11.949,16 Q11.016,16 10.623,15.956 Q9.504,15.832 8.836,15.164 Q8.168,14.496 8.043,13.377 Q8,12.985 8,12.051 L8,11.949 Q8,11.015 8.043,10.623 Q8.168,9.504 8.836,8.836 Q9.504,8.168 10.623,8.043 Q11.015,8 11.949,8 L12.051,8 Q12.985,8 13.377,8.043 Q14.496,8.168 15.164,8.836 Q15.832,9.504 15.956,10.623 Q16,11.016 16,11.95 L16,12.051 Q16,12.984 15.956,13.377 Q15.832,14.496 15.164,15.164 Q14.496,15.832 13.377,15.956 Q12.984,16 12.05,16 L11.949,16 Z M12,14 L12.051,14 Q12.873,14 13.156,13.969 Q13.578,13.922 13.75,13.75 Q13.922,13.578 13.969,13.156 Q14,12.873 14,12.051 L14,11.949 Q14,11.127 13.969,10.844 Q13.922,10.422 13.75,10.25 Q13.578,10.078 13.156,10.031 Q12.874,10 12.051,10 L11.949,10 Q11.126,10 10.844,10.031 Q10.422,10.078 10.25,10.25 Q10.078,10.422 10.031,10.844 Q10,11.126 10,11.949 L10,12.051 Q10,12.874 10.031,13.156 Q10.078,13.578 10.25,13.75 Q10.422,13.922 10.844,13.969 Q11.127,14 11.949,14 L12,14 Z"/>
  <path fill="#212135" d="M21,19 L23,19 C23.552,19 24,19.448 24,20 C24,20.552 23.552,21 23,21 L21,21 L21,23 C21,23.552 20.552,24 20,24 C19.448,24 19,23.552 19,23 L19,21 L11.927,21 C10.103,21 8.634,21 7.478,20.845 C6.278,20.683 5.267,20.338 4.464,19.535 C3.662,18.733 3.317,17.722 3.155,16.522 C3,15.366 3,13.897 3,12.073 L3,5 L1,5 C0.448,5 0,4.552 0,4 C0,3.448 0.448,3 1,3 L3,3 L3,1 C3,0.448 3.448,0 4,0 C4.552,0 5,0.448 5,1 L5,3 L12.073,3 C13.897,3 15.366,3 16.522,3.155 C17.722,3.317 18.733,3.662 19.535,4.464 C20.338,5.267 20.683,6.278 20.845,7.478 C21,8.634 21,10.103 21,11.927 Z M12,19 L19,19 L19,12 C19,10.086 18.998,8.751 18.862,7.744 C18.731,6.766 18.49,6.248 18.121,5.879 C17.752,5.51 17.234,5.269 16.256,5.138 C15.249,5.002 13.914,5 12,5 L5,5 L5,12 C5,13.914 5.002,15.249 5.138,16.256 C5.269,17.234 5.51,17.752 5.879,18.121 C6.248,18.49 6.766,18.731 7.744,18.862 C8.751,18.998 10.086,19 12,19 Z"/>
</svg>

