<svg xmlns="http://www.w3.org/2000/svg" width="24" height="24" viewBox="0 0 24 24">
  <defs/>
  <path fill="#212135" d="M8,12 C8,14 8,15 8.5,15.5 C9,16 10,16 12,16 C14,16 15,16 15.5,15.5 C16,15 16,14 16,12 C16,10 16,9 15.5,8.5 C15,8 14,8 12,8 C10,8 9,8 8.5,8.5 C8,9 8,10 8,12 Z"/>
  <path fill="#212135" d="M21,19 L23,19 C23.552,19 24,19.448 24,20 C24,20.552 23.552,21 23,21 L21,21 L21,23 C21,23.552 20.552,24 20,24 C19.448,24 19,23.552 19,23 L19,21 L11.927,21 C10.103,21 8.634,21 7.478,20.845 C6.278,20.683 5.267,20.338 4.464,19.535 C3.662,18.733 3.317,17.722 3.155,16.522 C3,15.366 3,13.897 3,12.073 L3,5 L1,5 C0.448,5 0,4.552 0,4 C0,3.448 0.448,3 1,3 L3,3 L3,1 C3,0.448 3.448,0 4,0 C4.552,0 5,0.448 5,1 L5,3 L12.073,3 C13.897,3 15.366,3 16.522,3.155 C17.722,3.317 18.733,3.662 19.535,4.464 C20.338,5.267 20.683,6.278 20.845,7.478 C21,8.634 21,10.103 21,11.927 Z M12,19 L19,19 L19,12 C19,10.086 18.998,8.751 18.862,7.744 C18.731,6.766 18.49,6.248 18.121,5.879 C17.752,5.51 17.234,5.269 16.256,5.138 C15.249,5.002 13.914,5 12,5 L5,5 L5,12 C5,13.914 5.002,15.249 5.138,16.256 C5.269,17.234 5.51,17.752 5.879,18.121 C6.248,18.49 6.766,18.731 7.744,18.862 C8.751,18.998 10.086,19 12,19 Z"/>
</svg>

