<svg xmlns="http://www.w3.org/2000/svg" width="20" height="24" viewBox="0 0 20 24">
  <defs/>
  <path fill="#212135" d="M0.394,15 L0.394,14.999 Q-0.762,9.802 1.63,7.8 Q2.795,6.825 4.937,6.394 Q6.892,6 10,6 Q13.108,6 15.064,6.394 Q17.205,6.825 18.37,7.8 Q20.762,9.802 19.607,14.999 L19.433,15.781 Q18.846,18.44 18.542,19.444 Q17.982,21.295 17.169,22.2 Q15.553,24 10,24 Q4.448,24 2.831,22.2 Q2.018,21.295 1.458,19.444 Q1.154,18.44 0.567,15.782 Z M2.346,14.567 L2.52,15.349 Q3.09,17.934 3.372,18.864 Q3.804,20.29 4.319,20.864 Q5.34,22 10,22 Q14.661,22 15.681,20.864 Q16.197,20.29 16.628,18.864 Q16.91,17.934 17.48,15.35 L17.654,14.567 Q18.546,10.555 17.086,9.334 Q16.312,8.685 14.669,8.354 Q12.909,8 10,8 Q7.091,8 5.332,8.354 Q3.688,8.685 2.914,9.334 Q1.454,10.555 2.346,14.566 Z"/>
  <path fill="#212135" d="M15,12 L15,18 Q15,18.414 14.707,18.707 Q14.414,19 14,19 Q13.586,19 13.293,18.707 Q13,18.414 13,18 L13,12 Q13,11.586 13.293,11.293 Q13.586,11 14,11 Q14.414,11 14.707,11.293 Q15,11.586 15,12 Z M11,12 L11,18 Q11,18.414 10.707,18.707 Q10.414,19 10,19 Q9.586,19 9.293,18.707 Q9,18.414 9,18 L9,12 Q9,11.586 9.293,11.293 Q9.586,11 10,11 Q10.414,11 10.707,11.293 Q11,11.586 11,12 Z M7,12 L7,18 Q7,18.414 6.707,18.707 Q6.414,19 6,19 Q5.586,19 5.293,18.707 Q5,18.414 5,18 L5,12 Q5,11.586 5.293,11.293 Q5.586,11 6,11 Q6.414,11 6.707,11.293 Q7,11.586 7,12 Z"/>
  <path fill="#212135" d="M12,2.071 C15.654,2.335 18.108,3.296 19.516,4.143 C19.989,4.428 20.142,5.042 19.857,5.516 C19.572,5.989 18.958,6.142 18.485,5.857 C17.181,5.072 14.456,4 10,4 C5.53,4 2.729,5.079 1.54,5.842 C1.076,6.14 0.457,6.005 0.159,5.54 C-0.14,5.075 -0.005,4.457 0.46,4.158 C1.808,3.293 4.333,2.334 8,2.07 L8,1 C8,0.448 8.448,0 9,0 L11,0 C11.552,0 12,0.448 12,1 Z"/>
</svg>

