<svg xmlns="http://www.w3.org/2000/svg" width="20" height="24" viewBox="0 0 20 24">
  <defs/>
  <path fill="#212135" d="M8,2.07 C4.333,2.334 1.808,3.293 0.46,4.158 C-0.005,4.457 -0.14,5.075 0.159,5.54 C0.457,6.005 1.076,6.14 1.54,5.842 C2.729,5.079 5.53,4 10,4 C14.456,4 17.181,5.072 18.485,5.857 C18.958,6.142 19.572,5.989 19.857,5.516 C20.142,5.042 19.989,4.428 19.516,4.143 C18.108,3.296 15.654,2.335 12,2.071 L12,1 C12,0.448 11.552,0 11,0 L9,0 C8.448,0 8,0.448 8,1 L8,2.07 Z"/>
  <path fill="#212135" d="M0.565,15.775 C0.51,15.524 0.453,15.266 0.394,15 C-1.207,7.8 2.089,6 10,6 C17.911,6 21.207,7.8 19.606,15 C19.548,15.26 19.493,15.514 19.438,15.76 L19.437,15.767 L19.435,15.774 C17.988,22.33 17.619,24 10,24 C2.381,24 2.013,22.33 0.565,15.775 Z M14,11 C13.448,11 13,11.448 13,12 L13,18 C13,18.552 13.448,19 14,19 C14.552,19 15,18.552 15,18 L15,12 C15,11.448 14.552,11 14,11 Z M6,11 C5.448,11 5,11.448 5,12 L5,18 C5,18.552 5.448,19 6,19 C6.552,19 7,18.552 7,18 L7,12 C7,11.448 6.552,11 6,11 Z M11,12 C11,11.448 10.552,11 10,11 C9.448,11 9,11.448 9,12 L9,18 C9,18.552 9.448,19 10,19 C10.552,19 11,18.552 11,18 Z"/>
</svg>

