<svg xmlns="http://www.w3.org/2000/svg" width="24" height="19" viewBox="0 0 24 19">
  <defs/>
  <path fill="#212135" d="M15,2.976 C15,3.615 15.358,4.305 15.973,4.476 C20.339,5.69 21.814,9.151 21.983,14 C22.002,14.552 21.552,15 21,15 L3,15 C2.448,15 1.998,14.552 2.017,14 C2.186,9.151 3.661,5.69 8.027,4.476 C8.642,4.305 9,3.615 9,2.976 C9,1.333 10.343,0 12,0 C13.657,0 15,1.333 15,2.976 Z M12,3.953 C12.567,3.953 13,3.501 13,2.976 C13,2.452 12.567,2 12,2 C11.433,2 11,2.452 11,2.976 C11,3.501 11.433,3.953 12,3.953 Z"/>
  <path fill="#212135" d="M1.5,16 C0.672,16 0,16.672 0,17.5 C0,18.328 0.672,19 1.5,19 L22.5,19 C23.328,19 24,18.328 24,17.5 C24,16.672 23.329,16.001 22.502,16 C22.501,16 22.501,16 22.5,16 L1.5,16 Z"/>
</svg>

