<svg xmlns="http://www.w3.org/2000/svg" width="24" height="20" viewBox="0 0 24 20">
  <defs/>
  <path fill="#212135" d="M14.736,4.233 C16.658,4.591 18.266,5.376 19.485,6.697 C21.229,8.586 22,11.383 22,15 C22,15.017 22,15.033 21.999,15.05 C23.14,15.281 24,16.29 24,17.5 C24,18.881 22.881,20 21.5,20 L2.5,20 C1.119,20 0,18.881 0,17.5 C0,16.29 0.859,15.281 2.001,15.05 C2,15.033 2,15.017 2,15 C2,11.383 2.771,8.586 4.515,6.697 C5.734,5.376 7.342,4.591 9.264,4.233 C9.095,3.857 9,3.44 9,3 C9,1.343 10.343,0 12,0 C13.657,0 15,1.343 15,3 C15,3.44 14.906,3.857 14.736,4.233 Z M12,6 C9.155,6 7.225,6.71 5.985,8.053 C4.729,9.414 4,11.617 4,15 L20,15 C20,11.617 19.271,9.414 18.015,8.053 C16.775,6.71 14.845,6 12,6 Z M21.5,17 L2.5,17 C2.224,17 2,17.224 2,17.5 C2,17.776 2.224,18 2.5,18 L21.5,18 C21.776,18 22,17.776 22,17.5 C22,17.224 21.776,17 21.5,17 Z M13,3 C13,2.448 12.552,2 12,2 C11.448,2 11,2.448 11,3 C11,3.552 11.448,4 12,4 C12.552,4 13,3.552 13,3 Z"/>
</svg>

