<svg xmlns="http://www.w3.org/2000/svg" width="24" height="24" viewBox="0 0 24 24">
  <defs/>
  <path fill="#212135" d="M11,20 C11,19.996 10.997,19.993 10.993,19.993 C1.973,19.869 0,17.948 0,10 C0,1.765 2.118,0 12,0 C21.882,0 24,1.765 24,10 C24,17.948 22.027,19.869 13.007,19.993 C13.003,19.993 13,19.996 13,20 L13,21 C13,21.552 13.448,22 14,22 L16,22 C16.552,22 17,22.448 17,23 C17,23.552 16.552,24 16,24 L8,24 C7.448,24 7,23.552 7,23 C7,22.448 7.448,22 8,22 L10,22 C10.552,22 11,21.552 11,21 L11,20 Z"/>
</svg>

