<svg xmlns="http://www.w3.org/2000/svg" width="24" height="24" viewBox="0 0 24 24">
  <defs/>
  <path fill="#212135" d="M2.294,1.912 Q3.574,0.846 5.956,0.404 Q8.14,0 12,0 Q15.86,0 18.044,0.404 Q20.426,0.846 21.706,1.912 Q24,3.824 24,10 Q24,16.176 21.706,18.088 Q20.426,19.154 18.044,19.596 Q15.86,20 12,20 Q8.14,20 5.956,19.596 Q3.574,19.154 2.294,18.088 Q0,16.176 0,10 Q0,3.824 2.294,1.912 Z M2,10 Q2,15.239 3.575,16.552 Q4.452,17.283 6.32,17.629 Q8.323,18 12,18 Q15.677,18 17.68,17.629 Q19.548,17.283 20.425,16.552 Q22,15.239 22,10 Q22,4.761 20.425,3.448 Q19.548,2.717 17.68,2.371 Q15.676,2 12,2 Q8.324,2 6.32,2.371 Q4.452,2.717 3.575,3.448 Q2,4.76 2,10 Z"/>
  <path fill="#212135" d="M13,20 L13,22 L16,22 Q16.414,22 16.707,22.293 Q17,22.586 17,23 Q17,23.414 16.707,23.707 Q16.414,24 16,24 L8,24 Q7.586,24 7.293,23.707 Q7,23.414 7,23 Q7,22.586 7.293,22.293 Q7.586,22 8,22 L11,22 L11,20 Q11,19.586 11.293,19.293 Q11.586,19 12,19 Q12.414,19 12.707,19.293 Q13,19.586 13,20 Z"/>
</svg>

