<svg xmlns="http://www.w3.org/2000/svg" width="24" height="24" viewBox="0 0 24 24">
  <defs/>
  <path fill="#212135" d="M12,24 C2.118,24 0,21.882 0,12 C0,2.118 2.118,0 12,0 C21.882,0 24,2.118 24,12 C24,21.882 21.882,24 12,24 Z M6,12 C6,12.552 6.448,13 7,13 L17,13 C17.552,13 18,12.552 18,12 C18,11.448 17.552,11 17,11 L7,11 C6.448,11 6,11.448 6,12 Z M7,16 C6.448,16 6,16.448 6,17 C6,17.552 6.448,18 7,18 L10,18 C10.552,18 11,17.552 11,17 C11,16.448 10.552,16 10,16 Z M14,6 C13.448,6 13,6.448 13,7 C13,7.552 13.448,8 14,8 L17,8 C17.552,8 18,7.552 18,7 C18,6.448 17.552,6 17,6 Z"/>
</svg>

