<svg xmlns="http://www.w3.org/2000/svg" width="24" height="24" viewBox="0 0 24 24">
  <defs/>
  <path fill="#212135" d="M23.888,15.658 C23.71,15.654 23.517,15.646 23.3,15.636 C23.133,15.629 22.95,15.621 22.747,15.614 C22.22,15.596 21.613,15.588 20.989,15.639 C19.757,15.74 18.294,16.085 17.173,17.209 C16.056,18.331 15.72,19.75 15.63,20.97 C15.585,21.583 15.599,22.181 15.621,22.705 C15.628,22.875 15.636,23.032 15.643,23.18 C15.656,23.441 15.667,23.672 15.671,23.887 C14.599,23.964 13.382,24 12,24 C9.09,24 6.916,23.841 5.268,23.475 C3.647,23.115 2.687,22.587 2.05,21.95 C1.413,21.313 0.885,20.353 0.525,18.732 C0.159,17.084 0,14.91 0,12 C0,9.09 0.159,6.916 0.525,5.268 C0.885,3.647 1.413,2.687 2.05,2.05 C2.687,1.413 3.647,0.885 5.268,0.525 C6.916,0.159 9.09,0 12,0 C14.91,0 17.084,0.159 18.732,0.525 C20.353,0.885 21.313,1.413 21.95,2.05 C22.587,2.687 23.115,3.647 23.475,5.268 C23.841,6.916 24,9.09 24,12 C24,13.377 23.964,14.589 23.888,15.658 Z M6,10.8 C5.337,10.8 4.8,11.337 4.8,12 C4.8,12.663 5.337,13.2 6,13.2 L18,13.2 C18.663,13.2 19.2,12.663 19.2,12 C19.2,11.337 18.663,10.8 18,10.8 Z M9.6,4.8 C8.937,4.8 8.4,5.337 8.4,6 C8.4,6.663 8.937,7.2 9.6,7.2 L14.4,7.2 C15.063,7.2 15.6,6.663 15.6,6 C15.6,5.337 15.063,4.8 14.4,4.8 Z"/>
  <path fill="#212135" d="M18.064,23.607 C18.057,23.407 18.047,23.2 18.037,22.998 C18.031,22.864 18.024,22.731 18.019,22.604 C17.998,22.106 17.988,21.619 18.023,21.147 C18.094,20.196 18.333,19.445 18.873,18.904 C19.409,18.366 20.195,18.112 21.185,18.031 C21.672,17.991 22.17,17.995 22.664,18.012 C22.811,18.018 22.966,18.024 23.122,18.031 L23.123,18.031 C23.286,18.038 23.451,18.045 23.609,18.051 C23.568,18.287 23.523,18.514 23.475,18.732 C23.115,20.353 22.587,21.313 21.95,21.95 C21.313,22.587 20.353,23.115 18.732,23.475 C18.518,23.522 18.296,23.566 18.064,23.607 Z"/>
</svg>

