<svg xmlns="http://www.w3.org/2000/svg" width="24" height="24" viewBox="0 0 24 24">
  <defs/>
  <path fill="#212135" d="M12,24 C2.118,24 0,21.882 0,12 C0,2.118 2.118,0 12,0 C21.882,0 24,2.118 24,12 C24,21.882 21.882,24 12,24 Z M6,12 C6,12.552 6.448,13 7,13 L17,13 C17.552,13 18,12.552 18,12 C18,11.448 17.552,11 17,11 L7,11 C6.448,11 6,11.448 6,12 Z M14,16 C13.448,16 13,16.448 13,17 C13,17.552 13.448,18 14,18 L17,18 C17.552,18 18,17.552 18,17 C18,16.448 17.552,16 17,16 Z M7,6 C6.448,6 6,6.448 6,7 C6,7.552 6.448,8 7,8 L10,8 C10.552,8 11,7.552 11,7 C11,6.448 10.552,6 10,6 Z"/>
</svg>

