<svg xmlns="http://www.w3.org/2000/svg" width="24" height="24" viewBox="0 0 24 24">
  <defs/>
  <path fill="#212135" d="M12,24 C2.118,24 0,21.882 0,12 C0,2.118 2.118,0 12,0 C21.882,0 24,2.118 24,12 C24,21.882 21.882,24 12,24 Z M7,11 C6.448,11 6,11.448 6,12 C6,12.552 6.448,13 7,13 L17,13 C17.552,13 18,12.552 18,12 C18,11.448 17.552,11 17,11 Z M10,16 C9.448,16 9,16.448 9,17 C9,17.552 9.448,18 10,18 L14,18 C14.552,18 15,17.552 15,17 C15,16.448 14.552,16 14,16 Z M9,7 C9,7.552 9.448,8 10,8 L14,8 C14.552,8 15,7.552 15,7 C15,6.448 14.552,6 14,6 L10,6 C9.448,6 9,6.448 9,7 Z"/>
</svg>

