<svg xmlns="http://www.w3.org/2000/svg" width="24" height="24" viewBox="0 0 24 24">
  <defs/>
  <path fill="#212135" d="M23.927,11.97 C23.927,13.343 23.892,14.552 23.816,15.619 C23.638,15.615 23.447,15.607 23.23,15.597 C23.063,15.59 22.881,15.582 22.678,15.575 C22.153,15.557 21.548,15.549 20.925,15.6 C19.697,15.701 18.239,16.045 17.121,17.167 C16.007,18.285 15.672,19.701 15.583,20.917 C15.537,21.529 15.551,22.126 15.573,22.649 C15.581,22.818 15.588,22.975 15.595,23.122 C15.608,23.383 15.62,23.613 15.624,23.827 C14.554,23.904 13.342,23.94 11.964,23.94 C9.063,23.94 6.895,23.781 5.252,23.416 C3.636,23.057 2.679,22.53 2.044,21.895 C1.409,21.26 0.883,20.302 0.524,18.685 C0.159,17.042 0,14.873 0,11.97 C0,9.067 0.159,6.898 0.524,5.255 C0.883,3.638 1.409,2.68 2.044,2.045 C2.679,1.41 3.636,0.883 5.252,0.524 C6.895,0.159 9.063,0 11.964,0 C14.865,0 17.032,0.159 18.675,0.524 C20.291,0.883 21.248,1.41 21.883,2.045 C22.518,2.68 23.044,3.638 23.403,5.255 C23.768,6.898 23.927,9.067 23.927,11.97 Z M5.982,10.773 C5.321,10.773 4.785,11.309 4.785,11.97 C4.785,12.631 5.321,13.167 5.982,13.167 L17.945,13.167 C18.606,13.167 19.142,12.631 19.142,11.97 C19.142,11.309 18.606,10.773 17.945,10.773 Z M13.16,5.985 C13.16,6.646 13.696,7.182 14.356,7.182 L17.945,7.182 C18.606,7.182 19.142,6.646 19.142,5.985 C19.142,5.324 18.606,4.788 17.945,4.788 L14.356,4.788 C13.696,4.788 13.16,5.324 13.16,5.985 Z"/>
  <path fill="#212135" d="M17.982,22.941 C17.992,23.142 18.002,23.348 18.009,23.548 C18.24,23.507 18.462,23.463 18.675,23.416 C20.291,23.057 21.248,22.53 21.883,21.895 C22.518,21.26 23.044,20.302 23.403,18.685 C23.452,18.468 23.496,18.242 23.538,18.006 C23.38,18 23.216,17.993 23.053,17.986 L23.052,17.986 C22.896,17.979 22.741,17.973 22.595,17.968 C22.102,17.951 21.606,17.946 21.121,17.986 C20.133,18.067 19.35,18.32 18.816,18.857 C18.278,19.397 18.039,20.146 17.969,21.094 C17.934,21.565 17.943,22.051 17.964,22.547 C17.969,22.674 17.976,22.806 17.982,22.941 Z"/>
</svg>

