<svg xmlns="http://www.w3.org/2000/svg" width="24" height="24" viewBox="0 0 24 24">
  <defs/>
  <path fill="#212135" d="M12,24 Q8.14,24 5.956,23.515 Q3.574,22.985 2.294,21.706 Q1.015,20.426 0.485,18.044 Q0,15.86 0,12 Q0,8.14 0.485,5.956 Q1.015,3.574 2.294,2.294 Q3.574,1.015 5.956,0.485 Q8.14,0 12,0 Q15.86,0 18.044,0.485 Q20.426,1.015 21.706,2.294 Q22.985,3.574 23.515,5.956 Q24,8.14 24,12 Q24,15.86 23.515,18.044 Q22.985,20.427 21.706,21.706 Q20.427,22.985 18.044,23.515 Q15.86,24 12,24 Z M12,22 Q15.64,22 17.61,21.562 Q19.424,21.159 20.292,20.292 Q21.159,19.424 21.562,17.61 Q22,15.64 22,12 Q22,8.36 21.562,6.39 Q21.159,4.576 20.292,3.708 Q19.424,2.841 17.61,2.438 Q15.64,2 12,2 Q8.359,2 6.39,2.438 Q4.576,2.841 3.708,3.708 Q2.841,4.576 2.438,6.39 Q2,8.359 2,12 Q2,15.64 2.438,17.61 Q2.841,19.424 3.708,20.292 Q4.576,21.159 6.39,21.562 Q8.36,22 12,22 Z"/>
  <path fill="#212135" d="M7,6 L10,6 Q10.414,6 10.707,6.293 Q11,6.586 11,7 Q11,7.414 10.707,7.707 Q10.414,8 10,8 L7,8 Q6.586,8 6.293,7.707 Q6,7.414 6,7 Q6,6.586 6.293,6.293 Q6.586,6 7,6 Z"/>
  <path fill="#212135" d="M7,11 L17,11 Q17.414,11 17.707,11.293 Q18,11.586 18,12 Q18,12.414 17.707,12.707 Q17.414,13 17,13 L7,13 Q6.586,13 6.293,12.707 Q6,12.414 6,12 Q6,11.586 6.293,11.293 Q6.586,11 7,11 Z"/>
  <path fill="#212135" d="M14,16 L17,16 Q17.414,16 17.707,16.293 Q18,16.586 18,17 Q18,17.414 17.707,17.707 Q17.414,18 17,18 L14,18 Q13.586,18 13.293,17.707 Q13,17.414 13,17 Q13,16.586 13.293,16.293 Q13.586,16 14,16 Z"/>
</svg>

