<svg xmlns="http://www.w3.org/2000/svg" width="24" height="24" viewBox="0 0 24 24">
  <defs/>
  <path fill="#212135" d="M12,24 C2.118,24 0,21.882 0,12 C0,2.118 2.118,0 12,0 C21.882,0 24,2.118 24,12 C24,21.882 21.882,24 12,24 Z M7.293,10.707 L11.293,14.707 C11.683,15.098 12.317,15.098 12.707,14.707 L16.707,10.707 C17.098,10.317 17.098,9.683 16.707,9.293 C16.317,8.902 15.683,8.902 15.293,9.293 L12,12.586 L8.707,9.293 C8.317,8.902 7.683,8.902 7.293,9.293 C6.902,9.683 6.902,10.317 7.293,10.707 Z"/>
</svg>

