<svg xmlns="http://www.w3.org/2000/svg" width="24" height="22" viewBox="0 0 24 22">
  <defs/>
  <path fill="#212135" d="M17.707,10.707 L12.707,15.707 Q12.414,16 12,16 Q11.586,16 11.293,15.707 L6.293,10.707 Q6,10.414 6,10 Q6,9.586 6.293,9.293 Q6.586,9 7,9 Q7.414,9 7.707,9.293 L11,12.586 L11,1 Q11,0.586 11.293,0.293 Q11.586,0 12,0 Q12.414,0 12.707,0.293 Q13,0.586 13,1 L13,12.586 L16.293,9.293 Q16.586,9 17,9 Q17.414,9 17.707,9.293 Q18,9.586 18,10 Q18,10.414 17.707,10.707 Z"/>
  <path fill="#212135" d="M5,5.296 C5,5.748 4.699,6.137 4.286,6.321 C3.973,6.461 3.722,6.612 3.519,6.77 C2.581,7.496 2,8.882 2,12.706 C2,16.529 2.581,17.915 3.519,18.642 C4.042,19.047 4.876,19.409 6.295,19.653 C7.714,19.897 9.564,20 12,20 C14.436,20 16.286,19.897 17.705,19.653 C19.124,19.409 19.958,19.047 20.481,18.642 C21.419,17.915 22,16.529 22,12.706 C22,8.882 21.419,7.496 20.481,6.77 C20.278,6.612 20.027,6.461 19.714,6.321 C19.301,6.137 19,5.748 19,5.296 C19,4.629 19.631,4.131 20.251,4.378 C23.193,5.548 24,7.981 24,12.706 C24,20.36 21.882,22 12,22 C2.118,22 0,20.36 0,12.706 C0,7.981 0.807,5.548 3.749,4.378 C4.369,4.131 5,4.629 5,5.296 Z"/>
</svg>

