<svg xmlns="http://www.w3.org/2000/svg" width="14" height="8" viewBox="0 0 14 8">
  <defs/>
  <path fill="#212135" d="M13.707,1.707 L7.707,7.707 Q7.566,7.848 7.383,7.924 Q7.199,8 7,8 Q6.801,8 6.617,7.924 Q6.434,7.848 6.293,7.707 L0.293,1.707 Q0.152,1.566 0.076,1.383 Q0,1.199 0,1 Q0,0.801 0.076,0.617 Q0.152,0.434 0.293,0.293 Q0.434,0.152 0.617,0.076 Q0.801,0 1,0 Q1.199,0 1.383,0.076 Q1.566,0.152 1.707,0.293 L7,5.586 L12.293,0.293 Q12.434,0.152 12.617,0.076 Q12.801,0 13,0 Q13.199,0 13.383,0.076 Q13.566,0.152 13.707,0.293 Q13.848,0.434 13.924,0.617 Q14,0.801 14,1 Q14,1.199 13.924,1.383 Q13.848,1.566 13.707,1.707 Z"/>
</svg>

