<svg xmlns="http://www.w3.org/2000/svg" width="12" height="25" viewBox="0 0 12 25">
  <defs/>
  <path fill="#212135" d="M5,17 C4.448,17 4,16.552 4,16 C4,15.448 4.448,15 5,15 C5.552,15 6,15.448 6,16 C6,16.552 5.552,17 5,17 Z M7,20 C6.448,20 6,19.552 6,19 C6,18.448 6.448,18 7,18 C7.552,18 8,18.448 8,19 C8,19.552 7.552,20 7,20 Z"/>
  <path fill="#212135" d="M7.753,1.019 L10.2,1.518 C10.741,1.628 11.09,2.157 10.98,2.698 C10.869,3.239 10.341,3.588 9.8,3.478 L8.254,3.162 L7.221,6.69 C12.674,6.833 12.46,8.148 11.4,14.68 C11.367,14.881 11.334,15.088 11.299,15.299 C10.987,17.23 10.881,18.809 10.795,20.088 C10.544,23.806 10.463,25 5.997,25 C1.533,25 1.453,23.808 1.205,20.095 C1.119,18.814 1.013,17.234 0.7,15.299 C0.666,15.087 0.633,14.881 0.6,14.68 L0.6,14.679 C-0.483,8.007 -0.683,6.779 5.14,6.682 L6.593,1.718 C6.739,1.219 7.243,0.915 7.753,1.019 Z M3.194,19.864 C3.285,21.223 3.339,21.943 3.478,22.432 C3.555,22.7 3.595,22.713 3.637,22.727 C3.643,22.729 3.65,22.731 3.657,22.734 C3.913,22.854 4.534,23 5.997,23 C7.46,23 8.082,22.854 8.338,22.734 C8.345,22.731 8.352,22.729 8.359,22.726 C8.401,22.712 8.442,22.698 8.519,22.43 C8.658,21.942 8.714,21.221 8.805,19.863 C8.891,18.591 9.004,16.964 9.325,14.98 L9.424,14.372 C9.522,13.766 9.611,13.218 9.688,12.721 C9.468,12.663 9.184,12.6 8.864,12.556 C8.078,12.447 7.181,12.467 6.434,12.827 C5.181,13.432 3.828,13.412 2.864,13.279 C2.696,13.256 2.537,13.229 2.387,13.2 C2.445,13.564 2.508,13.953 2.576,14.37 L2.576,14.371 L2.675,14.98 C2.995,16.964 3.108,18.592 3.194,19.864 Z M2.195,11.1 C2.426,11.166 2.755,11.245 3.136,11.297 C3.922,11.406 4.819,11.386 5.566,11.026 C6.819,10.421 8.172,10.441 9.136,10.574 C9.439,10.616 9.714,10.67 9.951,10.726 C9.955,10.683 9.959,10.641 9.962,10.599 C10.052,9.539 9.955,9.172 9.915,9.077 C9.875,9.051 9.746,8.98 9.442,8.907 C8.781,8.749 7.726,8.676 6,8.676 C4.274,8.676 3.219,8.749 2.558,8.907 C2.254,8.98 2.125,9.051 2.085,9.076 C2.045,9.172 1.948,9.539 2.038,10.599 C2.05,10.749 2.066,10.905 2.084,11.068 C2.118,11.078 2.155,11.089 2.195,11.1 Z"/>
</svg>

