<svg xmlns="http://www.w3.org/2000/svg" width="12" height="25" viewBox="0 0 12 25">
  <defs/>
  <path fill="#212135" d="M10.98,1.7 C10.869,2.241 10.341,2.59 9.8,2.48 L8.552,2.225 C8.396,2.193 8.243,2.288 8.202,2.441 L7.343,5.649 C7.292,5.836 7.431,6.021 7.624,6.029 C11.208,6.176 12.127,6.958 11.986,9.773 C11.978,9.951 11.814,10.078 11.639,10.051 C11.372,10.009 11.08,9.97 10.769,9.938 C9.345,9.791 7.421,9.778 5.66,10.414 C4.31,10.903 2.733,10.916 1.436,10.782 C1.007,10.738 0.62,10.678 0.294,10.62 C0.164,10.596 0.066,10.486 0.054,10.354 C-0.25,6.906 0.636,6.107 4.947,6.011 C5.081,6.008 5.2,5.917 5.235,5.788 L6.587,0.741 C6.724,0.23 7.235,-0.085 7.753,0.02 L10.2,0.52 C10.741,0.631 11.09,1.159 10.98,1.7 Z"/>
  <path fill="#212135" d="M0.751,12.715 C0.905,12.735 1.065,12.754 1.231,12.771 C2.655,12.919 4.579,12.932 6.34,12.295 C7.69,11.807 9.267,11.794 10.564,11.928 C10.886,11.961 11.185,12.003 11.452,12.046 C11.611,12.072 11.718,12.222 11.694,12.381 C11.608,12.967 11.509,13.605 11.4,14.3 C11.367,14.509 11.334,14.722 11.3,14.941 C10.987,16.944 10.881,18.58 10.795,19.907 C10.544,23.763 10.463,25 5.997,25 C1.533,25 1.453,23.764 1.205,19.914 C1.119,18.587 1.013,16.948 0.7,14.941 C0.666,14.722 0.633,14.508 0.6,14.299 C0.532,13.864 0.467,13.452 0.408,13.06 C0.377,12.86 0.55,12.688 0.751,12.715 Z M5,17 C5.552,17 6,16.552 6,16 C6,15.448 5.552,15 5,15 C4.448,15 4,15.448 4,16 C4,16.552 4.448,17 5,17 Z M8,20 C8,19.448 7.552,19 7,19 C6.448,19 6,19.448 6,20 C6,20.552 6.448,21 7,21 C7.552,21 8,20.552 8,20 Z"/>
</svg>

