<svg xmlns="http://www.w3.org/2000/svg" width="24" height="24" viewBox="0 0 24 24">
  <defs/>
  <path fill="#212135" d="M6.243,0.469 C7.806,0.121 9.713,0 12,0 C14.287,0 16.194,0.121 17.757,0.469 C19.332,0.819 20.619,1.411 21.604,2.396 C22.589,3.381 23.181,4.668 23.531,6.243 C23.879,7.806 24,9.713 24,12 C24,14.287 23.879,16.194 23.531,17.757 C23.181,19.332 22.589,20.619 21.604,21.604 C20.619,22.589 19.332,23.181 17.757,23.531 C16.194,23.879 14.287,24 12,24 C9.713,24 7.806,23.879 6.243,23.531 C4.668,23.181 3.381,22.589 2.396,21.604 C1.411,20.619 0.819,19.332 0.469,17.757 C0.121,16.194 0,14.287 0,12 C0,9.713 0.121,7.806 0.469,6.243 C0.819,4.668 1.411,3.381 2.396,2.396 C3.381,1.411 4.668,0.819 6.243,0.469 Z M12.619,5.616 L6.541,11.99 C6.164,12.385 5.967,12.92 6.004,13.469 L6.188,16.168 C6.259,17.221 7.148,18.004 8.176,18 L10.944,17.99 C11.484,17.988 12.005,17.768 12.381,17.373 L18.459,11 C19.219,10.203 19.172,8.948 18.36,8.209 L15.409,5.52 C14.611,4.792 13.366,4.833 12.619,5.616 Z M14.705,12.038 L10.936,15.99 L8.181,16 L8.001,13.357 L11.781,9.393 Z M14.063,7 L14.064,7 L16.978,9.655 L16.086,10.59 L13.162,7.945 Z"/>
</svg>

