<svg xmlns="http://www.w3.org/2000/svg" width="24" height="24" viewBox="0 0 24 24">
  <defs/>
  <path fill="#212135" d="M0,12 Q0,8.14 0.485,5.956 Q1.015,3.574 2.294,2.294 Q3.574,1.015 5.956,0.485 Q8.14,0 12,0 Q15.86,0 18.044,0.485 Q20.426,1.015 21.706,2.294 Q22.985,3.574 23.515,5.956 Q24,8.14 24,12 Q24,15.86 23.515,18.044 Q22.985,20.427 21.706,21.706 Q20.427,22.985 18.044,23.515 Q15.86,24 12,24 Q8.14,24 5.956,23.515 Q3.574,22.985 2.294,21.706 Q1.015,20.426 0.485,18.044 Q0,15.86 0,12 Z M2,12 Q2,15.64 2.438,17.61 Q2.841,19.424 3.708,20.292 Q4.576,21.159 6.39,21.562 Q8.36,22 12,22 Q15.64,22 17.61,21.562 Q19.424,21.159 20.292,20.292 Q21.159,19.424 21.562,17.61 Q22,15.64 22,12 Q22,8.36 21.562,6.39 Q21.159,4.576 20.292,3.708 Q19.424,2.841 17.61,2.438 Q15.64,2 12,2 Q8.359,2 6.39,2.438 Q4.576,2.841 3.708,3.708 Q2.841,4.576 2.438,6.39 Q2,8.359 2,12 Z"/>
  <path fill="#212135" d="M10.434,7.492 L12.196,5.644 Q13.604,4.168 15.112,5.543 L18.332,8.477 Q18.968,9.057 18.999,9.912 Q19.029,10.768 18.435,11.391 L16.542,13.377 L15.825,12.693 L16.542,13.377 L11.804,18.345 Q11.193,18.985 10.302,18.989 L7.283,19 Q5.335,19.007 5.205,17.086 L5.005,14.142 Q4.944,13.249 5.565,12.598 Z M11.187,9.601 L7.012,13.978 Q6.999,13.992 7,14.006 L7.2,16.951 Q7.203,17 7.275,17 L10.295,16.989 Q10.334,16.989 10.357,16.964 L14.409,12.715 L11.187,9.601 Z M15.789,11.268 L16.988,10.011 Q17,9.998 17,9.984 Q16.999,9.969 16.984,9.955 L13.765,7.021 Q13.702,6.963 13.643,7.024 L12.567,8.153 L15.789,11.268 Z"/>
</svg>

