<svg xmlns="http://www.w3.org/2000/svg" width="25" height="20" viewBox="0 0 25 20">
  <defs/>
  <path fill="#212135" d="M5.172,11 C12.069,15 12.931,15 19.828,11 C26.724,7 26.724,7 19.828,3 C12.931,-1 12.069,-1 5.172,3 C1.724,5 0,6 0,7 L0,16 C0,16.552 0.448,17 1,17 C1.552,17 2,16.552 2,16 L2,9.473 C2,9.315 2.176,9.219 2.31,9.303 C3.074,9.783 4.029,10.337 5.172,11 Z"/>
  <path fill="#212135" d="M5.172,12 C12.069,16 12.931,16 19.828,12 L20.221,11.772 C20.533,11.591 20.927,11.789 20.95,12.15 C20.985,12.694 21,13.308 21,14 C21,19 19,20 12.466,20 C5.494,20 4,19 4,14 C4,13.308 4.015,12.695 4.048,12.15 C4.07,11.789 4.465,11.589 4.778,11.771 L5.172,12 Z"/>
</svg>

