<svg xmlns="http://www.w3.org/2000/svg" width="25" height="20" viewBox="0 0 25 20">
  <defs/>
  <path fill="#212135" d="M19.717,2.692 L19.773,2.722 C21.312,3.553 22.536,4.215 23.37,4.778 C23.793,5.064 24.174,5.362 24.457,5.687 C24.743,6.016 25,6.455 25,7 C25,7.545 24.743,7.984 24.457,8.313 C24.174,8.638 23.793,8.936 23.37,9.222 C22.757,9.636 21.933,10.103 20.929,10.651 C21,11.488 21,12.579 21,14 C21,19 19,20 12.466,20 C5.494,20 4,19 4,14 L4,13.833 L4,13.833 C4,12.491 4,11.452 4.064,10.648 C3.253,10.204 2.559,9.814 2,9.462 L2,15 C2,15.552 1.552,16 1,16 C0.448,16 0,15.552 0,15 L0,7 C0,6.455 0.257,6.016 0.543,5.687 C0.826,5.362 1.207,5.064 1.63,4.778 C2.464,4.215 3.688,3.553 5.227,2.722 L5.227,2.722 L5.283,2.692 C8.396,1.01 10.414,0 12.5,0 C14.586,0 16.604,1.01 19.717,2.692 Z M2.749,6.436 C2.379,6.686 2.166,6.87 2.052,7 C2.166,7.13 2.379,7.314 2.749,7.564 C3.491,8.065 4.627,8.68 6.234,9.549 C9.466,11.295 11.017,12 12.5,12 C13.983,12 15.534,11.295 18.766,9.549 C20.373,8.68 21.509,8.065 22.251,7.564 C22.621,7.314 22.834,7.13 22.948,7 C22.834,6.87 22.621,6.686 22.251,6.436 C21.509,5.935 20.373,5.32 18.766,4.451 C15.534,2.705 13.983,2 12.5,2 C11.017,2 9.466,2.705 6.234,4.451 C4.627,5.32 3.491,5.935 2.749,6.436 Z M18.982,11.703 C16.277,13.147 14.417,14 12.5,14 C10.582,14 8.722,13.147 6.015,11.702 C6,12.3 6,13.047 6,14 C6,16.465 6.414,16.99 6.769,17.239 C7.034,17.425 7.531,17.639 8.505,17.789 C9.472,17.937 10.751,18 12.466,18 C14.066,18 15.295,17.938 16.249,17.789 C17.208,17.64 17.753,17.424 18.076,17.209 C18.523,16.912 19,16.321 19,14 C19,13.046 18.999,12.3 18.982,11.703 Z"/>
</svg>

