<svg xmlns="http://www.w3.org/2000/svg" width="24" height="24" viewBox="0 0 24 24">
  <defs/>
  <path fill="#212135" d="M0,12 Q0,8.14 0.485,5.956 Q1.015,3.574 2.294,2.294 Q3.574,1.015 5.956,0.485 Q8.14,0 12,0 Q15.86,0 18.044,0.485 Q20.426,1.015 21.706,2.294 Q22.985,3.574 23.515,5.956 Q24,8.14 24,12 Q24,15.86 23.515,18.044 Q22.985,20.427 21.706,21.706 Q20.427,22.985 18.044,23.515 Q15.86,24 12,24 Q8.14,24 5.956,23.515 Q3.574,22.985 2.294,21.706 Q1.015,20.426 0.485,18.044 Q0,15.86 0,12 Z M2,12 Q2,15.64 2.438,17.61 Q2.841,19.424 3.708,20.292 Q4.576,21.159 6.39,21.562 Q8.36,22 12,22 Q15.64,22 17.61,21.562 Q19.424,21.159 20.292,20.292 Q21.159,19.424 21.562,17.61 Q22,15.64 22,12 Q22,8.36 21.562,6.39 Q21.159,4.576 20.292,3.708 Q19.424,2.841 17.61,2.438 Q15.64,2 12,2 Q8.359,2 6.39,2.438 Q4.576,2.841 3.708,3.708 Q2.841,4.576 2.438,6.39 Q2,8.359 2,12 Z"/>
  <path fill="#212135" d="M15.014,10.834 C13.841,10.426 13,9.311 13,8 C13,6.343 14.343,5 16,5 C17.657,5 19,6.343 19,8 C19,9.311 18.159,10.426 16.986,10.834 C16.995,10.888 17,10.943 17,11 L17,18 C17,18.552 16.552,19 16,19 C15.448,19 15,18.552 15,18 L15,11 C15,10.943 15.005,10.888 15.014,10.834 Z M9,6 L9,13 C9,13.057 8.995,13.112 8.986,13.166 C10.159,13.574 11,14.689 11,16 C11,17.657 9.657,19 8,19 C6.343,19 5,17.657 5,16 C5,14.689 5.841,13.574 7.014,13.166 C7.005,13.112 7,13.057 7,13 L7,6 C7,5.448 7.448,5 8,5 C8.552,5 9,5.448 9,6 Z M16,9 C16.552,9 17,8.552 17,8 C17,7.448 16.552,7 16,7 C15.448,7 15,7.448 15,8 C15,8.552 15.448,9 16,9 Z M7,16 C7,16.552 7.448,17 8,17 C8.552,17 9,16.552 9,16 C9,15.448 8.552,15 8,15 C7.448,15 7,15.448 7,16 Z"/>
</svg>

