<svg xmlns="http://www.w3.org/2000/svg" width="24" height="24" viewBox="0 0 24 24">
  <defs/>
  <path fill="#212135" d="M7,16 C7,16.552 7.448,17 8,17 C8.552,17 9,16.552 9,16 C9,15.448 8.552,15 8,15 C7.448,15 7,15.448 7,16 Z"/>
  <path fill="#212135" d="M16,7 C15.448,7 15,7.448 15,8 C15,8.552 15.448,9 16,9 C16.552,9 17,8.552 17,8 C17,7.448 16.552,7 16,7 Z"/>
  <path fill="#212135" d="M12,24 C2.118,24 0,21.882 0,12 C0,2.118 2.118,0 12,0 C21.882,0 24,2.118 24,12 C24,21.882 21.882,24 12,24 Z M16,19 C16.552,19 17,18.552 17,18 L17,10.829 C18.165,10.417 19,9.306 19,8 C19,6.343 17.657,5 16,5 C14.343,5 13,6.343 13,8 C13,9.306 13.835,10.417 15,10.829 L15,18 C15,18.552 15.448,19 16,19 Z M8,5 C7.448,5 7,5.448 7,6 L7,13.171 C5.835,13.583 5,14.694 5,16 C5,17.657 6.343,19 8,19 C9.657,19 11,17.657 11,16 C11,14.694 10.165,13.583 9,13.171 L9,6 C9,5.448 8.552,5 8,5 Z"/>
</svg>

