<svg xmlns="http://www.w3.org/2000/svg" width="22" height="25" viewBox="0 0 22 25">
  <defs/>
  <path fill="#212135" d="M0,12.96 C0,4.209 0.836,3.956 7.197,2.025 C7.64,1.89 8.11,1.748 8.609,1.594 C12.804,0.295 14.987,1.024 16.103,3.489 C17.283,3.5 18.284,3.572 19.095,3.81 C20.037,4.085 20.757,4.593 21.226,5.447 C21.658,6.234 21.831,7.238 21.915,8.411 C22,9.593 22,11.084 22,12.917 L22,12.989 C22,14.823 22,16.315 21.915,17.497 C21.831,18.672 21.658,19.677 21.227,20.465 C20.758,21.32 20.039,21.83 19.096,22.108 C18.285,22.347 17.284,22.42 16.103,22.431 C14.987,24.896 12.804,25.625 8.609,24.326 C8.11,24.172 7.64,24.029 7.197,23.895 C0.836,21.964 0,21.71 0,12.96 Z M18.552,20.292 C19.088,20.134 19.356,19.908 19.545,19.562 C19.771,19.149 19.927,18.487 20.007,17.363 C20.086,16.256 20.087,14.83 20.087,12.953 C20.087,11.077 20.086,9.652 20.007,8.545 C19.927,7.423 19.771,6.763 19.545,6.352 C19.357,6.008 19.09,5.784 18.553,5.627 C18.109,5.497 17.516,5.425 16.701,5.397 C17.114,7.335 17.217,9.877 17.217,12.96 C17.217,16.043 17.114,18.585 16.701,20.523 C17.516,20.495 18.108,20.422 18.552,20.292 Z M12.435,13.907 C12.963,13.907 13.391,13.483 13.391,12.96 C13.391,12.437 12.963,12.013 12.435,12.013 C11.906,12.013 11.478,12.437 11.478,12.96 C11.478,13.483 11.906,13.907 12.435,13.907 Z"/>
</svg>

