<svg xmlns="http://www.w3.org/2000/svg" width="23" height="24" viewBox="0 0 23 24">
  <defs/>
  <path fill="#212135" d="M0,12 Q0,8.304 0.269,6.608 Q0.574,4.685 1.435,3.695 Q2.227,2.783 4.035,2.092 Q4.895,1.764 7.162,1.076 L8.609,0.634 Q11.434,-0.241 13.182,0.094 Q14.87,0.418 15.783,1.919 Q16.621,3.298 16.948,5.942 Q17.217,8.114 17.217,12 Q17.217,15.886 16.948,18.058 Q16.621,20.702 15.783,22.081 Q14.87,23.582 13.182,23.906 Q11.434,24.241 8.612,23.367 L7.164,22.925 Q4.895,22.236 4.035,21.908 Q2.227,21.217 1.435,20.305 Q0.574,19.315 0.269,17.392 Q0,15.695 0,12 Z M2,12 Q2,15.538 2.244,17.079 Q2.46,18.435 2.944,18.993 Q3.408,19.527 4.749,20.039 Q5.543,20.343 7.745,21.011 L9.197,21.455 Q11.548,22.182 12.806,21.941 Q13.622,21.785 14.073,21.043 Q14.689,20.03 14.964,17.812 Q15.217,15.762 15.217,12 Q15.217,8.238 14.964,6.188 Q14.689,3.97 14.073,2.957 Q13.622,2.215 12.806,2.059 Q11.548,1.818 9.2,2.544 L7.747,2.988 Q5.543,3.657 4.749,3.961 Q3.408,4.473 2.944,5.007 Q2.46,5.564 2.244,6.921 Q2,8.462 2,12 Z"/>
  <path fill="#212135" d="M11.478,12.162 C11.478,12.692 11.907,13.122 12.435,13.122 C12.963,13.122 13.391,12.692 13.391,12.162 C13.391,11.632 12.963,11.202 12.435,11.202 C11.907,11.202 11.478,11.632 11.478,12.162 Z"/>
  <path fill="#212135" d="M16.261,19.64 Q19.083,19.64 19.55,18.698 Q20.044,17.701 20.044,12.155 Q20.043,6.519 19.539,5.436 Q19.038,4.36 16.261,4.36 Q15.847,4.36 15.554,4.067 Q15.261,3.774 15.261,3.36 Q15.261,2.946 15.554,2.653 Q15.847,2.36 16.261,2.36 Q20.313,2.36 21.352,4.592 Q22.044,6.076 22.044,12.155 Q22.043,18.169 21.342,19.586 Q20.324,21.64 16.261,21.64 Q15.847,21.64 15.554,21.347 Q15.261,21.054 15.261,20.64 Q15.261,20.226 15.554,19.933 Q15.847,19.64 16.261,19.64 Z"/>
</svg>

