<svg xmlns="http://www.w3.org/2000/svg" width="24" height="24" viewBox="0 0 24 24">
  <defs/>
  <path fill="#212135" d="M16.596,16.889 Q14.31,18.586 12,18.586 Q9.69,18.586 7.404,16.889 Q7.071,16.642 7.011,16.232 Q6.95,15.823 7.197,15.49 Q7.444,15.157 7.854,15.097 Q8.263,15.036 8.596,15.283 Q10.351,16.586 12,16.586 Q13.649,16.586 15.404,15.283 Q15.736,15.036 16.146,15.097 Q16.556,15.157 16.803,15.49 Q17.05,15.823 16.989,16.232 Q16.929,16.642 16.596,16.889 Z"/>
  <path fill="#212135" d="M21.913,15.011 C21.95,14.475 22.389,14.05 22.927,14.05 C23.494,14.05 23.95,14.526 23.913,15.092 C23.488,21.487 21.401,23.573 15.006,23.998 C14.44,24.036 13.965,23.58 13.965,23.013 C13.965,22.475 14.389,22.036 14.925,21.999 C15.962,21.929 16.84,21.813 17.589,21.647 C18.945,21.346 19.75,20.904 20.284,20.37 C20.818,19.836 21.26,19.031 21.561,17.675 C21.728,16.926 21.843,16.048 21.913,15.011 Z M23.913,8.994 C23.95,9.561 23.494,10.036 22.927,10.036 C22.389,10.036 21.95,9.611 21.913,9.075 C21.843,8.039 21.728,7.16 21.561,6.411 C21.26,5.055 20.818,4.251 20.284,3.717 C19.75,3.183 18.945,2.741 17.589,2.439 C16.84,2.273 15.962,2.158 14.925,2.087 C14.389,2.051 13.965,1.611 13.965,1.074 C13.965,0.506 14.44,0.05 15.006,0.088 C21.401,0.513 23.488,2.6 23.913,8.994 Z M2.001,15.011 C2.072,16.048 2.187,16.926 2.354,17.675 C2.655,19.031 3.097,19.836 3.631,20.37 C4.165,20.904 4.969,21.346 6.325,21.647 C7.074,21.813 7.953,21.929 8.989,21.999 C9.525,22.036 9.95,22.475 9.95,23.013 C9.95,23.58 9.475,24.036 8.908,23.998 C2.514,23.573 0.427,21.487 0.002,15.092 C-0.035,14.526 0.42,14.05 0.988,14.05 C1.525,14.05 1.965,14.475 2.001,15.011 Z M2.001,9.075 C1.965,9.611 1.525,10.036 0.988,10.036 C0.42,10.036 -0.035,9.561 0.002,8.994 C0.427,2.6 2.514,0.513 8.908,0.088 C9.475,0.05 9.95,0.506 9.95,1.074 C9.95,1.611 9.525,2.051 8.989,2.087 C7.953,2.158 7.074,2.273 6.325,2.439 C4.969,2.741 4.165,3.183 3.631,3.717 C3.097,4.251 2.655,5.055 2.354,6.411 C2.187,7.16 2.072,8.039 2.001,9.075 Z"/>
  <path fill="#212135" d="M13,10.914 L13,13.914 Q13,14.328 12.707,14.621 Q12.414,14.914 12,14.914 Q11.586,14.914 11.293,14.621 Q11,14.328 11,13.914 L11,10.914 Q11,10.5 11.293,10.207 Q11.586,9.914 12,9.914 Q12.414,9.914 12.707,10.207 Q13,10.5 13,10.914 Z"/>
  <path fill="#212135" d="M16,7.914 L16,8.914 Q16,9.328 15.707,9.621 Q15.414,9.914 15,9.914 Q14.586,9.914 14.293,9.621 Q14,9.328 14,8.914 L14,7.914 Q14,7.5 14.293,7.207 Q14.586,6.914 15,6.914 Q15.414,6.914 15.707,7.207 Q16,7.5 16,7.914 Z"/>
  <path fill="#212135" d="M10,7.914 L10,8.914 Q10,9.328 9.707,9.621 Q9.414,9.914 9,9.914 Q8.586,9.914 8.293,9.621 Q8,9.328 8,8.914 L8,7.914 Q8,7.5 8.293,7.207 Q8.586,6.914 9,6.914 Q9.414,6.914 9.707,7.207 Q10,7.5 10,7.914 Z"/>
</svg>

