<svg xmlns="http://www.w3.org/2000/svg" width="24" height="24" viewBox="0 0 24 24">
  <defs/>
  <path fill="#212135" d="M12,6 C12.938,6 13.715,6.362 14.247,6.961 C14.763,7.541 15,8.287 15,9 C15,9.552 14.552,10 14,10 C13.448,10 13,9.552 13,9 C13,8.713 12.903,8.459 12.753,8.289 C12.618,8.138 12.395,8 12,8 C11.605,8 11.382,8.138 11.247,8.289 C11.097,8.459 11,8.713 11,9 C11,9.451 11.239,9.802 11.763,10.421 C11.79,10.453 11.819,10.486 11.849,10.521 C12.296,11.044 13,11.866 13,13 C13,13.552 12.552,14 12,14 C11.448,14 11,13.552 11,13 C11,12.66 10.801,12.379 10.237,11.713 L10.211,11.683 C9.734,11.12 9,10.254 9,9 C9,8.287 9.237,7.541 9.753,6.961 C10.285,6.362 11.062,6 12,6 Z M12,15 C12.552,15 13,15.448 13,16 C13,16.552 12.552,17 12,17 C11.448,17 11,16.552 11,16 C11,15.448 11.448,15 12,15 Z"/>
  <path fill="#212135" d="M0,12 Q0,8.14 0.485,5.956 Q1.015,3.574 2.294,2.294 Q3.574,1.015 5.956,0.485 Q8.14,0 12,0 Q15.86,0 18.044,0.485 Q20.426,1.015 21.706,2.294 Q22.985,3.574 23.515,5.956 Q24,8.14 24,12 Q24,15.86 23.515,18.044 Q22.985,20.427 21.706,21.706 Q20.427,22.985 18.044,23.515 Q15.86,24 12,24 Q8.14,24 5.956,23.515 Q3.574,22.985 2.294,21.706 Q1.015,20.426 0.485,18.044 Q0,15.86 0,12 Z M2,12 Q2,15.64 2.438,17.61 Q2.841,19.424 3.708,20.292 Q4.576,21.159 6.39,21.562 Q8.36,22 12,22 Q15.64,22 17.61,21.562 Q19.424,21.159 20.292,20.292 Q21.159,19.424 21.562,17.61 Q22,15.64 22,12 Q22,8.36 21.562,6.39 Q21.159,4.576 20.292,3.708 Q19.424,2.841 17.61,2.438 Q15.64,2 12,2 Q8.359,2 6.39,2.438 Q4.576,2.841 3.708,3.708 Q2.841,4.576 2.438,6.39 Q2,8.359 2,12 Z"/>
</svg>

