<svg xmlns="http://www.w3.org/2000/svg" width="24" height="24" viewBox="0 0 24 24">
  <defs/>
  <path fill="#212135" d="M0,12 C0,2.118 2.118,0 12,0 C21.882,0 24,2.118 24,12 C24,21.882 21.882,24 12,24 C2.118,24 0,21.882 0,12 Z M12,6 C11.062,6 10.285,6.362 9.753,6.961 C9.237,7.541 9,8.287 9,9 C9,10.254 9.734,11.12 10.211,11.683 L10.237,11.713 C10.801,12.379 11,12.66 11,13 C11,13.552 11.448,14 12,14 C12.552,14 13,13.552 13,13 C13,11.866 12.296,11.044 11.849,10.521 C11.819,10.486 11.79,10.453 11.763,10.421 C11.239,9.802 11,9.451 11,9 C11,8.713 11.097,8.459 11.247,8.289 C11.382,8.138 11.605,8 12,8 C12.395,8 12.618,8.138 12.753,8.289 C12.903,8.459 13,8.713 13,9 C13,9.552 13.448,10 14,10 C14.552,10 15,9.552 15,9 C15,8.287 14.763,7.541 14.247,6.961 C13.715,6.362 12.938,6 12,6 Z M11,16 C11,16.552 11.448,17 12,17 C12.552,17 13,16.552 13,16 C13,15.448 12.552,15 12,15 C11.448,15 11,15.448 11,16 Z"/>
</svg>

