<svg xmlns="http://www.w3.org/2000/svg" width="20" height="24" viewBox="0 0 20 24">
  <defs/>
  <path fill="#212135" d="M3.337,0 L16.663,0 Q18.7,0 19.638,1.911 Q20.576,3.821 19.328,5.556 L13.776,13.273 Q13.331,13.89 13.331,14.662 L13.331,19.751 Q13.331,20.836 12.532,21.53 L10.311,23.459 Q9.252,24.38 7.967,23.786 Q6.669,23.187 6.669,21.681 L6.669,14.662 Q6.669,13.89 6.225,13.273 L0.672,5.556 Q-0.576,3.822 0.362,1.912 Q1.3,0 3.337,0 Z M3.337,2 Q2.546,2 2.157,2.793 Q1.748,3.627 2.296,4.388 L7.848,12.105 Q8.669,13.246 8.669,14.662 L8.669,21.681 Q8.669,21.907 8.806,21.971 Q8.916,22.022 9,21.949 L11.221,20.02 Q11.331,19.924 11.331,19.751 L11.331,14.662 Q11.331,13.246 12.152,12.105 L17.704,4.388 Q18.252,3.627 17.843,2.793 Q17.454,2 16.663,2 Z"/>
  <path fill="#212135" d="M7,4 L13,4 Q13.414,4 13.707,4.293 Q14,4.586 14,5 Q14,5.414 13.707,5.707 Q13.414,6 13,6 L7,6 Q6.586,6 6.293,5.707 Q6,5.414 6,5 Q6,4.586 6.293,4.293 Q6.586,4 7,4 Z"/>
</svg>

