<svg xmlns="http://www.w3.org/2000/svg" width="20" height="24" viewBox="0 0 20 24">
  <defs/>
  <path fill="#212135" d="M3.337,0 L16.663,0 C19.408,0 20.975,3.267 19.328,5.556 L13.776,13.273 C13.487,13.674 13.331,14.161 13.331,14.662 L13.331,19.751 C13.331,20.746 13.039,21.09 12.532,21.53 L10.311,23.459 C8.865,24.715 6.669,23.643 6.669,21.681 L6.669,14.662 C6.669,14.161 6.513,13.674 6.225,13.273 L0.672,5.556 C-0.975,3.267 0.592,0 3.337,0 Z M7,4 C6.448,4 6,4.448 6,5 C6,5.552 6.448,6 7,6 L13,6 C13.552,6 14,5.552 14,5 C14,4.448 13.552,4 13,4 Z"/>
</svg>

