<svg xmlns="http://www.w3.org/2000/svg" width="24" height="24" viewBox="0 0 24 24">
  <defs/>
  <path fill="#212135" d="M5.031,13.124 Q5.77,10.144 8.181,8.541 Q10.708,6.862 13.675,7.656 Q16.641,8.451 17.99,11.169 Q19.277,13.763 18.426,16.714 Q18.312,17.112 17.949,17.312 Q17.587,17.512 17.189,17.398 Q16.791,17.283 16.59,16.92 Q16.39,16.558 16.505,16.16 Q17.14,13.956 16.198,12.058 Q15.251,10.149 13.157,9.588 Q11.063,9.027 9.288,10.207 Q7.524,11.379 6.972,13.606 Q6.872,14.008 6.517,14.221 Q6.163,14.435 5.761,14.336 Q5.359,14.236 5.145,13.881 Q4.931,13.526 5.031,13.124 Z"/>
  <path fill="#212135" d="M8.03,14.159 Q8.46,12.442 9.748,11.471 Q11.173,10.395 12.827,10.838 Q14.482,11.282 15.179,12.926 Q15.808,14.411 15.322,16.112 Q15.208,16.511 14.846,16.712 Q14.484,16.913 14.085,16.799 Q13.687,16.685 13.486,16.323 Q13.285,15.961 13.399,15.563 Q13.691,14.541 13.337,13.706 Q13.021,12.961 12.31,12.77 Q11.598,12.58 10.952,13.067 Q10.229,13.613 9.971,14.644 Q9.87,15.046 9.515,15.259 Q9.16,15.472 8.758,15.371 Q8.356,15.271 8.143,14.916 Q7.93,14.56 8.03,14.159 Z"/>
  <path fill="#212135" d="M21.913,15.011 C21.95,14.475 22.389,14.05 22.927,14.05 C23.494,14.05 23.95,14.526 23.913,15.092 C23.488,21.487 21.401,23.573 15.006,23.998 C14.44,24.036 13.965,23.58 13.965,23.013 C13.965,22.475 14.389,22.036 14.925,21.999 C15.962,21.929 16.84,21.813 17.589,21.647 C18.945,21.346 19.75,20.904 20.284,20.37 C20.818,19.836 21.26,19.031 21.561,17.675 C21.728,16.926 21.843,16.048 21.913,15.011 Z M23.913,8.994 C23.95,9.561 23.494,10.036 22.927,10.036 C22.389,10.036 21.95,9.611 21.913,9.075 C21.843,8.039 21.728,7.16 21.561,6.411 C21.26,5.055 20.818,4.251 20.284,3.717 C19.75,3.183 18.945,2.741 17.589,2.439 C16.84,2.273 15.962,2.158 14.925,2.087 C14.389,2.051 13.965,1.611 13.965,1.074 C13.965,0.506 14.44,0.05 15.006,0.088 C21.401,0.513 23.488,2.6 23.913,8.994 Z M2.001,15.011 C2.072,16.048 2.187,16.926 2.354,17.675 C2.655,19.031 3.097,19.836 3.631,20.37 C4.165,20.904 4.969,21.346 6.325,21.647 C7.074,21.813 7.953,21.929 8.989,21.999 C9.525,22.036 9.95,22.475 9.95,23.013 C9.95,23.58 9.475,24.036 8.908,23.998 C2.514,23.573 0.427,21.487 0.002,15.092 C-0.035,14.526 0.42,14.05 0.988,14.05 C1.525,14.05 1.965,14.475 2.001,15.011 Z M2.001,9.075 C1.965,9.611 1.525,10.036 0.988,10.036 C0.42,10.036 -0.035,9.561 0.002,8.994 C0.427,2.6 2.514,0.513 8.908,0.088 C9.475,0.05 9.95,0.506 9.95,1.074 C9.95,1.611 9.525,2.051 8.989,2.087 C7.953,2.158 7.074,2.273 6.325,2.439 C4.969,2.741 4.165,3.183 3.631,3.717 C3.097,4.251 2.655,5.055 2.354,6.411 C2.187,7.16 2.072,8.039 2.001,9.075 Z"/>
</svg>

