<svg xmlns="http://www.w3.org/2000/svg" width="24" height="24" viewBox="0 0 24 24">
  <defs/>
  <path fill="#212135" d="M16.102,1.503 C17.086,2.377 17.765,3.607 17.95,5.141 C17.966,5.277 18.07,5.388 18.204,5.413 C22.835,6.277 24,8.699 24,14.5 C24,22.323 21.882,24 12,24 C2.118,24 0,22.323 0,14.5 C0,8.699 1.165,6.277 5.796,5.413 C5.93,5.388 6.034,5.277 6.05,5.141 C6.235,3.607 6.914,2.377 7.898,1.503 C9.041,0.487 10.537,0 12,0 C13.463,0 14.959,0.487 16.102,1.503 Z M12,11 C11.448,11 11,11.448 11,12 L11,13.7 C11,13.866 10.866,14 10.7,14 L9,14 C8.448,14 8,14.448 8,15 C8,15.552 8.448,16 9,16 L10.7,16 C10.866,16 11,16.134 11,16.3 L11,18 C11,18.552 11.448,19 12,19 C12.552,19 13,18.552 13,18 L13,16.3 C13,16.134 13.134,16 13.3,16 L15,16 C15.552,16 16,15.552 16,15 C16,14.448 15.552,14 15,14 L13.3,14 C13.134,14 13,13.866 13,13.7 L13,12 C13,11.448 12.552,11 12,11 Z M12,5 C13.313,5 14.488,5.03 15.54,5.099 C15.736,5.112 15.894,4.938 15.842,4.749 C15.638,3.997 15.25,3.422 14.773,2.997 C14.041,2.347 13.037,2 12,2 C10.963,2 9.959,2.347 9.227,2.997 C8.75,3.422 8.362,3.997 8.158,4.749 C8.106,4.938 8.264,5.112 8.46,5.099 C9.512,5.03 10.687,5 12,5 Z"/>
</svg>

