<svg xmlns="http://www.w3.org/2000/svg" width="24" height="24" viewBox="0 0 24 24">
  <defs/>
  <path fill="#212135" d="M16.004,5.593 Q15.667,2 12,2 Q8.333,2 7.996,5.593 Q7.957,6.006 7.638,6.27 Q7.319,6.534 6.907,6.496 Q6.494,6.457 6.23,6.138 Q5.966,5.819 6.004,5.407 Q6.511,0 12,0 Q17.489,0 17.996,5.407 Q18.034,5.819 17.77,6.138 Q17.506,6.457 17.093,6.496 Q16.681,6.534 16.362,6.27 Q16.043,6.006 16.004,5.593 Z"/>
  <path fill="#212135" d="M2.294,6.816 Q3.574,5.803 5.956,5.384 Q8.14,5 12,5 Q15.86,5 18.044,5.384 Q20.426,5.803 21.706,6.816 Q24,8.633 24,14.5 Q24,20.367 21.706,22.184 Q20.426,23.197 18.044,23.616 Q15.86,24 12,24 Q8.14,24 5.956,23.616 Q3.574,23.197 2.294,22.184 Q0,20.367 0,14.5 Q0,8.633 2.294,6.816 Z M2,14.5 Q2,19.4 3.536,20.616 Q4.419,21.315 6.303,21.646 Q8.314,22 12,22 Q15.686,22 17.697,21.646 Q19.581,21.315 20.464,20.616 Q22,19.4 22,14.5 Q22,9.6 20.464,8.384 Q19.581,7.685 17.697,7.354 Q15.686,7 12,7 Q8.315,7 6.303,7.354 Q4.418,7.685 3.536,8.384 Q2,9.6 2,14.5 Z"/>
  <path fill="#212135" d="M13,12 L13,14 L15,14 C15.552,14 16,14.448 16,15 C16,15.552 15.552,16 15,16 L13,16 L13,18 C13,18.552 12.552,19 12,19 C11.448,19 11,18.552 11,18 L11,16 L9,16 C8.448,16 8,15.552 8,15 C8,14.448 8.448,14 9,14 L11,14 L11,12 C11,11.448 11.448,11 12,11 C12.552,11 13,11.448 13,12 Z"/>
</svg>

