<svg xmlns="http://www.w3.org/2000/svg" width="17" height="24" viewBox="0 0 17 24">
  <defs/>
  <path fill="#212135" d="M10.684,9.962 L10.497,10.944 L10.498,10.944 L10.684,9.962 Z M6.378,13.646 L6.565,12.664 L6.563,12.664 L6.378,13.646 Z M4.894,5.788 L1.98,10.553 L3.685,11.303 L6.599,6.539 L4.894,5.788 Z M10.137,0.065 C9.507,-0.063 8.93,0.251 8.542,0.567 C8.167,0.872 7.814,1.295 7.479,1.749 C6.802,2.666 5.959,4.047 4.894,5.788 L6.599,6.539 C7.692,4.751 8.468,3.486 9.063,2.679 C9.365,2.27 9.562,2.061 9.674,1.97 C9.774,1.889 9.623,2.042 9.379,1.992 L10.137,0.065 Z M10.452,6.915 C10.808,5.03 11.091,3.535 11.18,2.498 C11.224,1.986 11.23,1.493 11.132,1.092 C11.03,0.677 10.768,0.194 10.137,0.065 L9.379,1.992 C9.136,1.943 9.119,1.757 9.145,1.864 C9.175,1.985 9.191,2.238 9.152,2.7 C9.074,3.613 8.816,4.984 8.451,6.919 L10.452,6.915 Z M10.062,8.98 L10.452,6.915 L8.451,6.919 L8.062,8.984 L10.062,8.98 Z M9.688,10.944 L10.497,10.944 L10.872,8.98 L10.062,8.98 L9.688,10.944 Z M11.006,8.98 C10.96,8.98 10.915,8.98 10.871,8.98 L10.498,10.944 C10.541,10.944 10.585,10.944 10.631,10.944 L11.006,8.98 Z M13.021,8.98 L11.006,8.98 L10.631,10.944 L12.646,10.944 L13.021,8.98 Z M16.016,9.853 C15.742,9.294 15.19,9.116 14.717,9.045 C14.263,8.977 13.665,8.98 13.021,8.98 L12.646,10.944 C13.357,10.944 13.776,10.947 14.054,10.988 C14.312,11.027 14.206,11.067 14.146,10.945 L16.016,9.853 Z M15.02,13.056 C15.378,12.471 15.711,11.93 15.911,11.481 C16.12,11.012 16.291,10.412 16.016,9.853 L14.146,10.945 C14.086,10.823 14.176,10.749 14.062,11.004 C13.94,11.279 13.709,11.66 13.315,12.305 L15.02,13.056 Z M12.106,17.82 L15.02,13.056 L13.315,12.305 L10.401,17.07 L12.106,17.82 Z M6.863,23.543 C7.494,23.671 8.07,23.358 8.458,23.041 C8.834,22.736 9.186,22.313 9.521,21.86 C10.198,20.942 11.041,19.561 12.106,17.82 L10.401,17.07 C9.308,18.857 8.532,20.122 7.937,20.93 C7.635,21.338 7.438,21.547 7.326,21.639 C7.227,21.719 7.377,21.567 7.621,21.616 L6.863,23.543 Z M6.548,16.693 C6.192,18.579 5.909,20.073 5.82,21.11 C5.777,21.623 5.77,22.116 5.868,22.517 C5.97,22.931 6.232,23.415 6.863,23.543 L7.621,21.616 C7.864,21.666 7.881,21.851 7.855,21.744 C7.825,21.623 7.809,21.37 7.848,20.908 C7.926,19.995 8.184,18.625 8.549,16.69 L6.548,16.693 Z M6.938,14.629 L6.548,16.693 L8.549,16.69 L8.938,14.625 L6.938,14.629 Z M7.312,12.664 L6.565,12.664 L6.191,14.629 L6.938,14.629 L7.312,12.664 Z M5.994,14.629 C6.062,14.629 6.128,14.629 6.192,14.629 L6.563,12.664 C6.501,12.664 6.437,12.664 6.369,12.664 L5.994,14.629 Z M3.979,14.629 L5.994,14.629 L6.369,12.664 L4.354,12.664 L3.979,14.629 Z M0.984,13.756 C1.258,14.315 1.811,14.493 2.283,14.563 C2.737,14.631 3.335,14.629 3.979,14.629 L4.354,12.664 C3.643,12.664 3.224,12.662 2.947,12.62 C2.688,12.581 2.795,12.541 2.854,12.663 L0.984,13.756 Z M1.98,10.553 C1.622,11.138 1.289,11.678 1.089,12.128 C0.88,12.596 0.71,13.197 0.984,13.756 L2.854,12.663 C2.914,12.785 2.824,12.86 2.938,12.604 C3.06,12.33 3.291,11.948 3.685,11.303 L1.98,10.553 Z M8.938,14.625 C8.977,14.421 9.026,14.17 9.037,13.956 C9.05,13.714 9.025,13.379 8.789,13.095 L7.111,14.485 C7.059,14.422 7.029,14.352 7.015,14.291 C7.003,14.238 7.006,14.207 7.005,14.221 C7.004,14.237 7.001,14.273 6.989,14.348 C6.977,14.422 6.96,14.509 6.938,14.629 L8.938,14.625 Z M6.938,14.629 C7.059,14.629 7.148,14.629 7.223,14.63 C7.299,14.632 7.335,14.636 7.351,14.638 C7.365,14.64 7.334,14.637 7.284,14.615 C7.226,14.59 7.163,14.548 7.111,14.485 L8.789,13.095 C8.553,12.81 8.229,12.723 7.988,12.691 C7.776,12.662 7.519,12.664 7.312,12.664 L6.938,14.629 Z M8.062,8.984 C8.023,9.187 7.974,9.438 7.963,9.652 C7.95,9.895 7.976,10.23 8.211,10.514 L9.889,9.123 C9.941,9.186 9.971,9.256 9.985,9.317 C9.998,9.37 9.994,9.402 9.995,9.387 C9.996,9.371 9.999,9.335 10.011,9.261 C10.023,9.187 10.04,9.099 10.062,8.98 L8.062,8.984 Z M10.062,8.98 C9.941,8.98 9.852,8.98 9.777,8.978 C9.701,8.976 9.665,8.973 9.65,8.971 C9.635,8.969 9.666,8.971 9.716,8.993 C9.774,9.018 9.837,9.061 9.889,9.123 L8.211,10.514 C8.447,10.798 8.771,10.885 9.012,10.918 C9.225,10.946 9.481,10.944 9.688,10.944 L10.062,8.98 Z"/>
</svg>

