<svg xmlns="http://www.w3.org/2000/svg" width="24" height="24" viewBox="0 0 24 24">
  <defs/>
  <path fill="#212135" d="M4.002,8.068 C4.001,8.045 4,8.023 4,8 L4,7.936 C4,6.24 4,4.882 4.115,3.843 C4.232,2.797 4.483,1.853 5.168,1.168 C5.853,0.483 6.797,0.232 7.843,0.115 C8.882,0 10.24,0 11.936,0 L12.064,0 C13.76,0 15.118,0 16.157,0.115 C17.203,0.232 18.147,0.483 18.832,1.168 C19.517,1.853 19.768,2.797 19.885,3.843 C20,4.882 20,6.24 20,7.936 L20,8 C20,8.023 19.999,8.045 19.998,8.068 C21.471,8.175 22.402,8.436 22.99,9.035 C24,10.062 24,12.081 24,16.017 C24,22 21,24 12,24 C3,24 0,22 0,16.017 C0,12.081 0,10.062 1.01,9.035 C1.598,8.436 2.529,8.175 4.002,8.068 Z M2,16.017 C2,18.679 2.649,19.865 3.733,20.587 C5.066,21.474 7.518,22 12,22 C16.482,22 18.934,21.474 20.267,20.587 C21.351,19.865 22,18.679 22,16.017 C22,13.696 21.994,12.269 21.838,11.297 C21.705,10.466 21.53,10.399 21.498,10.387 C21.496,10.386 21.495,10.386 21.494,10.385 C21.237,10.236 20.6,10.064 18.882,10.017 C17.9,9.989 16.75,10 15.333,10.013 L15.331,10.014 L15.331,10.014 C14.357,10.023 13.258,10.033 12,10.033 C10.742,10.033 9.643,10.023 8.669,10.014 L8.669,10.014 L8.667,10.013 C7.25,10 6.1,9.989 5.118,10.017 C3.4,10.064 2.763,10.236 2.506,10.385 C2.505,10.386 2.504,10.386 2.502,10.387 C2.47,10.399 2.295,10.466 2.162,11.297 C2.006,12.269 2,13.696 2,16.017 Z M6,8 L6,8.002 C6.804,7.996 7.715,8.004 8.748,8.014 C9.72,8.023 10.8,8.033 12,8.033 C13.2,8.033 14.28,8.023 15.252,8.014 C16.285,8.004 17.196,7.996 18,8.002 L18,8 C18,6.226 17.999,4.98 17.897,4.064 C17.794,3.14 17.608,2.772 17.418,2.582 C17.228,2.392 16.86,2.206 15.936,2.103 C15.021,2.001 13.774,2 12,2 C10.226,2 8.98,2.001 8.064,2.103 C7.14,2.206 6.772,2.392 6.582,2.582 C6.392,2.772 6.206,3.14 6.103,4.064 C6.001,4.98 6,6.226 6,8 Z"/>
  <path fill="#212135" d="M11,4 L11,6 Q11,6.414 10.707,6.707 Q10.414,7 10,7 Q9.586,7 9.293,6.707 Q9,6.414 9,6 L9,4 Q9,3.586 9.293,3.293 Q9.586,3 10,3 Q10.414,3 10.707,3.293 Q11,3.586 11,4 Z M15,4 L15,6 Q15,6.414 14.707,6.707 Q14.414,7 14,7 Q13.586,7 13.293,6.707 Q13,6.414 13,6 L13,4 Q13,3.586 13.293,3.293 Q13.586,3 14,3 Q14.414,3 14.707,3.293 Q15,3.586 15,4 Z"/>
</svg>

