<svg xmlns="http://www.w3.org/2000/svg" width="16" height="26" viewBox="0 0 16 26">
  <defs/>
  <path fill="#212135" d="M9.53,0.034 C10.281,0.196 10.609,0.839 10.725,1.347 C10.832,1.818 10.821,2.377 10.774,2.935 C10.68,4.061 10.387,5.675 10.018,7.707 L9.626,9.87 L12.639,9.87 L12.639,9.87 C13.279,9.87 13.874,9.87 14.332,9.942 C14.803,10.017 15.491,10.222 15.834,10.971 C16.159,11.68 15.939,12.376 15.745,12.835 C15.547,13.3 15.221,13.859 14.858,14.484 L11.711,19.891 C10.612,21.779 9.749,23.262 9.058,24.246 C8.712,24.739 8.363,25.175 8.006,25.482 C7.663,25.775 7.125,26.108 6.47,25.966 C5.719,25.804 5.391,25.161 5.275,24.653 C5.168,24.183 5.179,23.623 5.226,23.065 C5.32,21.94 5.613,20.325 5.982,18.293 L6.374,16.13 L3.361,16.13 L3.361,16.13 C2.721,16.13 2.126,16.13 1.668,16.058 C1.197,15.983 0.509,15.778 0.166,15.029 C-0.159,14.32 0.061,13.623 0.255,13.165 C0.453,12.7 0.779,12.141 1.142,11.516 L4.289,6.109 C5.388,4.221 6.251,2.738 6.942,1.754 C7.288,1.261 7.637,0.825 7.994,0.518 C8.337,0.225 8.875,-0.108 9.53,0.034 Z"/>
</svg>

