<svg xmlns="http://www.w3.org/2000/svg" width="24" height="24" viewBox="0 0 24 24">
  <defs/>
  <path fill="#212135" d="M9,4 C9,3.448 9.448,3 10,3 C10.552,3 11,3.448 11,4 L11,6 C11,6.552 10.552,7 10,7 C9.448,7 9,6.552 9,6 L9,4 Z"/>
  <path fill="#212135" d="M14,3 C13.448,3 13,3.448 13,4 L13,6 C13,6.552 13.448,7 14,7 C14.552,7 15,6.552 15,6 L15,4 C15,3.448 14.552,3 14,3 Z"/>
  <path fill="#212135" d="M4,6 C4,3.172 4,1.757 4.879,0.879 C5.757,0 7.172,0 10,0 L14,0 C16.828,0 18.243,0 19.121,0.879 C20,1.757 20,3.172 20,6 L20,8.068 C21.472,8.175 22.403,8.437 22.99,9.035 C24,10.062 24,12.081 24,16.017 C24,22 21,24 12,24 C3,24 0,22 0,16.017 C0,12.081 0,10.062 1.01,9.035 C1.598,8.437 2.528,8.175 4,8.068 Z M10,2 C8.529,2 7.627,2.004 6.975,2.092 C6.401,2.169 6.305,2.279 6.294,2.292 L6.293,2.293 L6.292,2.294 C6.279,2.305 6.169,2.401 6.092,2.975 C6.004,3.627 6,4.529 6,6 L6,8 L18,8 L18,6 C18,4.529 17.996,3.627 17.908,2.975 C17.831,2.401 17.721,2.305 17.708,2.294 L17.707,2.293 L17.706,2.292 C17.695,2.279 17.599,2.169 17.025,2.092 C16.373,2.004 15.471,2 14,2 Z"/>
</svg>

