<svg xmlns="http://www.w3.org/2000/svg" width="24" height="24" viewBox="0 0 24 24">
  <defs/>
  <path fill="#212135" d="M23.59,9.782 C23.701,9.959 23.987,9.879 23.98,9.67 C23.872,6.109 23.459,2.8 22.467,1.762 C20.22,-0.59 10.991,-0.184 8.743,0.671 C8.128,0.906 7.697,1.218 7.396,1.57 C7.293,1.69 7.387,1.863 7.545,1.865 C8.481,1.872 9.436,1.941 10.39,2.072 C14.424,2.624 18.651,4.304 21.659,7.352 C22.383,8.086 23.033,8.896 23.59,9.782 Z"/>
  <path fill="#212135" d="M23.721,18.552 C23.651,19.284 23.576,19.855 23.505,20.205 C23.502,20.219 23.483,20.216 23.483,20.202 C23.483,20.188 23.462,20.187 23.459,20.201 C22.626,23.481 19.9,24 13.287,24 C3.682,24 1.387,22.208 0.285,13.845 C-0.606,7.089 0.413,4.621 5.902,3.922 C7.22,3.815 8.649,3.852 10.119,4.053 C13.839,4.563 17.615,6.102 20.235,8.757 C22.512,11.065 23.972,14.268 23.721,18.552 Z M15,18 C15,17.448 14.552,17 14,17 L6,17 C5.448,17 5,17.448 5,18 C5,18.552 5.448,19 6,19 L14,19 C14.552,19 15,18.552 15,18 Z M6,13 C5.448,13 5,13.448 5,14 C5,14.552 5.448,15 6,15 L10,15 C10.552,15 11,14.552 11,14 C11,13.448 10.552,13 10,13 Z"/>
</svg>

