<svg xmlns="http://www.w3.org/2000/svg" width="24" height="24" viewBox="0 0 24 24">
  <defs/>
  <path fill="#212135" d="M8,16.014 L16.026,16.014 C16.578,16.014 17.026,16.461 17.026,17.014 C17.026,17.566 16.578,18.014 16.026,18.014 L8,18.014 C7.448,18.014 7,17.566 7,17.014 C7,16.461 7.448,16.014 8,16.014 Z M12.013,12 L16.026,12 C16.578,12 17.026,12.448 17.026,13 C17.026,13.552 16.578,14 16.026,14 L12.013,14 C11.46,14 11.013,13.552 11.013,13 C11.013,12.448 11.46,12 12.013,12 Z"/>
  <path fill="#212135" d="M0.002,17.02 Q0.003,6.838 2.106,2.647 Q3.382,0.106 10.333,0.003 Q17.606,-0.105 17.992,2.971 Q18.084,3.704 18.075,4.352 Q21.846,4.922 23.124,6.987 Q24.431,9.098 23.721,14.181 Q22.89,20.126 20.265,22.088 Q17.708,24 10.748,24 Q4.756,24 2.527,22.69 Q-0.069,21.163 0.002,17.02 Z M16.888,6.222 Q15.424,6.086 13.252,6.086 Q6.957,6.086 4.933,7.599 Q2.976,9.062 2.26,14.181 Q2.024,15.872 2.002,17.042 Q2.002,17.049 2.002,17.057 Q1.951,20.031 3.541,20.966 Q5.3,22 10.748,22 Q17.043,22 19.067,20.487 Q21.024,19.024 21.74,13.905 Q22.351,9.536 21.424,8.04 Q20.513,6.569 16.941,6.227 Q16.915,6.225 16.888,6.222 Z M2.808,6.881 Q3.239,6.368 3.735,5.998 Q6.292,4.086 13.252,4.086 Q14.837,4.086 16.076,4.157 Q16.071,3.72 16.008,3.22 Q15.845,1.921 10.363,2.002 Q4.625,2.087 3.894,3.544 Q3.237,4.854 2.808,6.881 Z"/>
</svg>

