<svg xmlns="http://www.w3.org/2000/svg" width="24" height="24" viewBox="0 0 24 24">
  <defs/>
  <path fill="#212135" d="M0.411,9.782 C0.299,9.959 0.013,9.879 0.02,9.67 C0.128,6.109 0.541,2.8 1.533,1.762 C3.78,-0.59 13.009,-0.184 15.257,0.671 C15.872,0.906 16.303,1.218 16.604,1.57 C16.707,1.69 16.613,1.863 16.455,1.865 C15.519,1.872 14.564,1.941 13.61,2.072 C9.576,2.624 5.349,4.304 2.341,7.352 C1.617,8.086 0.967,8.896 0.411,9.782 Z"/>
  <path fill="#212135" d="M0.279,18.552 C0.028,14.268 1.488,11.065 3.765,8.757 C6.385,6.102 10.161,4.563 13.881,4.053 C15.351,3.852 16.78,3.815 18.098,3.922 C23.587,4.621 24.606,7.089 23.715,13.845 C22.613,22.208 20.318,24 10.713,24 C4.1,24 1.374,23.481 0.541,20.201 C0.537,20.187 0.517,20.188 0.517,20.202 C0.517,20.216 0.498,20.219 0.495,20.205 C0.424,19.855 0.349,19.284 0.279,18.552 Z M9,18 C9,18.552 9.448,19 10,19 L18,19 C18.552,19 19,18.552 19,18 C19,17.448 18.552,17 18,17 L10,17 C9.448,17 9,17.448 9,18 Z M18,13 L14,13 C13.448,13 13,13.448 13,14 C13,14.552 13.448,15 14,15 L18,15 C18.552,15 19,14.552 19,14 C19,13.448 18.552,13 18,13 Z"/>
</svg>

