<svg xmlns="http://www.w3.org/2000/svg" width="24" height="24" viewBox="0 0 24 24">
  <defs/>
  <path fill="#212135" d="M23.998,17.02 Q24.069,21.163 21.473,22.69 Q19.244,24 13.252,24 Q6.292,24 3.735,22.088 Q1.11,20.126 0.279,14.181 Q-0.431,9.098 0.876,6.987 Q2.154,4.922 5.925,4.352 Q5.916,3.704 6.008,2.971 Q6.394,-0.105 13.667,0.003 Q20.618,0.106 21.894,2.647 Q23.997,6.838 23.998,17.02 Z M7.059,6.227 Q3.487,6.569 2.576,8.04 Q1.649,9.536 2.26,13.905 Q2.976,19.024 4.933,20.487 Q6.957,22 13.252,22 Q18.7,22 20.459,20.966 Q22.049,20.031 21.998,17.057 Q21.998,17.049 21.998,17.042 Q21.976,15.871 21.74,14.181 Q21.024,9.062 19.067,7.599 Q17.043,6.086 10.748,6.086 Q8.576,6.086 7.112,6.222 Q7.085,6.225 7.059,6.227 Z M21.192,6.881 Q20.763,4.854 20.106,3.544 Q19.375,2.087 13.637,2.002 Q8.155,1.921 7.992,3.22 Q7.929,3.72 7.924,4.157 Q9.163,4.086 10.748,4.086 Q17.708,4.086 20.265,5.998 Q20.761,6.368 21.192,6.881 Z"/>
  <path fill="#212135" d="M16,16.014 C16.552,16.014 17,16.461 17,17.014 C17,17.566 16.552,18.014 16,18.014 L7.974,18.014 C7.422,18.014 6.974,17.566 6.974,17.014 C6.974,16.461 7.422,16.014 7.974,16.014 Z M11.987,12 C12.54,12 12.987,12.448 12.987,13 C12.987,13.552 12.54,14 11.987,14 L7.974,14 C7.422,14 6.974,13.552 6.974,13 C6.974,12.448 7.422,12 7.974,12 Z"/>
</svg>

