<svg xmlns="http://www.w3.org/2000/svg" width="24" height="24" viewBox="0 0 24 24">
  <defs/>
  <path fill="#212135" d="M12,15 C10.343,15 9,13.657 9,12 C9,10.343 10.343,9 12,9 C13.657,9 15,10.343 15,12 C15,13.657 13.657,15 12,15 Z"/>
  <path fill="#212135" d="M1.065,16.848 C0.812,17.035 0.426,16.925 0.367,16.615 C0.115,15.292 0,13.761 0,12 C0,10.239 0.115,8.708 0.367,7.385 C0.426,7.075 0.812,6.965 1.065,7.152 C1.788,7.685 2.68,8 3.647,8 C6.051,8 8,6.051 8,3.647 C8,2.68 7.685,1.788 7.152,1.065 C6.965,0.812 7.075,0.426 7.385,0.367 C8.708,0.115 10.239,0 12,0 C13.761,0 15.292,0.115 16.615,0.367 C16.925,0.426 17.035,0.812 16.848,1.065 C16.315,1.788 16,2.68 16,3.647 C16,6.051 17.949,8 20.353,8 C21.32,8 22.212,7.685 22.935,7.152 C23.188,6.965 23.574,7.075 23.633,7.385 C23.885,8.708 24,10.239 24,12 C24,13.761 23.885,15.292 23.633,16.615 C23.574,16.925 23.188,17.035 22.935,16.848 C22.212,16.315 21.32,16 20.353,16 C17.949,16 16,17.949 16,20.353 C16,21.32 16.315,22.212 16.848,22.935 C17.035,23.188 16.925,23.574 16.615,23.633 C15.292,23.885 13.761,24 12,24 C10.239,24 8.708,23.885 7.385,23.633 C7.075,23.574 6.965,23.188 7.152,22.935 C7.685,22.212 8,21.32 8,20.353 C8,17.949 6.051,16 3.647,16 C2.68,16 1.788,16.315 1.065,16.848 Z M7,12 C7,14.761 9.239,17 12,17 C14.761,17 17,14.761 17,12 C17,9.239 14.761,7 12,7 C9.239,7 7,9.239 7,12 Z"/>
  <path fill="#212135" d="M19.532,22.559 C19.63,22.596 19.739,22.584 19.831,22.533 C20.996,21.883 21.883,20.996 22.533,19.831 C22.584,19.739 22.596,19.63 22.559,19.532 C22.226,18.637 21.364,18 20.353,18 C19.054,18 18,19.054 18,20.353 C18,21.364 18.637,22.226 19.532,22.559 Z"/>
  <path fill="#212135" d="M18,3.647 C18,2.636 18.637,1.774 19.532,1.441 C19.63,1.404 19.739,1.416 19.831,1.467 C20.996,2.117 21.883,3.004 22.533,4.169 C22.584,4.261 22.596,4.37 22.559,4.468 C22.226,5.362 21.364,6 20.353,6 C19.054,6 18,4.946 18,3.647 Z"/>
  <path fill="#212135" d="M1.441,19.532 C1.404,19.63 1.416,19.739 1.467,19.831 C2.117,20.996 3.004,21.883 4.169,22.533 C4.261,22.584 4.37,22.596 4.468,22.559 C5.362,22.226 6,21.364 6,20.353 C6,19.054 4.946,18 3.647,18 C2.636,18 1.774,18.637 1.441,19.532 Z"/>
  <path fill="#212135" d="M4.468,1.441 C4.37,1.404 4.261,1.416 4.169,1.467 C3.004,2.117 2.117,3.004 1.467,4.169 C1.416,4.261 1.404,4.37 1.441,4.468 C1.774,5.363 2.636,6 3.647,6 C4.946,6 6,4.946 6,3.647 C6,2.636 5.363,1.774 4.468,1.441 Z"/>
</svg>

