<svg xmlns="http://www.w3.org/2000/svg" width="24" height="24" viewBox="0 0 24 24">
  <defs/>
  <path fill="#212135" d="M0,12 Q0,8.14 0.485,5.956 Q1.015,3.574 2.294,2.294 Q3.574,1.015 5.956,0.485 Q8.14,0 12,0 Q15.86,0 18.044,0.485 Q20.426,1.015 21.706,2.294 Q22.985,3.574 23.515,5.956 Q24,8.14 24,12 Q24,15.86 23.515,18.044 Q22.985,20.427 21.706,21.706 Q20.427,22.985 18.044,23.515 Q15.86,24 12,24 Q8.14,24 5.956,23.515 Q3.574,22.985 2.294,21.706 Q1.015,20.426 0.485,18.044 Q0,15.86 0,12 Z M2,12 Q2,15.64 2.438,17.61 Q2.841,19.424 3.708,20.292 Q4.576,21.159 6.39,21.562 Q8.36,22 12,22 Q15.64,22 17.61,21.562 Q19.424,21.159 20.292,20.292 Q21.159,19.424 21.562,17.61 Q22,15.64 22,12 Q22,8.36 21.562,6.39 Q21.159,4.576 20.292,3.708 Q19.424,2.841 17.61,2.438 Q15.64,2 12,2 Q8.359,2 6.39,2.438 Q4.576,2.841 3.708,3.708 Q2.841,4.576 2.438,6.39 Q2,8.359 2,12 Z"/>
  <path fill="#212135" d="M16.261,7.776 Q18,9.53 18,12 Q18,14.485 16.243,16.243 Q14.485,18 12,18 Q9.528,18 7.774,16.259 L7.774,16.259 Q7.773,16.258 7.772,16.258 L7.771,16.256 Q6,14.497 6,12 Q6,9.515 7.757,7.757 Q9.515,6 12,6 Q14.497,6 16.256,7.771 Q16.258,7.772 16.259,7.773 L16.259,7.774 Q16.26,7.775 16.261,7.776 Z M8.558,14.056 L14.056,8.558 Q13.144,8 12,8 Q8,8 8,12 Q8,13.144 8.558,14.056 Z M15.463,9.979 L9.979,15.463 Q10.879,16 12,16 Q16,16 16,12 Q16,10.879 15.463,9.979 Z"/>
</svg>

