<svg xmlns="http://www.w3.org/2000/svg" width="24" height="27" viewBox="0 0 24 27">
  <defs/>
  <path fill="#212135" d="M0,15 Q0,11.14 0.485,8.956 Q1.015,6.574 2.294,5.294 Q3.574,4.015 5.956,3.485 Q8.14,3 12,3 Q15.86,3 18.044,3.485 Q20.426,4.015 21.706,5.294 Q22.985,6.574 23.515,8.956 Q24,11.14 24,15 Q24,18.86 23.515,21.044 Q22.985,23.427 21.706,24.706 Q20.427,25.985 18.044,26.515 Q15.86,27 12,27 Q8.14,27 5.956,26.515 Q3.574,25.985 2.294,24.706 Q1.015,23.426 0.485,21.044 Q0,18.86 0,15 Z M2,15 Q2,18.64 2.438,20.61 Q2.841,22.424 3.708,23.292 Q4.576,24.159 6.39,24.562 Q8.36,25 12,25 Q15.64,25 17.61,24.562 Q19.424,24.159 20.292,23.292 Q21.159,22.424 21.562,20.61 Q22,18.64 22,15 Q22,11.36 21.562,9.39 Q21.159,7.576 20.292,6.708 Q19.424,5.841 17.61,5.438 Q15.64,5 12,5 Q8.359,5 6.39,5.438 Q4.576,5.841 3.708,6.708 Q2.841,7.576 2.438,9.39 Q2,11.36 2,15 Z"/>
  <path fill="#212135" d="M10,0 C10.552,0 11,0.448 11,1 L11,2 L13,2 L13,1 C13,0.448 13.448,0 14,0 C14.552,0 15,0.448 15,1 L15,2 L16,2 C17.105,2 18,2.895 18,4 C18,5.105 17.105,6 16,6 L8,6 C6.895,6 6,5.105 6,4 C6,2.895 6.895,2 8,2 L9,2 L9,1 C9,0.448 9.448,0 10,0 Z"/>
  <path fill="#212135" d="M7,20 L17,20 Q17.414,20 17.707,20.293 Q18,20.586 18,21 Q18,21.414 17.707,21.707 Q17.414,22 17,22 L7,22 Q6.586,22 6.293,21.707 Q6,21.414 6,21 Q6,20.586 6.293,20.293 Q6.586,20 7,20 Z"/>
  <path fill="#212135" d="M7,15 L17,15 Q17.414,15 17.707,15.293 Q18,15.586 18,16 Q18,16.414 17.707,16.707 Q17.414,17 17,17 L7,17 Q6.586,17 6.293,16.707 Q6,16.414 6,16 Q6,15.586 6.293,15.293 Q6.586,15 7,15 Z"/>
  <path fill="#212135" d="M7,10 L17,10 Q17.414,10 17.707,10.293 Q18,10.586 18,11 Q18,11.414 17.707,11.707 Q17.414,12 17,12 L7,12 Q6.586,12 6.293,11.707 Q6,11.414 6,11 Q6,10.586 6.293,10.293 Q6.586,10 7,10 Z"/>
</svg>

