<svg xmlns="http://www.w3.org/2000/svg" width="24" height="24" viewBox="0 0 24 24">
  <defs/>
  <path fill="#212135" d="M4,11 Q4,18.813 4.962,20.286 Q6.082,22 12,22 Q17.918,22 19.038,20.286 Q20,18.813 20,11 Q20,10.586 20.293,10.293 Q20.586,10 21,10 Q21.414,10 21.707,10.293 Q22,10.586 22,11 Q22,19.409 20.712,21.38 Q19.001,24 12,24 Q4.999,24 3.288,21.38 Q2,19.409 2,11 Q2,10.586 2.293,10.293 Q2.586,10 3,10 Q3.414,10 3.707,10.293 Q4,10.586 4,11 Z"/>
  <path fill="#212135" d="M6.326,5 Q6,4.318 6,3.5 Q6,0 9.5,0 Q11.129,0 12,0.758 Q12.871,0 14.5,0 Q18,0 18,3.5 Q18,4.354 17.792,5 L20,5 Q24,5 24,8.5 Q24,12 20,12 L13,12 L13,23 Q13,23.414 12.707,23.707 Q12.414,24 12,24 Q11.586,24 11.293,23.707 Q11,23.414 11,23 L11,12 L3.5,12 Q0,12 0,8.5 Q0,5 3.5,5 L6.326,5 Z M9.5,7 L3.5,7 Q2,7 2,8.5 Q2,10 3.5,10 L11,10 L11,7 L9.5,7 Z M13,10 L20,10 Q22,10 22,8.5 Q22,7 20,7 L13,7 L13,10 Z M13,3.5 L13,5 L14.5,5 Q16,5 16,3.5 Q16,2 14.5,2 Q13,2 13,3.5 Z M11,3.5 Q11,2.88 10.561,2.44 Q10.121,2 9.5,2 Q8,2 8,3.5 Q8,5 9.5,5 L11,5 Z"/>
</svg>

