<svg xmlns="http://www.w3.org/2000/svg" width="24" height="24" viewBox="0 0 24 24">
  <defs/>
  <path fill="#212135" d="M12,3 C12,1.343 13.343,0 15,0 C16.657,0 18,1.343 18,3 C18,3.768 17.711,4.469 17.236,5 L20.5,5 C21.904,5 22.607,5 23.111,5.337 C23.329,5.483 23.517,5.67 23.663,5.889 C24,6.393 24,7.096 24,8.5 C24,8.706 24,8.896 23.999,9.073 C23.996,9.596 23.566,10 23.043,10 L0.957,10 C0.434,10 0.004,9.596 0.001,9.073 C0,8.896 0,8.706 0,8.5 C0,7.096 0,6.393 0.337,5.889 C0.483,5.67 0.67,5.483 0.889,5.337 C1.393,5 2.096,5 3.5,5 L6.764,5 C6.289,4.469 6,3.768 6,3 C6,1.343 7.343,0 9,0 C10.657,0 12,1.343 12,3 Z"/>
  <path fill="#212135" d="M21.998,13.002 C22,12.45 21.552,12 20.999,12 L14,12 C13.448,12 13,12.448 13,13 L13,22.998 C13,23.551 13.449,24 14.002,23.995 C17.316,23.969 19.257,23.806 20.393,22.764 C21.84,21.439 21.984,18.693 21.998,13.002 Z"/>
  <path fill="#212135" d="M11,13 C11,12.448 10.552,12 10,12 L3.001,12 C2.448,12 2,12.45 2.002,13.002 C2.016,18.693 2.16,21.439 3.606,22.764 C4.743,23.806 6.684,23.969 9.998,23.995 C10.551,24 11,23.551 11,22.998 L11,13 Z"/>
</svg>

