<svg xmlns="http://www.w3.org/2000/svg" width="24" height="24" viewBox="0 0 24 24">
  <defs/>
  <path fill="#212135" d="M12,24 C2.118,24 0,21.882 0,12 C0,2.118 2.118,0 12,0 C21.882,0 24,2.118 24,12 C24,21.882 21.882,24 12,24 Z M15.376,6.518 C15.197,6.192 14.852,5.993 14.48,6 C14.109,6.007 13.772,6.22 13.606,6.553 L9.458,14.848 L7.626,11.518 C7.45,11.198 7.115,11 6.75,11 L5,11 C4.448,11 4,11.448 4,12 C4,12.552 4.448,13 5,13 L6.159,13 L8.624,17.482 C8.803,17.808 9.148,18.007 9.52,18 C9.891,17.993 10.228,17.78 10.394,17.447 L14.542,9.152 L16.374,12.482 C16.549,12.802 16.885,13 17.25,13 L19,13 C19.552,13 20,12.552 20,12 C20,11.448 19.552,11 19,11 L17.841,11 Z"/>
</svg>

