<svg xmlns="http://www.w3.org/2000/svg" width="24" height="24" viewBox="0 0 24 24">
  <defs/>
  <path fill="#212135" d="M19,13 L17.25,13 Q16.659,13 16.374,12.482 L14.542,9.152 L10.394,17.447 Q10.209,17.818 9.816,17.949 Q9.423,18.08 9.053,17.894 Q8.774,17.755 8.624,17.482 L6.159,13 L5,13 Q4.586,13 4.293,12.707 Q4,12.414 4,12 Q4,11.586 4.293,11.293 Q4.586,11 5,11 L6.75,11 Q7.341,11 7.626,11.518 L9.458,14.848 L13.606,6.553 Q13.745,6.274 14.018,6.124 Q14.381,5.924 14.779,6.04 Q15.177,6.155 15.376,6.518 L17.841,11 L19,11 Q19.414,11 19.707,11.293 Q20,11.586 20,12 Q20,12.414 19.707,12.707 Q19.414,13 19,13 Z"/>
  <path fill="#212135" d="M0,12 Q0,8.14 0.485,5.956 Q1.015,3.574 2.294,2.294 Q3.574,1.015 5.956,0.485 Q8.14,0 12,0 Q15.86,0 18.044,0.485 Q20.426,1.015 21.706,2.294 Q22.985,3.574 23.515,5.956 Q24,8.14 24,12 Q24,15.86 23.515,18.044 Q22.985,20.427 21.706,21.706 Q20.427,22.985 18.044,23.515 Q15.86,24 12,24 Q8.14,24 5.956,23.515 Q3.574,22.985 2.294,21.706 Q1.015,20.426 0.485,18.044 Q0,15.86 0,12 Z M2,12 Q2,15.64 2.438,17.61 Q2.841,19.424 3.708,20.292 Q4.576,21.159 6.39,21.562 Q8.36,22 12,22 Q15.64,22 17.61,21.562 Q19.424,21.159 20.292,20.292 Q21.159,19.424 21.562,17.61 Q22,15.64 22,12 Q22,8.36 21.562,6.39 Q21.159,4.576 20.292,3.708 Q19.424,2.841 17.61,2.438 Q15.64,2 12,2 Q8.359,2 6.39,2.438 Q4.576,2.841 3.708,3.708 Q2.841,4.576 2.438,6.39 Q2,8.359 2,12 Z"/>
</svg>

