<svg xmlns="http://www.w3.org/2000/svg" width="28" height="24" viewBox="0 0 28 24">
  <defs/>
  <path fill="#212135" d="M19,12 C15.686,12 13,9.314 13,6 C13,2.686 15.686,0 19,0 C22.314,0 25,2.686 25,6 C25,9.314 22.314,12 19,12 Z"/>
  <path fill="#212135" d="M19,24 C11.588,24 10,23.117 10,19 C10,14.883 11.588,14 19,14 C26.412,14 28,14.883 28,19 C28,23.117 26.412,24 19,24 Z"/>
  <path fill="#212135" d="M6,7 C6,4.514 7.984,2 11,2 C11.552,2 12,2.448 12,3 C12,3.552 11.552,4 11,4 C9.216,4 8,5.486 8,7 C8,8.514 9.216,10 11,10 C11.552,10 12,10.448 12,11 C12,11.552 11.552,12 11,12 C7.984,12 6,9.486 6,7 Z"/>
  <path fill="#212135" d="M9,13 C9.552,13 10,13.448 10,14 C10,14.552 9.552,15 9,15 C6.028,15 4.226,15.137 3.167,15.555 C2.68,15.747 2.425,15.973 2.274,16.216 C2.115,16.472 2,16.861 2,17.5 C2,18.136 2.113,18.55 2.267,18.83 C2.415,19.097 2.635,19.308 2.981,19.481 C3.743,19.862 4.983,20 6.867,20 C7.419,20 7.867,20.448 7.867,21 C7.867,21.552 7.419,22 6.867,22 C5.017,22 3.324,21.888 2.086,21.269 C1.431,20.942 0.885,20.466 0.516,19.795 C0.153,19.137 0,18.364 0,17.5 C0,16.639 0.152,15.841 0.576,15.159 C1.008,14.465 1.653,14.003 2.433,13.695 C3.907,13.113 6.105,13 9,13 Z"/>
</svg>

