<svg xmlns="http://www.w3.org/2000/svg" width="28" height="24" viewBox="0 0 28 24">
  <defs/>
  <path fill="#212135" d="M9.164,12 C5.79,12 3.055,9.314 3.055,6 C3.055,2.686 5.79,0 9.164,0 C12.538,0 15.273,2.686 15.273,6 C15.273,9.314 12.538,12 9.164,12 Z"/>
  <path fill="#212135" d="M9.164,24 C1.617,24 0,23.117 0,19 C0,14.883 1.617,14 9.164,14 C16.71,14 18.327,14.883 18.327,19 C18.327,23.117 16.71,24 9.164,24 Z"/>
  <path fill="#212135" d="M22.4,7 C22.4,4.514 20.38,2 17.309,2 C16.747,2 16.291,2.448 16.291,3 C16.291,3.552 16.747,4 17.309,4 C19.125,4 20.364,5.486 20.364,7 C20.364,8.514 19.125,10 17.309,10 C16.747,10 16.291,10.448 16.291,11 C16.291,11.552 16.747,12 17.309,12 C20.38,12 22.4,9.486 22.4,7 Z"/>
  <path fill="#212135" d="M19.346,13 C18.783,13 18.327,13.448 18.327,14 C18.327,14.552 18.783,15 19.346,15 C22.186,15 23.882,15.139 24.869,15.547 C25.315,15.731 25.552,15.947 25.697,16.191 C25.852,16.453 25.964,16.852 25.964,17.5 C25.964,18.144 25.854,18.568 25.703,18.854 C25.561,19.124 25.353,19.328 25.039,19.493 C24.336,19.861 23.18,20 21.382,20 C20.82,20 20.364,20.448 20.364,21 C20.364,21.552 20.82,22 21.382,22 C23.148,22 24.791,21.889 25.997,21.257 C26.638,20.922 27.162,20.438 27.512,19.771 C27.855,19.119 28,18.356 28,17.5 C28,16.648 27.857,15.859 27.456,15.184 C27.044,14.49 26.421,14.019 25.659,13.703 C24.227,13.111 22.105,13 19.346,13 Z"/>
</svg>

