<svg xmlns="http://www.w3.org/2000/svg" width="24" height="24" viewBox="0 0 24 24">
  <defs/>
  <path fill="#212135" d="M13,11 L13,13 L11,13 L11,11 L13,11 Z"/>
  <path fill="#212135" d="M12,24 C2.118,24 0,21.882 0,12 C0,2.118 2.118,0 12,0 C21.882,0 24,2.118 24,12 C24,21.882 21.882,24 12,24 Z M9,7 L9,9 L7,9 C6.448,9 6,9.448 6,10 C6,10.552 6.448,11 7,11 L9,11 L9,13 L7,13 C6.448,13 6,13.448 6,14 C6,14.552 6.448,15 7,15 L9,15 L9,17 C9,17.552 9.448,18 10,18 C10.552,18 11,17.552 11,17 L11,15 L13,15 L13,17 C13,17.552 13.448,18 14,18 C14.552,18 15,17.552 15,17 L15,15 L17,15 C17.552,15 18,14.552 18,14 C18,13.448 17.552,13 17,13 L15,13 L15,11 L17,11 C17.552,11 18,10.552 18,10 C18,9.448 17.552,9 17,9 L15,9 L15,7 C15,6.448 14.552,6 14,6 C13.448,6 13,6.448 13,7 L13,9 L11,9 L11,7 C11,6.448 10.552,6 10,6 C9.448,6 9,6.448 9,7 Z"/>
</svg>

