<svg xmlns="http://www.w3.org/2000/svg" width="24" height="22" viewBox="0 0 24 22">
  <defs/>
  <path fill="#212135" d="M5,7 L5,7.006 C8.278,7.089 9,8.075 9,12 C9,16.117 8.206,17 4.5,17 C0.794,17 0,16.117 0,12 C0,8.509 0.571,7.344 3.002,7.07 C3.001,7.047 3,7.023 3,7 C3,4.332 4.158,2.507 5.946,1.404 C7.661,0.345 9.869,0 11.967,0 C14.062,0 16.285,0.338 18.016,1.391 C19.82,2.488 21,4.313 21,7 C21,7.023 20.999,7.047 20.998,7.07 C23.429,7.344 24,8.509 24,12 C24,16.117 23.206,17 19.5,17 C15.794,17 15,16.117 15,12 C15,8.075 15.722,7.089 19,7.006 L19,7 C19,5.007 18.18,3.832 16.976,3.099 C15.698,2.322 13.904,2 11.967,2 C10.032,2 8.256,2.328 6.996,3.106 C5.808,3.839 5,5.014 5,7 Z M2.143,14.126 C2.234,14.58 2.339,14.697 2.347,14.706 L2.347,14.706 C2.357,14.717 2.609,15 4.5,15 C6.391,15 6.643,14.717 6.653,14.706 L6.653,14.706 C6.661,14.697 6.766,14.58 6.857,14.126 C6.95,13.66 7,12.989 7,12 C7,11.011 6.95,10.34 6.857,9.874 C6.766,9.419 6.661,9.303 6.653,9.294 L6.653,9.294 C6.643,9.282 6.391,9 4.5,9 C2.609,9 2.357,9.282 2.347,9.294 L2.347,9.294 C2.339,9.303 2.234,9.419 2.143,9.874 C2.05,10.34 2,11.011 2,12 C2,12.989 2.05,13.66 2.143,14.126 Z M17,12 C17,12.989 17.05,13.66 17.143,14.126 C17.234,14.58 17.339,14.697 17.347,14.706 L17.347,14.706 C17.357,14.717 17.609,15 19.5,15 C21.391,15 21.643,14.717 21.653,14.706 L21.653,14.706 C21.661,14.697 21.766,14.58 21.857,14.126 C21.95,13.66 22,12.989 22,12 C22,11.011 21.95,10.34 21.857,9.874 C21.766,9.419 21.661,9.303 21.653,9.294 L21.653,9.294 C21.643,9.282 21.391,9 19.5,9 C17.609,9 17.357,9.282 17.347,9.294 L17.347,9.294 C17.339,9.303 17.234,9.419 17.143,9.874 C17.05,10.34 17,11.011 17,12 Z"/>
  <path fill="#212135" d="M9,22 L8,22 Q5.929,22 4.465,20.536 Q3,19.071 3,17 Q3,16.586 3.293,16.293 Q3.586,16 4,16 Q4.414,16 4.707,16.293 Q5,16.586 5,17 Q5,20 8,20 L9,20 Q9.414,20 9.707,20.293 Q10,20.586 10,21 Q10,21.414 9.707,21.707 Q9.414,22 9,22 Z"/>
</svg>

