<svg xmlns="http://www.w3.org/2000/svg" width="24" height="22" viewBox="0 0 24 22">
  <defs/>
  <path fill="#212135" d="M5.445,1.996 C4.016,3.221 3.216,4.948 3.038,7.066 C0.576,7.332 0,8.492 0,12 C0,15.491 0.571,16.656 3.002,16.93 C3.001,16.953 3,16.977 3,17 C3,19.761 5.239,22 8,22 L9,22 C9.552,22 10,21.552 10,21 C10,20.448 9.552,20 9,20 L8,20 C6.343,20 5,18.657 5,17 L5,16.994 C8.278,16.91 9,15.925 9,12 C9,8.096 8.286,7.1 5.053,7.007 C5.229,5.429 5.836,4.295 6.747,3.514 C7.864,2.556 9.589,2 11.967,2 C14.347,2 16.091,2.551 17.226,3.509 C18.149,4.289 18.768,5.424 18.947,7.007 C15.714,7.1 15,8.096 15,12 C15,16.117 15.794,17 19.5,17 C23.206,17 24,16.117 24,12 C24,8.492 23.424,7.332 20.961,7.066 C20.78,4.932 19.962,3.203 18.516,1.981 C16.892,0.61 14.619,0 11.967,0 C9.312,0 7.053,0.617 5.445,1.996 Z"/>
</svg>

