<svg xmlns="http://www.w3.org/2000/svg" width="24" height="20" viewBox="0 0 24 20">
  <defs/>
  <path fill="#212135" d="M7.6,0 Q9.836,0 12,1.541 Q14.164,0 16.4,0 Q19.523,0 21.743,2.036 Q24,4.107 24,7.054 Q24,15.003 13.2,19.748 Q12,20.275 10.8,19.748 Q0,15.003 0,7.054 Q0,4.106 2.257,2.036 Q4.477,0 7.6,0 Z M7.6,2 Q5.255,2 3.609,3.51 Q2,4.986 2,7.054 Q2,13.698 11.604,17.917 Q12,18.091 12.396,17.917 Q22,13.698 22,7.054 Q22,4.986 20.391,3.51 Q18.745,2 16.4,2 Q14.551,2 12.635,3.573 L12,4.094 L11.365,3.573 Q9.449,2 7.6,2 Z"/>
</svg>

