<svg xmlns="http://www.w3.org/2000/svg" width="24" height="20" viewBox="0 0 24 20">
  <defs/>
  <path fill="#212135" d="M12.325,1.738 C12.134,1.886 11.866,1.886 11.675,1.738 C10.446,0.786 8.891,0 7.2,0 C3.224,0 0,3.011 0,6.726 C0,7.379 0.064,8.008 0.181,8.613 C0.226,8.841 0.429,9 0.66,9 L5.073,9 C5.262,9 5.435,8.893 5.52,8.724 L7.106,5.553 C7.271,5.223 7.604,5.011 7.972,5 C8.341,4.99 8.685,5.184 8.868,5.504 L11.992,10.971 C12.062,11.094 12.234,11.107 12.322,10.997 L15.219,7.375 C15.397,7.153 15.661,7.017 15.945,7.002 C16.229,6.986 16.506,7.092 16.707,7.293 L18.268,8.854 C18.361,8.947 18.489,9 18.621,9 L23.34,9 C23.572,9 23.774,8.841 23.819,8.613 C23.936,8.008 24,7.379 24,6.727 C24,3.012 20.776,0 16.8,0 C15.109,0 13.554,0.786 12.325,1.738 Z"/>
  <path fill="#212135" d="M22.681,11.699 C22.858,11.379 22.618,11 22.253,11 L18,11 C17.735,11 17.48,10.895 17.293,10.707 L16.241,9.655 C16.157,9.571 16.018,9.579 15.943,9.672 L12.781,13.625 C12.574,13.883 12.252,14.023 11.922,13.997 C11.592,13.971 11.296,13.784 11.132,13.496 L8.244,8.443 C8.165,8.304 7.963,8.31 7.892,8.453 L6.894,10.447 C6.725,10.786 6.379,11 6,11 L1.748,11 C1.382,11 1.142,11.379 1.319,11.699 C3.789,16.179 9.051,18.884 11.129,19.814 C11.685,20.062 12.315,20.062 12.871,19.814 C14.949,18.884 20.211,16.179 22.681,11.699 Z"/>
</svg>

