<svg xmlns="http://www.w3.org/2000/svg" width="30" height="22" viewBox="0 0 30 22">
  <defs/>
  <path fill="#212135" d="M10.2,0 C12.053,0 13.709,0.794 15,1.732 C16.291,0.794 17.947,0 19.8,0 C24.264,0 28,3.396 28,7.727 C28,8.161 27.975,8.586 27.926,9 L25.908,9 C25.968,8.586 26,8.162 26,7.727 C26,4.627 23.289,2 19.8,2 C18.288,2 16.828,2.775 15.642,3.767 L15,4.304 L14.358,3.767 C13.172,2.775 11.712,2 10.2,2 C6.711,2 4,4.627 4,7.726 C4,8.162 4.032,8.586 4.092,9 L2.074,9 C2.026,8.586 2,8.161 2,7.726 C2,3.396 5.736,0 10.2,0 Z M26.656,13 C25.747,14.712 24.473,16.166 23.137,17.361 C20.589,19.641 17.701,21.09 16.279,21.726 C15.463,22.091 14.537,22.091 13.721,21.726 C12.299,21.09 9.411,19.641 6.863,17.361 C5.527,16.166 4.253,14.712 3.344,13 L5.669,13 C6.37,14.061 7.244,15.018 8.197,15.87 C10.524,17.953 13.201,19.302 14.538,19.901 C14.834,20.033 15.166,20.033 15.462,19.901 C16.799,19.302 19.476,17.953 21.803,15.871 C22.756,15.018 23.63,14.062 24.331,13 Z"/>
  <path fill="#212135" d="M1,10 L8.382,10 L10.106,6.553 Q10.291,6.182 10.684,6.051 Q11.077,5.92 11.447,6.106 Q11.718,6.241 11.868,6.504 L15.138,12.226 L18.219,8.375 Q18.478,8.052 18.89,8.006 Q19.301,7.96 19.625,8.219 Q19.668,8.254 19.707,8.293 L21.414,10 L29,10 Q29.414,10 29.707,10.293 Q30,10.586 30,11 Q30,11.414 29.707,11.707 Q29.414,12 29,12 L21,12 Q20.586,12 20.293,11.707 L19.083,10.497 L15.781,14.625 Q15.662,14.774 15.496,14.868 Q15.136,15.074 14.737,14.965 Q14.337,14.856 14.132,14.496 L11.059,9.118 L9.894,11.447 Q9.618,12 9,12 L1,12 Q0.586,12 0.293,11.707 Q0,11.414 0,11 Q0,10.586 0.293,10.293 Q0.586,10 1,10 Z"/>
</svg>

