<svg xmlns="http://www.w3.org/2000/svg" width="24" height="20" viewBox="0 0 24 20">
  <defs/>
  <path fill="#212135" d="M2.294,1.912 Q3.574,0.846 5.956,0.404 Q8.14,0 12,0 Q15.86,0 18.044,0.404 Q20.426,0.846 21.706,1.912 Q24,3.824 24,10 Q24,16.176 21.706,18.088 Q20.426,19.154 18.044,19.596 Q15.86,20 12,20 Q8.14,20 5.956,19.596 Q3.574,19.154 2.294,18.088 Q0,16.176 0,10 Q0,3.824 2.294,1.912 Z M2,10 Q2,15.239 3.575,16.552 Q4.452,17.283 6.32,17.629 Q8.323,18 12,18 Q15.677,18 17.68,17.629 Q19.548,17.283 20.425,16.552 Q22,15.239 22,10 Q22,4.761 20.425,3.448 Q19.548,2.717 17.68,2.371 Q15.676,2 12,2 Q8.324,2 6.32,2.371 Q4.452,2.717 3.575,3.448 Q2,4.76 2,10 Z"/>
  <path fill="#212135" d="M5,11 L19,11 Q19.414,11 19.707,11.293 Q20,11.586 20,12 Q20,12.414 19.707,12.707 Q19.414,13 19,13 L5,13 Q4.586,13 4.293,12.707 Q4,12.414 4,12 Q4,11.586 4.293,11.293 Q4.586,11 5,11 Z M7,14 L17,14 Q17.414,14 17.707,14.293 Q18,14.586 18,15 Q18,15.414 17.707,15.707 Q17.414,16 17,16 L7,16 Q6.586,16 6.293,15.707 Q6,15.414 6,15 Q6,14.586 6.293,14.293 Q6.586,14 7,14 Z"/>
</svg>

