<svg xmlns="http://www.w3.org/2000/svg" width="24" height="14" viewBox="0 0 24 14">
  <defs/>
  <path fill="#212135" d="M8.707,6.293 Q10.164,7.75 12,7.75 Q13.836,7.75 15.293,6.293 Q15.434,6.152 15.617,6.076 Q15.801,6 16,6 Q16.199,6 16.383,6.076 Q16.566,6.152 16.707,6.293 Q16.848,6.434 16.924,6.617 Q17,6.801 17,7 Q17,7.199 16.924,7.383 Q16.848,7.566 16.707,7.707 Q14.664,9.75 12,9.75 Q9.336,9.75 7.293,7.707 Q7.152,7.566 7.076,7.383 Q7,7.199 7,7 Q7,6.801 7.076,6.617 Q7.152,6.434 7.293,6.293 Q7.434,6.152 7.617,6.076 Q7.801,6 8,6 Q8.199,6 8.383,6.076 Q8.566,6.152 8.707,6.293 Z"/>
  <path fill="#212135" d="M0.902,5.894 Q6.102,0 12,0 Q17.898,0 23.098,5.894 Q24.074,7 23.098,8.106 Q17.898,14 12,14 Q6.102,14 0.902,8.106 Q-0.075,7 0.902,5.894 Z M2.595,7 Q7.11,12 12,12 Q16.89,12 21.405,7 Q16.89,2 12,2 Q7.11,2 2.595,7 Z"/>
</svg>

