<svg xmlns="http://www.w3.org/2000/svg" width="24" height="14" viewBox="0 0 24 14">
  <defs/>
  <path fill="#212135" d="M0.442,8.106 C-0.147,7.466 -0.147,6.534 0.442,5.894 C2.255,3.921 6.544,0 12,0 C17.456,0 21.745,3.921 23.558,5.894 C24.147,6.534 24.147,7.466 23.558,8.106 C21.745,10.079 17.456,14 12,14 C6.544,14 2.255,10.079 0.442,8.106 Z M7.098,7.707 C9.935,10.431 14.066,10.431 16.902,7.707 C17.309,7.317 17.309,6.683 16.902,6.293 C16.496,5.902 15.836,5.902 15.429,6.293 C13.406,8.236 10.594,8.236 8.571,6.293 C8.164,5.902 7.504,5.902 7.098,6.293 C6.691,6.683 6.691,7.317 7.098,7.707 Z"/>
</svg>

