<svg xmlns="http://www.w3.org/2000/svg" width="24" height="24" viewBox="0 0 24 24">
  <defs/>
  <path fill="#212135" d="M0.735,19.43 Q-0.453,14.002 0.18,9.283 Q0.179,9.226 0.184,9.168 Q0.192,9.068 0.221,8.972 Q0.233,8.929 0.249,8.888 Q0.259,8.864 0.269,8.841 Q0.271,8.836 0.274,8.83 Q0.302,8.768 0.337,8.712 Q0.338,8.709 0.34,8.707 Q0.416,8.579 0.54,8.421 Q0.809,8.077 1.303,7.591 Q2.186,6.72 3.772,5.408 Q6.136,3.453 9.739,0.77 Q12.045,-0.947 14.357,0.759 Q17.997,3.445 20.367,5.403 Q21.958,6.717 22.831,7.589 Q23.319,8.077 23.578,8.421 Q23.662,8.534 23.722,8.631 Q23.776,8.712 23.817,8.809 Q23.809,8.79 23.8,8.771 Q23.78,8.731 23.759,8.694 Q23.799,8.768 23.825,8.847 L23.831,8.844 Q23.825,8.827 23.818,8.81 Q23.827,8.831 23.835,8.851 Q23.848,8.887 23.859,8.924 Q23.885,9.009 23.895,9.097 Q23.91,9.23 23.891,9.359 Q24.236,14.945 23.353,19.43 Q22.971,21.374 21.754,22.351 Q20.557,23.313 18.213,23.605 Q17.096,23.745 16,23.835 Q11.972,24.165 8,23.831 Q6.946,23.742 5.876,23.605 Q3.547,23.308 2.354,22.341 Q1.16,21.372 0.735,19.43 Z M2.689,19.003 Q2.964,20.26 3.614,20.788 Q4.365,21.396 6.129,21.622 Q7.156,21.753 8.168,21.838 Q11.974,22.158 15.836,21.842 Q16.89,21.755 17.965,21.621 Q19.747,21.398 20.502,20.792 Q21.149,20.272 21.391,19.044 Q22.221,14.826 21.897,9.519 Q21.725,9.311 21.418,9.004 Q20.611,8.198 19.094,6.945 Q16.765,5.022 13.17,2.369 Q12.05,1.543 10.934,2.374 Q7.371,5.026 5.046,6.95 Q3.528,8.205 2.707,9.015 Q2.345,9.371 2.155,9.603 Q1.583,13.95 2.689,19.003 Z M2.015,8.691 Q1.688,8.123 1.044,8.256 Q1.344,8.21 1.631,8.354 Q1.875,8.476 2.015,8.691 Z M23.343,8.308 Q23.61,8.438 23.759,8.694 Q23.747,8.672 23.734,8.65 Q23.728,8.64 23.722,8.631 Q23.579,8.416 23.343,8.308 Z M0.264,8.862 Q0.288,8.799 0.321,8.74 Q0.304,8.769 0.289,8.8 Q0.281,8.815 0.274,8.83 Q0.267,8.845 0.261,8.861 L0.264,8.862 Z M23.098,8.231 Q23.233,8.258 23.356,8.32 Q23.28,8.282 23.204,8.257 Q23.153,8.242 23.098,8.231 Z M0.454,8.559 Q0.388,8.628 0.337,8.712 Q0.329,8.726 0.321,8.74 Q0.379,8.64 0.454,8.559 Z"/>
</svg>

