<svg xmlns="http://www.w3.org/2000/svg" width="24" height="24" viewBox="0 0 24 24">
  <defs/>
  <path fill="#212135" d="M0.735,19.43 C-0.293,14.733 -0.015,10.56 0.221,8.992 C0.39,7.873 6.347,3.295 9.739,0.77 C11.113,-0.253 12.98,-0.257 14.357,0.759 C17.778,3.283 23.793,7.874 23.867,8.992 C23.87,9.028 23.872,9.064 23.875,9.102 C23.984,10.745 24.257,14.839 23.353,19.43 C22.839,22.04 21.317,23.218 18.213,23.605 C17.991,23.633 17.77,23.659 17.55,23.684 C17.256,23.717 17,23.485 17,23.188 L17,16.114 C17,14.454 15.657,13.107 14,13.107 L10,13.107 C8.343,13.107 7,14.454 7,16.114 L7,23.18 C7,23.477 6.743,23.709 6.448,23.675 C6.258,23.653 6.067,23.63 5.876,23.605 C2.773,23.21 1.302,22.021 0.735,19.43 Z"/>
  <path fill="#212135" d="M9,23.434 C9,23.699 9.205,23.918 9.469,23.932 C11.152,24.022 12.832,24.023 14.531,23.934 C14.794,23.92 15,23.701 15,23.436 L15,16.114 C15,15.561 14.552,15.112 14,15.112 L10,15.112 C9.448,15.112 9,15.561 9,16.114 L9,23.434 Z"/>
</svg>

