<svg xmlns="http://www.w3.org/2000/svg" width="16" height="26" viewBox="0 0 16 26">
  <defs/>
  <path fill="#212135" d="M12.901,4.006 C13.01,4.548 13.46,4.984 13.982,5.164 C15.156,5.571 16,6.687 16,8 C16,8.512 15.872,8.994 15.646,9.416 C13.362,9.869 10.959,10.151 8,10.151 C5.041,10.151 2.638,9.869 0.354,9.416 C0.128,8.994 0,8.512 0,8 C0,6.687 0.843,5.571 2.018,5.164 C2.54,4.984 2.99,4.548 3.099,4.006 C3.56,1.721 5.579,0 8,0 C10.421,0 12.441,1.721 12.901,4.006 Z"/>
  <path fill="#212135" d="M2.023,11.733 C2.093,12.793 2.316,14.143 2.6,15.862 L2.6,15.864 C2.633,16.061 2.666,16.263 2.7,16.471 C3.92,23.882 5.344,26 7.997,26 C10.65,26 12.08,23.882 13.299,16.471 C13.334,16.263 13.367,16.061 13.4,15.863 C13.684,14.144 13.907,12.793 13.977,11.733 C12.172,11.997 10.234,12.151 8,12.151 C5.766,12.151 3.828,11.997 2.023,11.733 Z"/>
</svg>

