<svg xmlns="http://www.w3.org/2000/svg" width="16" height="24" viewBox="0 0 16 24">
  <defs/>
  <path fill="#212135" d="M12.901,4.006 Q13.071,4.849 13.982,5.164 Q16,5.863 16,8 Q16,11 13,11 L3,11 Q0,11 0,8 Q0,6.411 1.117,5.617 L1.073,5.492 L2.018,5.164 L2.02,5.164 Q2.929,4.848 3.099,4.006 Q3.907,0 8,0 Q12.093,0 12.901,4.006 Z M10.941,4.402 Q10.456,2 8,2 Q5.544,2 5.059,4.402 Q4.764,5.866 3.581,6.622 L3.617,6.727 L2.674,7.054 L2.672,7.054 L2.672,7.055 Q2,7.287 2,8 Q2,9 3,9 L13,9 Q14,9 14,8 Q14,7.287 13.328,7.054 Q11.337,6.365 10.941,4.402 Z"/>
  <path fill="#212135" d="M4.996,10.909 Q6.005,22 7.998,22 Q9.995,22 11.004,10.909 Q11.042,10.497 11.36,10.232 Q11.678,9.967 12.091,10.004 Q12.503,10.042 12.768,10.36 Q13.033,10.678 12.996,11.091 Q12.326,18.451 11.344,21.135 Q10.295,24 7.998,24 Q5.7,24 4.654,21.135 Q3.674,18.453 3.004,11.091 Q2.967,10.678 3.232,10.36 Q3.497,10.042 3.909,10.004 Q4.322,9.967 4.64,10.232 Q4.958,10.497 4.996,10.909 Z"/>
</svg>

