<svg xmlns="http://www.w3.org/2000/svg" width="24" height="24" viewBox="0 0 24 24">
  <defs/>
  <path fill="#212135" d="M8.099,17.125 Q10.017,13.732 11.219,13.403 Q12,13.189 12.782,13.403 Q13.984,13.732 15.902,17.125 L15.902,17.125 Q17.815,20.509 17.497,21.719 Q17.291,22.504 16.727,23.08 Q15.847,23.979 12,23.979 Q8.153,23.979 7.273,23.08 Q6.709,22.504 6.503,21.719 Q6.186,20.509 8.099,17.125 Z M9.84,18.109 Q8.326,20.786 8.438,21.211 Q8.509,21.483 8.702,21.681 Q8.994,21.979 12,21.979 Q15.006,21.979 15.298,21.681 Q15.491,21.483 15.563,21.211 Q15.674,20.786 14.161,18.11 L14.161,18.109 Q12.652,15.441 12.254,15.332 Q12,15.263 11.746,15.332 Q11.348,15.441 9.84,18.109 Z"/>
  <path fill="#212135" d="M2,10.213 C2,14.45 2.591,16.099 3.59,16.95 C4.113,17.394 4.932,17.783 6.328,18.047 C7.069,18.188 7.933,18.285 8.941,18.346 C8.416,19.215 8.093,19.809 8.017,20.284 C1.524,19.726 0,17.347 0,10.213 C0,1.803 2.118,0 12,0 C21.882,0 24,1.803 24,10.213 C24,17.347 22.476,19.726 15.983,20.284 C15.906,19.809 15.584,19.215 15.059,18.346 C16.067,18.285 16.931,18.188 17.672,18.047 C19.068,17.783 19.887,17.394 20.41,16.95 C21.409,16.099 22,14.45 22,10.213 C22,5.976 21.409,4.326 20.41,3.476 C19.887,3.031 19.068,2.642 17.672,2.378 C16.269,2.113 14.432,2 12,2 C9.568,2 7.731,2.113 6.328,2.378 C4.932,2.642 4.113,3.031 3.59,3.476 C2.591,4.326 2,5.976 2,10.213 Z"/>
</svg>

