<svg xmlns="http://www.w3.org/2000/svg" width="24" height="23" viewBox="0 0 24 23">
  <defs/>
  <path fill="#212135" d="M4.827,19.336 C5.271,19.461 5.731,19.229 5.949,18.822 C6.274,18.217 6.674,17.533 7.129,16.756 L7.194,16.646 C7.915,15.412 8.501,14.412 9.041,13.691 C9.588,12.961 10.21,12.348 11.066,12.121 C11.678,11.96 12.322,11.96 12.934,12.121 C13.79,12.348 14.412,12.961 14.959,13.691 C15.499,14.412 16.085,15.412 16.806,16.646 L16.871,16.756 C17.326,17.532 17.726,18.217 18.051,18.822 C18.269,19.229 18.729,19.461 19.173,19.336 C23.001,18.26 24,15.656 24,10 C24,1.765 21.882,0 12,0 C2.118,0 0,1.765 0,10 C0,15.656 0.999,18.26 4.827,19.336 Z"/>
  <path fill="#212135" d="M11.434,14.072 C10.559,14.299 9.935,15.347 8.687,17.441 C7.438,19.536 6.814,20.583 7.049,21.43 C7.148,21.79 7.343,22.117 7.614,22.38 C8.255,23 9.503,23 12,23 C14.497,23 15.745,23 16.386,22.38 C16.657,22.117 16.852,21.79 16.951,21.43 C17.186,20.583 16.562,19.536 15.313,17.441 C14.065,15.347 13.441,14.299 12.566,14.072 C12.195,13.976 11.805,13.976 11.434,14.072 Z"/>
</svg>

