<svg xmlns="http://www.w3.org/2000/svg" width="24" height="24" viewBox="0 0 24 24">
  <defs/>
  <path fill="#212135" d="M7,9 C7,7.895 7.895,7 9,7 C10.105,7 11,7.895 11,9 C11,10.105 10.105,11 9,11 C7.895,11 7,10.105 7,9 Z"/>
  <path fill="#212135" d="M1.174,18.394 C0.953,18.599 0.593,18.504 0.524,18.211 C0.142,16.596 0,14.558 0,12 C0,2.118 2.118,0 12,0 C21.882,0 24,2.118 24,12 C24,12.033 24,12.066 24,12.099 C24,12.102 23.996,12.105 23.993,12.103 C23.361,11.816 22.464,11.479 21.419,11.3 C19.301,10.937 16.536,11.226 14.247,13.842 C12.29,16.079 11.446,16.257 10.813,16.216 C10.475,16.195 10.15,16.11 9.675,15.984 C9.531,15.947 9.374,15.905 9.198,15.861 C8.485,15.681 7.615,15.5 6.5,15.5 C5.629,15.5 4.766,15.84 4.025,16.249 C3.267,16.667 2.54,17.212 1.918,17.735 C1.653,17.958 1.403,18.181 1.174,18.394 Z M5,9 C5,11.209 6.791,13 9,13 C11.209,13 13,11.209 13,9 C13,6.791 11.209,5 9,5 C6.791,5 5,6.791 5,9 Z"/>
  <path fill="#212135" d="M1.791,20.584 C1.661,20.717 1.642,20.922 1.751,21.072 C3.417,23.346 6.511,24 12,24 C21.041,24 23.583,22.227 23.951,14.358 C23.951,14.345 23.945,14.332 23.934,14.325 L23.918,14.316 C23.886,14.296 23.835,14.266 23.767,14.228 C23.63,14.151 23.424,14.042 23.164,13.923 C22.639,13.684 21.911,13.414 21.081,13.271 C19.449,12.992 17.464,13.203 15.753,15.159 C13.71,17.493 12.304,18.315 10.687,18.212 C10.134,18.177 9.564,18.026 9.057,17.891 C8.937,17.859 8.82,17.828 8.708,17.8 C8.077,17.641 7.385,17.5 6.5,17.5 C6.121,17.5 5.609,17.66 4.991,18.001 C4.389,18.333 3.773,18.788 3.207,19.265 C2.644,19.739 2.152,20.215 1.8,20.575 C1.797,20.578 1.794,20.581 1.791,20.584 Z"/>
</svg>

