<svg xmlns="http://www.w3.org/2000/svg" width="24" height="24" viewBox="0 0 24 24">
  <defs/>
  <path fill="#212135" d="M0.516,14 C0.247,14 0.026,13.787 0.019,13.519 C0.006,13.034 0,12.528 0,12 C0,2.118 2.118,0 12,0 C21.882,0 24,2.118 24,12 C24,12.528 23.994,13.034 23.981,13.519 C23.974,13.787 23.753,14 23.484,14 Z M17,10 C17,9.448 16.552,9 16,9 L8,9 C7.448,9 7,9.448 7,10 C7,10.552 7.448,11 8,11 L16,11 C16.552,11 17,10.552 17,10 Z"/>
  <path fill="#212135" d="M0.721,16 C0.425,16 0.193,16.257 0.231,16.551 C0.994,22.566 3.868,24 12,24 C20.132,24 23.006,22.566 23.769,16.551 C23.807,16.257 23.575,16 23.279,16 L0.721,16 Z"/>
</svg>

