<svg xmlns="http://www.w3.org/2000/svg" width="24" height="24" viewBox="0 0 24 24">
  <defs/>
  <path fill="#212135" d="M0.516,14 C0.247,14 0.026,13.787 0.019,13.519 C0.006,13.034 0,12.528 0,12 C0,2.118 2.118,0 12,0 C21.882,0 24,2.118 24,12 C24,12.528 23.994,13.034 23.981,13.519 C23.974,13.787 23.753,14 23.484,14 L17.5,14 C17.224,14 17.003,13.776 16.975,13.501 C16.86,12.358 16.355,11.284 15.536,10.464 C14.598,9.527 13.326,9 12,9 C10.674,9 9.402,9.527 8.464,10.464 C7.645,11.284 7.14,12.358 7.025,13.501 C6.997,13.776 6.776,14 6.5,14 L0.516,14 Z"/>
  <path fill="#212135" d="M0.721,16 C0.425,16 0.193,16.257 0.231,16.551 C0.994,22.566 3.868,24 12,24 C20.132,24 23.006,22.566 23.769,16.551 C23.807,16.257 23.575,16 23.279,16 L0.721,16 Z"/>
  <path fill="#212135" d="M14.121,11.879 C14.565,12.322 14.856,12.891 14.959,13.502 C15.004,13.775 14.776,14 14.5,14 L9.5,14 C9.224,14 8.996,13.775 9.041,13.502 C9.144,12.891 9.435,12.322 9.879,11.879 C10.441,11.316 11.204,11 12,11 C12.796,11 13.559,11.316 14.121,11.879 Z"/>
</svg>

