<svg xmlns="http://www.w3.org/2000/svg" width="24" height="24" viewBox="0 0 24 24">
  <defs/>
  <path fill="#212135" d="M0,12 Q0,8.14 0.485,5.956 Q1.015,3.574 2.294,2.294 Q3.574,1.015 5.956,0.485 Q8.14,0 12,0 Q15.86,0 18.044,0.485 Q20.426,1.015 21.706,2.294 Q22.985,3.574 23.515,5.956 Q24,8.14 24,12 Q24,13.692 23.915,15 Q23.561,20.424 21.074,22.247 Q18.683,24 12,24 Q5.317,24 2.926,22.247 Q0.439,20.424 0.085,15 Q0,13.693 0,12 Z M2,12 Q2,13.628 2.081,14.87 Q2.374,19.362 4.108,20.634 Q5.972,22 12,22 Q18.028,22 19.892,20.634 Q21.626,19.362 21.919,14.87 Q22,13.627 22,12 Q22,8.36 21.562,6.39 Q21.159,4.576 20.292,3.708 Q19.424,2.841 17.61,2.438 Q15.64,2 12,2 Q8.359,2 6.39,2.438 Q4.576,2.841 3.708,3.708 Q2.841,4.576 2.438,6.39 Q2,8.359 2,12 Z"/>
</svg>

