<svg xmlns="http://www.w3.org/2000/svg" width="24" height="24" viewBox="0 0 24 24">
  <defs/>
  <path fill="#212135" d="M12,18 C11.448,18 11,17.552 11,17 C11,16.448 11.448,16 12,16 C12.552,16 13,16.448 13,17 C13,17.552 12.552,18 12,18 Z"/>
  <path fill="#212135" d="M12,24 C2.118,24 0,21.882 0,12 C0,2.118 2.118,0 12,0 C21.882,0 24,2.118 24,12 C24,21.882 21.882,24 12,24 Z M12,20 C13.657,20 15,18.657 15,17 C15,15.343 13.657,14 12,14 C10.343,14 9,15.343 9,17 C9,18.657 10.343,20 12,20 Z M9,6 C9,6.552 9.448,7 10,7 L14,7 C14.552,7 15,6.552 15,6 C15,5.448 14.552,5 14,5 L10,5 C9.448,5 9,5.448 9,6 Z"/>
</svg>

