<svg xmlns="http://www.w3.org/2000/svg" width="24" height="24" viewBox="0 0 24 24">
  <defs/>
  <path fill="#212135" d="M0,12 C0,2.118 2.118,0 12,0 C21.882,0 24,2.118 24,12 C24,21.882 21.882,24 12,24 C2.118,24 0,21.882 0,12 Z M4,5.5 C4,6.328 4.672,7 5.5,7 C6.328,7 7,6.328 7,5.5 C7,4.672 6.328,4 5.5,4 C4.672,4 4,4.672 4,5.5 Z M9.5,4 C8.672,4 8,4.672 8,5.5 C8,6.328 8.672,7 9.5,7 C10.328,7 11,6.328 11,5.5 C11,4.672 10.328,4 9.5,4 Z M5.5,8 C4.672,8 4,8.672 4,9.5 C4,10.328 4.672,11 5.5,11 C6.328,11 7,10.328 7,9.5 C7,8.672 6.328,8 5.5,8 Z M8,9.5 C8,10.328 8.672,11 9.5,11 C10.328,11 11,10.328 11,9.5 C11,8.672 10.328,8 9.5,8 C8.672,8 8,8.672 8,9.5 Z"/>
</svg>

