<svg xmlns="http://www.w3.org/2000/svg" width="24" height="24" viewBox="0 0 24 24">
  <defs/>
  <path fill="#212135" d="M8,14 C6.895,14 6,13.105 6,12 C6,10.895 6.895,10 8,10 C9.105,10 10,10.895 10,12 C10,13.105 9.105,14 8,14 Z"/>
  <path fill="#212135" d="M0,12 C0,2.118 2.118,0 12,0 C21.882,0 24,2.118 24,12 C24,21.882 21.882,24 12,24 C2.118,24 0,21.882 0,12 Z M8,16 C9.867,16 11.435,14.722 11.876,12.992 C11.917,12.997 11.958,13 12,13 L14,13 L14,14 C14,14.552 14.448,15 15,15 C15.552,15 16,14.552 16,14 L16,13 L18,13 L18,15 C18,15.552 18.448,16 19,16 C19.552,16 20,15.552 20,15 L20,12 C20,11.448 19.552,11 19,11 L12,11 C11.958,11 11.917,11.003 11.876,11.008 C11.435,9.279 9.867,8 8,8 C5.791,8 4,9.791 4,12 C4,14.209 5.791,16 8,16 Z"/>
</svg>

