<svg xmlns="http://www.w3.org/2000/svg" width="24" height="24" viewBox="0 0 24 24">
  <defs/>
  <path fill="#212135" d="M4,12 C4,9.791 5.791,8 8,8 C9.867,8 11.434,9.279 11.876,11.008 C11.917,11.003 11.958,11 12,11 L19,11 C19.552,11 20,11.448 20,12 L20,15 C20,15.552 19.552,16 19,16 C18.448,16 18,15.552 18,15 L18,13 L16,13 L16,14 C16,14.552 15.552,15 15,15 C14.448,15 14,14.552 14,14 L14,13 L12,13 C11.958,13 11.917,12.997 11.876,12.992 C11.434,14.722 9.867,16 8,16 C5.791,16 4,14.209 4,12 Z M6,12 C6,13.105 6.895,14 8,14 C9.105,14 10,13.105 10,12 C10,10.895 9.105,10 8,10 C6.895,10 6,10.895 6,12 Z"/>
  <path fill="#212135" d="M0,12 Q0,8.14 0.485,5.956 Q1.015,3.574 2.294,2.294 Q3.574,1.015 5.956,0.485 Q8.14,0 12,0 Q15.86,0 18.044,0.485 Q20.426,1.015 21.706,2.294 Q22.985,3.574 23.515,5.956 Q24,8.14 24,12 Q24,15.86 23.515,18.044 Q22.985,20.427 21.706,21.706 Q20.427,22.985 18.044,23.515 Q15.86,24 12,24 Q8.14,24 5.956,23.515 Q3.574,22.985 2.294,21.706 Q1.015,20.426 0.485,18.044 Q0,15.86 0,12 Z M2,12 Q2,15.64 2.438,17.61 Q2.841,19.424 3.708,20.292 Q4.576,21.159 6.39,21.562 Q8.36,22 12,22 Q15.64,22 17.61,21.562 Q19.424,21.159 20.292,20.292 Q21.159,19.424 21.562,17.61 Q22,15.64 22,12 Q22,8.36 21.562,6.39 Q21.159,4.576 20.292,3.708 Q19.424,2.841 17.61,2.438 Q15.64,2 12,2 Q8.359,2 6.39,2.438 Q4.576,2.841 3.708,3.708 Q2.841,4.576 2.438,6.39 Q2,8.359 2,12 Z"/>
</svg>

