<svg xmlns="http://www.w3.org/2000/svg" width="24" height="16" viewBox="0 0 24 16">
  <defs/>
  <path fill="#212135" d="M0,8 Q0,5.107 0.328,3.772 Q0.729,2.141 1.875,1.353 Q3.037,0.553 5.484,0.257 Q7.611,0 12,0 Q16.389,0 18.516,0.257 Q20.963,0.553 22.125,1.353 Q23.271,2.141 23.672,3.772 Q24,5.107 24,8 Q24,10.893 23.672,12.228 Q23.271,13.859 22.125,14.647 Q20.963,15.446 18.516,15.743 Q16.388,16 12,16 Q7.612,16 5.484,15.743 Q3.037,15.446 1.875,14.647 Q0.729,13.859 0.328,12.228 Q0,10.893 0,8 Z M2,8 Q2,10.651 2.27,11.751 Q2.489,12.642 3.008,12.999 Q3.766,13.52 5.725,13.757 Q7.732,14 12,14 Q16.268,14 18.275,13.757 Q20.234,13.52 20.992,12.999 Q21.511,12.642 21.73,11.751 Q22,10.651 22,8 Q22,5.349 21.73,4.249 Q21.511,3.358 20.992,3.001 Q20.234,2.48 18.275,2.243 Q16.268,2 12,2 Q7.732,2 5.725,2.243 Q3.766,2.48 3.008,3.001 Q2.489,3.358 2.27,4.249 Q2,5.349 2,8 Z"/>
  <path fill="#212135" d="M8,9 L16,9 Q16.414,9 16.707,9.293 Q17,9.586 17,10 Q17,10.414 16.707,10.707 Q16.414,11 16,11 L8,11 Q7.586,11 7.293,10.707 Q7,10.414 7,10 Q7,9.586 7.293,9.293 Q7.586,9 8,9 Z M17,5 L19,5 Q19.414,5 19.707,5.293 Q20,5.586 20,6 Q20,6.414 19.707,6.707 Q19.414,7 19,7 L17,7 Q16.586,7 16.293,6.707 Q16,6.414 16,6 Q16,5.586 16.293,5.293 Q16.586,5 17,5 Z"/>
  <path fill="#212135" d="M19,11 C18.448,11 18,10.552 18,10 C18,9.448 18.448,9 19,9 C19.552,9 20,9.448 20,10 C20,10.552 19.552,11 19,11 Z M11,7 C10.448,7 10,6.552 10,6 C10,5.448 10.448,5 11,5 C11.552,5 12,5.448 12,6 C12,6.552 11.552,7 11,7 Z M15,6 C15,6.552 14.552,7 14,7 C13.448,7 13,6.552 13,6 C13,5.448 13.448,5 14,5 C14.552,5 15,5.448 15,6 Z M5,11 C4.448,11 4,10.552 4,10 C4,9.448 4.448,9 5,9 C5.552,9 6,9.448 6,10 C6,10.552 5.552,11 5,11 Z M9,6 C9,6.552 8.552,7 8,7 C7.448,7 7,6.552 7,6 C7,5.448 7.448,5 8,5 C8.552,5 9,5.448 9,6 Z M5,7 C4.448,7 4,6.552 4,6 C4,5.448 4.448,5 5,5 C5.552,5 6,5.448 6,6 C6,6.552 5.552,7 5,7 Z"/>
</svg>

