<svg xmlns="http://www.w3.org/2000/svg" width="24" height="16" viewBox="0 0 24 16">
  <defs/>
  <path fill="#212135" d="M0,8 C0,0.941 1,0 12,0 C23,0 24,0.941 24,8 C24,15.059 23,16 12,16 C1,16 0,15.059 0,8 Z M7.636,11.429 L16.364,11.429 C16.966,11.429 17.455,10.917 17.455,10.286 C17.455,9.655 16.966,9.143 16.364,9.143 L7.636,9.143 C7.034,9.143 6.545,9.655 6.545,10.286 C6.545,10.917 7.034,11.429 7.636,11.429 Z M16.364,5.714 C16.364,6.345 16.852,6.857 17.455,6.857 L19.636,6.857 C20.239,6.857 20.727,6.345 20.727,5.714 C20.727,5.083 20.239,4.571 19.636,4.571 L17.455,4.571 C16.852,4.571 16.364,5.083 16.364,5.714 Z M4.364,11.429 C4.966,11.429 5.455,10.917 5.455,10.286 C5.455,9.655 4.966,9.143 4.364,9.143 C3.761,9.143 3.273,9.655 3.273,10.286 C3.273,10.917 3.761,11.429 4.364,11.429 Z M18.545,10.286 C18.545,10.917 19.034,11.429 19.636,11.429 C20.239,11.429 20.727,10.917 20.727,10.286 C20.727,9.655 20.239,9.143 19.636,9.143 C19.034,9.143 18.545,9.655 18.545,10.286 Z M9.818,5.714 C9.818,6.345 10.307,6.857 10.909,6.857 C11.512,6.857 12,6.345 12,5.714 C12,5.083 11.512,4.571 10.909,4.571 C10.307,4.571 9.818,5.083 9.818,5.714 Z M7.636,6.857 C8.239,6.857 8.727,6.345 8.727,5.714 C8.727,5.083 8.239,4.571 7.636,4.571 C7.034,4.571 6.545,5.083 6.545,5.714 C6.545,6.345 7.034,6.857 7.636,6.857 Z M3.273,5.714 C3.273,6.345 3.761,6.857 4.364,6.857 C4.966,6.857 5.455,6.345 5.455,5.714 C5.455,5.083 4.966,4.571 4.364,4.571 C3.761,4.571 3.273,5.083 3.273,5.714 Z M14.182,6.857 C14.784,6.857 15.273,6.345 15.273,5.714 C15.273,5.083 14.784,4.571 14.182,4.571 C13.579,4.571 13.091,5.083 13.091,5.714 C13.091,6.345 13.579,6.857 14.182,6.857 Z"/>
</svg>

