<svg xmlns="http://www.w3.org/2000/svg" width="24" height="24" viewBox="0 0 24 24">
  <defs/>
  <path fill="#212135" d="M12,24 C2.118,24 0,21.882 0,12 C0,2.118 2.118,0 12,0 C21.882,0 24,2.118 24,12 C24,21.882 21.882,24 12,24 Z M13.293,7.293 L9.293,11.293 C8.902,11.683 8.902,12.317 9.293,12.707 L13.293,16.707 C13.683,17.098 14.317,17.098 14.707,16.707 C15.098,16.317 15.098,15.683 14.707,15.293 L11.414,12 L14.707,8.707 C15.098,8.317 15.098,7.683 14.707,7.293 C14.317,6.902 13.683,6.902 13.293,7.293 Z"/>
</svg>

