<svg xmlns="http://www.w3.org/2000/svg" width="18" height="12" viewBox="0 0 18 12">
  <defs/>
  <path fill="#212135" d="M6.707,1.707 L3.414,5 L17,5 Q17.199,5 17.383,5.076 Q17.566,5.152 17.707,5.293 Q17.848,5.434 17.924,5.617 Q18,5.801 18,6 Q18,6.199 17.924,6.383 Q17.848,6.566 17.707,6.707 Q17.566,6.848 17.383,6.924 Q17.199,7 17,7 L3.414,7 L6.707,10.293 Q6.848,10.434 6.924,10.617 Q7,10.801 7,11 Q7,11.199 6.924,11.383 Q6.848,11.566 6.707,11.707 Q6.566,11.848 6.383,11.924 Q6.199,12 6,12 Q5.801,12 5.617,11.924 Q5.434,11.848 5.293,11.707 L0.293,6.707 Q0.152,6.566 0.076,6.383 Q0.005,6.21 0,6.025 Q0,6.012 0,6 Q0,5.801 0.076,5.617 Q0.152,5.434 0.293,5.293 L0.294,5.292 L5.293,0.293 Q5.434,0.152 5.617,0.076 Q5.801,0 6,0 Q6.199,0 6.383,0.076 Q6.566,0.152 6.707,0.293 Q6.848,0.434 6.924,0.617 Q7,0.801 7,1 Q7,1.199 6.924,1.383 Q6.848,1.566 6.707,1.707 Z"/>
</svg>

