<svg xmlns="http://www.w3.org/2000/svg" width="8" height="14" viewBox="0 0 8 14">
  <defs/>
  <path fill="#212135" d="M6.293,13.707 L0.293,7.707 Q0.152,7.566 0.076,7.383 Q0,7.199 0,7 Q0,6.801 0.076,6.617 Q0.152,6.434 0.293,6.293 L6.293,0.293 Q6.434,0.152 6.617,0.076 Q6.801,0 7,0 Q7.199,0 7.383,0.076 Q7.566,0.152 7.707,0.293 Q7.848,0.434 7.924,0.617 Q8,0.801 8,1 Q8,1.199 7.924,1.383 Q7.848,1.566 7.707,1.707 L2.414,7 L7.707,12.293 Q7.848,12.434 7.924,12.617 Q8,12.801 8,13 Q8,13.199 7.924,13.383 Q7.848,13.566 7.707,13.707 Q7.566,13.848 7.383,13.924 Q7.199,14 7,14 Q6.801,14 6.617,13.924 Q6.434,13.848 6.293,13.707 Z"/>
</svg>

