<svg xmlns="http://www.w3.org/2000/svg" width="18" height="16" viewBox="0 0 18 16">
  <defs/>
  <path fill="#212135" d="M6.707,1.707 L3.414,5 L17,5 Q17.414,5 17.707,5.293 Q18,5.586 18,6 Q18,6.414 17.707,6.707 Q17.414,7 17,7 L1,7 Q0.586,7 0.293,6.707 Q0,6.414 0,6 Q0,5.586 0.293,5.293 L5.293,0.293 Q5.586,0 6,0 Q6.414,0 6.707,0.293 Q7,0.586 7,1 Q7,1.414 6.707,1.707 Z"/>
  <path fill="#212135" d="M11.293,14.293 L14.586,11 L1,11 Q0.586,11 0.293,10.707 Q0,10.414 0,10 Q0,9.586 0.293,9.293 Q0.586,9 1,9 L17,9 Q17.414,9 17.707,9.293 Q18,9.586 18,10 Q18,10.414 17.707,10.707 L12.707,15.707 Q12.414,16 12,16 Q11.586,16 11.293,15.707 Q11,15.414 11,15 Q11,14.586 11.293,14.293 Z"/>
</svg>

