<svg xmlns="http://www.w3.org/2000/svg" width="18" height="22" viewBox="0 0 18 22">
  <defs/>
  <path fill="#212135" d="M11.293,20.293 L14.586,17 L1,17 Q0.586,17 0.293,16.707 Q0,16.414 0,16 Q0,15.586 0.293,15.293 Q0.586,15 1,15 L14.586,15 L11.293,11.707 Q11,11.414 11,11 Q11,10.586 11.293,10.293 Q11.586,10 12,10 Q12.414,10 12.707,10.293 L17.707,15.293 Q18,15.586 18,16 Q18,16.414 17.707,16.707 L12.707,21.707 Q12.414,22 12,22 Q11.586,22 11.293,21.707 Q11,21.414 11,21 Q11,20.586 11.293,20.293 Z"/>
  <path fill="#212135" d="M5.293,11.707 L0.293,6.707 Q0.018,6.433 0.001,6.051 Q0,6.026 0,6 Q0,5.586 0.293,5.293 L5.293,0.293 Q5.586,0 6,0 Q6.414,0 6.707,0.293 Q7,0.586 7,1 Q7,1.414 6.707,1.707 L3.414,5 L17,5 Q17.414,5 17.707,5.293 Q18,5.586 18,6 Q18,6.414 17.707,6.707 Q17.414,7 17,7 L3.414,7 L6.707,10.293 Q7,10.586 7,11 Q7,11.414 6.707,11.707 Q6.414,12 6,12 Q5.586,12 5.293,11.707 Z"/>
</svg>

