<svg xmlns="http://www.w3.org/2000/svg" width="24" height="12" viewBox="0 0 24 12">
  <defs/>
  <path fill="#212135" d="M15,11.008 C15,10.466 15.431,10.025 15.972,10 C16.516,9.974 17.021,9.941 17.489,9.898 C18.954,9.763 19.919,9.543 20.562,9.256 C21.142,8.998 21.425,8.705 21.61,8.343 C21.828,7.916 22,7.213 22,6 C22,4.787 21.828,4.084 21.61,3.657 C21.425,3.295 21.142,3.002 20.562,2.744 C19.919,2.457 18.954,2.237 17.489,2.102 C17.021,2.059 16.516,2.026 15.972,2 C15.431,1.975 15,1.534 15,0.992 C15,0.429 15.467,-0.025 16.03,0.001 C21.92,0.269 24,1.452 24,6 C24,10.548 21.92,11.731 16.03,11.999 C15.467,12.025 15,11.571 15,11.008 Z M9,0.992 C9,1.534 8.569,1.975 8.028,2 C7.484,2.026 6.979,2.059 6.511,2.102 C5.046,2.237 4.081,2.457 3.438,2.744 C2.858,3.002 2.575,3.295 2.39,3.657 C2.172,4.084 2,4.787 2,6 C2,7.213 2.172,7.916 2.39,8.343 C2.575,8.705 2.858,8.998 3.438,9.256 C4.081,9.543 5.046,9.763 6.511,9.898 C6.979,9.941 7.484,9.974 8.028,10 C8.569,10.025 9,10.466 9,11.008 C9,11.571 8.533,12.025 7.97,11.999 C2.08,11.731 0,10.548 0,6 C0,1.452 2.08,0.269 7.97,0.001 C8.533,-0.025 9,0.429 9,0.992 Z"/>
  <path fill="#212135" d="M7,5 L17,5 Q17.199,5 17.383,5.076 Q17.566,5.152 17.707,5.293 Q17.848,5.434 17.924,5.617 Q18,5.801 18,6 Q18,6.199 17.924,6.383 Q17.848,6.566 17.707,6.707 Q17.566,6.848 17.383,6.924 Q17.199,7 17,7 L7,7 Q6.801,7 6.617,6.924 Q6.434,6.848 6.293,6.707 Q6.152,6.566 6.076,6.383 Q6,6.199 6,6 Q6,5.801 6.076,5.617 Q6.152,5.434 6.293,5.293 Q6.434,5.152 6.617,5.076 Q6.801,5 7,5 Z"/>
</svg>

