<svg xmlns="http://www.w3.org/2000/svg" width="24" height="24" viewBox="0 0 24 24">
  <defs/>
  <path fill="#212135" d="M10,10.14 C10,11.26 10.895,12.168 12,12.168 C13.105,12.168 14,11.26 14,10.14 C14,9.02 13.105,8.112 12,8.112 C10.895,8.112 10,9.02 10,10.14 Z"/>
  <path fill="#212135" d="M10.541,23.642 C7.647,22.146 1.357,18.25 0.175,12.168 C-0.81,7.098 2.262,0 12,0 C21.738,0 24.81,7.098 23.825,12.168 C22.643,18.25 16.353,22.146 13.459,23.642 C12.535,24.119 11.465,24.119 10.541,23.642 Z M8,10.14 C8,12.38 9.791,14.196 12,14.196 C14.209,14.196 16,12.38 16,10.14 C16,7.9 14.209,6.084 12,6.084 C9.791,6.084 8,7.9 8,10.14 Z"/>
</svg>

