<svg xmlns="http://www.w3.org/2000/svg" width="24" height="24" viewBox="0 0 24 24">
  <defs/>
  <path fill="#212135" d="M10,15 C10,16.105 10.895,17 12,17 C13.105,17 14,16.105 14,15 C14,13.895 13.105,13 12,13 C10.895,13 10,13.895 10,15 Z"/>
  <path fill="#212135" d="M16.789,1.753 C18.048,2.872 18.883,4.494 18.989,6.552 C22.969,7.492 24,9.829 24,15 C24,22.412 21.882,24 12,24 C2.118,24 0,22.412 0,15 C0,9.829 1.031,7.492 5.011,6.552 C5.117,4.494 5.952,2.872 7.211,1.753 C8.541,0.57 10.287,0 12,0 C13.713,0 15.459,0.57 16.789,1.753 Z M8,15 C8,17.209 9.791,19 12,19 C14.209,19 16,17.209 16,15 C16,12.791 14.209,11 12,11 C9.791,11 8,12.791 8,15 Z M12,6 C13.934,6 15.571,6.061 16.953,6.214 C16.791,4.894 16.219,3.921 15.461,3.247 C14.541,2.43 13.287,2 12,2 C10.713,2 9.459,2.43 8.539,3.247 C7.781,3.921 7.209,4.894 7.047,6.214 C8.429,6.061 10.066,6 12,6 Z"/>
</svg>

