<svg xmlns="http://www.w3.org/2000/svg" width="24" height="27" viewBox="0 0 24 27">
  <defs/>
  <path fill="#212135" d="M9,1 C9,0.448 9.448,0 10,0 C10.552,0 11,0.448 11,1 L11,2 L13,2 L13,1 C13,0.448 13.448,0 14,0 C14.552,0 15,0.448 15,1 L15,2 L16,2 C16.917,2 17.69,2.618 17.926,3.46 C22.789,4.495 24,7.528 24,15 C24,24.882 21.882,27 12,27 C2.118,27 0,24.882 0,15 C0,7.528 1.211,4.495 6.074,3.46 C6.31,2.618 7.083,2 8,2 L9,2 Z M7,20 C6.448,20 6,20.448 6,21 C6,21.552 6.448,22 7,22 L17,22 C17.552,22 18,21.552 18,21 C18,20.448 17.552,20 17,20 Z"/>
</svg>

