<svg xmlns="http://www.w3.org/2000/svg" width="28" height="16" viewBox="0 0 28 16">
  <defs/>
  <path fill="#212135" d="M27.351,8.436 L23.351,9.936 C22.834,10.13 22.258,9.868 22.064,9.351 C21.87,8.834 22.132,8.258 22.649,8.064 L26.649,6.564 C27.166,6.37 27.743,6.632 27.937,7.149 C28.131,7.666 27.868,8.242 27.351,8.436 Z M0.649,8.436 C0.132,8.242 -0.13,7.666 0.064,7.149 C0.258,6.632 0.834,6.37 1.351,6.564 L5.351,8.064 C5.869,8.258 6.131,8.834 5.937,9.351 C5.743,9.868 5.166,10.13 4.649,9.936 Z"/>
  <path fill="#212135" d="M19.59,7.92 Q18.599,8.341 17.768,8.543 Q15.886,9 14.199,9 Q12.511,9 10.629,8.543 Q9.799,8.342 8.807,7.92 L8.807,7.92 Q8.426,7.758 8.271,7.374 Q8.116,6.99 8.278,6.609 Q8.44,6.228 8.824,6.073 Q9.208,5.918 9.59,6.08 L9.59,6.08 Q10.43,6.437 11.101,6.6 Q12.75,7 14.199,7 Q15.647,7 17.296,6.6 Q17.967,6.437 18.807,6.08 Q19.189,5.918 19.573,6.073 Q19.957,6.228 20.119,6.609 Q20.281,6.99 20.126,7.374 Q19.971,7.758 19.59,7.92 Z"/>
  <path fill="#212135" d="M19.59,10.92 Q18.599,11.342 17.768,11.543 Q15.886,12 14.199,12 Q12.511,12 10.629,11.543 Q9.798,11.342 8.807,10.92 Q8.426,10.758 8.271,10.374 Q8.116,9.99 8.278,9.609 Q8.44,9.228 8.824,9.073 Q9.209,8.918 9.59,9.08 Q10.43,9.437 11.101,9.6 Q12.75,10 14.199,10 Q15.647,10 17.296,9.6 Q17.967,9.437 18.807,9.08 Q19.189,8.918 19.573,9.073 Q19.957,9.228 20.119,9.609 Q20.281,9.99 20.126,10.374 Q19.971,10.758 19.59,10.92 Z"/>
  <path fill="#212135" d="M27.441,1.898 L27.047,1.095 C27.439,1.895 27.44,1.898 27.44,1.898 L27.44,1.898 L27.44,1.898 L27.438,1.899 L27.432,1.902 L27.409,1.913 L27.326,1.953 C27.254,1.988 27.15,2.037 27.02,2.098 C26.759,2.219 26.391,2.386 25.96,2.571 C25.654,2.702 25.312,2.844 24.952,2.986 C24.687,5.319 24.426,7.275 24.067,8.889 C23.69,10.584 23.188,11.988 22.392,13.087 C20.725,15.387 18.042,16 14,16 C9.959,16 7.273,15.387 5.604,13.087 C4.806,11.989 4.304,10.585 3.928,8.888 C3.57,7.275 3.31,5.318 3.048,2.986 C2.688,2.844 2.346,2.702 2.04,2.571 C1.61,2.386 1.242,2.219 0.981,2.098 C0.85,2.037 0.746,1.988 0.674,1.953 L0.591,1.913 L0.569,1.902 L0.563,1.899 L0.561,1.898 L0.56,1.898 L0.56,1.898 C0.56,1.898 0.561,1.895 1,1 L0.56,1.898 C0.064,1.655 -0.141,1.056 0.102,0.56 C0.346,0.064 0.945,-0.141 1.44,0.102 L1.44,0.102 L1.441,0.102 L1.441,0.102 L1.445,0.105 L1.464,0.113 L1.538,0.149 C1.604,0.181 1.701,0.227 1.824,0.284 C2.071,0.399 2.42,0.558 2.829,0.733 C3.654,1.087 4.69,1.496 5.603,1.751 C8.5,2.563 10.506,3 14,3 C17.494,3 19.501,2.563 22.397,1.751 C23.31,1.496 24.346,1.087 25.172,0.733 C25.58,0.558 25.93,0.399 26.176,0.284 C26.299,0.227 26.396,0.181 26.462,0.149 L26.537,0.113 L26.555,0.105 L26.559,0.102 L26.56,0.102 L26.56,0.102 L26.56,0.102 C27.056,-0.141 27.655,0.064 27.898,0.56 C28.141,1.056 27.936,1.655 27.441,1.898 Z M22.855,3.7 C19.893,4.527 17.702,5 14,5 C10.298,5 8.107,4.527 5.144,3.7 C5.368,5.597 5.593,7.16 5.88,8.455 C6.232,10.04 6.659,11.136 7.222,11.913 C8.275,13.363 10.036,14 14,14 C17.965,14 19.721,13.363 20.773,11.913 C21.336,11.137 21.762,10.04 22.115,8.455 C22.403,7.16 22.629,5.597 22.855,3.7 Z"/>
</svg>

