<svg xmlns="http://www.w3.org/2000/svg" width="29" height="16" viewBox="0 0 29 16">
  <defs/>
  <path fill="#212135" d="M26.385,1.884 L26.379,1.887 L26.358,1.898 L26.281,1.939 C26.214,1.973 26.118,2.023 25.997,2.084 C25.757,2.205 25.417,2.373 25.019,2.559 C24.611,2.749 24.133,2.962 23.633,3.163 C24.057,4.286 24.104,5.859 23.744,8.064 L26.743,7.259 C27.277,7.116 27.825,7.432 27.967,7.966 C28.11,8.499 27.793,9.048 27.26,9.191 L23.408,10.225 C23.358,10.239 23.307,10.248 23.256,10.254 C21.854,14.983 18.794,16 13.951,16 C9.085,16 6.017,14.973 4.634,10.183 L0.742,9.138 C0.208,8.995 -0.108,8.446 0.034,7.913 C0.177,7.379 0.725,7.063 1.258,7.206 L4.161,7.985 C3.851,5.839 3.912,4.298 4.323,3.191 C3.798,2.981 3.295,2.757 2.868,2.559 C2.47,2.373 2.13,2.205 1.889,2.084 C1.769,2.023 1.672,1.973 1.606,1.939 L1.529,1.898 L1.508,1.887 L1.5,1.883 C1.5,1.883 1.499,1.883 1.969,1 L1.499,1.883 C1.012,1.623 0.827,1.018 1.087,0.53 C1.346,0.043 1.952,-0.142 2.439,0.117 L2.444,0.12 L2.46,0.129 L2.528,0.164 C2.588,0.195 2.678,0.241 2.791,0.298 C3.017,0.413 3.338,0.571 3.713,0.746 C4.471,1.099 5.419,1.505 6.252,1.758 C8.912,2.567 10.745,3 13.943,3 C17.142,3 18.975,2.567 21.635,1.758 C22.467,1.505 23.415,1.099 24.174,0.746 C24.365,0.657 24.543,0.572 24.701,0.495 C24.852,0.421 24.985,0.354 25.096,0.298 C25.209,0.241 25.298,0.195 25.358,0.164 L25.427,0.129 L25.443,0.12 L25.447,0.118 C25.934,-0.142 26.541,0.043 26.8,0.53 C27.06,1.018 26.875,1.623 26.387,1.883 L26.385,1.884 Z M25.917,1 L26.387,1.883 C26.387,1.883 26.387,1.881 25.917,1 Z"/>
</svg>

