<svg xmlns="http://www.w3.org/2000/svg" width="25" height="22" viewBox="0 0 25 22">
  <defs/>
  <path fill="#212135" d="M4.321,14.497 Q2.703,14.271 1.491,13.062 Q0,11.575 0,9.471 Q0,7.367 1.491,5.879 Q2.981,4.393 5.088,4.393 L6.437,4.393 L7.786,4.393 Q10.491,4.393 15.586,1.643 Q16.917,0.924 17.579,0.594 Q19.803,-0.515 21.412,0.429 Q22.697,1.183 23.335,3.173 Q24.004,5.259 24,9.312 Q24,9.421 24,9.471 Q24,9.52 24,9.629 Q24.004,13.682 23.335,15.768 Q22.697,17.759 21.412,18.512 Q19.803,19.456 17.579,18.347 Q16.917,18.017 15.587,17.299 Q12.809,15.8 11,15.151 L11,19.436 Q11,21.788 8.778,21.989 Q6.696,22.178 6.052,20.252 Q5.58,18.843 4.321,14.497 Z M16.537,15.539 Q17.839,16.242 18.472,16.558 Q19.726,17.183 20.4,16.787 Q21.025,16.42 21.43,15.158 Q22.003,13.37 22,9.631 Q22,9.522 22,9.471 Q22,9.42 22,9.31 Q22.003,5.571 21.43,3.784 Q21.025,2.521 20.4,2.154 Q19.726,1.759 18.472,2.384 Q17.839,2.7 16.536,3.403 Q10.997,6.393 7.786,6.393 L7.437,6.393 L7.437,12.549 L7.786,12.549 Q8.971,12.549 10.222,12.834 L10.222,12.834 Q12.476,13.347 16.537,15.539 Z M5.088,12.549 L5.437,12.549 L5.437,6.393 L5.088,6.393 Q2,6.393 2,9.471 Q2,12.549 5.088,12.549 Z M6.419,14.549 Q7.523,18.345 7.948,19.617 Q8.091,20.043 8.597,19.997 Q9,19.961 9,19.436 L9,14.638 Q8.379,14.549 7.786,14.549 L6.419,14.549 Z"/>
  <path fill="#212135" d="M25,7 L25,12 Q25,12.414 24.707,12.707 Q24.414,13 24,13 Q23.586,13 23.293,12.707 Q23,12.414 23,12 L23,7 Q23,6.586 23.293,6.293 Q23.586,6 24,6 Q24.414,6 24.707,6.293 Q25,6.586 25,7 Z"/>
</svg>

