<svg xmlns="http://www.w3.org/2000/svg" width="24" height="22" viewBox="0 0 24 22">
  <defs/>
  <path fill="#212135" d="M4.281,4.712 C1.917,4.712 0,6.671 0,9.087 C0,11.356 1.691,13.222 3.855,13.44 L6.141,20.761 C6.371,21.498 7.056,22 7.831,22 C8.808,22 9.6,21.211 9.6,20.237 L9.6,13.783 C11.757,14.32 13.8,15.45 15.774,16.541 C16.467,16.924 17.152,17.303 17.831,17.649 C21.637,19.594 22.664,15.744 22.939,12.419 C23.308,12.393 23.546,12.327 23.719,12.155 C24,11.874 24,11.424 24,10.522 L24,7.652 C24,6.75 24,6.299 23.719,6.019 C23.546,5.847 23.308,5.781 22.939,5.755 C22.664,2.43 21.637,-1.42 17.831,0.524 C17.152,0.871 16.467,1.25 15.774,1.633 C13.759,2.747 11.67,3.902 9.462,4.425 C8.55,4.641 8.094,4.749 7.887,5.009 C7.68,5.27 7.68,5.678 7.68,6.493 L7.68,7.652 C7.68,8.18 7.25,8.609 6.72,8.609 C6.19,8.609 5.76,8.18 5.76,7.652 L5.76,6.185 C5.76,5.704 5.76,5.463 5.675,5.275 C5.579,5.063 5.408,4.893 5.195,4.797 C5.007,4.712 4.765,4.712 4.281,4.712 Z"/>
</svg>

