<svg xmlns="http://www.w3.org/2000/svg" width="24" height="24" viewBox="0 0 24 24">
  <defs/>
  <path fill="#212135" d="M0,5.5 C0,10.029 0.971,11 5.5,11 C10.029,11 11,10.029 11,5.5 C11,0.971 10.029,0 5.5,0 C0.971,0 0,0.971 0,5.5 Z"/>
  <path fill="#212135" d="M0,18.5 C0,23.029 0.971,24 5.5,24 C10.029,24 11,23.029 11,18.5 C11,13.971 10.029,13 5.5,13 C0.971,13 0,13.971 0,18.5 Z"/>
  <path fill="#212135" d="M13,5.5 C13,10.029 13.971,11 18.5,11 C23.029,11 24,10.029 24,5.5 C24,0.971 23.029,0 18.5,0 C13.971,0 13,0.971 13,5.5 Z"/>
  <path fill="#212135" d="M13,18.5 C13,23.029 13.971,24 18.5,24 C23.029,24 24,23.029 24,18.5 C24,13.971 23.029,13 18.5,13 C13.971,13 13,13.971 13,18.5 Z"/>
</svg>

