<svg xmlns="http://www.w3.org/2000/svg" width="24" height="24" viewBox="0 0 24 24">
  <defs/>
  <path fill="#212135" d="M12,0 C21.882,0 24,1.778 24,10.667 C24,16.444 23,20 18.5,20 C16.095,20 15.38,21.142 14.714,22.206 C14.134,23.133 13.591,24 12,24 C10.41,24 9.867,23.133 9.287,22.206 C8.62,21.142 7.905,20 5.5,20 C1,20 0,16.331 0,10.667 C0,1.883 2.118,0 12,0 Z M7,11 C6.448,11 6,11.448 6,12 C6,12.552 6.448,13 7,13 L17,13 C17.552,13 18,12.552 18,12 C18,11.448 17.552,11 17,11 Z M13,8 C13,8.552 13.448,9 14,9 L17,9 C17.552,9 18,8.552 18,8 C18,7.448 17.552,7 17,7 L14,7 C13.448,7 13,7.448 13,8 Z"/>
</svg>

