<svg xmlns="http://www.w3.org/2000/svg" width="24" height="22" viewBox="0 0 24 22">
  <defs/>
  <path fill="#212135" d="M12,22 C2.118,22 0,20.058 0,11 C0,8.51 0.16,6.558 0.597,5.037 C1.717,6.159 3.129,7.508 4.663,8.71 C6.839,10.415 9.475,12 12,12 C14.525,12 17.161,10.415 19.337,8.71 C20.871,7.508 22.284,6.159 23.403,5.037 C23.84,6.558 24,8.51 24,11 C24,20.058 21.882,22 12,22 Z"/>
  <path fill="#212135" d="M22.531,3.073 C21.36,4.267 19.805,5.802 18.103,7.136 C15.959,8.816 13.794,10 12,10 C10.206,10 8.041,8.816 5.897,7.136 C4.195,5.802 2.64,4.267 1.469,3.073 C3.057,0.673 6.184,0 12,0 C17.816,0 20.943,0.673 22.531,3.073 Z"/>
</svg>

