<svg xmlns="http://www.w3.org/2000/svg" width="24" height="22" viewBox="0 0 24 22">
  <defs/>
  <path fill="#212135" d="M8,15 L16,15 Q16.414,15 16.707,15.293 Q17,15.586 17,16 Q17,16.414 16.707,16.707 Q16.414,17 16,17 L8,17 Q7.586,17 7.293,16.707 Q7,16.414 7,16 Q7,15.586 7.293,15.293 Q7.586,15 8,15 Z"/>
  <path fill="#212135" d="M0,11 Q0,6.203 0.967,4 Q1.978,1.699 4.564,0.815 Q6.952,0 12,0 Q15.86,0 18.044,0.445 Q20.426,0.93 21.706,2.103 Q24,4.206 24,11 Q24,17.794 21.706,19.897 Q20.426,21.07 18.044,21.555 Q15.86,22 12,22 Q8.139,22 5.956,21.555 Q3.574,21.07 2.294,19.897 Q0,17.794 0,11 Z M2,11 Q2,16.914 3.646,18.423 Q4.516,19.221 6.355,19.595 Q8.341,20 12,20 Q15.659,20 17.645,19.595 Q19.484,19.221 20.354,18.423 Q22,16.914 22,11 Q22,5.086 20.354,3.577 Q19.484,2.779 17.645,2.405 Q15.658,2 12,2 Q7.284,2 5.211,2.708 Q3.456,3.308 2.799,4.804 Q2,6.623 2,11 Z"/>
</svg>

