<svg xmlns="http://www.w3.org/2000/svg" width="24" height="22" viewBox="0 0 24 22">
  <defs/>
  <path fill="#212135" d="M0,11 C0,8.51 0.16,6.558 0.597,5.036 C1.717,6.159 3.129,7.508 4.663,8.71 C6.839,10.415 9.475,12 12,12 C14.526,12 17.161,10.415 19.337,8.71 C20.871,7.508 22.284,6.159 23.403,5.037 C23.84,6.558 24,8.51 24,11 C24,20.059 21.882,22 12,22 C2.118,22 0,20.059 0,11 Z M8,15 C7.448,15 7,15.448 7,16 C7,16.552 7.448,17 8,17 L16,17 C16.552,17 17,16.552 17,16 C17,15.448 16.552,15 16,15 Z"/>
  <path fill="#212135" d="M18.103,7.136 C19.805,5.802 21.36,4.267 22.531,3.073 C20.943,0.673 17.816,0 12,0 C6.184,0 3.057,0.673 1.469,3.073 C2.64,4.267 4.195,5.802 5.897,7.136 C8.041,8.816 10.206,10 12,10 C13.794,10 15.959,8.816 18.103,7.136 Z"/>
</svg>

