<svg xmlns="http://www.w3.org/2000/svg" width="16" height="22" viewBox="0 0 16 22">
  <defs/>
  <path fill="#212135" d="M2,11 Q2,13.999 4.129,15.723 Q5.707,17 8,17 Q10.293,17 11.871,15.723 Q14,13.999 14,11 Q14,10.586 14.293,10.293 Q14.586,10 15,10 Q15.414,10 15.707,10.293 Q16,10.586 16,11 Q16,14.953 13.129,17.277 Q11.365,18.706 9,18.95 L9,20 L11,20 Q11.414,20 11.707,20.293 Q12,20.586 12,21 Q12,21.414 11.707,21.707 Q11.414,22 11,22 L5,22 Q4.586,22 4.293,21.707 Q4,21.414 4,21 Q4,20.586 4.293,20.293 Q4.586,20 5,20 L7,20 L7,18.95 Q4.635,18.706 2.871,17.277 Q0,14.953 0,11 Q0,10.586 0.293,10.293 Q0.586,10 1,10 Q1.414,10 1.707,10.293 Q2,10.586 2,11 Z"/>
  <path fill="#212135" d="M8,0 Q9.597,0 10.68,0.768 Q11.631,1.443 12.187,2.714 Q13,4.571 13,8 Q13,11.429 12.187,13.286 Q11.631,14.557 10.68,15.232 Q9.597,16 8,16 Q6.403,16 5.32,15.232 Q4.369,14.557 3.812,13.286 Q3,11.429 3,8 Q3,4.571 3.813,2.714 Q4.369,1.443 5.32,0.768 Q6.403,0 8,0 Z M8,2 Q7.04,2 6.477,2.399 Q5.979,2.753 5.645,3.516 Q5,4.99 5,8 Q5,11.01 5.645,12.484 Q5.979,13.247 6.477,13.601 Q7.04,14 8,14 Q8.96,14 9.522,13.601 Q10.021,13.247 10.355,12.484 Q11,11.01 11,8 Q11,4.99 10.355,3.516 Q10.021,2.753 9.523,2.399 Q8.96,2 8,2 Z"/>
</svg>

