<svg xmlns="http://www.w3.org/2000/svg" width="18" height="22" viewBox="0 0 18 22">
  <defs/>
  <path fill="#212135" d="M5.826,18.428 C5.244,18.196 5.133,17.46 5.55,16.993 L5.597,16.94 C5.899,16.6 6.391,16.517 6.821,16.665 C7.535,16.91 8.268,17 9,17 C10.458,17 11.651,16.71 12.871,15.723 C14.419,14.47 15,12.755 15,11 C15,10.448 15.448,10 16,10 C16.552,10 17,10.448 17,11 C17,13.212 16.249,15.561 14.129,17.277 C12.938,18.242 11.74,18.709 10.494,18.896 C10.215,18.938 10,19.172 10,19.454 C10,19.755 10.245,20 10.546,20 L12,20 C12.552,20 13,20.448 13,21 C13,21.552 12.552,22 12,22 L6,22 C5.448,22 5,21.552 5,21 C5,20.448 5.448,20 6,20 L7.449,20 C7.753,20 8,19.753 8,19.449 C8,19.166 7.786,18.931 7.506,18.887 C6.951,18.798 6.387,18.652 5.826,18.428 Z M13.602,5.852 C13.034,6.489 11.955,6.092 11.824,5.249 C11.724,4.605 11.574,4.017 11.355,3.516 C11.117,2.972 10.834,2.62 10.523,2.399 C10.226,2.189 9.769,2 9,2 C8.231,2 7.774,2.189 7.477,2.399 C7.166,2.62 6.883,2.972 6.645,3.516 C6.137,4.676 6,6.309 6,8 C6,9.691 6.137,11.324 6.645,12.484 C6.836,12.922 6.827,13.455 6.509,13.812 L6.447,13.881 C6.055,14.321 5.364,14.326 5.074,13.813 C4.156,12.181 4,9.913 4,8 C4,4.571 4.5,0 9,0 C12.302,0 13.45,2.461 13.828,5.126 C13.865,5.389 13.779,5.653 13.602,5.852 Z M7.893,14.363 C8.13,14.097 8.492,13.985 8.848,13.998 C8.897,13.999 8.948,14 9,14 C9.769,14 10.226,13.811 10.523,13.601 C10.834,13.38 11.117,13.028 11.355,12.484 C11.639,11.834 11.808,11.036 11.901,10.163 C11.923,9.947 12.01,9.743 12.154,9.581 L13.673,7.877 C13.788,7.748 14,7.827 14,8 C14,11.429 13.5,16 9,16 C8.677,16 8.374,15.976 8.091,15.931 C7.438,15.828 7.276,15.056 7.715,14.562 Z M4.273,16.321 C3.908,16.73 3.275,16.773 2.911,16.363 C1.521,14.799 1,12.917 1,11 C1,10.448 1.448,10 2,10 C2.552,10 3,10.448 3,11 C3,12.434 3.352,13.741 4.244,14.843 C4.593,15.275 4.643,15.906 4.273,16.321 Z"/>
  <path fill="#212135" d="M0.253,18.336 L16.253,0.336 Q16.528,0.026 16.941,0.002 Q17.355,-0.023 17.664,0.253 Q17.974,0.528 17.998,0.941 Q18.023,1.355 17.747,1.664 L1.747,19.664 Q1.472,19.974 1.059,19.998 Q0.645,20.023 0.336,19.747 Q0.026,19.472 0.002,19.059 Q-0.023,18.645 0.253,18.336 Z"/>
</svg>

