<svg xmlns="http://www.w3.org/2000/svg" width="20" height="24" viewBox="0 0 20 24">
  <defs/>
  <path fill="#212135" d="M5.457,8.727 C5.457,4.987 6.017,0 11.054,0 C13.381,0 14.752,1.065 15.555,2.579 L17.868,0.324 C18.305,-0.102 19.014,-0.102 19.451,0.324 C19.888,0.75 19.888,1.441 19.451,1.867 L1.911,18.962 C1.474,19.388 0.765,19.388 0.328,18.962 C-0.109,18.536 -0.109,17.845 0.328,17.419 L2.707,15.101 C2.304,14.052 2.108,12.979 2.108,12 C2.108,11.398 2.605,10.909 3.219,10.909 C3.832,10.909 4.33,11.398 4.33,12 C4.33,12.441 4.381,12.903 4.484,13.368 L5.701,12.183 C5.506,11.028 5.457,9.824 5.457,8.727 Z"/>
  <path fill="#212135" d="M5.498,18.924 C5.022,18.552 5.036,17.86 5.467,17.439 C5.906,17.012 6.613,17.025 7.116,17.377 C8.136,18.091 9.444,18.546 11.054,18.546 C15.643,18.546 17.778,14.853 17.778,12 C17.778,11.398 18.276,10.909 18.889,10.909 C19.503,10.909 20,11.398 20,12 C20,15.462 17.549,20.102 12.171,20.67 C12.173,20.691 12.173,20.713 12.173,20.736 L12.173,21.81 L12.173,21.818 L14.42,21.818 C15.034,21.818 15.531,22.307 15.531,22.909 C15.531,23.512 15.034,24 14.42,24 L7.688,24 C7.074,24 6.577,23.512 6.577,22.909 C6.577,22.307 7.074,21.818 7.688,21.818 L9.935,21.818 L9.935,21.81 L9.935,20.736 C9.935,20.713 9.935,20.691 9.937,20.67 C8.134,20.479 6.66,19.831 5.498,18.924 Z"/>
  <path fill="#212135" d="M7.872,16.484 C7.424,16.137 7.468,15.49 7.873,15.095 L15.045,8.105 C15.649,7.516 16.651,7.892 16.651,8.727 C16.651,12.467 16.091,17.455 11.054,17.455 C9.692,17.455 8.657,17.09 7.872,16.484 Z"/>
</svg>

