<svg xmlns="http://www.w3.org/2000/svg" width="18" height="24" viewBox="0 0 18 24">
  <defs/>
  <path fill="#212135" d="M3.375,8.727 C3.375,4.987 3.938,0 9,0 C14.062,0 14.625,4.987 14.625,8.727 C14.625,12.467 14.062,17.454 9,17.454 C3.938,17.454 3.375,12.467 3.375,8.727 Z"/>
  <path fill="#212135" d="M1.125,10.909 C0.504,10.909 0,11.398 0,12 C0,15.454 2.46,20.102 7.877,20.67 C7.876,20.689 7.875,20.708 7.875,20.727 L7.875,21.818 L5.625,21.818 C5.004,21.818 4.5,22.307 4.5,22.909 C4.5,23.512 5.004,24 5.625,24 L12.375,24 C12.996,24 13.5,23.512 13.5,22.909 C13.5,22.307 12.996,21.818 12.375,21.818 L10.125,21.818 L10.125,20.727 C10.125,20.708 10.124,20.689 10.123,20.67 C15.54,20.102 18,15.454 18,12 C18,11.398 17.496,10.909 16.875,10.909 C16.254,10.909 15.75,11.398 15.75,12 C15.75,14.861 13.599,18.546 9,18.546 C4.401,18.546 2.25,14.861 2.25,12 C2.25,11.398 1.746,10.909 1.125,10.909 Z"/>
</svg>

