<svg xmlns="http://www.w3.org/2000/svg" width="24" height="24" viewBox="0 0 24 24">
  <defs/>
  <path fill="#212135" d="M21.707,3.707 L19.414,6 L21.707,8.293 C22.098,8.683 22.098,9.317 21.707,9.707 C21.317,10.098 20.683,10.098 20.293,9.707 L18,7.414 L15.707,9.707 C15.317,10.098 14.683,10.098 14.293,9.707 C13.902,9.317 13.902,8.683 14.293,8.293 L16.586,6 L14.293,3.707 C13.902,3.317 13.902,2.683 14.293,2.293 C14.683,1.902 15.317,1.902 15.707,2.293 L18,4.586 L20.293,2.293 C20.683,1.902 21.317,1.902 21.707,2.293 C22.098,2.683 22.098,3.317 21.707,3.707 Z"/>
  <path fill="#212135" d="M2.347,1.389 C3.098,0.749 4.26,-0.04 5.515,0.002 L5.552,0.003 L5.589,0.007 C6.284,0.081 6.916,0.429 7.457,0.951 L7.461,0.955 C7.831,1.316 8.485,2.08 9.054,2.821 C9.342,3.196 9.623,3.586 9.846,3.934 C9.958,4.108 10.062,4.284 10.146,4.45 C10.223,4.599 10.314,4.801 10.359,5.015 C10.596,6.114 10.1,6.979 9.821,7.466 L9.821,7.466 C9.81,7.485 9.799,7.504 9.789,7.522 L9.766,7.562 C9.685,7.702 9.582,7.859 9.492,7.995 L9.482,8.01 C9.293,8.295 9.128,8.547 9.023,8.772 C8.993,8.837 8.974,8.886 8.963,8.921 C9.344,9.822 9.878,10.716 10.524,11.552 C11.304,12.481 12.503,13.633 13.113,14.062 C13.73,14.497 14.367,14.861 15.014,15.141 C15.055,15.129 15.114,15.108 15.193,15.071 C15.429,14.962 15.691,14.793 15.978,14.605 L15.991,14.596 C16.118,14.514 16.261,14.42 16.389,14.345 L16.396,14.341 L16.438,14.318 C16.455,14.308 16.473,14.298 16.491,14.288 L16.491,14.288 C16.986,14.009 17.85,13.522 18.958,13.753 L18.96,13.753 L18.963,13.754 C19.173,13.798 19.372,13.886 19.521,13.961 C19.686,14.043 19.86,14.144 20.034,14.253 C20.383,14.47 20.773,14.744 21.151,15.026 C21.89,15.577 22.659,16.215 23.028,16.587 C23.029,16.589 23.03,16.59 23.031,16.591 L23.035,16.594 C23.557,17.115 23.938,17.755 23.995,18.502 L23.997,18.52 L23.998,18.538 C24.049,19.77 23.28,20.901 22.647,21.636 C22.006,22.382 21.274,22.982 20.891,23.224 C19.37,24.312 17.467,24.179 15.516,23.301 C13.429,22.451 11.026,20.72 8.771,18.7 C7.966,17.979 6.415,16.459 5.926,15.9 C3.652,13.434 1.674,10.726 0.715,8.456 C0.252,7.469 0,6.501 0,5.586 C0,4.674 0.258,3.834 0.769,3.108 C0.889,2.914 1.095,2.654 1.324,2.394 C1.592,2.092 1.942,1.733 2.347,1.389 Z M2.475,4.151 C2.474,4.154 2.474,4.153 2.474,4.153 L2.448,4.198 L2.418,4.241 C2.145,4.619 2,5.06 2,5.586 C2,6.14 2.156,6.822 2.533,7.622 L2.542,7.641 L2.551,7.661 C3.377,9.628 5.186,12.15 7.406,14.554 L7.416,14.565 L7.426,14.577 C7.823,15.034 9.32,16.507 10.105,17.211 C12.303,19.179 14.511,20.736 16.285,21.455 L16.304,21.462 L16.322,21.47 C17.963,22.213 19.036,22.102 19.745,21.585 L19.78,21.559 L19.817,21.537 C19.973,21.443 20.578,20.976 21.131,20.332 C21.707,19.662 22.007,19.054 22,18.64 C21.985,18.504 21.905,18.291 21.619,18.007 L21.613,18.001 C21.351,17.736 20.672,17.164 19.955,16.629 C19.602,16.366 19.26,16.127 18.976,15.95 C18.834,15.861 18.717,15.795 18.628,15.75 C18.573,15.723 18.543,15.711 18.534,15.708 C18.216,15.646 17.956,15.759 17.417,16.062 L17.39,16.077 C17.313,16.122 17.214,16.187 17.073,16.279 L17.051,16.293 C16.79,16.464 16.414,16.71 16.032,16.886 C15.696,17.042 15.058,17.291 14.414,17.057 L14.392,17.049 L14.372,17.041 C13.53,16.691 12.722,16.234 11.961,15.698 C11.156,15.13 9.821,13.829 8.979,12.821 L8.967,12.807 L8.955,12.792 C8.176,11.787 7.521,10.687 7.058,9.549 L7.053,9.535 L7.048,9.522 C6.809,8.881 7.06,8.25 7.212,7.925 C7.385,7.553 7.628,7.187 7.798,6.93 C7.803,6.922 7.809,6.914 7.814,6.906 C7.916,6.752 7.986,6.645 8.034,6.563 L8.052,6.531 C8.361,5.989 8.465,5.741 8.406,5.448 C8.403,5.439 8.391,5.41 8.364,5.357 C8.319,5.269 8.252,5.154 8.162,5.012 C7.981,4.729 7.736,4.389 7.467,4.038 C6.922,3.328 6.337,2.652 6.066,2.388 C5.785,2.117 5.561,2.025 5.41,2 C4.963,2.004 4.325,2.331 3.644,2.911 C3.322,3.185 3.038,3.475 2.822,3.719 C2.715,3.841 2.628,3.947 2.564,4.03 C2.508,4.102 2.482,4.141 2.475,4.151 Z M0.738,3.16 L0.794,3.073 C0.786,3.084 0.777,3.096 0.769,3.108 C0.758,3.126 0.747,3.144 0.738,3.16 Z M20.88,23.229 C20.86,23.243 20.843,23.255 20.891,23.224 C20.925,23.2 20.901,23.215 20.88,23.229 Z M0.715,8.453 C0.71,8.441 0.705,8.431 0.715,8.456 C0.725,8.477 0.72,8.464 0.715,8.453 Z M15.513,23.299 C15.502,23.294 15.493,23.29 15.516,23.301 C15.535,23.309 15.524,23.304 15.513,23.299 Z M5.936,15.911 L5.916,15.888 C5.919,15.892 5.923,15.896 5.926,15.9 C5.93,15.903 5.933,15.907 5.936,15.911 Z"/>
</svg>

