<svg xmlns="http://www.w3.org/2000/svg" width="24" height="24" viewBox="0 0 24 24">
  <defs/>
  <path fill="#212135" d="M15.005,16.491 C14.169,16.145 13.359,15.687 12.585,15.142 C11.812,14.597 10.425,13.253 9.541,12.196 C8.744,11.168 8.083,10.054 7.62,8.915 C7.434,8.418 7.95,7.638 8.343,7.045 C8.45,6.884 8.547,6.736 8.619,6.612 L8.64,6.574 C8.959,6.015 9.314,5.394 9.143,4.607 C8.993,3.876 6.985,1.413 6.286,0.732 C5.825,0.286 5.351,0.051 4.889,0.001 C3.031,-0.061 0.923,2.44 0.661,2.898 C0.225,3.505 0,4.21 0,5.003 C0,5.808 0.225,6.711 0.686,7.689 C1.659,10.005 3.729,12.864 6.187,15.526 C6.662,16.075 8.335,17.717 9.205,18.497 C11.637,20.676 14.157,22.471 16.265,23.325 C18.236,24.217 19.87,24.229 21.092,23.338 C21.666,22.991 24.073,20.973 23.998,19.178 C23.961,18.695 23.711,18.224 23.262,17.779 C22.576,17.085 20.094,15.129 19.371,14.981 C18.566,14.811 17.939,15.163 17.375,15.48 L17.338,15.501 C17.223,15.568 17.087,15.657 16.937,15.755 C16.338,16.146 15.524,16.679 15.005,16.491 Z"/>
  <path fill="#212135" d="M20.707,2.293 C21.098,2.683 21.098,3.317 20.707,3.707 L18.414,6 L20.707,8.293 C21.098,8.683 21.098,9.317 20.707,9.707 C20.317,10.098 19.683,10.098 19.293,9.707 L17,7.414 L14.707,9.707 C14.317,10.098 13.683,10.098 13.293,9.707 C12.902,9.317 12.902,8.683 13.293,8.293 L15.586,6 L13.293,3.707 C12.902,3.317 12.902,2.683 13.293,2.293 C13.683,1.902 14.317,1.902 14.707,2.293 L17,4.586 L19.293,2.293 C19.683,1.902 20.317,1.902 20.707,2.293 Z"/>
</svg>

