<svg xmlns="http://www.w3.org/2000/svg" width="24" height="24" viewBox="0 0 24 24">
  <defs/>
  <path fill="#212135" d="M8,13 L8,13.018 C9.166,13 10.493,13 12,13 C13.507,13 14.834,13 16,13.018 L16,13 L16,11 C16,10.448 16.448,10 17,10 C17.552,10 18,10.448 18,11 L18,13 C18,13.026 17.999,13.051 17.997,13.076 C22.801,13.306 24,14.238 24,18 C24,21.172 23.147,22.332 20,22.756 L20,23 C20,23.552 19.552,24 19,24 C18.448,24 18,23.552 18,23 L18,22.924 C16.419,23 14.448,23 12,23 C9.552,23 7.581,23 6,22.924 L6,23 C6,23.552 5.552,24 5,24 C4.448,24 4,23.552 4,23 L4,22.756 C0.853,22.332 0,21.172 0,18 C0,14.238 1.199,13.306 6.003,13.076 C6.001,13.051 6,13.026 6,13 L6,7 C6,6.448 6.448,6 7,6 C7.552,6 8,6.448 8,7 Z M0.169,3.556 C-0.138,3.097 -0.015,2.476 0.444,2.169 L0.449,2.166 L0.461,2.158 L0.503,2.13 C0.539,2.106 0.591,2.072 0.655,2.031 C0.784,1.948 0.964,1.834 1.171,1.708 C1.575,1.463 2.124,1.147 2.603,0.939 C4.176,0.258 5.177,0 7,0 C8.824,0 9.824,0.258 11.397,0.939 C11.876,1.147 12.425,1.463 12.829,1.708 C13.036,1.834 13.217,1.948 13.345,2.031 C13.41,2.072 13.461,2.106 13.498,2.13 L13.54,2.158 L13.551,2.166 L13.556,2.168 C14.014,2.475 14.138,3.097 13.831,3.556 C13.524,4.015 12.903,4.138 12.444,3.831 L12.442,3.83 L12.434,3.824 L12.399,3.801 C12.367,3.78 12.321,3.75 12.262,3.712 C12.145,3.637 11.98,3.532 11.79,3.417 C11.401,3.181 10.949,2.925 10.603,2.775 C9.244,2.187 8.513,2 7,2 C5.487,2 4.756,2.187 3.397,2.775 C3.051,2.925 2.599,3.181 2.21,3.417 C2.02,3.532 1.855,3.637 1.738,3.712 C1.679,3.75 1.633,3.78 1.602,3.801 L1.566,3.824 L1.558,3.83 L1.556,3.831 C1.097,4.138 0.476,4.015 0.169,3.556 Z M19,18 C19,17.448 18.552,17 18,17 L10,17 C9.448,17 9,17.448 9,18 C9,18.552 9.448,19 10,19 L18,19 C18.552,19 19,18.552 19,18 Z M3.184,5.578 C2.865,5.127 2.971,4.503 3.422,4.184 L3.424,4.183 L3.426,4.181 L3.433,4.176 L3.456,4.16 C3.475,4.147 3.502,4.129 3.535,4.106 C3.602,4.062 3.695,4.001 3.804,3.933 C4.012,3.804 4.32,3.625 4.625,3.502 C5.373,3.199 5.991,3 7,3 C8.009,3 8.627,3.199 9.375,3.502 C9.681,3.625 9.988,3.804 10.196,3.933 C10.305,4.001 10.399,4.062 10.465,4.106 C10.498,4.129 10.525,4.147 10.544,4.16 L10.567,4.176 L10.574,4.181 L10.578,4.184 C11.028,4.503 11.135,5.127 10.816,5.578 C10.497,6.029 9.873,6.135 9.423,5.816 L9.42,5.815 L9.407,5.805 C9.394,5.797 9.375,5.783 9.35,5.766 C9.299,5.732 9.227,5.685 9.142,5.633 C8.963,5.521 8.77,5.414 8.625,5.356 C8.011,5.107 7.659,5 7,5 C6.341,5 5.989,5.107 5.375,5.356 C5.23,5.414 5.037,5.521 4.858,5.633 C4.774,5.685 4.701,5.732 4.651,5.766 C4.625,5.783 4.606,5.797 4.593,5.805 L4.578,5.816 C4.127,6.135 3.503,6.029 3.184,5.578 Z M7,19 C7.552,19 8,18.552 8,18 C8,17.448 7.552,17 7,17 L6,17 C5.448,17 5,17.448 5,18 C5,18.552 5.448,19 6,19 Z"/>
</svg>

