<svg xmlns="http://www.w3.org/2000/svg" width="24" height="24" viewBox="0 0 24 24">
  <defs/>
  <path fill="#212135" d="M3.422,4.184 Q4.066,3.728 4.625,3.502 Q5.865,3 7,3 Q8.135,3 9.375,3.502 Q9.934,3.728 10.578,4.184 Q10.916,4.423 10.986,4.832 Q11.055,5.24 10.816,5.578 Q10.577,5.916 10.168,5.986 Q9.76,6.055 9.422,5.816 Q8.968,5.494 8.625,5.356 Q7.746,5 7,5 Q6.254,5 5.375,5.356 Q5.032,5.494 4.578,5.816 Q4.24,6.055 3.832,5.986 Q3.423,5.916 3.184,5.578 Q2.945,5.24 3.014,4.832 Q3.084,4.423 3.422,4.184 Z"/>
  <path fill="#212135" d="M0.444,2.169 Q1.694,1.333 2.603,0.939 Q4.773,0 7,0 Q9.227,0 11.397,0.939 Q12.306,1.333 13.556,2.169 Q13.9,2.399 13.981,2.805 Q14.061,3.212 13.831,3.556 Q13.601,3.9 13.195,3.981 Q12.788,4.061 12.444,3.831 Q11.345,3.096 10.603,2.775 Q8.813,2 7,2 Q5.187,2 3.397,2.775 Q2.655,3.096 1.556,3.831 Q1.212,4.061 0.805,3.981 Q0.399,3.9 0.169,3.556 Q-0.061,3.212 0.019,2.805 Q0.1,2.399 0.444,2.169 Z"/>
  <path fill="#212135" d="M7,6 C7.552,6 8,6.448 8,7 L8,13 L8,13.018 C9.166,13 10.493,13 12,13 C13.507,13 14.834,13 16,13.018 L16,13 L16,11 C16,10.448 16.448,10 17,10 C17.552,10 18,10.448 18,11 L18,13 C18,13.026 17.999,13.051 17.997,13.076 C22.801,13.306 24,14.238 24,18 C24,21.172 23.147,22.332 20,22.756 L20,23 C20,23.552 19.552,24 19,24 C18.448,24 18,23.552 18,23 L18,22.924 C16.419,23 14.448,23 12,23 C9.552,23 7.581,23 6,22.924 L6,23 C6,23.552 5.552,24 5,24 C4.448,24 4,23.552 4,23 L4,22.756 C0.853,22.332 0,21.172 0,18 C0,14.238 1.199,13.306 6.003,13.076 C6.001,13.051 6,13.026 6,13 L6,7 C6,6.448 6.448,6 7,6 Z M2.273,19.993 C2.349,20.146 2.464,20.313 2.962,20.49 C3.554,20.699 4.5,20.848 6.054,20.924 C7.582,20.999 9.511,21 12,21 C14.489,21 16.418,20.999 17.946,20.924 C19.5,20.848 20.446,20.699 21.038,20.49 C21.536,20.313 21.651,20.146 21.727,19.993 C21.865,19.719 22,19.168 22,18 C22,16.832 21.865,16.281 21.727,16.007 C21.651,15.854 21.536,15.687 21.038,15.51 C20.446,15.3 19.5,15.152 17.946,15.076 C16.418,15.001 14.489,15 12,15 C9.511,15 7.582,15.001 6.054,15.076 C4.5,15.152 3.554,15.3 2.962,15.51 C2.464,15.687 2.349,15.854 2.273,16.007 C2.135,16.281 2,16.832 2,18 C2,19.168 2.135,19.719 2.273,19.993 Z"/>
  <path fill="#212135" d="M10,17 L18,17 C18.552,17 19,17.448 19,18 C19,18.552 18.552,19 18,19 L10,19 C9.448,19 9,18.552 9,18 C9,17.448 9.448,17 10,17 Z M6,17 L7,17 C7.552,17 8,17.448 8,18 C8,18.552 7.552,19 7,19 L6,19 C5.448,19 5,18.552 5,18 C5,17.448 5.448,17 6,17 Z"/>
</svg>

