<svg xmlns="http://www.w3.org/2000/svg" width="24" height="25" viewBox="0 0 24 25">
  <defs/>
  <path fill="#212135" d="M23.923,17.238 C22.046,21.795 17.613,25 12.441,25 C5.57,25 0,19.345 0,12.369 C0,6.311 4.2,1.251 9.805,0.023 C10.21,-0.066 10.627,0.11 10.851,0.463 C11.075,0.817 11.06,1.275 10.812,1.612 C9.642,3.209 8.95,5.187 8.95,7.332 C8.95,12.63 13.18,16.924 18.398,16.924 C19.896,16.924 21.31,16.571 22.566,15.943 C22.938,15.757 23.385,15.825 23.687,16.113 C23.989,16.402 24.083,16.85 23.923,17.238 Z"/>
  <path fill="#212135" d="M16.316,2.21 C16.86,0.716 18.942,0.716 19.487,2.21 L20.287,4.405 L22.449,5.218 C23.921,5.771 23.921,7.884 22.449,8.437 L20.287,9.25 L19.487,11.445 C18.942,12.939 16.86,12.939 16.316,11.445 L15.516,9.25 L13.353,8.437 C11.882,7.884 11.882,5.771 13.353,5.218 L15.516,4.405 Z"/>
</svg>

