<svg xmlns="http://www.w3.org/2000/svg" width="24" height="25" viewBox="0 0 24 25">
  <defs/>
  <path fill="#212135" d="M23,16.851 L23.925,17.231 C24.084,16.845 23.986,16.402 23.68,16.118 C23.375,15.834 22.925,15.77 22.552,15.957 L23,16.851 Z M10.016,1 L10.823,1.591 C11.068,1.255 11.08,0.802 10.853,0.454 C10.626,0.106 10.207,-0.066 9.801,0.023 L10.016,1 Z M18.395,16.937 C13.198,16.937 8.958,12.65 8.958,7.327 L6.958,7.327 C6.958,13.723 12.063,18.937 18.395,18.937 L18.395,16.937 Z M22.552,15.957 C21.299,16.584 19.889,16.937 18.395,16.937 L18.395,18.937 C20.207,18.937 21.923,18.508 23.448,17.745 L22.552,15.957 Z M22.075,16.47 C20.495,20.313 16.769,22.998 12.441,22.998 L12.441,24.998 C17.623,24.998 22.053,21.783 23.925,17.231 L22.075,16.47 Z M12.441,22.998 C6.69,22.998 2,18.254 2,12.368 L0,12.368 C0,19.328 5.554,24.998 12.441,24.998 L12.441,22.998 Z M2,12.368 C2,7.26 5.536,3.007 10.23,1.977 L9.801,0.023 C4.188,1.255 0,6.322 0,12.368 L2,12.368 Z M8.958,7.327 C8.958,5.174 9.652,3.19 10.823,1.591 L9.209,0.409 C7.794,2.343 6.958,4.738 6.958,7.327 L8.958,7.327 Z"/>
</svg>

