<svg xmlns="http://www.w3.org/2000/svg" width="16" height="22" viewBox="0 0 16 22">
  <defs/>
  <path fill="#212135" d="M0,11 Q0,4.95 1.75,2.5 Q3.536,0 8,0 Q12.464,0 14.25,2.5 Q16,4.95 16,11 Q16,17.05 14.25,19.5 Q12.464,22 8,22 Q3.536,22 1.75,19.5 Q0,17.05 0,11 Z M2,11 Q2,16.409 3.377,18.338 Q4.565,20 8,20 Q11.435,20 12.623,18.338 Q14,16.409 14,11 Q14,5.591 12.623,3.662 Q11.435,2 8,2 Q4.565,2 3.377,3.662 Q2,5.591 2,11 Z"/>
  <path fill="#212135" d="M9,6 L9,8 Q9,8.414 8.707,8.707 Q8.414,9 8,9 Q7.586,9 7.293,8.707 Q7,8.414 7,8 L7,6 Q7,5.586 7.293,5.293 Q7.586,5 8,5 Q8.414,5 8.707,5.293 Q9,5.586 9,6 Z"/>
</svg>

