<svg xmlns="http://www.w3.org/2000/svg" width="22" height="21" viewBox="0 0 22 21">
  <defs/>
  <path fill="#212135" d="M4.228,16.197 C0.994,15.446 0,13.349 0,10.502 C0,6.903 2.105,4.498 7.275,4.498 C10.091,4.498 11.066,3.164 11.955,1.95 C12.699,0.933 13.382,0 15.031,0 C16.566,0 17.635,0.809 18.359,2.198 L20.277,0.298 C20.671,-0.093 21.31,-0.093 21.704,0.298 C22.099,0.688 22.099,1.321 21.704,1.712 L4.16,19.092 C3.766,19.482 3.127,19.482 2.733,19.092 C2.338,18.701 2.338,18.068 2.733,17.678 L4.228,16.197 Z"/>
  <path fill="#212135" d="M19.594,7.681 C19.536,6.862 18.552,6.531 17.966,7.112 L9.866,15.136 C9.274,15.722 9.632,16.767 10.353,17.188 C11.239,17.706 11.727,18.441 12.183,19.128 C12.837,20.114 13.425,21 15.031,21 C18.65,21 19.684,16.505 19.684,10.502 C19.684,9.516 19.656,8.572 19.594,7.681 Z"/>
</svg>

