<svg xmlns="http://www.w3.org/2000/svg" width="28" height="20" viewBox="0 0 28 20">
  <defs/>
  <path fill="#212135" d="M7.392,15.714 Q3.298,15.714 1.529,14.143 Q0,12.785 0,10.001 Q0,7.308 1.726,5.857 Q3.599,4.284 7.392,4.284 Q9.16,4.284 10.322,3.614 Q11.111,3.16 11.923,2.142 L12.176,1.82 L12.178,1.819 Q12.826,0.992 13.228,0.669 Q14.063,0 15.272,0 Q16.611,0 17.562,0.759 Q18.454,1.47 19.015,2.856 Q20,5.292 20,10.001 Q20,14.711 19.015,17.145 Q18.454,18.531 17.562,19.242 Q16.611,20 15.272,20 Q14.068,20 13.302,19.33 Q12.953,19.025 12.428,18.285 L12.426,18.282 Q12.234,18.012 12.12,17.857 Q11.378,16.847 10.544,16.383 Q9.34,15.714 7.392,15.714 Z M7.392,13.714 Q9.859,13.714 11.516,14.636 Q12.731,15.311 13.731,16.672 Q13.855,16.841 14.057,17.124 L14.059,17.128 Q14.448,17.675 14.618,17.825 Q14.819,18 15.272,18 Q15.911,18 16.316,17.678 Q16.797,17.294 17.161,16.395 Q18,14.321 18,10.001 Q18,5.681 17.161,3.607 Q16.797,2.706 16.315,2.322 Q15.911,2 15.272,2 Q14.766,2 14.479,2.23 Q14.257,2.408 13.751,3.054 L13.748,3.057 L13.487,3.388 Q12.439,4.704 11.32,5.348 Q9.694,6.284 7.392,6.284 Q4.328,6.284 3.013,7.389 Q2,8.24 2,10.001 Q2,11.886 2.857,12.647 Q4.058,13.714 7.392,13.714 Z"/>
  <path fill="#212135" d="M23.707,7.293 L25,8.586 L26.293,7.293 Q26.586,7 27,7 Q27.414,7 27.707,7.293 Q28,7.586 28,8 Q28,8.414 27.707,8.707 L26.414,10 L27.707,11.293 Q28,11.586 28,12 Q28,12.414 27.707,12.707 Q27.414,13 27,13 Q26.586,13 26.293,12.707 L25,11.414 L23.707,12.707 Q23.414,13 23,13 Q22.586,13 22.293,12.707 Q22,12.414 22,12 Q22,11.586 22.293,11.293 L23.586,10 L22.293,8.707 Q22,8.414 22,8 Q22,7.586 22.293,7.293 Q22.586,7 23,7 Q23.414,7 23.707,7.293 Z"/>
</svg>

