<svg xmlns="http://www.w3.org/2000/svg" width="28" height="20" viewBox="0 0 28 20">
  <defs/>
  <path fill="#212135" d="M7.36,15.714 C1.607,15.714 0,13.428 0,10.001 C0,6.574 2.13,4.284 7.36,4.284 C10.208,4.284 11.195,3.014 12.095,1.857 C12.847,0.889 13.538,0 15.206,0 C18.867,0 19.914,4.284 19.914,10.001 C19.914,15.719 18.867,20 15.206,20 C13.581,20 12.986,19.156 12.325,18.217 C11.495,17.04 10.561,15.714 7.36,15.714 Z"/>
  <path fill="#212135" d="M22.076,12.828 C21.687,12.438 21.687,11.805 22.076,11.414 L23.484,10 L22.076,8.586 C21.687,8.196 21.687,7.562 22.076,7.172 C22.465,6.781 23.095,6.781 23.484,7.172 L24.892,8.586 L26.3,7.171 C26.689,6.781 27.319,6.781 27.708,7.171 C28.097,7.562 28.097,8.195 27.708,8.586 L26.3,10 L27.708,11.415 C28.097,11.805 28.097,12.438 27.708,12.829 C27.32,13.219 26.689,13.219 26.3,12.829 L24.892,11.414 L23.484,12.828 C23.095,13.219 22.465,13.219 22.076,12.828 Z"/>
</svg>

