<svg xmlns="http://www.w3.org/2000/svg" width="22" height="21" viewBox="0 0 22 21">
  <defs/>
  <path fill="#212135" d="M7.207,14.499 C7.708,14.499 7.928,15.086 7.582,15.448 L6.921,16.14 C6.709,16.362 6.411,16.485 6.104,16.466 C1.365,16.164 0,13.853 0,10.502 C0,6.903 2.085,4.498 7.207,4.498 C9.996,4.498 10.963,3.164 11.844,1.95 C12.58,0.933 13.257,0 14.89,0 C16.75,0 17.921,1.21 18.617,3.213 C18.727,3.53 18.638,3.88 18.406,4.123 L18.387,4.143 C17.864,4.69 16.934,4.411 16.667,3.703 C16.388,2.96 16.083,2.539 15.82,2.314 C15.597,2.122 15.328,2 14.89,2 C14.489,2 14.342,2.098 14.205,2.216 C13.993,2.4 13.834,2.617 13.522,3.044 L13.522,3.045 C13.438,3.16 13.343,3.29 13.233,3.439 C12.781,4.049 12.132,4.866 11.118,5.495 C10.073,6.142 8.8,6.498 7.207,6.498 C4.927,6.498 3.685,7.036 3.025,7.633 C2.398,8.2 2,9.089 2,10.502 C2,12.05 2.342,12.896 2.873,13.404 C3.432,13.938 4.615,14.499 7.207,14.499 Z M11.252,15.454 C11.271,15.465 11.29,15.476 11.308,15.487 C12.382,16.13 13.027,16.975 13.469,17.622 C13.627,17.854 13.748,18.038 13.847,18.187 L13.847,18.187 C14.069,18.524 14.175,18.685 14.34,18.841 L14.347,18.847 C14.418,18.914 14.509,19 14.89,19 C15.328,19 15.597,18.878 15.821,18.686 C16.083,18.461 16.388,18.041 16.667,17.299 C17.239,15.777 17.5,13.453 17.5,10.502 C17.5,9.814 17.486,9.16 17.457,8.543 C17.443,8.252 17.547,7.968 17.748,7.757 C18.356,7.121 19.407,7.478 19.451,8.357 C19.485,9.045 19.5,9.762 19.5,10.502 C19.5,16.505 18.476,21 14.89,21 C13.299,21 12.717,20.114 12.069,19.128 C11.671,18.522 11.248,17.878 10.551,17.38 C9.987,16.976 9.748,16.127 10.228,15.626 C10.496,15.345 10.917,15.257 11.252,15.454 Z"/>
  <path fill="#212135" d="M2.274,19.312 L20.274,0.312 Q20.559,0.012 20.973,0 Q21.387,-0.011 21.688,0.274 Q21.988,0.559 22,0.973 Q22.011,1.387 21.726,1.688 L3.726,20.688 Q3.441,20.988 3.027,21 Q2.613,21.011 2.312,20.726 Q2.012,20.441 2,20.027 Q1.989,19.613 2.274,19.312 Z"/>
</svg>

