<svg xmlns="http://www.w3.org/2000/svg" width="24" height="24" viewBox="0 0 24 24">
  <defs/>
  <path fill="#212135" d="M8.14,15.87 Q6.326,15.913 3.744,14.499 Q-1.068,11.863 0.229,8.046 Q1.514,4.262 10.615,1.391 Q19.871,-1.528 22.701,1.303 Q25.53,4.134 22.603,13.414 Q19.723,22.545 15.947,23.786 Q12.148,25.034 9.515,20.246 Q8.102,17.677 8.14,15.87 Z M9.129,13.463 L11.783,10.812 Q12.076,10.52 12.49,10.52 Q12.904,10.52 13.197,10.813 Q13.49,11.106 13.489,11.52 Q13.489,11.935 13.196,12.227 L10.543,14.877 L10.542,14.878 Q9.448,15.975 11.267,19.282 Q13.101,22.616 15.323,21.886 Q18.124,20.965 20.695,12.812 Q23.257,4.689 21.286,2.717 Q19.315,0.744 11.216,3.298 Q3.082,5.864 2.122,8.689 Q1.366,10.916 4.705,12.745 Q8.027,14.564 9.128,13.464 Z"/>
</svg>

