<svg xmlns="http://www.w3.org/2000/svg" width="24" height="24" viewBox="0 0 24 24">
  <defs/>
  <path fill="#212135" d="M22.882,1.151 C23.634,1.915 23.859,2.978 23.944,3.75 C24.039,4.611 24.006,5.6 23.898,6.618 C23.682,8.664 23.131,11.104 22.393,13.453 C21.657,15.798 20.703,18.149 19.64,19.996 C19.11,20.916 18.517,21.774 17.864,22.451 C17.24,23.098 16.378,23.769 15.293,23.952 L15.287,23.953 C15.083,23.987 14.884,23.995 14.814,23.997 L14.8,23.998 C14.092,24.026 13.48,23.777 13.062,23.552 C12.616,23.312 12.197,22.996 11.823,22.664 C11.074,21.998 10.344,21.125 9.75,20.214 C9.424,19.715 9.116,19.168 8.864,18.602 C8.49,17.763 8.718,16.809 9.284,16.084 L12.715,12.041 C12.891,11.834 12.878,11.527 12.686,11.335 C12.493,11.144 12.186,11.131 11.978,11.306 L7.923,14.727 C7.15,15.327 6.128,15.559 5.244,15.139 C4.678,14.87 4.133,14.547 3.636,14.204 C2.696,13.558 1.795,12.756 1.134,11.92 C0.805,11.503 0.493,11.025 0.281,10.508 C0.076,10.008 -0.101,9.312 0.066,8.551 L0.067,8.55 C0.295,7.51 0.979,6.687 1.628,6.088 C2.311,5.456 3.17,4.877 4.092,4.354 C5.942,3.306 8.285,2.356 10.622,1.617 C12.96,0.878 15.386,0.322 17.42,0.103 C18.432,-0.006 19.418,-0.04 20.279,0.058 C21.052,0.145 22.121,0.378 22.882,1.151 Z"/>
</svg>

