<svg xmlns="http://www.w3.org/2000/svg" width="24" height="24" viewBox="0 0 24 24">
  <defs/>
  <path fill="#212135" d="M0,12 Q0,8.14 0.485,5.956 Q1.015,3.574 2.294,2.294 Q3.574,1.015 5.956,0.485 Q8.14,0 12,0 Q15.86,0 18.044,0.485 Q20.426,1.015 21.706,2.294 Q22.985,3.574 23.515,5.956 Q24,8.14 24,12 Q24,15.86 23.515,18.044 Q22.985,20.427 21.706,21.706 Q20.427,22.985 18.044,23.515 Q15.86,24 12,24 Q8.14,24 5.956,23.515 Q3.574,22.985 2.294,21.706 Q1.015,20.426 0.485,18.044 Q0,15.86 0,12 Z M2,12 Q2,15.64 2.438,17.61 Q2.841,19.424 3.708,20.292 Q4.576,21.159 6.39,21.562 Q8.36,22 12,22 Q15.64,22 17.61,21.562 Q19.424,21.159 20.292,20.292 Q21.159,19.424 21.562,17.61 Q22,15.64 22,12 Q22,8.36 21.562,6.39 Q21.159,4.576 20.292,3.708 Q19.424,2.841 17.61,2.438 Q15.64,2 12,2 Q8.359,2 6.39,2.438 Q4.576,2.841 3.708,3.708 Q2.841,4.576 2.438,6.39 Q2,8.359 2,12 Z"/>
  <path fill="#212135" d="M15.622,16.28 L15.535,16.335 C15.102,16.609 14.598,16.929 14.145,17.124 C13.641,17.342 12.604,17.67 11.561,17.01 C11.118,16.729 10.833,16.369 10.648,16.011 C10.347,16.2 10.001,16.408 9.679,16.548 C9.236,16.739 8.244,17.062 7.239,16.427 C6.304,15.836 6.115,14.876 6.057,14.445 C5.999,14.023 6,13.511 6,13.072 L6,12.985 L6,11.817 L6,11.729 C6,11.29 5.999,10.778 6.057,10.356 C6.115,9.926 6.304,8.966 7.239,8.375 C8.244,7.739 9.236,8.063 9.679,8.254 C10,8.393 10.347,8.601 10.648,8.79 C10.833,8.432 11.117,8.071 11.561,7.791 C12.604,7.131 13.641,7.458 14.145,7.676 C14.598,7.872 15.102,8.191 15.535,8.465 L15.622,8.52 L16.776,9.25 L16.86,9.303 C17.296,9.579 17.798,9.896 18.173,10.222 C18.61,10.602 19.245,11.308 19.245,12.4 C19.245,13.492 18.61,14.198 18.173,14.578 C17.798,14.904 17.296,15.221 16.86,15.497 Z M15.707,10.941 L14.553,10.211 C13.527,9.562 13.014,9.238 12.63,9.481 C12.245,9.724 12.245,10.373 12.245,11.67 L12.245,13.13 C12.245,14.427 12.245,15.076 12.63,15.319 C13.014,15.563 13.527,15.238 14.553,14.59 L15.707,13.86 C16.732,13.211 17.245,12.887 17.245,12.4 C17.245,11.913 16.732,11.589 15.707,10.941 Z M10.249,13.898 C10.245,13.674 10.245,13.448 10.245,13.229 L10.245,11.571 C10.245,11.353 10.245,11.127 10.249,10.904 L9.846,10.649 L9.846,10.649 C9.026,10.13 8.615,9.871 8.308,10.065 C8,10.26 8,10.779 8,11.817 L8,12.985 C8,14.023 8,14.542 8.308,14.736 C8.615,14.931 9.026,14.672 9.846,14.153 L9.846,14.153 Z"/>
</svg>

