<svg xmlns="http://www.w3.org/2000/svg" width="24" height="24" viewBox="0 0 24 24">
  <defs/>
  <path fill="#212135" d="M10.245,11.855 C10.04,11.68 9.737,11.488 9.334,11.233 L8.411,10.649 C7.591,10.13 7.18,9.871 6.873,10.065 C6.565,10.26 6.565,10.779 6.565,11.817 L6.565,12.985 C6.565,14.023 6.565,14.542 6.873,14.736 C7.18,14.931 7.591,14.671 8.411,14.152 L9.334,13.569 C9.737,13.314 10.04,13.122 10.245,12.947 L10.245,11.855 Z"/>
  <path fill="#212135" d="M17.245,12.4 C17.245,11.914 16.733,11.589 15.707,10.941 L14.553,10.211 C13.527,9.562 13.015,9.238 12.63,9.481 C12.245,9.724 12.245,10.373 12.245,11.67 L12.245,13.13 C12.245,14.427 12.245,15.076 12.63,15.319 C13.015,15.563 13.527,15.238 14.553,14.589 L15.707,13.86 C16.733,13.211 17.245,12.887 17.245,12.4 Z"/>
  <path fill="#212135" d="M0,12 C0,2.118 2.118,0 12,0 C21.882,0 24,2.118 24,12 C24,21.882 21.882,24 12,24 C2.118,24 0,21.882 0,12 Z M15.535,16.335 L16.86,15.497 C17.297,15.221 17.798,14.904 18.173,14.578 C18.61,14.198 19.245,13.492 19.245,12.4 C19.245,11.308 18.61,10.602 18.173,10.222 C17.798,9.896 17.297,9.579 16.86,9.303 L15.535,8.465 C15.102,8.191 14.598,7.872 14.146,7.676 C13.642,7.458 12.604,7.131 11.561,7.791 C10.797,8.274 10.504,8.997 10.381,9.529 L9.405,8.911 C9.066,8.696 8.636,8.424 8.244,8.254 C7.801,8.063 6.809,7.739 5.804,8.375 C4.869,8.966 4.68,9.926 4.622,10.356 C4.564,10.778 4.565,11.29 4.565,11.729 L4.565,13.072 C4.565,13.511 4.564,14.023 4.622,14.445 C4.68,14.876 4.869,15.836 5.804,16.427 C6.809,17.062 7.801,16.739 8.244,16.548 C8.636,16.378 9.066,16.105 9.405,15.891 L10.381,15.273 C10.505,15.804 10.797,16.527 11.561,17.01 C12.604,17.67 13.642,17.343 14.146,17.124 C14.598,16.929 15.102,16.609 15.535,16.335 Z"/>
</svg>

