<svg xmlns="http://www.w3.org/2000/svg" width="20" height="23" viewBox="0 0 20 23">
  <defs/>
  <path fill="#212135" d="M7.664,20.253 Q8.505,21 10,21 Q11.495,21 12.336,20.253 Q12.645,19.977 13.059,20.002 Q13.472,20.026 13.747,20.336 Q14.023,20.645 13.998,21.059 Q13.974,21.472 13.664,21.747 Q12.255,23 10,23 Q7.745,23 6.336,21.747 Q6.026,21.472 6.002,21.059 Q5.977,20.645 6.253,20.336 Q6.528,20.026 6.941,20.002 Q7.355,19.977 7.664,20.253 Z"/>
  <path fill="#212135" d="M10.999,1.052 C14.346,1.534 17.497,5.299 17,9.5 C16.743,10.786 17.544,11.461 18.383,12.167 C19.175,12.834 20,13.529 20,14.792 C20,16.5 19,17.5 17.532,17.972 C17.532,17.972 14.843,19 10,19 C5.157,19 2.468,17.972 2.468,17.972 C1,17.5 0,16.548 0,14.792 C-0.017,13.54 0.809,12.845 1.605,12.175 L1.605,12.175 C2.448,11.466 3.257,10.785 3,9.5 C2.504,5.299 5.654,1.535 9.001,1.052 C9,1.035 9,1.017 9,1 C9,0.448 9.448,0 10,0 C10.552,0 11,0.448 11,1 C11,1.017 11,1.035 10.999,1.052 Z M4.428,12.088 C3.988,12.783 3.371,13.303 2.992,13.622 L2.963,13.646 C2.002,14.456 1.997,14.566 2,14.766 L2,14.779 L2,14.792 C2,15.264 2.123,15.468 2.216,15.578 C2.334,15.719 2.579,15.907 3.08,16.068 L3.132,16.084 L3.175,16.101 L3.178,16.102 C3.187,16.105 3.206,16.112 3.235,16.122 C3.293,16.142 3.391,16.173 3.528,16.214 C3.803,16.295 4.234,16.409 4.813,16.525 C5.97,16.758 7.721,17 10,17 C12.279,17 14.03,16.758 15.188,16.525 C15.767,16.409 16.197,16.295 16.472,16.214 C16.609,16.173 16.707,16.142 16.765,16.122 C16.794,16.112 16.813,16.105 16.822,16.102 L16.825,16.101 L16.868,16.084 L16.92,16.068 C17.399,15.914 17.65,15.722 17.778,15.568 C17.883,15.441 18,15.229 18,14.793 C18,14.56 17.97,14.435 17.023,13.637 L16.994,13.613 C16.618,13.295 16.002,12.776 15.565,12.08 C15.06,11.278 14.823,10.311 15.021,9.203 C15.193,7.585 14.629,6.019 13.65,4.84 C12.638,3.62 11.35,3 10.281,3 L9.719,3 C8.65,3 7.362,3.62 6.35,4.84 C5.371,6.019 4.807,7.585 4.979,9.203 C5.178,10.317 4.934,11.287 4.428,12.088 Z"/>
</svg>

