<svg xmlns="http://www.w3.org/2000/svg" width="24" height="23" viewBox="0 0 24 23">
  <defs/>
  <path fill="#212135" d="M24,9.632 C24,10.116 23.603,10.508 23.112,10.508 C22.622,10.508 22.225,10.116 22.225,9.632 C22.225,7.204 21.408,5.249 20.044,3.903 C18.68,2.557 16.698,1.751 14.237,1.751 C13.747,1.751 13.349,1.359 13.349,0.876 C13.349,0.392 13.747,0 14.237,0 C17.101,0 19.557,0.946 21.299,2.665 C23.041,4.383 24,6.806 24,9.632 Z"/>
  <path fill="#212135" d="M19.562,10.508 C20.052,10.508 20.45,10.116 20.45,9.632 C20.45,6.084 17.834,3.503 14.237,3.503 C13.747,3.503 13.349,3.895 13.349,4.378 C13.349,4.862 13.747,5.254 14.237,5.254 C16.853,5.254 18.675,7.051 18.675,9.632 C18.675,10.116 19.072,10.508 19.562,10.508 Z"/>
  <path fill="#212135" d="M6.838,20.881 C6.536,21.262 6.603,21.812 6.989,22.111 C9.199,23.823 12.457,22.962 13.504,20.389 C13.687,19.94 13.466,19.43 13.011,19.25 C12.556,19.07 12.039,19.287 11.857,19.736 C11.251,21.226 9.365,21.725 8.085,20.733 C7.699,20.435 7.141,20.501 6.838,20.881 Z"/>
  <path fill="#212135" d="M6.359,3.649 C6.356,3.635 6.352,3.62 6.348,3.605 C6.221,3.138 5.735,2.861 5.261,2.986 C4.788,3.111 4.507,3.591 4.634,4.058 C4.638,4.073 4.642,4.088 4.647,4.102 C1.888,5.269 0.052,9.167 1.442,12.608 C1.958,13.637 1.42,14.396 0.861,15.187 C0.332,15.934 -0.216,16.708 0.086,17.764 C0.49,19.249 1.565,19.828 2.933,19.894 C2.933,19.894 5.474,20.154 9.626,19.057 C13.778,17.959 15.847,16.48 15.847,16.48 C16.997,15.748 17.625,14.676 17.232,13.231 C16.942,12.163 16.075,11.762 15.243,11.377 C14.362,10.97 13.52,10.581 13.445,9.435 C12.905,5.769 9.34,3.299 6.359,3.649 Z"/>
</svg>

