<svg xmlns="http://www.w3.org/2000/svg" width="20" height="24" viewBox="0 0 20 24">
  <defs/>
  <path fill="#212135" d="M11,1 C11,1.03 11.021,1.055 11.05,1.06 C11.799,1.175 12.536,1.454 13.224,1.865 C13.489,2.022 13.45,2.412 13.204,2.597 C12.473,3.144 12,4.017 12,5 C12,6.657 13.343,8 15,8 C15.489,8 15.95,7.883 16.357,7.676 C16.632,7.536 16.999,7.674 17.025,7.981 C17.067,8.477 17.061,8.985 17,9.5 C16.743,10.786 17.544,11.461 18.383,12.167 C19.175,12.834 20,13.529 20,14.793 C20,16.496 19.005,17.495 17.542,17.969 C17.535,17.971 17.529,17.973 17.523,17.976 C17.345,18.041 14.677,19 10,19 C5.323,19 2.655,18.041 2.478,17.976 C2.471,17.973 2.465,17.971 2.458,17.969 C0.995,17.495 0,16.544 0,14.793 C-0.017,13.54 0.809,12.845 1.605,12.175 C2.448,11.466 3.257,10.785 3,9.5 C2.506,5.321 5.621,1.573 8.95,1.06 C8.979,1.055 9,1.03 9,1 C9,0.448 9.448,0 10,0 C10.552,0 11,0.448 11,1 Z"/>
  <path fill="#212135" d="M6.227,21.6 C5.896,21.158 5.986,20.531 6.427,20.2 C6.869,19.869 7.496,19.958 7.827,20.4 C8.927,21.867 11.127,21.867 12.227,20.4 C12.559,19.958 13.185,19.869 13.627,20.2 C14.069,20.531 14.159,21.158 13.827,21.6 C11.927,24.133 8.127,24.133 6.227,21.6 Z"/>
  <path fill="#212135" d="M15,7 C16.105,7 17,6.105 17,5 C17,3.895 16.105,3 15,3 C13.895,3 13,3.895 13,5 C13,6.105 13.895,7 15,7 Z"/>
</svg>

