<svg xmlns="http://www.w3.org/2000/svg" width="28" height="26" viewBox="0 0 28 26">
  <defs/>
  <path fill="#212135" d="M9.541,23.478 Q10.719,24.237 12.187,23.914 Q13.591,23.605 14.102,22.561 Q14.284,22.188 14.676,22.054 Q15.067,21.92 15.439,22.102 Q15.812,22.284 15.946,22.676 Q16.08,23.067 15.898,23.439 Q14.963,25.351 12.617,25.867 Q10.335,26.369 8.459,25.16 Q8.11,24.936 8.023,24.531 Q7.935,24.126 8.159,23.778 Q8.384,23.429 8.788,23.342 Q9.193,23.254 9.541,23.478 Z"/>
  <path fill="#212135" d="M21.513,11 Q21.513,6 16.513,6 Q16.099,6 15.806,5.707 Q15.513,5.414 15.513,5 Q15.513,4.586 15.806,4.293 Q16.099,4 16.513,4 Q19.552,4 21.533,5.98 Q23.513,7.961 23.513,11 Q23.513,11.414 23.22,11.707 Q22.927,12 22.513,12 Q22.099,12 21.806,11.707 Q21.513,11.414 21.513,11 Z"/>
  <path fill="#212135" d="M25.513,11 Q25.513,6.914 23.056,4.457 Q20.599,2 16.513,2 Q16.099,2 15.806,1.707 Q15.513,1.414 15.513,1 Q15.513,0.586 15.806,0.293 Q16.099,0 16.513,0 Q21.427,0 24.47,3.043 Q27.513,6.086 27.513,11 Q27.513,11.414 27.22,11.707 Q26.927,12 26.513,12 Q26.099,12 25.806,11.707 Q25.513,11.414 25.513,11 Z"/>
  <path fill="#212135" d="M7.637,4.168 C10.996,3.767 15.013,6.588 15.621,10.774 C15.705,12.083 16.654,12.528 17.647,12.993 C18.584,13.432 19.561,13.889 19.888,15.11 C20.33,16.759 19.623,17.984 18.327,18.82 C18.327,18.82 15.996,20.509 11.318,21.762 C6.64,23.016 3.777,22.719 3.777,22.719 C2.236,22.643 1.024,21.983 0.57,20.286 C0.229,19.081 0.847,18.196 1.443,17.343 C2.073,16.44 2.679,15.573 2.098,14.398 C0.531,10.469 2.599,6.017 5.708,4.685 C5.703,4.668 5.698,4.651 5.693,4.635 C5.55,4.101 5.867,3.553 6.4,3.41 C6.934,3.267 7.482,3.583 7.625,4.117 C7.63,4.134 7.634,4.151 7.637,4.168 Z M4.147,16.528 C3.902,17.314 3.44,17.975 3.157,18.381 L3.135,18.412 C2.417,19.443 2.441,19.551 2.495,19.743 L2.498,19.756 L2.502,19.769 C2.624,20.224 2.795,20.389 2.913,20.472 C3.064,20.577 3.349,20.695 3.875,20.721 L3.929,20.724 L3.975,20.729 L3.979,20.729 C3.988,20.73 4.008,20.731 4.039,20.733 C4.1,20.737 4.203,20.743 4.346,20.746 C4.632,20.753 5.077,20.752 5.667,20.715 C6.845,20.64 8.599,20.42 10.8,19.83 C13.002,19.241 14.63,18.554 15.688,18.029 C16.217,17.767 16.604,17.545 16.848,17.396 C16.97,17.322 17.057,17.265 17.108,17.231 C17.133,17.214 17.15,17.203 17.157,17.198 L17.16,17.196 L17.198,17.169 L17.243,17.139 C17.666,16.867 17.859,16.616 17.942,16.435 C18.011,16.284 18.069,16.049 17.956,15.628 C17.896,15.403 17.835,15.291 16.713,14.764 L16.68,14.748 C16.233,14.539 15.505,14.197 14.902,13.638 C14.207,12.994 13.727,12.121 13.632,10.999 C13.38,9.392 12.429,8.026 11.179,7.14 C9.885,6.224 8.481,5.958 7.448,6.235 L6.906,6.38 C5.873,6.657 4.789,7.589 4.128,9.029 C3.487,10.422 3.347,12.08 3.933,13.599 C4.413,14.623 4.429,15.623 4.147,16.528 Z"/>
</svg>

