<svg xmlns="http://www.w3.org/2000/svg" width="20" height="24" viewBox="0 0 20 24">
  <defs/>
  <path fill="#212135" d="M10.999,1.052 C10.999,1.035 11,1.017 11,1 C11,0.448 10.552,0 10,0 C9.448,0 9,0.448 9,1 C9,1.017 9.001,1.035 9.001,1.052 C5.654,1.535 2.504,5.3 3,9.5 C3.257,10.785 2.448,11.466 1.605,12.175 C0.809,12.845 -0.017,13.54 0,14.793 C0,16.548 1,17.5 2.468,17.972 C2.468,17.972 5.157,19 10,19 C14.843,19 17.532,17.972 17.532,17.972 C19,17.5 20,16.5 20,14.793 C20,13.529 19.175,12.834 18.383,12.167 C17.544,11.461 16.743,10.786 17,9.5 C17.497,5.299 14.346,1.534 10.999,1.052 Z"/>
  <path fill="#212135" d="M6.427,20.2 C5.985,20.531 5.896,21.158 6.227,21.6 C8.127,24.133 11.927,24.133 13.827,21.6 C14.159,21.158 14.069,20.531 13.627,20.2 C13.186,19.869 12.559,19.958 12.227,20.4 C11.127,21.867 8.927,21.867 7.827,20.4 C7.496,19.958 6.869,19.869 6.427,20.2 Z"/>
</svg>

