<svg xmlns="http://www.w3.org/2000/svg" width="24" height="24" viewBox="0 0 24 24">
  <defs/>
  <path fill="#212135" d="M0,12 Q0,8.14 0.485,5.956 Q1.015,3.574 2.294,2.294 Q3.574,1.015 5.956,0.485 Q8.14,0 12,0 Q15.86,0 18.044,0.485 Q20.426,1.015 21.706,2.294 Q22.985,3.574 23.515,5.956 Q24,8.14 24,12 Q24,15.86 23.515,18.044 Q22.985,20.427 21.706,21.706 Q20.427,22.985 18.044,23.515 Q15.86,24 12,24 Q8.14,24 5.956,23.515 Q3.574,22.985 2.294,21.706 Q1.015,20.426 0.485,18.044 Q0,15.86 0,12 Z M2,12 Q2,15.64 2.438,17.61 Q2.841,19.424 3.708,20.292 Q4.576,21.159 6.39,21.562 Q8.36,22 12,22 Q15.64,22 17.61,21.562 Q19.424,21.159 20.292,20.292 Q21.159,19.424 21.562,17.61 Q22,15.64 22,12 Q22,8.36 21.562,6.39 Q21.159,4.576 20.292,3.708 Q19.424,2.841 17.61,2.438 Q15.64,2 12,2 Q8.359,2 6.39,2.438 Q4.576,2.841 3.708,3.708 Q2.841,4.576 2.438,6.39 Q2,8.359 2,12 Z"/>
  <path fill="#212135" d="M13,6.5 L13,10.234 L16.486,8.143 Q16.841,7.929 17.243,8.03 Q17.644,8.13 17.857,8.486 Q18.071,8.841 17.97,9.243 Q17.87,9.644 17.514,9.857 L13.944,12 L17.514,14.143 Q17.87,14.356 17.97,14.757 Q18.071,15.159 17.857,15.514 Q17.644,15.87 17.243,15.97 Q16.841,16.071 16.486,15.857 L13,13.766 L13,17.5 Q13,17.914 12.707,18.207 Q12.414,18.5 12,18.5 Q11.586,18.5 11.293,18.207 Q11,17.914 11,17.5 L11,13.766 L7.514,15.857 Q7.159,16.071 6.757,15.97 Q6.356,15.87 6.143,15.514 Q5.929,15.159 6.03,14.757 Q6.13,14.356 6.486,14.143 L10.056,12 L6.486,9.857 Q6.13,9.644 6.03,9.243 Q5.929,8.841 6.143,8.486 Q6.356,8.13 6.757,8.03 Q7.159,7.929 7.514,8.143 L11,10.234 L11,6.5 Q11,6.086 11.293,5.793 Q11.586,5.5 12,5.5 Q12.414,5.5 12.707,5.793 Q13,6.086 13,6.5 Z"/>
</svg>

