<svg xmlns="http://www.w3.org/2000/svg" width="24" height="24" viewBox="0 0 24 24">
  <defs/>
  <path fill="#212135" d="M12,24 C2.118,24 0,21.882 0,12 C0,2.118 2.118,0 12,0 C21.882,0 24,2.118 24,12 C24,21.882 21.882,24 12,24 Z M12,6 C11.448,6 11,6.448 11,7 L11,10.247 L8.12,8.584 C7.641,8.308 7.03,8.472 6.754,8.95 C6.477,9.428 6.641,10.04 7.12,10.316 L9.95,11.95 L7.12,13.584 C6.641,13.86 6.477,14.472 6.754,14.95 C7.03,15.428 7.641,15.592 8.12,15.316 L11,13.653 L11,17 C11,17.552 11.448,18 12,18 C12.552,18 13,17.552 13,17 L13,13.711 L15.78,15.316 C16.258,15.592 16.87,15.428 17.146,14.95 C17.422,14.472 17.258,13.86 16.78,13.584 L13.95,11.95 L16.78,10.316 C17.258,10.04 17.422,9.428 17.146,8.95 C16.87,8.472 16.258,8.308 15.78,8.584 L13,10.189 L13,7 C13,6.448 12.552,6 12,6 Z"/>
</svg>

