<svg xmlns="http://www.w3.org/2000/svg" width="24" height="24" viewBox="0 0 24 24">
  <defs/>
  <path fill="#212135" d="M13,1 L13,9 C13,9.552 12.552,10 12,10 L12,10 C11.448,10 11,9.552 11,9 L11,1 C11,0.448 11.448,0 12,0 L12,0 C12.552,0 13,0.448 13,1 Z"/>
  <path fill="#212135" d="M6,2.801 L6,2.94 C6,3.285 5.819,3.603 5.539,3.805 C5.199,4.05 4.887,4.316 4.602,4.602 C2.997,6.207 2,8.651 2,12 C2,15.349 2.997,17.793 4.602,19.398 C6.207,21.003 8.651,22 12,22 C15.349,22 17.793,21.003 19.398,19.398 C21.003,17.793 22,15.349 22,12 C22,8.651 21.003,6.207 19.398,4.602 C19.113,4.316 18.801,4.05 18.461,3.805 C18.181,3.603 18,3.285 18,2.94 L18,2.801 C18,2.067 18.764,1.591 19.372,2.001 C22.346,4.009 24,7.453 24,12 C24,19.5 19.5,24 12,24 C4.5,24 0,19.5 0,12 C0,7.453 1.654,4.009 4.628,2.001 C5.236,1.591 6,2.067 6,2.801 Z"/>
</svg>

