<svg xmlns="http://www.w3.org/2000/svg" width="24" height="24" viewBox="0 0 24 24">
  <defs/>
  <path fill="#212135" d="M16.102,1.503 C17.086,2.377 17.765,3.607 17.95,5.141 C17.966,5.277 18.068,5.388 18.202,5.413 C20.972,5.929 22.502,7.002 23.285,9.022 C23.333,9.144 23.289,9.283 23.184,9.361 C19.388,12.155 15.665,13.5 12,13.5 C8.335,13.5 4.612,12.155 0.816,9.361 C0.71,9.283 0.668,9.144 0.715,9.022 C1.498,7.002 3.028,5.929 5.798,5.413 C5.932,5.388 6.034,5.277 6.05,5.141 C6.235,3.607 6.914,2.377 7.898,1.503 C9.041,0.487 10.537,0 12,0 C13.463,0 14.959,0.487 16.102,1.503 Z M12,5 C13.313,5 14.488,5.03 15.54,5.099 C15.736,5.112 15.894,4.938 15.842,4.749 C15.638,3.997 15.25,3.422 14.773,2.997 C14.041,2.347 13.037,2 12,2 C10.963,2 9.959,2.347 9.227,2.997 C8.75,3.422 8.362,3.997 8.158,4.749 C8.106,4.938 8.264,5.112 8.46,5.099 C9.512,5.03 10.687,5 12,5 Z"/>
  <path fill="#212135" d="M0.575,11.639 C0.388,11.512 0.132,11.626 0.11,11.851 C0.033,12.644 0,13.524 0,14.5 C0,22.323 2.118,24 12,24 C21.882,24 24,22.323 24,14.5 C24,13.524 23.967,12.644 23.89,11.851 C23.868,11.626 23.612,11.512 23.425,11.639 C19.674,14.186 15.862,15.5 12,15.5 C8.138,15.5 4.326,14.186 0.575,11.639 Z"/>
</svg>

