<svg xmlns="http://www.w3.org/2000/svg" width="24" height="24" viewBox="0 0 24 24">
  <defs/>
  <path fill="#212135" d="M16.004,5.593 Q15.667,2 12,2 Q8.333,2 7.996,5.593 Q7.957,6.006 7.638,6.27 Q7.319,6.534 6.907,6.496 Q6.494,6.457 6.23,6.138 Q5.966,5.819 6.004,5.407 Q6.511,0 12,0 Q17.489,0 17.996,5.407 Q18.034,5.819 17.77,6.138 Q17.506,6.457 17.093,6.496 Q16.681,6.534 16.362,6.27 Q16.043,6.006 16.004,5.593 Z"/>
  <path fill="#212135" d="M0,14.5 Q0,10.847 0.723,9 Q1.632,6.68 4.234,5.808 Q6.646,5 12,5 Q17.354,5 19.766,5.808 Q22.368,6.68 23.277,9 Q24,10.847 24,14.5 Q24,20.367 21.706,22.184 Q20.426,23.197 18.044,23.616 Q15.86,24 12,24 Q8.14,24 5.956,23.616 Q3.574,23.197 2.294,22.184 Q0,20.367 0,14.5 Z M2,14.5 Q2,19.4 3.536,20.616 Q4.419,21.315 6.303,21.646 Q8.314,22 12,22 Q15.686,22 17.697,21.646 Q19.581,21.315 20.464,20.616 Q22,19.4 22,14.5 Q22,11.225 21.414,9.729 Q20.846,8.28 19.131,7.705 Q17.028,7 12,7 Q6.972,7 4.869,7.705 Q3.154,8.28 2.586,9.729 Q2,11.225 2,14.5 Z"/>
</svg>

