<svg xmlns="http://www.w3.org/2000/svg" width="24" height="24" viewBox="0 0 24 24">
  <defs/>
  <path fill="#212135" d="M11,12 C11,11.448 11.448,11 12,11 C12.552,11 13,11.448 13,12 C13,12.552 12.552,13 12,13 C11.448,13 11,12.552 11,12 Z M15,12 C15,11.448 15.448,11 16,11 C16.552,11 17,11.448 17,12 C17,12.552 16.552,13 16,13 C15.448,13 15,12.552 15,12 Z M8,11 C8.552,11 9,11.448 9,12 C9,12.552 8.552,13 8,13 C7.448,13 7,12.552 7,12 C7,11.448 7.448,11 8,11 Z"/>
  <path fill="#212135" d="M0,12 Q0,8.14 0.485,5.956 Q1.015,3.574 2.294,2.294 Q3.574,1.015 5.956,0.485 Q8.14,0 12,0 Q15.86,0 18.044,0.485 Q20.426,1.015 21.706,2.294 Q22.985,3.574 23.515,5.956 Q24,8.14 24,12 Q24,15.86 23.515,18.044 Q22.985,20.427 21.706,21.706 Q20.427,22.985 18.044,23.515 Q15.86,24 12,24 Q8.14,24 5.956,23.515 Q3.574,22.985 2.294,21.706 Q1.015,20.426 0.485,18.044 Q0,15.86 0,12 Z M2,12 Q2,15.64 2.438,17.61 Q2.841,19.424 3.708,20.292 Q4.576,21.159 6.39,21.562 Q8.36,22 12,22 Q15.64,22 17.61,21.562 Q19.424,21.159 20.292,20.292 Q21.159,19.424 21.562,17.61 Q22,15.64 22,12 Q22,8.36 21.562,6.39 Q21.159,4.576 20.292,3.708 Q19.424,2.841 17.61,2.438 Q15.64,2 12,2 Q8.359,2 6.39,2.438 Q4.576,2.841 3.708,3.708 Q2.841,4.576 2.438,6.39 Q2,8.359 2,12 Z"/>
</svg>

