<svg xmlns="http://www.w3.org/2000/svg" width="24" height="24" viewBox="0 0 24 24">
  <defs/>
  <path fill="#212135" d="M12,24 C2.118,24 0,21.882 0,12 C0,2.118 2.118,0 12,0 C21.882,0 24,2.118 24,12 C24,21.882 21.882,24 12,24 Z M12,11 C11.448,11 11,11.448 11,12 C11,12.552 11.448,13 12,13 C12.552,13 13,12.552 13,12 C13,11.448 12.552,11 12,11 Z M15,12 C15,12.552 15.448,13 16,13 C16.552,13 17,12.552 17,12 C17,11.448 16.552,11 16,11 C15.448,11 15,11.448 15,12 Z M8,11 C7.448,11 7,11.448 7,12 C7,12.552 7.448,13 8,13 C8.552,13 9,12.552 9,12 C9,11.448 8.552,11 8,11 Z"/>
</svg>

