<svg xmlns="http://www.w3.org/2000/svg" width="20" height="24" viewBox="0 0 20 24">
  <defs/>
  <path fill="#212135" d="M6.667,19.636 C6.667,23.23 7.059,24 8.889,24 C10.719,24 11.111,23.23 11.111,19.636 C11.111,16.043 10.719,15.273 8.889,15.273 C7.059,15.273 6.667,16.043 6.667,19.636 Z"/>
  <path fill="#212135" d="M17.701,5.548 C17.314,8.132 15.323,8.727 8.889,8.727 C1.569,8.727 0,7.957 0,4.364 C0,0.77 1.569,0 8.889,0 C15.597,0 17.476,0.647 17.743,3.521 C18.031,3.556 18.365,3.633 18.675,3.797 C19.538,4.253 20,5.173 20,6.5 L20,8.5 C20,9.773 19.642,10.896 18.941,11.717 C18.23,12.551 17.226,13 16.111,13 L11.111,13 C10.7,13 10.398,13.103 10.217,13.251 C10.07,13.371 9.889,13.611 9.889,14.182 L9.889,15.886 L9.889,16.253 L9.889,16.364 C9.889,16.916 9.441,17.364 8.889,17.364 C8.337,17.364 7.889,16.916 7.889,16.364 L7.889,14.182 C7.889,13.117 8.263,12.265 8.95,11.703 C9.602,11.17 10.411,11 11.111,11 L16.111,11 C16.663,11 17.103,10.79 17.42,10.419 C17.747,10.036 18,9.409 18,8.5 L18,6.5 C18,6.059 17.926,5.825 17.87,5.712 C17.822,5.616 17.777,5.585 17.742,5.566 C17.73,5.56 17.717,5.554 17.701,5.548 Z M8.889,6.727 C10.698,6.727 12.082,6.679 13.149,6.563 C14.234,6.444 14.849,6.268 15.197,6.098 C15.475,5.961 15.544,5.852 15.596,5.737 C15.685,5.541 15.778,5.154 15.778,4.364 C15.778,3.573 15.685,3.186 15.596,2.991 C15.544,2.875 15.475,2.766 15.197,2.63 C14.849,2.459 14.234,2.283 13.149,2.165 C12.082,2.048 10.698,2 8.889,2 C7.08,2 5.696,2.048 4.629,2.165 C3.543,2.283 2.929,2.459 2.581,2.63 C2.303,2.766 2.234,2.875 2.181,2.991 C2.093,3.186 2,3.573 2,4.364 C2,5.154 2.093,5.541 2.181,5.737 C2.234,5.852 2.303,5.961 2.581,6.098 C2.929,6.268 3.543,6.444 4.629,6.563 C5.696,6.679 7.08,6.727 8.889,6.727 Z"/>
</svg>

