<svg xmlns="http://www.w3.org/2000/svg" width="24" height="24" viewBox="0 0 24 24">
  <defs/>
  <path fill="#212135" d="M5.317,6.361 C-1.257,12.94 -1.579,15.436 3.489,20.508 C8.558,25.58 11.053,25.258 17.627,18.679 C25.589,10.594 25.586,10.591 20.371,5.441 L20.37,5.439 C20.081,5.154 19.776,4.852 19.454,4.532 C19.115,4.194 18.796,3.874 18.495,3.571 C14.229,-0.721 13.515,-1.438 8.735,3.039 L13.574,7.882 C15.069,7.917 16.27,9.14 16.27,10.644 C16.27,12.17 15.034,13.406 13.509,13.406 C12.001,13.406 10.775,12.197 10.749,10.694 L5.872,5.814 L5.317,6.361 Z"/>
  <path fill="#212135" d="M4.757,1.878 C4.412,2.223 4.412,2.782 4.757,3.126 L11.896,10.266 C11.868,10.387 11.853,10.514 11.853,10.644 C11.853,11.559 12.594,12.302 13.509,12.302 C14.424,12.302 15.166,11.559 15.166,10.644 C15.166,9.728 14.424,8.986 13.509,8.986 C13.387,8.986 13.267,9 13.152,9.025 L6.005,1.878 C5.66,1.533 5.101,1.533 4.757,1.878 Z"/>
  <path fill="#212135" d="M21.791,23.352 C23.011,23.352 24,22.422 24,21.276 C24,20.091 22.896,18.726 22.343,18.212 C21.791,17.698 21.791,17.698 21.239,18.212 C20.687,18.726 19.583,20.091 19.583,21.276 C19.583,22.422 20.572,23.352 21.791,23.352 Z"/>
</svg>

