<svg xmlns="http://www.w3.org/2000/svg" width="20" height="24" viewBox="0 0 20 24">
  <defs/>
  <path fill="#212135" d="M8.889,8.727 C16.209,8.727 17.778,7.957 17.778,4.364 C17.778,0.77 16.209,0 8.889,0 C1.569,0 0,0.77 0,4.364 C0,7.957 1.569,8.727 8.889,8.727 Z"/>
  <path fill="#212135" d="M6.667,19.636 C6.667,23.23 7.059,24 8.889,24 C10.719,24 11.111,23.23 11.111,19.636 C11.111,16.043 10.719,15.273 8.889,15.273 C7.059,15.273 6.667,16.043 6.667,19.636 Z"/>
  <path fill="#212135" d="M16.716,3.273 C18.53,3.273 20,4.691 20,6.441 L20,8.775 C20,10.389 18.725,11.924 17.078,11.924 L10.941,11.924 C10.28,11.924 9.967,12.436 9.967,12.974 L9.967,15.307 C9.967,15.891 9.477,16.364 8.873,16.364 C8.268,16.364 7.778,15.891 7.778,15.307 L7.778,12.974 C7.778,11.359 8.821,9.825 10.699,9.825 L16.837,9.825 C17.537,9.825 17.81,9.313 17.81,8.775 L17.81,6.441 C17.81,5.858 17.222,6 16.716,5.385 C16.04,5.385 15.556,3.273 16.716,3.273 Z"/>
</svg>

