<svg xmlns="http://www.w3.org/2000/svg" width="24" height="24" viewBox="0 0 24 24">
  <defs/>
  <path fill="#212135" d="M5.869,1.017 L13.299,8.475 C13.379,8.463 13.462,8.456 13.546,8.456 C14.472,8.456 15.223,9.21 15.223,10.14 C15.223,11.07 14.472,11.823 13.546,11.823 C12.62,11.823 11.869,11.07 11.869,10.14 C11.869,10.055 11.875,9.972 11.887,9.891 L4.452,2.428 C4.062,2.037 4.064,1.404 4.455,1.014 C4.846,0.624 5.479,0.626 5.869,1.017 Z"/>
  <path fill="#212135" d="M3.716,20.144 C-1.54,14.869 -1.314,12.381 4.992,6.051 C12.724,-1.588 12.727,-1.585 18.037,3.77 L18.037,3.77 C18.35,4.085 18.68,4.418 19.032,4.77 C19.365,5.103 19.682,5.417 19.982,5.715 L19.982,5.715 C25.387,11.074 25.39,11.078 17.756,18.863 C11.449,25.193 8.971,25.419 3.716,20.144 Z M11.016,3.097 C9.898,4.019 8.471,5.426 6.398,7.474 C4.851,9.027 3.759,10.265 3.038,11.317 C2.32,12.366 2.058,13.106 2.006,13.675 C1.91,14.735 2.482,16.072 5.127,18.727 C7.773,21.382 9.105,21.956 10.161,21.86 C10.727,21.808 11.465,21.545 12.509,20.824 C13.557,20.101 14.791,19.004 16.339,17.451 C18.379,15.371 19.782,13.936 20.703,12.812 C21.66,11.642 21.787,11.158 21.797,10.986 C21.802,10.917 21.816,10.631 21.1,9.766 C20.532,9.079 19.737,8.289 18.628,7.189 L18.627,7.188 C18.317,6.881 17.983,6.55 17.623,6.19 C17.242,5.808 16.892,5.456 16.57,5.131 L16.569,5.13 L16.569,5.13 C15.496,4.049 14.722,3.268 14.046,2.707 C13.18,1.987 12.894,2 12.825,2.004 C12.657,2.014 12.179,2.139 11.016,3.097 Z M22.392,18.268 C22.653,18.528 23.013,18.968 23.312,19.482 C23.604,19.982 23.9,20.656 23.9,21.359 C23.9,22.756 22.773,23.896 21.372,23.896 C19.972,23.896 18.845,22.756 18.845,21.359 C18.845,20.656 19.141,19.982 19.433,19.482 C19.733,18.968 20.093,18.528 20.353,18.268 L20.372,18.249 C20.459,18.162 20.569,18.053 20.673,17.97 C20.779,17.885 21.023,17.707 21.373,17.707 C21.722,17.707 21.966,17.886 22.073,17.971 C22.176,18.053 22.286,18.162 22.373,18.249 Z M20.902,20.338 C20.669,20.738 20.545,21.1 20.545,21.359 C20.545,21.826 20.92,22.196 21.372,22.196 C21.825,22.196 22.2,21.826 22.2,21.359 C22.2,21.1 22.076,20.738 21.844,20.338 C21.691,20.076 21.518,19.843 21.372,19.671 C21.228,19.843 21.054,20.076 20.902,20.338 Z"/>
</svg>

