<svg xmlns="http://www.w3.org/2000/svg" width="24" height="24" viewBox="0 0 24 24">
  <defs/>
  <path fill="#212135" d="M12,24 C3.5,24 0,20.5 0,12 C0,3.5 3.5,0 12,0 C20.5,0 24,3.5 24,12 C24,12.912 22.926,13.465 22.038,13.256 C21.305,13.083 20.462,13 19.5,13 C14.896,13 13,14.896 13,19.5 C13,20.462 13.083,21.305 13.256,22.038 C13.465,22.926 12.912,24 12,24 Z M8,9.5 C8,8.672 7.328,8 6.5,8 C5.672,8 5,8.672 5,9.5 C5,10.328 5.672,11 6.5,11 C7.328,11 8,10.328 8,9.5 Z M7.5,16 C8.328,16 9,15.328 9,14.5 C9,13.672 8.328,13 7.5,13 C6.672,13 6,13.672 6,14.5 C6,15.328 6.672,16 7.5,16 Z M10.5,7 C11.328,7 12,6.328 12,5.5 C12,4.672 11.328,4 10.5,4 C9.672,4 9,4.672 9,5.5 C9,6.328 9.672,7 10.5,7 Z M17,7.5 C17,6.672 16.328,6 15.5,6 C14.672,6 14,6.672 14,7.5 C14,8.328 14.672,9 15.5,9 C16.328,9 17,8.328 17,7.5 Z"/>
</svg>

