<svg xmlns="http://www.w3.org/2000/svg" width="24" height="24" viewBox="0 0 24 24">
  <defs/>
  <path fill="#212135" d="M0.006,2.793 C-0.065,2.3 0.513,2.132 0.866,2.484 L5.73,7.348 C5.925,7.543 6.022,7.641 6.098,7.768 C6.174,7.895 6.365,8.525 6.747,9.786 C6.86,10.157 7.062,10.506 7.356,10.8 C8.307,11.751 9.849,11.751 10.8,10.8 C11.751,9.849 11.751,8.307 10.8,7.356 C10.506,7.062 10.157,6.86 9.786,6.747 C8.525,6.365 7.895,6.174 7.768,6.098 C7.641,6.022 7.544,5.925 7.349,5.73 L2.484,0.865 C2.132,0.513 2.3,-0.065 2.793,0.006 L12.758,1.445 C15.281,1.81 17.444,3.446 18.483,5.776 L20.401,10.322 C20.705,11.043 20.857,11.404 20.787,11.763 C20.717,12.123 20.44,12.399 19.887,12.953 L12.952,19.887 C12.399,20.44 12.123,20.717 11.763,20.787 C11.404,20.858 11.043,20.705 10.322,20.401 L5.776,18.483 C3.446,17.444 1.81,15.281 1.445,12.758 L0.006,2.793 Z"/>
  <path fill="#212135" d="M15.565,20.521 C14.658,21.428 14.205,21.881 14.299,22.484 C14.393,23.086 14.833,23.313 15.712,23.766 C16.015,23.922 16.307,24 16.617,24 C17.611,24 18.411,23.2 20.011,21.6 L21.6,20.011 C23.2,18.411 24,17.611 24,16.617 C24,16.306 23.922,16.015 23.766,15.712 C23.313,14.833 23.086,14.393 22.484,14.299 C21.881,14.205 21.428,14.658 20.521,15.565 L15.565,20.521 Z"/>
</svg>

