<svg xmlns="http://www.w3.org/2000/svg" width="24" height="24" viewBox="0 0 24 24">
  <defs/>
  <path fill="#212135" d="M11.901,20.732 L5.788,18.133 L5.77,18.125 C3.418,17.07 1.758,14.886 1.379,12.34 L0.082,3.627 C-0.071,2.599 0.286,1.639 0.938,0.972 C1.607,0.288 2.591,-0.092 3.645,0.065 L12.367,1.361 C14.914,1.739 17.1,3.396 18.157,5.747 L18.165,5.765 L20.958,12.323 C20.974,12.359 20.987,12.396 20.998,12.433 L21.559,12.983 L21.606,13.03 C22.264,13.676 22.828,14.23 23.219,14.733 C23.637,15.271 23.953,15.869 23.953,16.607 C23.953,17.346 23.637,17.944 23.219,18.481 C22.828,18.984 22.264,19.538 21.606,20.184 L21.606,20.184 L21.559,20.231 L20.138,21.626 L20.091,21.672 C19.433,22.318 18.869,22.872 18.357,23.256 C17.81,23.666 17.209,23.97 16.475,23.97 C15.74,23.97 15.139,23.666 14.592,23.256 C14.08,22.872 13.516,22.318 12.858,21.672 L12.811,21.626 L11.931,20.762 Z M10.503,8.728 C10.903,9.11 10.918,9.743 10.537,10.142 C10.156,10.542 9.523,10.557 9.123,10.176 L2.079,3.459 L3.358,12.046 C3.635,13.911 4.852,15.517 6.58,16.297 L12.474,18.803 L15.809,15.527 L18.854,12.485 L16.329,6.558 C15.549,4.832 13.941,3.616 12.073,3.339 L3.518,2.068 Z M14.086,20.076 L14.212,20.199 C14.931,20.904 15.399,21.362 15.791,21.655 C16.159,21.931 16.342,21.97 16.475,21.97 C16.607,21.97 16.79,21.931 17.158,21.655 C17.55,21.362 18.018,20.904 18.737,20.199 L20.157,18.804 C20.876,18.098 21.341,17.638 21.64,17.254 C21.921,16.892 21.953,16.721 21.953,16.607 C21.953,16.493 21.921,16.322 21.64,15.96 C21.341,15.576 20.876,15.116 20.157,14.41 L19.979,14.235 L17.216,16.948 Z"/>
  <path fill="#212135" d="M11.644,9.16 C11.662,10.325 10.732,11.269 9.565,11.269 C8.398,11.269 7.437,10.325 7.419,9.16 C7.4,7.995 8.331,7.05 9.498,7.05 C10.665,7.05 11.625,7.995 11.644,9.16 Z"/>
</svg>

