<svg xmlns="http://www.w3.org/2000/svg" width="24" height="24" viewBox="0 0 24 24">
  <defs/>
  <path fill="#212135" d="M6,12 C6,13.105 6.895,14 8,14 C9.105,14 10,13.105 10,12 C10,10.895 9.105,10 8,10 C6.895,10 6,10.895 6,12 Z"/>
  <path fill="#212135" d="M12,24 C2.118,24 0,21.882 0,12 C0,2.118 2.118,0 12,0 C21.882,0 24,2.118 24,12 C24,21.882 21.882,24 12,24 Z M4,12 C4,14.209 5.791,16 8,16 C10.209,16 12,14.209 12,12 C12,9.791 10.209,8 8,8 C5.791,8 4,9.791 4,12 Z M20,10 C20,9.448 19.552,9 19,9 L15,9 C14.448,9 14,9.448 14,10 C14,10.552 14.448,11 15,11 L19,11 C19.552,11 20,10.552 20,10 Z M19,13 L15,13 C14.448,13 14,13.448 14,14 C14,14.552 14.448,15 15,15 L19,15 C19.552,15 20,14.552 20,14 C20,13.448 19.552,13 19,13 Z"/>
</svg>

