<svg xmlns="http://www.w3.org/2000/svg" width="24" height="24" viewBox="0 0 24 24">
  <defs/>
  <path fill="#212135" d="M14,12 C14,13.105 14.895,14 16,14 C17.105,14 18,13.105 18,12 C18,10.895 17.105,10 16,10 C14.895,10 14,10.895 14,12 Z"/>
  <path fill="#212135" d="M12,24 C2.118,24 0,21.882 0,12 C0,2.118 2.118,0 12,0 C21.882,0 24,2.118 24,12 C24,21.882 21.882,24 12,24 Z M12,12 C12,14.209 13.791,16 16,16 C18.209,16 20,14.209 20,12 C20,9.791 18.209,8 16,8 C13.791,8 12,9.791 12,12 Z M10,10 C10,9.448 9.552,9 9,9 L5,9 C4.448,9 4,9.448 4,10 C4,10.552 4.448,11 5,11 L9,11 C9.552,11 10,10.552 10,10 Z M9,13 L5,13 C4.448,13 4,13.448 4,14 C4,14.552 4.448,15 5,15 L9,15 C9.552,15 10,14.552 10,14 C10,13.448 9.552,13 9,13 Z"/>
</svg>

