<svg xmlns="http://www.w3.org/2000/svg" width="22" height="24" viewBox="0 0 22 24">
  <defs/>
  <path fill="#212135" d="M21.502,5.729 C21.993,6.008 22.167,6.63 21.812,7.065 C21.476,7.476 21.09,7.848 20.661,8.17 C19.96,8.698 19.16,9.085 18.307,9.31 C17.955,9.402 17.597,9.467 17.236,9.502 C16.971,9.528 16.825,9.848 16.989,10.055 C17.005,10.075 17.021,10.095 17.037,10.116 C17.876,11.19 18.492,12.415 18.849,13.723 C19.206,15.03 19.297,16.393 19.117,17.735 C18.982,18.743 18.695,19.724 18.269,20.647 C18.035,21.154 17.402,21.318 16.91,21.039 L9.626,16.911 C9.478,16.827 9.29,16.877 9.205,17.021 L5.397,23.496 C5.113,23.978 4.485,24.143 3.994,23.865 C3.502,23.586 3.334,22.97 3.618,22.487 L7.426,16.013 C7.511,15.869 7.46,15.684 7.313,15.6 L0.503,11.741 C0.012,11.462 -0.16,10.842 0.17,10.389 C0.771,9.566 1.493,8.832 2.315,8.213 C3.409,7.389 4.657,6.785 5.989,6.434 C7.321,6.084 8.71,5.995 10.077,6.171 C10.082,6.172 10.086,6.173 10.091,6.173 C10.355,6.208 10.563,5.922 10.452,5.685 C10.295,5.349 10.167,4.999 10.069,4.641 C9.84,3.803 9.782,2.93 9.897,2.07 C9.968,1.544 10.102,1.03 10.297,0.538 C10.503,0.019 11.139,-0.144 11.63,0.134 L21.502,5.729 Z"/>
</svg>

