<svg xmlns="http://www.w3.org/2000/svg" width="22" height="24" viewBox="0 0 22 24">
  <defs/>
  <path fill="#212135" d="M16.417,20.878 L-0.429,11.153 L0.23,10.253 Q1.094,9.074 2.254,8.184 Q3.867,6.946 5.831,6.42 Q7.795,5.894 9.811,6.159 Q11.827,6.425 13.588,7.441 Q15.349,8.458 16.587,10.071 Q17.825,11.684 18.351,13.648 Q18.877,15.613 18.612,17.629 Q18.421,19.078 17.832,20.415 L17.382,21.436 Z M16.384,18.55 Q16.549,17.971 16.629,17.367 Q16.842,15.746 16.419,14.166 Q15.996,12.586 15,11.289 Q14.004,9.991 12.588,9.173 Q11.172,8.356 9.55,8.142 Q7.928,7.929 6.349,8.352 Q4.769,8.775 3.471,9.771 Q2.988,10.141 2.569,10.574 L16.384,18.55 Z"/>
  <path fill="#212135" d="M11.402,0.217 L21.895,6.275 L21.117,7.189 Q20.667,7.719 20.115,8.142 Q19.082,8.935 17.824,9.272 Q16.565,9.609 15.274,9.439 Q13.982,9.269 12.854,8.618 Q11.726,7.966 10.933,6.933 Q10.14,5.899 9.803,4.641 Q9.466,3.382 9.636,2.091 Q9.697,1.628 9.822,1.181 L9.822,1.037 Q9.822,0.482 10.143,0.235 L10.363,-0.383 Z M11.59,2.635 Q11.537,3.387 11.735,4.123 Q11.969,4.997 12.52,5.715 Q13.071,6.433 13.854,6.886 Q14.638,7.338 15.535,7.456 Q16.432,7.574 17.306,7.34 Q18.042,7.143 18.667,6.721 L11.59,2.635 Z M11.822,1.037 L10.878,1.037 L10.549,1.695 L10.902,1.083 L11.78,1.396 Q11.822,1.237 11.822,1.037 Z"/>
  <path fill="#212135" d="M3.143,22.486 L7.643,14.986 Q7.856,14.63 8.257,14.53 Q8.659,14.429 9.014,14.643 Q9.37,14.856 9.47,15.257 Q9.571,15.659 9.357,16.014 L4.857,23.514 Q4.644,23.87 4.243,23.97 Q3.841,24.071 3.486,23.857 Q3.13,23.644 3.03,23.243 Q2.929,22.841 3.143,22.486 Z"/>
</svg>

