<svg xmlns="http://www.w3.org/2000/svg" width="22" height="22" viewBox="0 0 22 22">
  <defs/>
  <path fill="#212135" d="M20.171,5.498 L19.876,6.454 L18.92,6.159 L19.215,5.203 Q20.753,5.677 21.509,6.878 Q22.305,8.14 21.823,9.429 Q20.426,13.168 16.797,16.797 Q13.168,20.426 9.429,21.823 Q8.14,22.305 6.878,21.509 Q5.677,20.753 5.203,19.215 L6.159,18.92 L6.454,19.876 L5.498,20.171 L4.909,18.259 L5.865,17.965 L6.159,18.92 L5.201,19.205 L5.2,19.205 L5.201,19.208 L5.203,19.214 L5.202,19.211 L5.196,19.189 L5.173,19.117 L5.087,18.836 L4.774,17.821 L2.654,10.941 L1.006,5.593 L0.363,3.506 L0.173,2.891 L0.122,2.726 L0.109,2.683 L0.106,2.672 L0.104,2.667 L0.104,2.667 L0.101,2.656 L1.06,2.374 L1.355,3.329 L0.399,3.624 L-0.19,1.712 L0.766,1.418 L1.06,2.374 L0.105,2.668 Q-0.277,1.431 0.577,0.577 Q1.431,-0.277 2.668,0.105 L11.972,2.972 L17.707,4.739 L18.795,5.074 L19.104,5.169 L19.187,5.195 L19.207,5.201 L19.216,5.204 L19.234,5.209 L19.266,5.221 L18.92,6.159 L19.115,5.178 L19.115,5.178 L18.92,6.159 L17.965,5.865 L18.259,4.909 L20.171,5.498 Z M18.259,4.909 L19.215,5.203 L20.171,5.498 L19.611,7.315 L18.649,7.125 L18.575,7.097 L18.92,6.159 L18.639,7.119 L18.621,7.113 L18.62,7.113 L18.597,7.106 L18.516,7.081 L18.206,6.985 L17.118,6.65 L11.383,4.883 L2.079,2.016 Q1.994,1.99 1.992,1.992 Q1.99,1.994 2.016,2.079 L2.31,3.035 L0.399,3.624 L0.105,2.668 L-0.19,1.712 L1.734,1.12 L2.02,2.092 L1.06,2.374 L2.013,2.07 L2.017,2.082 L2.017,2.082 L2.02,2.094 L2.034,2.137 L2.085,2.302 L2.274,2.918 L2.917,5.004 L4.565,10.353 L6.685,17.233 L6.998,18.247 L7.084,18.527 L7.107,18.601 L7.112,18.617 L7.114,18.624 L7.117,18.632 L7.118,18.635 L7.4,19.585 L5.498,20.171 L5.203,19.215 L4.909,18.259 L6.82,17.67 L7.115,18.626 Q7.371,19.456 7.944,19.817 Q8.368,20.085 8.729,19.95 Q12.061,18.705 15.383,15.383 Q18.705,12.061 19.95,8.729 Q20.085,8.368 19.817,7.944 Q19.456,7.371 18.626,7.115 L17.67,6.82 L18.259,4.909 Z"/>
</svg>

