<svg xmlns="http://www.w3.org/2000/svg" width="22" height="22" viewBox="0 0 22 22">
  <defs/>
  <path fill="#212135" d="M4.874,18.147 C5.488,17.791 6.22,17.346 6.838,16.913 C8.921,15.454 10.328,14.387 12.476,12.239 C14.624,10.09 15.692,8.683 17.151,6.601 C17.523,6.069 17.905,5.453 18.231,4.9 L16.272,4.297 C15.99,5.109 15.424,5.797 14.674,6.23 C13.847,6.707 12.866,6.836 11.944,6.589 C11.022,6.342 10.237,5.739 9.76,4.913 C9.283,4.087 9.153,3.105 9.4,2.183 L9.506,2.212 L2.668,0.105 C1.019,-0.404 -0.404,1.019 0.105,2.668 L1.184,6.17 C2.465,5.799 3.842,5.938 5.024,6.561 C6.232,7.199 7.138,8.29 7.542,9.596 C7.946,10.901 7.814,12.313 7.177,13.522 C6.552,14.707 5.49,15.601 4.218,16.016 L4.874,18.147 Z"/>
  <path fill="#212135" d="M3.357,13.224 C3.888,13.038 4.33,12.658 4.593,12.159 C4.87,11.636 4.926,11.024 4.751,10.459 C4.577,9.893 4.184,9.421 3.661,9.145 C3.163,8.882 2.586,8.818 2.044,8.963 L3.357,13.224 Z"/>
  <path fill="#212135" d="M11.353,2.781 L14.32,3.695 C14.191,4.017 13.957,4.288 13.654,4.464 C13.296,4.67 12.871,4.726 12.472,4.619 C12.073,4.512 11.732,4.251 11.526,3.893 C11.331,3.556 11.27,3.159 11.353,2.781 Z"/>
  <path fill="#212135" d="M20.136,5.603 C19.764,6.246 19.277,7.05 18.789,7.748 C17.287,9.892 16.146,11.397 13.89,13.653 C11.635,15.908 10.13,17.049 7.986,18.551 C7.25,19.066 6.396,19.579 5.738,19.958 C5.677,19.993 5.618,20.027 5.56,20.06 C6.36,21.521 7.901,22.394 9.429,21.823 C11.321,21.116 13.479,20.115 16.797,16.797 C20.115,13.479 21.116,11.321 21.823,9.429 C22.384,7.928 21.552,6.414 20.136,5.603 Z"/>
</svg>

