<svg xmlns="http://www.w3.org/2000/svg" width="24" height="24" viewBox="0 0 24 24">
  <defs/>
  <path fill="#212135" d="M13.74,10.054 C15.176,10.919 15.894,11.351 15.894,12 C15.894,12.649 15.176,13.081 13.74,13.946 L12.124,14.919 C10.688,15.784 9.97,16.217 9.432,15.892 C8.894,15.568 8.894,14.703 8.894,12.973 L8.894,11.027 C8.894,9.297 8.894,8.432 9.432,8.108 C9.97,7.783 10.688,8.216 12.124,9.081 L13.74,10.054 Z"/>
  <path fill="#212135" d="M12,24 C2.118,24 0,21.882 0,12 C0,2.118 2.118,0 12,0 C21.882,0 24,2.118 24,12 C24,21.882 21.882,24 12,24 Z M14.872,15.599 C15.501,15.22 16.154,14.828 16.631,14.432 C17.16,13.994 17.894,13.214 17.894,12 C17.894,10.786 17.16,10.006 16.631,9.568 C16.154,9.172 15.501,8.78 14.872,8.401 L13.054,7.306 C12.427,6.928 11.774,6.534 11.204,6.299 C10.584,6.044 9.494,5.735 8.4,6.395 C7.338,7.035 7.073,8.111 6.981,8.758 C6.893,9.375 6.893,10.148 6.894,10.911 L6.894,13.089 C6.893,13.852 6.893,14.625 6.981,15.241 C7.073,15.889 7.338,16.965 8.4,17.605 C9.494,18.265 10.584,17.956 11.204,17.701 C11.774,17.466 12.427,17.072 13.054,16.694 Z"/>
</svg>

