<svg xmlns="http://www.w3.org/2000/svg" width="24" height="24" viewBox="0 0 24 24">
  <defs/>
  <path fill="#212135" d="M0,12 Q0,8.14 0.485,5.956 Q1.015,3.574 2.294,2.294 Q3.574,1.015 5.956,0.485 Q8.14,0 12,0 Q15.86,0 18.044,0.485 Q20.426,1.015 21.706,2.294 Q22.985,3.574 23.515,5.956 Q24,8.14 24,12 Q24,15.86 23.515,18.044 Q22.985,20.427 21.706,21.706 Q20.427,22.985 18.044,23.515 Q15.86,24 12,24 Q8.14,24 5.956,23.515 Q3.574,22.985 2.294,21.706 Q1.015,20.426 0.485,18.044 Q0,15.86 0,12 Z M2,12 Q2,15.64 2.438,17.61 Q2.841,19.424 3.708,20.292 Q4.576,21.159 6.39,21.562 Q8.36,22 12,22 Q15.64,22 17.61,21.562 Q19.424,21.159 20.292,20.292 Q21.159,19.424 21.562,17.61 Q22,15.64 22,12 Q22,8.36 21.562,6.39 Q21.159,4.576 20.292,3.708 Q19.424,2.841 17.61,2.438 Q15.64,2 12,2 Q8.359,2 6.39,2.438 Q4.576,2.841 3.708,3.708 Q2.841,4.576 2.438,6.39 Q2,8.359 2,12 Z"/>
  <path fill="#212135" d="M17.894,12 Q17.894,13.386 16.631,14.432 Q16.156,14.826 14.837,15.62 L14.835,15.621 L14.772,15.659 L13.156,16.632 L13.091,16.672 Q11.772,17.467 11.204,17.701 Q9.633,18.348 8.4,17.605 Q7.216,16.892 6.981,15.241 Q6.893,14.627 6.894,13.045 L6.894,10.955 Q6.893,9.373 6.981,8.758 Q7.216,7.108 8.4,6.395 Q9.633,5.652 11.204,6.299 Q11.771,6.533 13.091,7.328 L13.091,7.328 L13.156,7.368 L14.772,8.341 L14.835,8.379 Q16.155,9.174 16.631,9.568 Q17.894,10.614 17.894,12 Z M15.894,12 Q15.894,11.554 15.355,11.108 Q14.995,10.81 13.804,10.092 L13.74,10.054 L12.124,9.081 L12.059,9.042 L12.059,9.041 Q10.869,8.324 10.442,8.148 Q9.802,7.885 9.432,8.108 Q9.062,8.331 8.961,9.04 Q8.893,9.514 8.894,10.954 L8.894,13.045 Q8.893,14.486 8.961,14.96 Q9.062,15.669 9.432,15.892 Q9.802,16.115 10.442,15.852 Q10.869,15.675 12.059,14.958 L12.124,14.919 L13.74,13.946 L13.804,13.907 L13.805,13.907 Q14.996,13.19 15.355,12.892 Q15.894,12.446 15.894,12 Z"/>
</svg>

