<svg xmlns="http://www.w3.org/2000/svg" width="24" height="24" viewBox="0 0 24 24">
  <defs/>
  <path fill="#212135" d="M0,12 Q0,8.14 0.485,5.956 Q1.015,3.574 2.294,2.294 Q3.574,1.015 5.956,0.485 Q8.14,0 12,0 Q15.86,0 18.044,0.485 Q20.426,1.015 21.706,2.294 Q22.985,3.574 23.515,5.956 Q24,8.14 24,12 Q24,15.86 23.515,18.044 Q22.985,20.427 21.706,21.706 Q20.427,22.985 18.044,23.515 Q15.86,24 12,24 Q8.14,24 5.956,23.515 Q3.574,22.985 2.294,21.706 Q1.015,20.426 0.485,18.044 Q0,15.86 0,12 Z M2,12 Q2,15.64 2.438,17.61 Q2.841,19.424 3.708,20.292 Q4.576,21.159 6.39,21.562 Q8.36,22 12,22 Q15.64,22 17.61,21.562 Q19.424,21.159 20.292,20.292 Q21.159,19.424 21.562,17.61 Q22,15.64 22,12 Q22,8.36 21.562,6.39 Q21.159,4.576 20.292,3.708 Q19.424,2.841 17.61,2.438 Q15.64,2 12,2 Q8.359,2 6.39,2.438 Q4.576,2.841 3.708,3.708 Q2.841,4.576 2.438,6.39 Q2,8.359 2,12 Z"/>
  <path fill="#212135" d="M8.623,16.28 L7.385,15.497 C6.949,15.221 6.447,14.904 6.072,14.578 C5.635,14.198 5,13.492 5,12.4 C5,11.308 5.635,10.602 6.072,10.222 C6.447,9.896 6.949,9.579 7.385,9.303 L7.469,9.25 L8.623,8.52 L8.71,8.465 C9.143,8.191 9.647,7.872 10.1,7.676 C10.604,7.458 11.641,7.131 12.684,7.791 C13.128,8.071 13.412,8.432 13.597,8.79 C13.898,8.601 14.245,8.393 14.566,8.254 C15.009,8.063 16.001,7.739 17.006,8.375 C17.941,8.966 18.13,9.926 18.188,10.356 C18.246,10.777 18.245,11.288 18.245,11.726 L18.245,11.729 L18.245,11.817 L18.245,12.985 L18.245,13.072 L18.245,13.076 C18.245,13.514 18.246,14.025 18.188,14.445 C18.13,14.876 17.941,15.836 17.006,16.427 C16.001,17.062 15.009,16.739 14.566,16.548 C14.245,16.408 13.898,16.2 13.597,16.011 C13.412,16.369 13.127,16.729 12.684,17.01 C11.641,17.67 10.604,17.342 10.1,17.124 C9.647,16.929 9.143,16.609 8.71,16.335 Z M8.538,10.941 C7.513,11.589 7,11.913 7,12.4 C7,12.887 7.513,13.211 8.538,13.86 L9.692,14.59 C10.718,15.238 11.231,15.563 11.615,15.319 C12,15.076 12,14.427 12,13.13 L12,11.67 C12,10.373 12,9.724 11.615,9.481 C11.231,9.238 10.718,9.562 9.692,10.211 Z M13.996,13.898 L14.399,14.153 L14.399,14.153 C15.22,14.672 15.63,14.931 15.937,14.736 C16.245,14.542 16.245,14.023 16.245,12.985 L16.245,11.817 C16.245,10.779 16.245,10.26 15.937,10.065 C15.63,9.871 15.22,10.13 14.399,10.649 L14.399,10.649 L13.996,10.904 C14,11.127 14,11.353 14,11.571 L14,13.229 C14,13.448 14,13.674 13.996,13.898 Z"/>
</svg>

