<svg xmlns="http://www.w3.org/2000/svg" width="24" height="24" viewBox="0 0 24 24">
  <defs/>
  <path fill="#212135" d="M13.565,12.947 L13.565,11.855 C13.77,11.68 14.074,11.488 14.476,11.233 L15.399,10.649 C16.22,10.13 16.63,9.871 16.938,10.065 C17.245,10.26 17.245,10.779 17.245,11.817 L17.245,12.985 C17.245,14.023 17.245,14.542 16.938,14.736 C16.63,14.931 16.22,14.671 15.399,14.152 L14.476,13.569 C14.074,13.314 13.77,13.122 13.565,12.947 Z"/>
  <path fill="#212135" d="M6.565,12.4 C6.565,11.914 7.078,11.589 8.103,10.941 L9.257,10.211 C10.283,9.562 10.796,9.238 11.18,9.481 C11.565,9.724 11.565,10.373 11.565,11.67 L11.565,13.13 C11.565,14.427 11.565,15.076 11.18,15.319 C10.796,15.563 10.283,15.238 9.257,14.589 L8.103,13.86 C7.078,13.211 6.565,12.887 6.565,12.4 Z"/>
  <path fill="#212135" d="M0,12 C0,2.118 2.118,0 12,0 C21.882,0 24,2.118 24,12 C24,21.882 21.882,24 12,24 C2.118,24 0,21.882 0,12 Z M8.275,16.335 C8.708,16.609 9.212,16.929 9.665,17.124 C10.169,17.343 11.206,17.67 12.249,17.01 C13.013,16.527 13.306,15.804 13.429,15.273 L14.405,15.891 C14.744,16.105 15.174,16.378 15.566,16.548 C16.009,16.739 17.002,17.062 18.007,16.427 C18.941,15.836 19.13,14.876 19.189,14.445 C19.246,14.023 19.246,13.511 19.245,13.072 L19.245,11.729 C19.246,11.29 19.246,10.778 19.189,10.356 C19.13,9.926 18.941,8.966 18.007,8.375 C17.002,7.739 16.009,8.063 15.566,8.254 C15.174,8.424 14.744,8.696 14.405,8.911 L13.429,9.529 C13.306,8.997 13.014,8.274 12.249,7.791 C11.206,7.131 10.169,7.458 9.665,7.676 C9.212,7.872 8.708,8.191 8.275,8.465 L6.95,9.303 C6.514,9.579 6.012,9.896 5.637,10.222 C5.2,10.602 4.565,11.308 4.565,12.4 C4.565,13.492 5.2,14.198 5.637,14.578 C6.012,14.904 6.514,15.221 6.95,15.497 Z"/>
</svg>

