<svg xmlns="http://www.w3.org/2000/svg" width="24" height="26" viewBox="0 0 24 26">
  <defs/>
  <path fill="#212135" d="M20,11 A1 1 0 1 1 18,11 A1 1 0 1 1 20,11 Z"/>
  <path fill="#212135" d="M17.965,6.408 C17.987,6.124 18,5.79 18,5.397 C18,3.245 17.621,2.871 17.352,2.69 C17.114,2.529 16.652,2.334 15.733,2.196 C14.823,2.06 13.617,2 12,2 C10.383,2 9.177,2.06 8.267,2.196 C7.348,2.334 6.886,2.529 6.648,2.69 C6.379,2.871 6,3.245 6,5.397 C6,5.79 6.013,6.124 6.035,6.408 C5.292,6.491 4.636,6.597 4.056,6.733 C4.017,6.327 4,5.883 4,5.397 C4,0.953 5.412,0 12,0 C18.588,0 20,0.953 20,5.397 C20,5.883 19.983,6.327 19.944,6.733 C19.364,6.597 18.708,6.491 17.965,6.408 Z"/>
  <path fill="#212135" d="M4,20 Q4,17.375 4.124,16.531 Q4.311,15.266 4.996,14.75 Q5.681,14.234 7.361,14.094 Q8.481,14 11.968,14 Q15.482,14 16.611,14.094 Q18.306,14.234 18.996,14.75 Q19.686,15.266 19.875,16.531 Q20,17.375 20,20 Q20,23.729 18.444,24.875 Q17.587,25.507 15.991,25.766 Q14.545,26 11.968,26 Q9.392,26 7.955,25.766 Q6.37,25.507 5.523,24.875 Q4,23.737 4,20 Z M6,20 Q6,22.735 6.72,23.273 Q7.175,23.612 8.276,23.792 Q9.554,24 11.968,24 Q14.384,24 15.671,23.791 Q16.789,23.61 17.258,23.265 Q18,22.718 18,20 Q18,17.523 17.896,16.826 Q17.829,16.375 17.799,16.352 Q17.568,16.18 16.446,16.087 Q15.399,16 11.968,16 Q8.565,16 7.528,16.087 Q6.423,16.179 6.199,16.348 Q6.17,16.37 6.103,16.823 Q6,17.522 6,20 Z"/>
  <path fill="#212135" d="M2,13.487 C2,15.129 2.07,16.18 2.262,16.912 C2.427,17.539 2.647,17.805 2.963,18.009 C3.196,18.16 3.54,18.312 4.061,18.448 C4.019,18.917 4,19.433 4,20 C4,20.168 4.002,20.331 4.005,20.49 C0.445,19.728 0,17.857 0,13.487 C0,6.936 2,6 12,6 C23,6 24,6.936 24,13.487 C24,17.857 23.555,19.728 19.995,20.49 C19.998,20.331 20,20.168 20,20 C20,19.433 19.981,18.917 19.939,18.448 C20.46,18.312 20.804,18.16 21.038,18.009 C21.353,17.805 21.573,17.539 21.738,16.912 C21.93,16.18 22,15.129 22,13.487 C22,11.846 21.93,10.794 21.738,10.063 C21.573,9.435 21.353,9.169 21.038,8.965 C20.615,8.692 19.829,8.414 18.285,8.235 C16.769,8.06 14.744,8 12,8 C9.512,8 7.612,8.059 6.143,8.235 C4.657,8.412 3.799,8.689 3.281,9.001 C2.538,9.448 2,10.252 2,13.487 Z"/>
</svg>

