<svg xmlns="http://www.w3.org/2000/svg" width="24" height="24" viewBox="0 0 24 24">
  <defs/>
  <path fill="#212135" d="M4,5.397 C4,5.476 4.074,5.534 4.151,5.516 C5.95,5.108 8.479,5 12,5 C15.629,5 18.169,5.095 19.945,5.443 C19.974,5.448 20,5.426 20,5.397 C20,0.953 18.588,0 12,0 C5.412,0 4,0.953 4,5.397 Z"/>
  <path fill="#212135" d="M21.276,19.198 C21.141,19.248 21,19.144 21,19 C21,16.407 21,14.935 20.271,14.099 C19.312,13 17.095,13 11.964,13 C6.886,13 4.684,13 3.73,14.091 C3,14.926 3,16.399 3,19 C3,19.144 2.859,19.248 2.724,19.198 C0.333,18.319 0,16.532 0,13 C0,6.875 2,6 12,6 C23,6 24,6.875 24,13 C24,16.532 23.667,18.319 21.276,19.198 Z M21,10 C21,9.448 20.552,9 20,9 C19.448,9 19,9.448 19,10 C19,10.552 19.448,11 20,11 C20.552,11 21,10.552 21,10 Z"/>
  <path fill="#212135" d="M11.968,24 C5.406,24 4,23.167 4,19 C4,16.885 4,15.665 4.603,14.961 C5.425,14 7.37,14 11.968,14 C16.613,14 18.572,14 19.398,14.967 C20,15.672 20,16.892 20,19 C20,23.167 18.529,24 11.968,24 Z"/>
</svg>

