<svg xmlns="http://www.w3.org/2000/svg" width="24" height="23" viewBox="0 0 24 23">
  <defs/>
  <path fill="#212135" d="M18.025,1.022 C18.025,0.458 18.472,0 19.025,0 C19.577,0 20.025,0.458 20.025,1.022 L20.025,1.107 C20.026,1.8 20.028,2.898 19.36,3.764 C18.623,4.719 17.336,5.111 15.5,5.111 C14.769,5.111 14.307,5.27 14.009,5.46 C13.713,5.648 13.507,5.91 13.358,6.241 C13.107,6.8 13.045,7.478 13.03,8.132 C14.212,8.03 15.298,7.756 16.21,7.355 C17.234,6.905 18,6.644 19,6.644 C22,6.644 24,10.241 24,15.322 C24,18.808 23.551,21.032 22.1,22.417 C20.349,24.089 17.975,21.827 16.553,19.856 C15.453,18.331 13.821,17.364 12,17.364 C10.179,17.364 8.547,18.331 7.447,19.856 C6.025,21.827 3.651,24.089 1.9,22.417 C0.449,21.032 0,18.808 0,15.322 C0,10.241 2,6.644 5,6.644 C6,6.644 6.766,6.905 7.79,7.355 C8.717,7.763 9.823,8.039 11.028,8.137 C11.041,7.377 11.119,6.325 11.541,5.387 C11.824,4.76 12.268,4.159 12.952,3.724 C13.633,3.291 14.481,3.067 15.5,3.067 C17.164,3.067 17.639,2.692 17.79,2.497 C17.981,2.249 18.025,1.87 18.025,1.022 Z M2,13.289 C2,13.853 2.448,14.311 3,14.311 L4,14.311 L4,15.333 C4,15.898 4.448,16.356 5,16.356 C5.552,16.356 6,15.898 6,15.333 L6,14.311 L7,14.311 C7.552,14.311 8,13.853 8,13.289 C8,12.724 7.552,12.267 7,12.267 L6,12.267 L6,11.244 C6,10.68 5.552,10.222 5,10.222 C4.448,10.222 4,10.68 4,11.244 L4,12.267 L3,12.267 C2.448,12.267 2,12.724 2,13.289 Z M20,15.333 C20,14.769 19.552,14.311 19,14.311 C18.448,14.311 18,14.769 18,15.333 C18,15.898 18.448,16.356 19,16.356 C19.552,16.356 20,15.898 20,15.333 Z M20,11.244 C20,10.68 19.552,10.222 19,10.222 C18.448,10.222 18,10.68 18,11.244 C18,11.809 18.448,12.267 19,12.267 C19.552,12.267 20,11.809 20,11.244 Z M17,14.311 C17.552,14.311 18,13.853 18,13.289 C18,12.724 17.552,12.267 17,12.267 C16.448,12.267 16,12.724 16,13.289 C16,13.853 16.448,14.311 17,14.311 Z M21,14.311 C21.552,14.311 22,13.853 22,13.289 C22,12.724 21.552,12.267 21,12.267 C20.448,12.267 20,12.724 20,13.289 C20,13.853 20.448,14.311 21,14.311 Z"/>
</svg>

