<svg xmlns="http://www.w3.org/2000/svg" width="28" height="27" viewBox="0 0 28 27">
  <defs/>
  <path fill="#212135" d="M21,14 C20.448,14 20,13.552 20,13 C20,12.448 20.448,12 21,12 C21.552,12 22,12.448 22,13 C22,13.552 21.552,14 21,14 Z M19,16 C18.448,16 18,15.552 18,15 C18,14.448 18.448,14 19,14 C19.552,14 20,14.448 20,15 C20,15.552 19.552,16 19,16 Z M23,16 C22.448,16 22,15.552 22,15 C22,14.448 22.448,14 23,14 C23.552,14 24,14.448 24,15 C24,15.552 23.552,16 23,16 Z M22,17 C22,17.552 21.552,18 21,18 C20.448,18 20,17.552 20,17 C20,16.448 20.448,16 21,16 C21.552,16 22,16.448 22,17 Z"/>
  <path fill="#212135" d="M8,13 L8,14 L9,14 Q9.414,14 9.707,14.293 Q10,14.586 10,15 Q10,15.414 9.707,15.707 Q9.414,16 9,16 L8,16 L8,17 Q8,17.414 7.707,17.707 Q7.414,18 7,18 Q6.586,18 6.293,17.707 Q6,17.414 6,17 L6,16 L5,16 Q4.586,16 4.293,15.707 Q4,15.414 4,15 Q4,14.586 4.293,14.293 Q4.586,14 5,14 L6,14 L6,13 Q6,12.586 6.293,12.293 Q6.586,12 7,12 Q7.414,12 7.707,12.293 Q8,12.586 8,13 Z"/>
  <path fill="#212135" d="M20.025,1 C20.025,0.448 20.473,0 21.025,0 C21.577,0 22.025,0.448 22.025,1 L22.025,1.083 L22.025,1.083 C22.026,1.761 22.028,2.835 21.36,3.682 C20.623,4.616 19.336,5 17.5,5 C16.799,5 16.354,5.172 16.058,5.384 C15.755,5.6 15.529,5.914 15.362,6.318 C15.154,6.824 15.066,7.4 15.028,7.947 C15.946,7.854 16.761,7.641 17.419,7.358 C18.528,6.881 19.593,6.5 21,6.5 C23.408,6.5 25.231,7.949 26.353,9.873 C27.458,11.768 28,14.269 28,16.989 C28,20.414 27.593,23.403 25.465,25.392 C24.661,26.142 23.688,26.515 22.664,26.5 C21.704,26.485 20.853,26.133 20.179,25.732 C18.854,24.942 17.716,23.66 16.943,22.611 C16.16,21.549 15.091,20.987 14,20.987 C12.909,20.987 11.84,21.549 11.057,22.611 C10.284,23.66 9.146,24.942 7.821,25.732 C7.147,26.133 6.296,26.485 5.336,26.5 C4.311,26.515 3.339,26.142 2.535,25.392 C0.407,23.403 0,20.414 0,16.989 C0,14.269 0.543,11.768 1.647,9.873 C2.769,7.949 4.592,6.5 7,6.5 C8.407,6.5 9.472,6.881 10.581,7.358 C11.251,7.646 12.084,7.862 13.023,7.952 C13.064,7.235 13.182,6.361 13.513,5.557 C13.784,4.899 14.214,4.244 14.896,3.757 C15.583,3.265 16.451,3 17.5,3 C19.164,3 19.64,2.634 19.79,2.443 C19.982,2.2 20.025,1.829 20.025,1 Z M13.936,9.998 C12.38,9.99 10.946,9.692 9.79,9.195 C8.766,8.755 8,8.5 7,8.5 C4,8.5 2,12.019 2,16.989 C2,20.399 2.449,22.575 3.9,23.93 C5.651,25.566 8.025,23.353 9.447,21.425 C10.547,19.932 12.179,18.987 14,18.987 C15.821,18.987 17.453,19.932 18.553,21.425 C19.975,23.353 22.349,25.566 24.1,23.93 C25.551,22.575 26,20.399 26,16.989 C26,12.019 24,8.5 21,8.5 C20,8.5 19.234,8.755 18.21,9.195 C17.054,9.692 15.62,9.99 14.064,9.998 C14.043,9.999 14.021,10 14,10 C13.979,10 13.957,9.999 13.936,9.998 Z"/>
</svg>

