<svg xmlns="http://www.w3.org/2000/svg" width="24" height="16" viewBox="0 0 24 16">
  <defs/>
  <path fill="#212135" d="M0,8.489 C0,3.519 2,0 5,0 C6,0 6.766,0.255 7.79,0.695 C8.962,1.199 10.42,1.498 12,1.498 C13.58,1.498 15.038,1.199 16.21,0.695 C17.234,0.255 18,0 19,0 C22,0 24,3.519 24,8.489 C24,11.899 23.551,14.075 22.1,15.43 C20.349,17.066 17.975,14.853 16.553,12.925 C15.453,11.432 13.821,10.487 12,10.487 C10.179,10.487 8.547,11.432 7.447,12.925 C6.025,14.853 3.651,17.066 1.9,15.43 C0.449,14.075 0,11.899 0,8.489 Z M2,6.5 C2,7.052 2.448,7.5 3,7.5 L4,7.5 L4,8.5 C4,9.052 4.448,9.5 5,9.5 C5.552,9.5 6,9.052 6,8.5 L6,7.5 L7,7.5 C7.552,7.5 8,7.052 8,6.5 C8,5.948 7.552,5.5 7,5.5 L6,5.5 L6,4.5 C6,3.948 5.552,3.5 5,3.5 C4.448,3.5 4,3.948 4,4.5 L4,5.5 L3,5.5 C2.448,5.5 2,5.948 2,6.5 Z M20,8.5 C20,7.948 19.552,7.5 19,7.5 C18.448,7.5 18,7.948 18,8.5 C18,9.052 18.448,9.5 19,9.5 C19.552,9.5 20,9.052 20,8.5 Z M20,4.5 C20,3.948 19.552,3.5 19,3.5 C18.448,3.5 18,3.948 18,4.5 C18,5.052 18.448,5.5 19,5.5 C19.552,5.5 20,5.052 20,4.5 Z M17,7.5 C17.552,7.5 18,7.052 18,6.5 C18,5.948 17.552,5.5 17,5.5 C16.448,5.5 16,5.948 16,6.5 C16,7.052 16.448,7.5 17,7.5 Z M21,7.5 C21.552,7.5 22,7.052 22,6.5 C22,5.948 21.552,5.5 21,5.5 C20.448,5.5 20,5.948 20,6.5 C20,7.052 20.448,7.5 21,7.5 Z"/>
</svg>

