<svg xmlns="http://www.w3.org/2000/svg" width="28" height="21" viewBox="0 0 28 21">
  <defs/>
  <path fill="#212135" d="M22,11 C22,11.552 21.552,12 21,12 C20.448,12 20,11.552 20,11 C20,10.448 20.448,10 21,10 C21.552,10 22,10.448 22,11 Z M19,10 C18.448,10 18,9.552 18,9 C18,8.448 18.448,8 19,8 C19.552,8 20,8.448 20,9 C20,9.552 19.552,10 19,10 Z M23,10 C22.448,10 22,9.552 22,9 C22,8.448 22.448,8 23,8 C23.552,8 24,8.448 24,9 C24,9.552 23.552,10 23,10 Z M21,8 C20.448,8 20,7.552 20,7 C20,6.448 20.448,6 21,6 C21.552,6 22,6.448 22,7 C22,7.552 21.552,8 21,8 Z"/>
  <path fill="#212135" d="M7,0.5 Q8.586,0.5 10.581,1.358 Q12.068,1.998 14,1.998 Q15.932,1.998 17.419,1.358 Q19.414,0.5 21,0.5 Q24.386,0.5 26.353,3.873 Q28,6.699 28,10.989 Q28,17.024 25.465,19.391 Q24.253,20.524 22.664,20.499 Q21.436,20.481 20.179,19.732 Q18.511,18.739 16.943,16.611 Q15.745,14.987 14,14.987 Q12.255,14.987 11.057,16.611 Q9.489,18.738 7.821,19.732 Q6.564,20.481 5.336,20.499 Q3.747,20.524 2.535,19.391 Q0,17.024 0,10.989 Q0,6.699 1.647,3.873 Q3.614,0.5 7,0.5 Z M7,2.5 Q4.763,2.5 3.375,4.881 Q2,7.239 2,10.989 Q2,16.155 3.9,17.93 Q4.523,18.512 5.306,18.5 Q5.999,18.489 6.797,18.014 Q8.118,17.227 9.447,15.425 Q11.244,12.987 14,12.987 Q16.756,12.987 18.553,15.425 Q19.882,17.227 21.203,18.014 Q22.001,18.489 22.694,18.5 Q23.477,18.512 24.1,17.93 Q26,16.155 26,10.989 Q26,7.239 24.625,4.881 Q23.237,2.5 21,2.5 Q19.826,2.5 18.21,3.195 Q16.344,3.998 14,3.998 Q11.656,3.998 9.79,3.195 Q8.174,2.5 7,2.5 Z"/>
  <path fill="#212135" d="M8,7 L8,8 L9,8 Q9.414,8 9.707,8.293 Q10,8.586 10,9 Q10,9.414 9.707,9.707 Q9.414,10 9,10 L8,10 L8,11 Q8,11.414 7.707,11.707 Q7.414,12 7,12 Q6.586,12 6.293,11.707 Q6,11.414 6,11 L6,10 L5,10 Q4.586,10 4.293,9.707 Q4,9.414 4,9 Q4,8.586 4.293,8.293 Q4.586,8 5,8 L6,8 L6,7 Q6,6.586 6.293,6.293 Q6.586,6 7,6 Q7.414,6 7.707,6.293 Q8,6.586 8,7 Z"/>
</svg>

