<svg xmlns="http://www.w3.org/2000/svg" width="23" height="24" viewBox="0 0 23 24">
  <defs/>
  <path fill="#212135" d="M21.978,13 C21.433,13 21,12.545 21,12 C21,8.288 20.109,5.874 18.681,4.384 C17.268,2.909 15.003,2 11.5,2 C7.997,2 5.732,2.909 4.319,4.384 C3.628,5.105 3.062,6.043 2.663,7.239 C2.515,7.681 2.114,8 1.648,8 C0.999,8 0.513,7.398 0.709,6.78 C2.14,2.26 5.737,0 11.5,0 C19.167,0 23,4 23,12 L23,12.044 C22.999,12.579 22.558,13 22.023,13 Z M20.337,16.761 C20.485,16.319 20.886,16 21.352,16 C22,16 22.487,16.602 22.291,17.22 C20.86,21.74 17.263,24 11.5,24 C3.833,24 0,20 0,12 C0,11.985 0,11.971 0,11.956 C0.001,11.421 0.443,11 0.977,11 L1.022,11 C1.567,11 2,11.455 2,12 C2,15.712 2.891,18.126 4.319,19.616 C5.732,21.091 7.997,22 11.5,22 C15.003,22 17.268,21.091 18.681,19.616 C19.372,18.895 19.938,17.957 20.337,16.761 Z"/>
  <path fill="#212135" d="M2,1 L2,6 L7,6 Q7.414,6 7.707,6.293 Q8,6.586 8,7 Q8,7.414 7.707,7.707 Q7.414,8 7,8 L1,8 Q0.586,8 0.293,7.707 Q0,7.414 0,7 L0,1 Q0,0.586 0.293,0.293 Q0.586,0 1,0 Q1.414,0 1.707,0.293 Q2,0.586 2,1 Z"/>
  <path fill="#212135" d="M21,23 L21,18 L16,18 Q15.586,18 15.293,17.707 Q15,17.414 15,17 Q15,16.586 15.293,16.293 Q15.586,16 16,16 L22,16 Q22.414,16 22.707,16.293 Q23,16.586 23,17 L23,23 Q23,23.414 22.707,23.707 Q22.414,24 22,24 Q21.586,24 21.293,23.707 Q21,23.414 21,23 Z"/>
</svg>

