<svg xmlns="http://www.w3.org/2000/svg" width="23" height="24" viewBox="0 0 23 24">
  <defs/>
  <path fill="#212135" d="M1.022,13 L0.977,13 C0.443,13 0.001,12.579 0,12.044 C0,12.029 0,12.015 0,12 C0,4 3.833,0 11.5,0 C17.263,0 20.86,2.26 22.291,6.78 C22.487,7.398 22,8 21.352,8 C20.886,8 20.485,7.681 20.337,7.239 C19.938,6.043 19.372,5.105 18.681,4.384 C17.268,2.909 15.003,2 11.5,2 C7.997,2 5.732,2.909 4.319,4.384 C2.891,5.874 2,8.288 2,12 C2,12.545 1.567,13 1.022,13 Z M2.663,16.761 C3.062,17.957 3.628,18.895 4.319,19.616 C5.732,21.091 7.997,22 11.5,22 C15.003,22 17.268,21.091 18.681,19.616 C20.109,18.126 21,15.712 21,12 C21,11.455 21.433,11 21.978,11 L22.023,11 C22.558,11 22.999,11.421 23,11.956 L23,12 C23,20 19.167,24 11.5,24 C5.737,24 2.14,21.74 0.709,17.22 C0.513,16.602 0.999,16 1.648,16 C2.114,16 2.515,16.319 2.663,16.761 Z"/>
  <path fill="#212135" d="M23,1 L23,7 Q23,7.414 22.707,7.707 Q22.414,8 22,8 L16,8 Q15.586,8 15.293,7.707 Q15,7.414 15,7 Q15,6.586 15.293,6.293 Q15.586,6 16,6 L21,6 L21,1 Q21,0.586 21.293,0.293 Q21.586,0 22,0 Q22.414,0 22.707,0.293 Q23,0.586 23,1 Z"/>
  <path fill="#212135" d="M0,23 L0,17 Q0,16.586 0.293,16.293 Q0.586,16 1,16 L7,16 Q7.414,16 7.707,16.293 Q8,16.586 8,17 Q8,17.414 7.707,17.707 Q7.414,18 7,18 L2,18 L2,23 Q2,23.414 1.707,23.707 Q1.414,24 1,24 Q0.586,24 0.293,23.707 Q0,23.414 0,23 Z"/>
</svg>

