<svg xmlns="http://www.w3.org/2000/svg" width="24" height="24" viewBox="0 0 24 24">
  <defs/>
  <path fill="#212135" d="M12,24 C2.118,24 0,21.882 0,12 C0,2.118 2.118,0 12,0 C21.882,0 24,2.118 24,12 C24,21.882 21.882,24 12,24 Z M10.707,16.707 L14.707,12.707 C15.098,12.317 15.098,11.683 14.707,11.293 L10.707,7.293 C10.317,6.902 9.683,6.902 9.293,7.293 C8.902,7.683 8.902,8.317 9.293,8.707 L12.586,12 L9.293,15.293 C8.902,15.683 8.902,16.317 9.293,16.707 C9.683,17.098 10.317,17.098 10.707,16.707 Z"/>
</svg>

