<svg xmlns="http://www.w3.org/2000/svg" width="18" height="12" viewBox="0 0 18 12">
  <defs/>
  <path fill="#212135" d="M12.707,0.293 L17.707,5.293 Q17.848,5.434 17.924,5.617 Q18,5.801 18,6 Q18,6.174 17.942,6.337 Q17.933,6.36 17.924,6.383 Q17.848,6.566 17.707,6.707 L12.707,11.707 Q12.566,11.848 12.383,11.924 Q12.199,12 12,12 Q11.801,12 11.617,11.924 Q11.434,11.848 11.293,11.707 Q11.152,11.566 11.076,11.383 Q11,11.199 11,11 Q11,10.801 11.076,10.617 Q11.152,10.434 11.293,10.293 L14.586,7 L1,7 Q0.801,7 0.617,6.924 Q0.434,6.848 0.293,6.707 Q0.152,6.566 0.076,6.383 Q0,6.199 0,6 Q0,5.801 0.076,5.617 Q0.152,5.434 0.293,5.293 Q0.434,5.152 0.617,5.076 Q0.801,5 1,5 L14.586,5 L11.293,1.707 Q11.152,1.566 11.076,1.383 Q11,1.199 11,1 Q11,0.801 11.076,0.617 Q11.152,0.434 11.293,0.293 Q11.434,0.152 11.617,0.076 Q11.801,0 12,0 Q12.199,0 12.383,0.076 Q12.566,0.152 12.707,0.293 Z"/>
</svg>

