<svg xmlns="http://www.w3.org/2000/svg" width="8" height="14" viewBox="0 0 8 14">
  <defs/>
  <path fill="#212135" d="M1.707,0.293 L7.707,6.293 Q7.848,6.434 7.924,6.617 Q8,6.801 8,7 Q8,7.199 7.924,7.383 Q7.848,7.566 7.707,7.707 L1.707,13.707 Q1.566,13.848 1.383,13.924 Q1.199,14 1,14 Q0.801,14 0.617,13.924 Q0.434,13.848 0.293,13.707 Q0.152,13.566 0.076,13.383 Q0,13.199 0,13 Q0,12.801 0.076,12.617 Q0.152,12.434 0.293,12.293 L5.586,7 L0.293,1.707 Q0.152,1.566 0.076,1.383 Q0,1.199 0,1 Q0,0.801 0.076,0.617 Q0.152,0.434 0.293,0.293 Q0.434,0.152 0.617,0.076 Q0.801,0 1,0 Q1.199,0 1.383,0.076 Q1.566,0.152 1.707,0.293 Z"/>
</svg>

