<svg xmlns="http://www.w3.org/2000/svg" width="25" height="24" viewBox="0 0 25 24">
  <defs/>
  <path fill="#212135" d="M2,12 C2,15.691 2.922,18.093 4.416,19.585 C5.911,21.078 8.315,22 12.01,22 C15.706,22 18.11,21.078 19.605,19.585 C20.959,18.232 21.844,16.131 21.997,13 C22.024,12.448 22.469,12 23.021,12 C23.573,12 24.024,12.451 23.999,13.002 C23.672,20.334 19.676,24 12.01,24 C4.003,24 0,20 0,12 C0,4 4.003,0 12.01,0 Q21.032,0 23.277,6.77 C23.483,7.391 22.995,8 22.341,8 C21.879,8 21.481,7.687 21.328,7.251 C20.913,6.066 20.325,5.135 19.605,4.415 C18.11,2.922 15.706,2 12.01,2 C8.315,2 5.911,2.922 4.416,4.415 C2.922,5.908 2,8.309 2,12 Z"/>
  <path fill="#212135" d="M24.02,1 L24.02,7 Q24.02,7.414 23.727,7.707 Q23.434,8 23.02,8 L17.015,8 Q16.601,8 16.308,7.707 Q16.015,7.414 16.015,7 Q16.015,6.586 16.308,6.293 Q16.601,6 17.015,6 L22.02,6 L22.02,1 Q22.02,0.586 22.313,0.293 Q22.606,0 23.02,0 Q23.434,0 23.727,0.293 Q24.02,0.586 24.02,1 Z"/>
</svg>

