<svg xmlns="http://www.w3.org/2000/svg" width="25" height="24" viewBox="0 0 25 24">
  <defs/>
  <path fill="#212135" d="M23,12 C23,8.309 22.078,5.908 20.584,4.415 C19.09,2.922 16.685,2 12.99,2 C9.294,2 6.89,2.922 5.395,4.415 C4.675,5.135 4.087,6.066 3.672,7.251 C3.519,7.687 3.121,8 2.659,8 C2.005,8 1.517,7.391 1.723,6.77 C3.22,2.257 6.975,0 12.99,0 Q25,0 25,12 Q25,24 12.99,24 C5.324,24 1.328,20.334 1.001,13.002 C0.976,12.451 1.427,12 1.979,12 C2.531,12 2.976,12.448 3.003,13 C3.156,16.131 4.041,18.232 5.395,19.585 C6.89,21.078 9.294,22 12.99,22 C16.685,22 19.09,21.078 20.584,19.585 C22.078,18.093 23,15.691 23,12 Z"/>
  <path fill="#212135" d="M2.98,1 L2.98,6 L7.985,6 Q8.399,6 8.692,6.293 Q8.985,6.586 8.985,7 Q8.985,7.414 8.692,7.707 Q8.399,8 7.985,8 L1.98,8 Q1.566,8 1.273,7.707 Q0.98,7.414 0.98,7 L0.98,1 Q0.98,0.586 1.273,0.293 Q1.566,0 1.98,0 Q2.394,0 2.687,0.293 Q2.98,0.586 2.98,1 Z"/>
</svg>

