<svg xmlns="http://www.w3.org/2000/svg" width="24" height="24" viewBox="0 0 24 24">
  <defs/>
  <path fill="#212135" d="M15.579,7.779 C15.979,7.631 16.368,8.02 16.221,8.421 L14.201,13.905 C14.15,14.042 14.042,14.15 13.905,14.201 L8.42,16.221 C8.02,16.369 7.631,15.98 7.778,15.579 L9.799,10.095 C9.849,9.958 9.958,9.85 10.095,9.799 L15.579,7.779 Z"/>
  <path fill="#212135" d="M12,24 C2.118,24 0,21.882 0,12 C0,2.118 2.118,0 12,0 C21.882,0 24,2.118 24,12 C24,21.882 21.882,24 12,24 Z M16.077,14.596 L18.098,9.112 C18.835,7.111 16.889,5.165 14.888,5.902 L9.404,7.922 C8.717,8.175 8.175,8.717 7.922,9.404 L5.902,14.888 C5.164,16.889 7.111,18.835 9.112,18.098 L14.596,16.078 C15.283,15.825 15.824,15.283 16.077,14.596 Z"/>
</svg>

