<svg xmlns="http://www.w3.org/2000/svg" width="24" height="24" viewBox="0 0 24 24">
  <defs/>
  <path fill="#212135" d="M0,12 Q0,8.14 0.485,5.956 Q1.015,3.574 2.294,2.294 Q3.574,1.015 5.956,0.485 Q8.14,0 12,0 Q15.86,0 18.044,0.485 Q20.426,1.015 21.706,2.294 Q22.985,3.574 23.515,5.956 Q24,8.14 24,12 Q24,15.86 23.515,18.044 Q22.985,20.427 21.706,21.706 Q20.427,22.985 18.044,23.515 Q15.86,24 12,24 Q8.14,24 5.956,23.515 Q3.574,22.985 2.294,21.706 Q1.015,20.426 0.485,18.044 Q0,15.86 0,12 Z M2,12 Q2,15.64 2.438,17.61 Q2.841,19.424 3.708,20.292 Q4.576,21.159 6.39,21.562 Q8.36,22 12,22 Q15.64,22 17.61,21.562 Q19.424,21.159 20.292,20.292 Q21.159,19.424 21.562,17.61 Q22,15.64 22,12 Q22,8.36 21.562,6.39 Q21.159,4.576 20.292,3.708 Q19.424,2.841 17.61,2.438 Q15.64,2 12,2 Q8.359,2 6.39,2.438 Q4.576,2.841 3.708,3.708 Q2.841,4.576 2.438,6.39 Q2,8.359 2,12 Z"/>
  <path fill="#212135" d="M18.098,9.112 L16.078,14.596 Q15.679,15.679 14.596,16.078 L9.112,18.098 Q7.611,18.651 6.48,17.52 Q5.349,16.389 5.902,14.888 L7.922,9.404 Q8.321,8.321 9.404,7.922 L14.888,5.902 Q16.389,5.349 17.52,6.48 Q18.651,7.611 18.098,9.112 Z M16.221,8.421 Q16.332,8.121 16.105,7.894 Q15.879,7.668 15.579,7.779 L10.095,9.799 Q9.878,9.879 9.799,10.095 L7.778,15.579 Q7.668,15.879 7.894,16.106 Q8.12,16.332 8.42,16.221 L13.904,14.201 Q14.121,14.121 14.201,13.905 Z"/>
</svg>

