<svg xmlns="http://www.w3.org/2000/svg" width="24" height="24" viewBox="0 0 24 24">
  <defs/>
  <path fill="#212135" d="M14,11 C14,12.105 13.105,13 12,13 C10.895,13 10,12.105 10,11 C10,9.895 10.895,9 12,9 C13.105,9 14,9.895 14,11 Z"/>
  <path fill="#212135" d="M6,21.564 C1.199,20.601 0,17.815 0,11 C0,1.941 2.118,0 12,0 C21.882,0 24,1.941 24,11 C24,17.815 22.801,20.601 18,21.564 L18,23 C18,23.552 17.552,24 17,24 C16.448,24 16,23.552 16,23 L16,21.846 C14.834,21.955 13.507,22 12,22 C10.493,22 9.166,21.955 8,21.846 L8,23 C8,23.552 7.552,24 7,24 C6.448,24 6,23.552 6,23 Z M12.992,7.124 C12.997,7.083 13,7.042 13,7 L13,6 C13,5.448 12.552,5 12,5 C11.448,5 11,5.448 11,6 L11,7 C11,7.042 11.003,7.083 11.008,7.124 C9.596,7.484 8.484,8.596 8.124,10.008 C8.083,10.003 8.042,10 8,10 L7,10 C6.448,10 6,10.448 6,11 C6,11.552 6.448,12 7,12 L8,12 C8.042,12 8.083,11.997 8.124,11.992 C8.484,13.404 9.596,14.516 11.008,14.876 C11.003,14.917 11,14.958 11,15 L11,16 C11,16.552 11.448,17 12,17 C12.552,17 13,16.552 13,16 L13,15 C13,14.958 12.997,14.917 12.992,14.876 C14.404,14.516 15.516,13.404 15.876,11.992 C15.917,11.997 15.958,12 16,12 L17,12 C17.552,12 18,11.552 18,11 C18,10.448 17.552,10 17,10 L16,10 C15.958,10 15.917,10.003 15.876,10.008 C15.516,8.596 14.404,7.484 12.992,7.124 Z"/>
</svg>

