<svg xmlns="http://www.w3.org/2000/svg" width="24" height="24" viewBox="0 0 24 24">
  <defs/>
  <path fill="#212135" d="M12,22 C10.493,22 9.166,21.955 8,21.846 L8,23 C8,23.552 7.552,24 7,24 C6.448,24 6,23.552 6,23 L6,21.564 C1.199,20.601 0,17.815 0,11 C0,1.941 2.118,0 12,0 C21.882,0 24,1.941 24,11 C24,17.815 22.801,20.601 18,21.564 L18,23 C18,23.552 17.552,24 17,24 C16.448,24 16,23.552 16,23 L16,21.846 C14.834,21.955 13.507,22 12,22 Z M3.646,18.423 C4.17,18.903 4.979,19.315 6.355,19.595 C7.745,19.878 9.571,20 12,20 C14.429,20 16.255,19.878 17.645,19.595 C19.021,19.315 19.83,18.903 20.354,18.423 C21.404,17.46 22,15.583 22,11 C22,6.417 21.404,4.54 20.354,3.577 C19.83,3.097 19.021,2.685 17.645,2.405 C16.255,2.122 14.429,2 12,2 C9.571,2 7.745,2.122 6.355,2.405 C4.979,2.685 4.17,3.097 3.646,3.577 C2.596,4.54 2,6.417 2,11 C2,15.583 2.596,17.46 3.646,18.423 Z"/>
  <path fill="#212135" d="M13,6 L13,7 C13,7.042 12.997,7.083 12.992,7.124 C14.404,7.484 15.516,8.596 15.876,10.008 C15.917,10.003 15.958,10 16,10 L17,10 C17.552,10 18,10.448 18,11 C18,11.552 17.552,12 17,12 L16,12 C15.958,12 15.917,11.997 15.876,11.992 C15.516,13.404 14.404,14.516 12.992,14.876 C12.997,14.917 13,14.958 13,15 L13,16 C13,16.552 12.552,17 12,17 C11.448,17 11,16.552 11,16 L11,15 C11,14.958 11.003,14.917 11.008,14.876 C9.596,14.516 8.484,13.404 8.124,11.992 C8.083,11.997 8.042,12 8,12 L7,12 C6.448,12 6,11.552 6,11 C6,10.448 6.448,10 7,10 L8,10 C8.042,10 8.083,10.003 8.124,10.008 C8.484,8.596 9.596,7.484 11.008,7.124 C11.003,7.083 11,7.042 11,7 L11,6 C11,5.448 11.448,5 12,5 C12.552,5 13,5.448 13,6 Z M14,11 C14,9.895 13.105,9 12,9 C10.895,9 10,9.895 10,11 C10,12.105 10.895,13 12,13 C13.105,13 14,12.105 14,11 Z"/>
</svg>

