<svg xmlns="http://www.w3.org/2000/svg" width="24" height="24" viewBox="0 0 24 24">
  <defs/>
  <path fill="#212135" d="M8.306,15.694 C7.898,15.286 7.898,14.624 8.306,14.216 L14.216,8.306 C14.624,7.898 15.286,7.898 15.694,8.306 C16.102,8.714 16.102,9.376 15.694,9.784 L9.784,15.694 C9.376,16.102 8.714,16.102 8.306,15.694 Z"/>
  <path fill="#212135" d="M15.707,9.707 L9.707,15.707 Q9.414,16 9,16 Q8.586,16 8.293,15.707 Q8,15.414 8,15 Q8,14.586 8.293,14.293 L14.293,8.293 Q14.586,8 15,8 Q15.414,8 15.707,8.293 Q16,8.586 16,9 Q16,9.414 15.707,9.707 Z M16,14 L16,15 Q16,15.414 15.707,15.707 Q15.414,16 15,16 Q14.586,16 14.293,15.707 Q14,15.414 14,15 L14,14 Q14,13.586 14.293,13.293 Q14.586,13 15,13 Q15.414,13 15.707,13.293 Q16,13.586 16,14 Z M10,9 L10,10 Q10,10.414 9.707,10.707 Q9.414,11 9,11 Q8.586,11 8.293,10.707 Q8,10.414 8,10 L8,9 Q8,8.586 8.293,8.293 Q8.586,8 9,8 Q9.414,8 9.707,8.293 Q10,8.586 10,9 Z"/>
  <path fill="#212135" d="M12,0 Q13.624,0 14.606,1.294 L15.741,2.791 Q15.788,2.854 15.867,2.843 L17.727,2.587 Q19.337,2.366 20.485,3.515 Q21.634,4.663 21.413,6.273 L21.157,8.133 Q21.146,8.212 21.209,8.259 L22.706,9.394 Q24,10.376 24,12 Q24,13.624 22.706,14.606 L21.209,15.741 Q21.146,15.788 21.157,15.867 L21.413,17.727 Q21.634,19.337 20.485,20.485 Q19.337,21.634 17.727,21.413 L15.867,21.157 Q15.788,21.146 15.741,21.209 L14.606,22.706 Q13.624,24 12,24 Q10.376,24 9.394,22.706 L8.259,21.209 Q8.212,21.146 8.133,21.157 L6.273,21.413 Q4.663,21.634 3.515,20.485 Q2.366,19.337 2.587,17.727 L2.843,15.867 Q2.854,15.788 2.791,15.741 L1.294,14.606 Q0,13.624 0,12 Q0,10.376 1.294,9.394 L2.791,8.259 Q2.854,8.212 2.843,8.133 L2.587,6.273 Q2.366,4.663 3.515,3.515 Q4.663,2.366 6.273,2.587 L8.133,2.843 Q8.212,2.854 8.259,2.791 L9.394,1.294 L9.394,1.294 Q10.376,0 12,0 Z M10.988,2.503 L9.853,3.999 Q9.098,4.995 7.861,4.824 L6,4.569 Q5.375,4.483 4.929,4.929 Q4.483,5.375 4.569,6 L4.824,7.861 Q4.995,9.098 3.999,9.853 L2.503,10.988 Q2,11.369 2,12 Q2,12.631 2.503,13.012 L3.999,14.147 Q4.995,14.902 4.824,16.139 L4.569,18 Q4.483,18.625 4.929,19.071 Q5.375,19.517 6,19.431 L7.861,19.176 Q9.098,19.005 9.853,20.001 L10.988,21.497 Q11.369,22 12,22 Q12.631,22 13.012,21.497 L14.147,20.001 Q14.902,19.005 16.139,19.176 L18,19.431 Q18.625,19.517 19.071,19.071 Q19.517,18.625 19.431,18 L19.176,16.139 Q19.005,14.902 20.001,14.147 L21.497,13.012 Q22,12.631 22,12 Q22,11.369 21.497,10.988 L20.001,9.853 Q19.005,9.098 19.176,7.861 L19.431,6 Q19.517,5.375 19.071,4.929 Q18.625,4.483 18,4.569 L16.139,4.824 Q14.902,4.995 14.147,3.999 L13.012,2.503 Q12.631,2 12,2 Q11.369,2 10.988,2.503 Z"/>
</svg>

