<svg xmlns="http://www.w3.org/2000/svg" width="24" height="24" viewBox="0 0 24 24">
  <defs/>
  <path fill="#212135" d="M9.317,1.333 C10.664,-0.444 13.336,-0.444 14.684,1.333 L15.806,2.813 L17.645,2.56 C19.855,2.256 21.744,4.145 21.44,6.355 L21.187,8.194 L22.667,9.317 C24.444,10.664 24.444,13.336 22.667,14.684 L21.187,15.806 L21.44,17.645 C21.744,19.855 19.855,21.744 17.645,21.44 L15.806,21.187 L14.684,22.667 C13.336,24.444 10.664,24.444 9.317,22.667 L8.194,21.187 L6.355,21.44 C4.145,21.744 2.256,19.855 2.56,17.645 L2.813,15.806 L1.333,14.684 C-0.444,13.336 -0.444,10.664 1.333,9.317 L2.813,8.194 L2.56,6.355 C2.256,4.145 4.145,2.256 6.355,2.56 L8.194,2.813 Z M8.306,14.216 C7.898,14.624 7.898,15.286 8.306,15.694 C8.714,16.102 9.376,16.102 9.784,15.694 L15.694,9.784 C16.102,9.376 16.102,8.714 15.694,8.306 C15.286,7.898 14.624,7.898 14.216,8.306 Z M14,15 C14,15.552 14.448,16 15,16 C15.552,16 16,15.552 16,15 L16,14 C16,13.448 15.552,13 15,13 C14.448,13 14,13.448 14,14 Z M9,11 C9.552,11 10,10.552 10,10 L10,9 C10,8.448 9.552,8 9,8 C8.448,8 8,8.448 8,9 L8,10 C8,10.552 8.448,11 9,11 Z"/>
</svg>

