<svg xmlns="http://www.w3.org/2000/svg" width="24" height="24" viewBox="0 0 24 24">
  <defs/>
  <path fill="#212135" d="M21.913,15.011 C21.95,14.475 22.389,14.05 22.927,14.05 C23.494,14.05 23.95,14.526 23.913,15.092 C23.488,21.487 21.401,23.573 15.006,23.998 C14.44,24.036 13.965,23.58 13.965,23.013 C13.965,22.475 14.389,22.036 14.925,21.999 C15.962,21.929 16.84,21.813 17.589,21.647 C18.945,21.346 19.75,20.904 20.284,20.37 C20.818,19.836 21.26,19.031 21.561,17.675 C21.728,16.926 21.843,16.048 21.913,15.011 Z M23.913,8.994 C23.95,9.561 23.494,10.036 22.927,10.036 C22.389,10.036 21.95,9.611 21.913,9.075 C21.843,8.039 21.728,7.16 21.561,6.411 C21.26,5.055 20.818,4.251 20.284,3.717 C19.75,3.183 18.945,2.741 17.589,2.439 C16.84,2.273 15.962,2.158 14.925,2.087 C14.389,2.051 13.965,1.611 13.965,1.074 C13.965,0.506 14.44,0.05 15.006,0.088 C21.401,0.513 23.488,2.6 23.913,8.994 Z M2.001,15.011 C2.072,16.048 2.187,16.926 2.354,17.675 C2.655,19.031 3.097,19.836 3.631,20.37 C4.165,20.904 4.969,21.346 6.325,21.647 C7.074,21.813 7.953,21.929 8.989,21.999 C9.525,22.036 9.95,22.475 9.95,23.013 C9.95,23.58 9.475,24.036 8.908,23.998 C2.514,23.573 0.427,21.487 0.002,15.092 C-0.035,14.526 0.42,14.05 0.988,14.05 C1.525,14.05 1.965,14.475 2.001,15.011 Z M2.001,9.075 C1.965,9.611 1.525,10.036 0.988,10.036 C0.42,10.036 -0.035,9.561 0.002,8.994 C0.427,2.6 2.514,0.513 8.908,0.088 C9.475,0.05 9.95,0.506 9.95,1.074 C9.95,1.611 9.525,2.051 8.989,2.087 C7.953,2.158 7.074,2.273 6.325,2.439 C4.969,2.741 4.165,3.183 3.631,3.717 C3.097,4.251 2.655,5.055 2.354,6.411 C2.187,7.16 2.072,8.039 2.001,9.075 Z"/>
  <path fill="#212135" d="M6,10.914 L18,10.914 Q18.414,10.914 18.707,11.207 Q19,11.5 19,11.914 Q19,12.328 18.707,12.621 Q18.414,12.914 18,12.914 L6,12.914 Q5.586,12.914 5.293,12.621 Q5,12.328 5,11.914 Q5,11.5 5.293,11.207 Q5.586,10.914 6,10.914 Z"/>
  <path fill="#212135" d="M10,14.914 L14,14.914 Q14.414,14.914 14.707,15.207 Q15,15.5 15,15.914 Q15,16.328 14.707,16.621 Q14.414,16.914 14,16.914 L10,16.914 Q9.586,16.914 9.293,16.621 Q9,16.328 9,15.914 Q9,15.5 9.293,15.207 Q9.586,14.914 10,14.914 Z"/>
  <path fill="#212135" d="M8,6.914 L16,6.914 Q16.414,6.914 16.707,7.207 Q17,7.5 17,7.914 Q17,8.328 16.707,8.621 Q16.414,8.914 16,8.914 L8,8.914 Q7.586,8.914 7.293,8.621 Q7,8.328 7,7.914 Q7,7.5 7.293,7.207 Q7.586,6.914 8,6.914 Z"/>
</svg>

