<svg xmlns="http://www.w3.org/2000/svg" width="24" height="25" viewBox="0 0 24 25">
  <defs/>
  <path fill="#212135" d="M18.334,13.985 Q17.169,14.399 16.199,14.596 Q13.982,15.046 12,15.046 Q10.017,15.047 7.801,14.596 Q6.831,14.4 5.665,13.985 L5.665,13.985 Q5.275,13.847 5.097,13.472 Q4.919,13.098 5.058,12.708 Q5.196,12.318 5.57,12.14 Q5.944,11.962 6.335,12.101 L6.335,12.101 Q7.368,12.468 8.199,12.636 Q10.218,13.047 12,13.047 Q13.781,13.047 15.801,12.636 Q16.633,12.467 17.665,12.101 Q18.055,11.962 18.429,12.14 Q18.803,12.318 18.942,12.708 Q19.081,13.098 18.903,13.472 Q18.725,13.847 18.334,13.985 Z"/>
  <path fill="#212135" d="M23.912,9.944 C23.95,10.51 23.494,10.986 22.926,10.986 C22.389,10.986 21.949,10.561 21.913,10.025 C21.842,8.982 21.727,8.098 21.56,7.345 C21.258,5.982 20.816,5.173 20.281,4.636 C19.747,4.1 18.942,3.657 17.587,3.355 C16.839,3.188 15.961,3.072 14.925,3.001 C14.389,2.965 13.964,2.525 13.964,1.988 C13.964,1.42 14.44,0.964 15.006,1.002 C21.402,1.429 23.488,3.524 23.912,9.944 Z M21.913,15.976 C21.949,15.439 22.389,15.014 22.926,15.014 C23.494,15.014 23.95,15.49 23.912,16.056 C23.488,22.476 21.402,24.571 15.006,24.998 C14.44,25.036 13.964,24.58 13.964,24.012 C13.964,23.475 14.389,23.035 14.925,22.999 C15.961,22.928 16.839,22.812 17.587,22.645 C18.942,22.343 19.747,21.9 20.281,21.364 C20.816,20.827 21.258,20.018 21.56,18.655 C21.727,17.902 21.842,17.018 21.913,15.976 Z M2.001,10.025 C1.965,10.561 1.525,10.986 0.988,10.986 C0.42,10.986 -0.036,10.51 0.002,9.944 C0.426,3.524 2.512,1.429 8.908,1.002 C9.474,0.964 9.95,1.42 9.95,1.988 C9.95,2.525 9.525,2.965 8.989,3.001 C7.953,3.072 7.075,3.188 6.327,3.355 C4.972,3.657 4.168,4.1 3.633,4.636 C3.098,5.173 2.656,5.982 2.354,7.345 C2.187,8.098 2.072,8.982 2.001,10.025 Z M2.001,15.976 C2.072,17.018 2.187,17.902 2.354,18.655 C2.656,20.018 3.098,20.827 3.633,21.364 C4.168,21.9 4.972,22.343 6.327,22.645 C7.075,22.812 7.953,22.928 8.989,22.999 C9.525,23.035 9.95,23.475 9.95,24.012 C9.95,24.58 9.474,25.036 8.908,24.998 C2.512,24.571 0.426,22.476 0.002,16.056 C-0.036,15.49 0.42,15.014 0.988,15.014 C1.525,15.014 1.965,15.439 2.001,15.976 Z"/>
</svg>

