<svg xmlns="http://www.w3.org/2000/svg" width="24" height="14" viewBox="0 0 24 14">
  <defs/>
  <path fill="#212135" d="M10.87,7 C10.87,7.474 11.295,8 11.998,8 C12.702,8 13.127,7.474 13.127,7 C13.127,6.526 12.702,6 11.998,6 C11.295,6 10.87,6.526 10.87,7 Z"/>
  <path fill="#212135" d="M0.45,8.132 C-0.15,7.483 -0.15,6.517 0.45,5.868 C2.279,3.887 6.56,0 12,0 C17.439,0 21.72,3.887 23.549,5.868 C24.149,6.517 24.149,7.483 23.549,8.132 C21.72,10.113 17.439,14 12,14 C6.56,14 2.279,10.113 0.45,8.132 Z M8.87,7 C8.87,8.657 10.271,10 11.998,10 C13.726,10 15.127,8.657 15.127,7 C15.127,5.343 13.726,4 11.998,4 C10.271,4 8.87,5.343 8.87,7 Z"/>
</svg>

