<svg xmlns="http://www.w3.org/2000/svg" width="22" height="24" viewBox="0 0 22 24">
  <defs/>
  <path fill="#212135" d="M11,7 C11.552,7 12,6.552 12,6 C12,5.448 11.552,5 11,5 C10.448,5 10,5.448 10,6 C10,6.552 10.448,7 11,7 Z"/>
  <path fill="#212135" d="M14,16 C14,17.657 12.657,19 11,19 C9.343,19 8,17.657 8,16 C8,14.343 9.343,13 11,13 C12.657,13 14,14.343 14,16 Z"/>
  <path fill="#212135" d="M0,12 C0,2.118 1.941,0 11,0 C20.059,0 22,2.118 22,12 C22,21.882 20.059,24 11,24 C1.941,24 0,21.882 0,12 Z M16,16 C16,13.239 13.761,11 11,11 C8.239,11 6,13.239 6,16 C6,18.761 8.239,21 11,21 C13.761,21 16,18.761 16,16 Z M11,9 C12.657,9 14,7.657 14,6 C14,4.343 12.657,3 11,3 C9.343,3 8,4.343 8,6 C8,7.657 9.343,9 11,9 Z"/>
</svg>

