<svg xmlns="http://www.w3.org/2000/svg" width="24" height="24" viewBox="0 0 24 24">
  <defs/>
  <path fill="#212135" d="M0,12 Q0,8.14 0.485,5.956 Q1.015,3.574 2.294,2.294 Q3.574,1.015 5.956,0.485 Q8.14,0 12,0 Q15.86,0 18.044,0.485 Q20.426,1.015 21.706,2.294 Q22.985,3.574 23.515,5.956 Q24,8.14 24,12 Q24,15.86 23.515,18.044 Q22.985,20.427 21.706,21.706 Q20.427,22.985 18.044,23.515 Q15.86,24 12,24 Q8.14,24 5.956,23.515 Q3.574,22.985 2.294,21.706 Q1.015,20.426 0.485,18.044 Q0,15.86 0,12 Z M2,12 Q2,15.64 2.438,17.61 Q2.841,19.424 3.708,20.292 Q4.576,21.159 6.39,21.562 Q8.36,22 12,22 Q15.64,22 17.61,21.562 Q19.424,21.159 20.292,20.292 Q21.159,19.424 21.562,17.61 Q22,15.64 22,12 Q22,8.36 21.562,6.39 Q21.159,4.576 20.292,3.708 Q19.424,2.841 17.61,2.438 Q15.64,2 12,2 Q8.359,2 6.39,2.438 Q4.576,2.841 3.708,3.708 Q2.841,4.576 2.438,6.39 Q2,8.359 2,12 Z"/>
  <path fill="#212135" d="M7,12 Q7,10.392 7.202,9.482 Q7.423,8.489 7.956,7.956 Q8.489,7.423 9.482,7.202 Q10.392,7 12,7 Q13.608,7 14.518,7.202 Q15.511,7.423 16.044,7.956 Q16.577,8.489 16.798,9.482 Q17,10.391 17,12 Q17,13.609 16.798,14.518 Q16.577,15.511 16.044,16.044 Q15.511,16.577 14.518,16.798 Q13.609,17 12,17 Q10.391,17 9.482,16.798 Q8.489,16.577 7.956,16.044 Q7.423,15.511 7.202,14.518 Q7,13.608 7,12 Z M9,12 Q9,13.389 9.155,14.084 Q9.249,14.509 9.37,14.63 Q9.491,14.751 9.916,14.845 Q10.611,15 12,15 Q13.389,15 14.084,14.845 Q14.509,14.751 14.63,14.63 Q14.751,14.509 14.845,14.084 Q15,13.389 15,12 Q15,10.611 14.845,9.916 Q14.751,9.491 14.63,9.37 Q14.509,9.249 14.084,9.155 Q13.389,9 12,9 Q10.611,9 9.916,9.155 Q9.491,9.249 9.37,9.37 Q9.249,9.491 9.155,9.916 Q9,10.611 9,12 Z"/>
</svg>

