<svg xmlns="http://www.w3.org/2000/svg" width="24" height="24" viewBox="0 0 24 24">
  <defs/>
  <path fill="#212135" d="M9,12 C9,12.984 9.055,13.638 9.155,14.084 C9.249,14.508 9.354,14.614 9.37,14.63 C9.386,14.646 9.492,14.751 9.916,14.845 C10.362,14.945 11.016,15 12,15 C12.984,15 13.638,14.945 14.084,14.845 C14.508,14.751 14.614,14.646 14.63,14.63 C14.646,14.614 14.751,14.508 14.845,14.084 C14.945,13.638 15,12.984 15,12 C15,11.016 14.945,10.362 14.845,9.916 C14.751,9.492 14.646,9.386 14.63,9.37 C14.614,9.354 14.508,9.249 14.084,9.155 C13.638,9.055 12.984,9 12,9 C11.016,9 10.362,9.055 9.916,9.155 C9.492,9.249 9.386,9.354 9.37,9.37 C9.354,9.386 9.249,9.492 9.155,9.916 C9.055,10.362 9,11.016 9,12 Z"/>
  <path fill="#212135" d="M12,24 C2.118,24 0,21.882 0,12 C0,2.118 2.118,0 12,0 C21.882,0 24,2.118 24,12 C24,21.882 21.882,24 12,24 Z M7,12 C7,16.118 7.883,17 12,17 C16.118,17 17,16.118 17,12 C17,7.883 16.118,7 12,7 C7.883,7 7,7.883 7,12 Z"/>
</svg>

