<svg xmlns="http://www.w3.org/2000/svg" width="24" height="24" viewBox="0 0 24 24">
  <defs/>
  <path fill="#212135" d="M12.031,0 Q13.893,0 16.231,7.198 Q16.238,7.221 16.264,7.222 Q24,7.485 24,9.661 Q24,11.359 18.697,15.357 Q18.678,15.372 18.686,15.397 Q20.953,22.417 19.446,23.654 Q17.849,24.965 12.024,20.31 Q11.999,20.29 11.975,20.309 Q6.12,24.984 4.588,23.631 Q3.195,22.399 5.326,15.404 Q5.333,15.38 5.314,15.365 Q0,11.361 0,9.661 Q0,7.484 7.742,7.222 Q7.768,7.221 7.775,7.198 Q10.175,0 12.031,0 Z M12.031,2 Q11.616,2 9.673,7.83 Q9.225,9.173 7.81,9.221 Q2,9.417 2,9.661 Q2,10.364 6.518,13.768 Q7.654,14.624 7.239,15.986 Q5.483,21.752 5.913,22.132 Q6.185,22.373 10.727,18.747 Q12,17.73 13.273,18.747 Q17.832,22.392 18.177,22.109 Q18.631,21.736 16.782,16.011 Q16.337,14.632 17.494,13.76 Q22,10.362 22,9.661 Q22,9.418 16.196,9.221 Q14.769,9.173 14.328,7.816 Q12.44,2 12.031,2 Z"/>
</svg>

