<svg xmlns="http://www.w3.org/2000/svg" width="24" height="24" viewBox="0 0 24 24">
  <defs/>
  <path fill="#212135" d="M12.031,0 C12.533,0 12.906,0.273 13.118,0.467 C13.351,0.679 13.554,0.947 13.729,1.214 C14.083,1.754 14.429,2.459 14.741,3.177 C15.369,4.623 15.934,6.286 16.231,7.198 C16.235,7.211 16.248,7.222 16.264,7.222 C17.215,7.254 18.953,7.34 20.467,7.562 C21.215,7.672 21.969,7.824 22.557,8.043 C22.846,8.151 23.162,8.299 23.423,8.514 C23.687,8.731 24,9.112 24,9.661 C24,10.041 23.857,10.376 23.727,10.616 C23.588,10.873 23.404,11.127 23.208,11.368 C22.814,11.849 22.293,12.365 21.755,12.855 C20.672,13.84 19.417,14.814 18.698,15.357 C18.686,15.366 18.68,15.381 18.686,15.397 C18.978,16.303 19.484,17.954 19.804,19.486 C19.963,20.246 20.085,21.021 20.101,21.678 C20.109,22.005 20.093,22.347 20.02,22.661 C19.951,22.959 19.803,23.361 19.446,23.654 C19.065,23.967 18.619,24.012 18.297,23.993 C17.969,23.973 17.641,23.881 17.345,23.771 C16.749,23.551 16.081,23.181 15.442,22.781 C14.152,21.974 12.795,20.926 12.024,20.31 C12.009,20.298 11.989,20.298 11.975,20.309 C11.204,20.925 9.848,21.972 8.567,22.779 C7.934,23.178 7.272,23.548 6.687,23.769 C6.397,23.879 6.071,23.973 5.746,23.993 C5.429,24.013 4.97,23.968 4.588,23.631 C4.249,23.331 4.116,22.928 4.056,22.641 C3.991,22.333 3.976,21.998 3.985,21.673 C4.003,21.021 4.119,20.249 4.27,19.488 C4.574,17.957 5.051,16.306 5.326,15.403 C5.33,15.388 5.325,15.374 5.314,15.366 C4.598,14.826 3.34,13.851 2.254,12.863 C1.713,12.371 1.191,11.854 0.795,11.372 C0.598,11.131 0.414,10.876 0.274,10.618 C0.144,10.378 0,10.042 0,9.661 C0,9.112 0.314,8.731 0.578,8.513 C0.839,8.298 1.155,8.15 1.445,8.042 C2.034,7.823 2.789,7.671 3.537,7.562 C5.054,7.339 6.793,7.254 7.742,7.222 C7.758,7.221 7.771,7.211 7.775,7.198 C8.078,6.289 8.658,4.624 9.3,3.176 C9.618,2.458 9.97,1.752 10.328,1.212 C10.506,0.944 10.711,0.676 10.944,0.465 C11.157,0.273 11.53,0 12.031,0 Z"/>
</svg>

