<svg xmlns="http://www.w3.org/2000/svg" width="24" height="24" viewBox="0 0 24 24">
  <defs/>
  <path fill="#212135" d="M12,0 C12.473,0 12.857,0.384 12.857,0.857 L12.857,2.571 C12.857,3.045 12.473,3.429 12,3.429 C11.527,3.429 11.143,3.045 11.143,2.571 L11.143,0.857 C11.143,0.384 11.527,0 12,0 Z"/>
  <path fill="#212135" d="M12,18.857 C6.802,18.857 5.087,17.143 5.143,12 C5.199,6.857 6.802,5.143 12,5.143 C17.199,5.143 18.857,6.857 18.857,12 C18.857,17.143 17.199,18.857 12,18.857 Z"/>
  <path fill="#212135" d="M12.857,21.429 C12.857,20.955 12.473,20.571 12,20.571 C11.527,20.571 11.143,20.955 11.143,21.429 L11.143,23.143 C11.143,23.616 11.527,24 12,24 C12.473,24 12.857,23.616 12.857,23.143 L12.857,21.429 Z"/>
  <path fill="#212135" d="M24,12 C24,12.473 23.616,12.857 23.143,12.857 L21.429,12.857 C20.955,12.857 20.571,12.473 20.571,12 C20.571,11.527 20.955,11.143 21.429,11.143 L23.143,11.143 C23.616,11.143 24,11.527 24,12 Z"/>
  <path fill="#212135" d="M2.571,12.857 C3.045,12.857 3.429,12.473 3.429,12 C3.429,11.527 3.045,11.143 2.571,11.143 L0.857,11.143 C0.384,11.143 0,11.527 0,12 C0,12.473 0.384,12.857 0.857,12.857 L2.571,12.857 Z"/>
  <path fill="#212135" d="M2.822,2.822 C3.157,2.488 3.7,2.488 4.035,2.822 L5.247,4.035 C5.582,4.369 5.582,4.912 5.247,5.247 C4.912,5.582 4.369,5.582 4.035,5.247 L2.822,4.035 C2.488,3.7 2.488,3.157 2.822,2.822 Z"/>
  <path fill="#212135" d="M4.035,21.532 C3.7,21.867 3.157,21.867 2.822,21.532 C2.488,21.198 2.488,20.655 2.822,20.32 L4.035,19.108 C4.369,18.773 4.912,18.773 5.247,19.108 C5.582,19.443 5.582,19.985 5.247,20.32 L4.035,21.532 Z"/>
  <path fill="#212135" d="M21.532,2.822 C21.198,2.488 20.655,2.488 20.32,2.822 L19.108,4.035 C18.773,4.369 18.773,4.912 19.108,5.247 C19.443,5.582 19.985,5.582 20.32,5.247 L21.532,4.035 C21.867,3.7 21.867,3.157 21.532,2.822 Z"/>
  <path fill="#212135" d="M20.32,21.532 C20.655,21.867 21.198,21.867 21.532,21.532 C21.867,21.198 21.867,20.655 21.532,20.32 L20.32,19.108 C19.985,18.773 19.443,18.773 19.108,19.108 C18.773,19.443 18.773,19.985 19.108,20.32 L20.32,21.532 Z"/>
</svg>

