<svg xmlns="http://www.w3.org/2000/svg" width="28" height="28" viewBox="0 0 28 28">
  <defs/>
  <path fill="#212135" d="M6,14 Q6.049,9.473 7.75,7.75 Q9.477,6 14,6 Q18.536,6 20.274,7.75 Q22,9.487 22,14 Q22,18.513 20.274,20.25 Q18.536,22 14,22 Q9.451,22 7.701,20.25 Q5.951,18.5 6,14 Z M8,14.022 Q7.96,17.681 9.116,18.836 Q10.28,20 14,20 Q17.703,20 18.856,18.84 Q20,17.688 20,14 Q20,10.312 18.856,9.16 Q17.703,8 14,8 Q10.313,8 9.173,9.155 Q8.04,10.303 8,14.022 Z"/>
  <path fill="#212135" d="M15,1 L15,3 Q15,3.414 14.707,3.707 Q14.414,4 14,4 Q13.586,4 13.293,3.707 Q13,3.414 13,3 L13,1 Q13,0.586 13.293,0.293 Q13.586,0 14,0 Q14.414,0 14.707,0.293 Q15,0.586 15,1 Z"/>
  <path fill="#212135" d="M15,25 L15,27 Q15,27.414 14.707,27.707 Q14.414,28 14,28 Q13.586,28 13.293,27.707 Q13,27.414 13,27 L13,25 Q13,24.586 13.293,24.293 Q13.586,24 14,24 Q14.414,24 14.707,24.293 Q15,24.586 15,25 Z"/>
  <path fill="#212135" d="M27,15 L25,15 Q24.586,15 24.293,14.707 Q24,14.414 24,14 Q24,13.586 24.293,13.293 Q24.586,13 25,13 L27,13 Q27.414,13 27.707,13.293 Q28,13.586 28,14 Q28,14.414 27.707,14.707 Q27.414,15 27,15 Z"/>
  <path fill="#212135" d="M3,15 L1,15 Q0.586,15 0.293,14.707 Q0,14.414 0,14 Q0,13.586 0.293,13.293 Q0.586,13 1,13 L3,13 Q3.414,13 3.707,13.293 Q4,13.586 4,14 Q4,14.414 3.707,14.707 Q3.414,15 3,15 Z"/>
  <path fill="#212135" d="M4.707,3.293 L6.121,4.707 Q6.414,5 6.414,5.414 Q6.414,5.828 6.121,6.121 Q5.828,6.414 5.414,6.414 Q5,6.414 4.707,6.121 L3.293,4.707 Q3,4.414 3,4 Q3,3.586 3.293,3.293 Q3.586,3 4,3 Q4.414,3 4.707,3.293 Z"/>
  <path fill="#212135" d="M3.293,23.707 L4.707,22.293 Q5,22 5.414,22 Q5.828,22 6.121,22.293 Q6.414,22.586 6.414,23 Q6.414,23.414 6.121,23.707 L4.707,25.121 Q4.414,25.414 4,25.414 Q3.586,25.414 3.293,25.121 Q3,24.828 3,24.414 Q3,24 3.293,23.707 Z"/>
  <path fill="#212135" d="M25.121,4.707 L23.707,6.121 Q23.414,6.414 23,6.414 Q22.586,6.414 22.293,6.121 Q22,5.828 22,5.414 Q22,5 22.293,4.707 L23.707,3.293 Q24,3 24.414,3 Q24.828,3 25.121,3.293 Q25.414,3.586 25.414,4 Q25.414,4.414 25.121,4.707 Z"/>
  <path fill="#212135" d="M23.707,25.121 L22.293,23.707 Q22,23.414 22,23 Q22,22.586 22.293,22.293 Q22.586,22 23,22 Q23.414,22 23.707,22.293 L25.121,23.707 Q25.414,24 25.414,24.414 Q25.414,24.828 25.121,25.121 Q24.828,25.414 24.414,25.414 Q24,25.414 23.707,25.121 Z"/>
</svg>

