<svg xmlns="http://www.w3.org/2000/svg" width="32" height="20" viewBox="0 0 32 20">
  <defs/>
  <path fill="#212135" d="M16,10 C13.239,10 11,7.761 11,5 C11,2.239 13.239,0 16,0 C18.761,0 21,2.239 21,5 C21,7.761 18.761,10 16,10 Z"/>
  <path fill="#212135" d="M16,20 C9.412,20 8,19.294 8,16 C8,12.706 9.412,12 16,12 C22.588,12 24,12.706 24,16 C24,19.294 22.588,20 16,20 Z"/>
  <path fill="#212135" d="M27,6 C27,4.014 25.416,2 23,2 C22.448,2 22,2.448 22,3 C22,3.552 22.448,4 23,4 C24.184,4 25,4.986 25,6 C25,7.014 24.184,8 23,8 C22.448,8 22,8.448 22,9 C22,9.552 22.448,10 23,10 C25.416,10 27,7.986 27,6 Z"/>
  <path fill="#212135" d="M9,2 C6.584,2 5,4.014 5,6 C5,7.986 6.584,10 9,10 C9.552,10 10,9.552 10,9 C10,8.448 9.552,8 9,8 C7.816,8 7,7.014 7,6 C7,4.986 7.816,4 9,4 C9.552,4 10,3.552 10,3 C10,2.448 9.552,2 9,2 Z"/>
  <path fill="#212135" d="M24,12 C24,11.448 24.448,11 25,11 C26.11,11 27.076,11.027 27.898,11.113 C28.712,11.198 29.446,11.347 30.061,11.624 C30.7,11.912 31.22,12.344 31.559,12.968 C31.887,13.57 32,14.264 32,15 C32,15.74 31.886,16.41 31.607,16.988 C31.32,17.583 30.886,18.024 30.346,18.332 C29.339,18.908 27.986,19 26.6,19 C26.048,19 25.6,18.552 25.6,18 C25.6,17.448 26.048,17 26.6,17 C28.014,17 28.861,16.878 29.354,16.596 C29.564,16.476 29.705,16.328 29.805,16.119 C29.914,15.894 30,15.546 30,15 C30,14.45 29.913,14.126 29.803,13.925 C29.705,13.745 29.55,13.588 29.239,13.447 C28.904,13.296 28.413,13.177 27.69,13.102 C26.974,13.027 26.09,13 25,13 C24.448,13 24,12.552 24,12 Z"/>
  <path fill="#212135" d="M7,11 C7.552,11 8,11.448 8,12 C8,12.552 7.552,13 7,13 C5.91,13 5.026,13.027 4.31,13.102 C3.587,13.177 3.096,13.296 2.761,13.447 C2.45,13.588 2.295,13.745 2.197,13.925 C2.087,14.126 2,14.45 2,15 C2,15.546 2.086,15.894 2.194,16.119 C2.295,16.328 2.436,16.476 2.646,16.596 C3.139,16.878 3.986,17 5.4,17 C5.952,17 6.4,17.448 6.4,18 C6.4,18.552 5.952,19 5.4,19 C4.014,19 2.661,18.908 1.654,18.332 C1.114,18.024 0.68,17.583 0.393,16.988 C0.114,16.41 0,15.74 0,15 C0,14.264 0.113,13.57 0.44,12.968 C0.78,12.344 1.3,11.912 1.939,11.624 C2.554,11.347 3.288,11.198 4.102,11.113 C4.924,11.027 5.89,11 7,11 Z"/>
</svg>

