<svg xmlns="http://www.w3.org/2000/svg" width="24" height="24" viewBox="0 0 24 24">
  <defs/>
  <path fill="#212135" d="M14.655,6.717 C15.148,7.002 15.316,7.631 15.032,8.124 C14.748,8.616 14.118,8.785 13.626,8.5 C13.134,8.216 12.965,7.587 13.249,7.094 C13.534,6.602 14.163,6.433 14.655,6.717 Z"/>
  <path fill="#212135" d="M5.608,1.176 C6.427,0.39 12.754,0.138 16.309,0.002 C17.666,-0.05 19.002,0.753 19.651,1.932 C21.389,5.09 24.228,10.631 23.985,11.788 C23.668,13.301 17.623,25.719 11.483,23.799 C9.596,23.209 2.885,19.399 1.459,18.01 C-3.134,13.536 4.486,2.253 5.608,1.176 Z M15.656,4.985 C14.207,4.149 12.354,4.645 11.517,6.094 C10.681,7.543 11.177,9.396 12.626,10.233 C14.075,11.069 15.928,10.573 16.764,9.124 C17.601,7.675 17.104,5.822 15.656,4.985 Z M6.099,13.46 C5.616,13.181 4.998,13.347 4.719,13.83 C4.44,14.313 4.606,14.93 5.089,15.209 L12.087,19.249 C12.57,19.528 13.187,19.363 13.466,18.88 C13.745,18.397 13.579,17.779 13.096,17.5 Z"/>
</svg>

