<svg xmlns="http://www.w3.org/2000/svg" width="24" height="24" viewBox="0 0 24 24">
  <defs/>
  <path fill="#212135" d="M4.003,9 C4.003,11 4.003,11 6.005,11 C8.006,11 8.006,11 8.006,9 C8.006,7 8.006,7 6.005,7 C4.003,7 4.003,7 4.003,9 Z"/>
  <path fill="#212135" d="M6.005,0.292 C6.322,0.235 6.652,0.187 6.994,0.148 C7.91,0.043 8.913,0 10,0 C15.966,0 19.397,1.294 19.939,7.003 C19.965,7.001 19.99,7 20.016,7 C21.274,7 22.42,7.481 23.167,8.453 C23.906,9.415 24.148,10.717 23.913,12.161 C23.696,13.491 23.285,14.713 22.476,15.608 C21.63,16.544 20.463,17 19.015,17 C19.004,17 18.994,17 18.984,17 C17.565,22.707 14.92,24 10,24 C3.883,24 1.281,22 0.195,12 C-0.607,4.613 1.079,1.591 5.005,0.517 C5.323,0.429 5.657,0.355 6.005,0.292 Z M10,2 C8.862,2 7.869,2.05 7.005,2.161 L7.005,7 C7.005,7.552 6.557,8 6.005,8 C5.452,8 5.005,7.552 5.005,7 L5.005,2.611 C3.904,3.006 3.237,3.596 2.797,4.413 C2.111,5.688 1.761,7.899 2.183,11.784 C2.723,16.757 3.609,19.184 4.708,20.424 C5.67,21.51 7.097,22 10,22 C12.903,22 14.33,21.51 15.294,20.423 C16.395,19.182 17.283,16.754 17.829,11.781 C18.369,6.876 17.663,4.691 16.653,3.628 C15.621,2.543 13.696,2 10,2 Z M20.014,9 C20.003,9.91 19.938,10.907 19.817,12 C19.698,13.086 19.561,14.078 19.403,14.984 C20.169,14.916 20.65,14.645 20.992,14.267 C21.426,13.787 21.748,13.009 21.939,11.839 C22.111,10.783 21.898,10.085 21.581,9.672 C21.272,9.269 20.758,9 20.016,9 Z"/>
</svg>

