<svg xmlns="http://www.w3.org/2000/svg" width="24" height="24" viewBox="0 0 24 24">
  <defs/>
  <path fill="#212135" d="M0.194,12 C-0.632,4.36 1.192,1.389 5.391,0.413 C5.694,0.343 5.977,0.579 5.977,0.891 L5.977,6.701 C5.977,6.964 5.768,7.164 5.517,7.239 C5.396,7.276 5.302,7.328 5.23,7.401 C4.981,7.651 4.981,8.151 4.981,9.151 C4.981,10.151 4.981,10.651 5.23,10.901 C5.479,11.151 5.977,11.151 6.973,11.151 C7.969,11.151 8.467,11.151 8.716,10.901 C8.965,10.651 8.965,10.151 8.965,9.151 C8.965,8.151 8.965,7.651 8.716,7.401 C8.643,7.328 8.549,7.276 8.428,7.239 C8.177,7.164 7.969,6.964 7.969,6.701 L7.969,0.527 C7.969,0.264 8.173,0.045 8.435,0.033 C8.921,0.01 9.427,0 9.954,0 C15.753,0 19.146,1.234 19.804,6.612 C19.834,6.854 20.026,7.045 20.267,7.075 C21.29,7.202 22.21,7.509 22.896,8.135 C23.942,9.09 24.167,10.511 23.893,12.164 C23.636,13.71 23.222,14.976 22.37,15.832 C21.478,16.728 20.289,17 18.926,17 C18.922,17 18.918,17 18.914,17 C18.903,17 18.893,17.008 18.89,17.019 C17.477,22.71 14.844,24 9.954,24 C3.865,24 1.275,22 0.194,12 Z M19.414,14.37 C19.364,14.688 19.618,14.979 19.933,14.917 C20.424,14.821 20.734,14.646 20.961,14.418 C21.354,14.024 21.687,13.29 21.928,11.836 C22.151,10.489 21.879,9.91 21.556,9.615 C21.332,9.411 20.983,9.241 20.46,9.132 C20.173,9.072 19.916,9.303 19.906,9.597 C19.879,10.342 19.819,11.141 19.725,12 C19.632,12.846 19.529,13.635 19.414,14.37 Z"/>
</svg>

