<svg xmlns="http://www.w3.org/2000/svg" width="24" height="24" viewBox="0 0 24 24">
  <defs/>
  <path fill="#212135" d="M0,12 C0,2.118 2.118,0 12,0 C21.882,0 24,2.118 24,12 C24,21.882 21.882,24 12,24 C2.118,24 0,21.882 0,12 Z M7,7 L7,8 C7,8.552 7.448,9 8,9 C8.552,9 9,8.552 9,8 L11,8 L11,16 C10.448,16 10,16.448 10,17 C10,17.552 10.448,18 11,18 L13,18 C13.552,18 14,17.552 14,17 C14,16.448 13.552,16 13,16 L13,8 L15,8 C15,8.552 15.448,9 16,9 C16.552,9 17,8.552 17,8 L17,7 C17,6.448 16.552,6 16,6 L8,6 C7.448,6 7,6.448 7,7 Z"/>
</svg>

