<svg xmlns="http://www.w3.org/2000/svg" width="24" height="24" viewBox="0 0 24 24">
  <defs/>
  <path fill="#212135" d="M0,12 Q0,8.14 0.485,5.956 Q1.015,3.574 2.294,2.294 Q3.574,1.015 5.956,0.485 Q8.14,0 12,0 Q15.86,0 18.044,0.485 Q20.426,1.015 21.706,2.294 Q22.985,3.574 23.515,5.956 Q24,8.14 24,12 Q24,15.86 23.515,18.044 Q22.985,20.427 21.706,21.706 Q20.427,22.985 18.044,23.515 Q15.86,24 12,24 Q8.14,24 5.956,23.515 Q3.574,22.985 2.294,21.706 Q1.015,20.426 0.485,18.044 Q0,15.86 0,12 Z M2,12 Q2,15.64 2.438,17.61 Q2.841,19.424 3.708,20.292 Q4.576,21.159 6.39,21.562 Q8.36,22 12,22 Q15.64,22 17.61,21.562 Q19.424,21.159 20.292,20.292 Q21.159,19.424 21.562,17.61 Q22,15.64 22,12 Q22,8.36 21.562,6.39 Q21.159,4.576 20.292,3.708 Q19.424,2.841 17.61,2.438 Q15.64,2 12,2 Q8.359,2 6.39,2.438 Q4.576,2.841 3.708,3.708 Q2.841,4.576 2.438,6.39 Q2,8.359 2,12 Z"/>
  <path fill="#212135" d="M12,6 L16,6 Q16.414,6 16.707,6.293 Q17,6.586 17,7 L17,8 Q17,8.414 16.707,8.707 Q16.414,9 16,9 Q15.586,9 15.293,8.707 Q15,8.414 15,8 L13,8 L13,16 Q13.414,16 13.707,16.293 Q14,16.586 14,17 Q14,17.414 13.707,17.707 Q13.414,18 13,18 L11,18 Q10.586,18 10.293,17.707 Q10,17.414 10,17 Q10,16.586 10.293,16.293 Q10.586,16 11,16 L11,8 L9,8 Q9,8.414 8.707,8.707 Q8.414,9 8,9 Q7.586,9 7.293,8.707 Q7,8.414 7,8 L7,7 Q7,6.586 7.293,6.293 Q7.586,6 8,6 L12,6 Z"/>
</svg>

