<svg xmlns="http://www.w3.org/2000/svg" width="24" height="24" viewBox="0 0 24 24">
  <defs/>
  <path fill="#212135" d="M1.579,10.773 C0.801,10.606 0.171,9.958 0.028,9.177 C-0.01,8.968 -0.003,8.74 0.011,8.285 C0.062,6.62 0.197,5.494 0.553,4.538 C1.186,2.84 2.1,1.776 3.486,1 C4.741,0.298 6.551,0 9.775,0 L14.225,0 C17.449,0 19.259,0.298 20.514,1 C21.9,1.776 22.814,2.84 23.447,4.538 C23.803,5.494 23.938,6.62 23.989,8.285 L23.989,8.286 C24.003,8.741 24.01,8.968 23.972,9.177 C23.829,9.958 23.199,10.606 22.421,10.773 C22.213,10.817 21.97,10.817 21.483,10.817 C20.827,10.817 20.295,11.469 20.295,12.273 C20.295,13.077 20.827,13.729 21.483,13.729 C21.96,13.729 22.199,13.729 22.405,13.773 C23.189,13.94 23.833,14.613 23.964,15.402 C23.998,15.61 23.988,15.826 23.968,16.259 C23.905,17.632 23.763,18.614 23.447,19.462 C22.814,21.16 21.9,22.224 20.514,23 C19.259,23.702 17.449,24 14.225,24 L9.775,24 C6.551,24 4.741,23.702 3.486,23 C2.1,22.224 1.186,21.16 0.553,19.462 C0.237,18.614 0.095,17.632 0.032,16.259 C0.012,15.826 0.002,15.61 0.036,15.402 C0.167,14.613 0.811,13.94 1.595,13.773 C1.801,13.729 2.04,13.729 2.517,13.729 C3.173,13.729 3.705,13.077 3.705,12.273 C3.705,11.469 3.173,10.817 2.517,10.817 C2.03,10.817 1.787,10.817 1.579,10.773 Z M16.006,11 C16.006,10.448 15.558,10 15.005,10 C14.452,10 14.003,10.448 14.003,11 L14.003,13 C14.003,13.552 14.452,14 15.005,14 C15.558,14 16.006,13.552 16.006,13 Z M16.006,17 C16.006,16.448 15.558,16 15.005,16 C14.452,16 14.003,16.448 14.003,17 L14.003,19 C14.003,19.552 14.452,20 15.005,20 C15.558,20 16.006,19.552 16.006,19 Z M15.005,4 C14.452,4 14.003,4.448 14.003,5 L14.003,7 C14.003,7.552 14.452,8 15.005,8 C15.558,8 16.006,7.552 16.006,7 L16.006,5 C16.006,4.448 15.558,4 15.005,4 Z"/>
</svg>

