<svg xmlns="http://www.w3.org/2000/svg" width="24" height="24" viewBox="0 0 24 24">
  <defs/>
  <path fill="#212135" d="M2.608,10.819 L2.573,10.982 L1.595,10.773 L0.618,10.563 L0.666,10.338 Q0.184,9.925 0.047,9.177 Q0.009,8.968 0.03,8.285 Q0.106,5.787 0.571,4.538 Q1.463,2.142 3.5,1 Q5.284,0 9.778,0 L14.222,0 Q18.716,0 20.5,1 Q22.537,2.142 23.429,4.538 Q23.882,5.756 23.966,8.163 L24.132,8.193 L23.953,9.174 L23.953,9.177 L23.952,9.177 L23.951,9.183 L23.773,10.16 L23.546,10.119 Q23.148,10.613 22.405,10.773 Q22.197,10.817 21.468,10.817 Q20.281,10.817 20.281,12.273 Q20.281,12.865 20.637,13.312 Q20.968,13.729 21.468,13.729 Q22.183,13.729 22.389,13.773 Q23.722,14.057 23.945,15.402 Q23.979,15.61 23.949,16.259 Q23.854,18.319 23.429,19.462 Q22.537,21.858 20.5,23 Q18.716,24 14.222,24 L9.778,24 Q5.284,24 3.5,23 Q1.463,21.858 0.571,19.462 Q0.146,18.319 0.051,16.259 Q0.021,15.61 0.055,15.402 Q0.278,14.057 1.611,13.773 Q1.817,13.729 2.532,13.729 Q3.719,13.729 3.719,12.273 Q3.719,10.865 2.608,10.819 Z M2.532,8.817 Q5.719,8.817 5.719,12.273 Q5.719,15.729 2.532,15.729 Q2.168,15.729 2.042,15.733 L2.029,15.729 L2.028,15.729 L2.033,15.732 Q2.034,15.841 2.049,16.167 Q2.129,17.914 2.446,18.764 Q3.082,20.473 4.478,21.255 Q5.806,22 9.778,22 L14.222,22 Q18.194,22 19.522,21.255 Q20.918,20.473 21.554,18.764 Q21.871,17.914 21.951,16.167 Q21.972,15.729 21.972,15.729 L21.972,15.729 L21.958,15.733 Q21.832,15.729 21.468,15.729 Q20.002,15.729 19.071,14.556 Q18.281,13.562 18.281,12.273 Q18.281,10.983 19.071,9.99 Q20.002,8.817 21.468,8.817 Q21.84,8.817 21.97,8.813 L21.985,8.817 Q21.985,8.81 21.971,8.346 Q21.905,6.177 21.554,5.236 Q20.918,3.527 19.522,2.745 Q18.194,2 14.222,2 L9.778,2 Q5.806,2 4.478,2.745 Q3.082,3.527 2.446,5.236 Q2.095,6.177 2.029,8.346 Q2.019,8.691 2.019,8.809 L2.015,8.817 L2.015,8.817 L2.03,8.813 Q2.16,8.817 2.532,8.817 Z"/>
  <path fill="#212135" d="M15,10 C15.552,10 16,10.448 16,11 L16,13 C16,13.552 15.552,14 15,14 C14.448,14 14,13.552 14,13 L14,11 C14,10.448 14.448,10 15,10 Z M16,17 L16,19 C16,19.552 15.552,20 15,20 C14.448,20 14,19.552 14,19 L14,17 C14,16.448 14.448,16 15,16 C15.552,16 16,16.448 16,17 Z M15,4 C15.552,4 16,4.448 16,5 L16,7 C16,7.552 15.552,8 15,8 C14.448,8 14,7.552 14,7 L14,5 C14,4.448 14.448,4 15,4 Z"/>
</svg>

