<svg xmlns="http://www.w3.org/2000/svg" width="20" height="24" viewBox="0 0 20 24">
  <defs/>
  <path fill="#212135" d="M2,1 C2,0.448 2.448,0 3,0 L17,0 C17.552,0 18,0.448 18,1 C18,1.552 17.552,2 17,2 L11,2 L11,4.01 C18.38,4.159 20,6.11 20,14 C20,22.235 18.235,24 10,24 C1.765,24 0,22.235 0,14 C0,6.11 1.62,4.159 9,4.01 L9,2 L3,2 C2.448,2 2,1.552 2,1 Z M5.556,12.219 C5.249,12.219 5,12.467 5,12.774 C5,13.081 5.249,13.33 5.556,13.33 L6.111,13.33 L6.111,14.997 C6.111,15.303 6.36,15.552 6.667,15.552 C6.973,15.552 7.222,15.303 7.222,14.997 L7.222,13.33 L7.778,13.33 C8.081,13.33 8.327,13.087 8.333,12.785 L8.333,14.997 C8.333,15.303 8.582,15.552 8.889,15.552 C9.196,15.552 9.444,15.303 9.444,14.997 L9.444,14.115 L10.701,15.371 C10.802,15.482 10.949,15.552 11.111,15.552 C11.418,15.552 11.667,15.303 11.667,14.997 L11.667,12.774 C11.667,12.467 11.418,12.219 11.111,12.219 C10.804,12.219 10.555,12.467 10.555,12.774 L10.555,13.655 L9.294,12.393 C9.288,12.387 9.281,12.381 9.275,12.375 C9.175,12.278 9.039,12.219 8.889,12.219 C8.585,12.219 8.337,12.463 8.333,12.767 C8.329,12.463 8.082,12.219 7.778,12.219 Z M12.222,13.33 L12.778,13.33 L12.778,14.997 C12.778,15.303 13.026,15.552 13.333,15.552 C13.64,15.552 13.889,15.303 13.889,14.997 L13.889,13.33 L14.444,13.33 C14.751,13.33 15,13.081 15,12.774 C15,12.467 14.751,12.219 14.444,12.219 L12.222,12.219 C11.915,12.219 11.667,12.467 11.667,12.774 C11.667,13.081 11.915,13.33 12.222,13.33 Z"/>
</svg>

