<svg xmlns="http://www.w3.org/2000/svg" width="20" height="24" viewBox="0 0 20 24">
  <defs/>
  <path fill="#212135" d="M0,14 Q0,10.783 0.404,8.963 Q0.846,6.978 1.912,5.912 Q2.978,4.846 4.963,4.404 Q6.783,4 10,4 Q13.217,4 15.037,4.404 Q17.022,4.846 18.088,5.912 Q19.154,6.978 19.596,8.963 Q20,10.783 20,14 Q20,17.217 19.596,19.037 Q19.154,21.022 18.088,22.088 Q17.022,23.154 15.037,23.596 Q13.217,24 10,24 Q6.783,24 4.963,23.596 Q2.978,23.154 1.912,22.088 Q0.846,21.022 0.404,19.037 Q0,17.217 0,14 Z M2,14 Q2,16.997 2.357,18.603 Q2.672,20.02 3.326,20.674 Q3.98,21.328 5.397,21.643 Q7.003,22 10,22 Q12.997,22 14.603,21.643 Q16.02,21.328 16.674,20.674 Q17.328,20.02 17.643,18.603 Q18,16.997 18,14 Q18,11.003 17.643,9.397 Q17.328,7.98 16.674,7.326 Q16.019,6.672 14.603,6.357 Q12.997,6 10,6 Q7.003,6 5.397,6.357 Q3.981,6.672 3.326,7.326 Q2.672,7.981 2.357,9.397 Q2,11.003 2,14 Z"/>
  <path fill="#212135" d="M3,0 L17,0 Q17.414,0 17.707,0.293 Q18,0.586 18,1 Q18,1.414 17.707,1.707 Q17.414,2 17,2 L11,2 L11,4 Q11,4.414 10.707,4.707 Q10.414,5 10,5 Q9.586,5 9.293,4.707 Q9,4.414 9,4 L9,2 L3,2 Q2.586,2 2.293,1.707 Q2,1.414 2,1 Q2,0.586 2.293,0.293 Q2.586,0 3,0 Z"/>
  <path fill="#212135" d="M6,12.5 L8,12.5 Q8.207,12.5 8.354,12.646 Q8.5,12.793 8.5,13 Q8.5,12.793 8.646,12.646 Q8.793,12.5 9,12.5 Q9.207,12.5 9.354,12.646 L10.5,13.793 L10.5,13 Q10.5,12.793 10.646,12.646 Q10.793,12.5 11,12.5 Q11.207,12.5 11.354,12.646 Q11.5,12.793 11.5,13 Q11.5,12.793 11.646,12.646 Q11.793,12.5 12,12.5 L14,12.5 Q14.207,12.5 14.354,12.646 Q14.5,12.793 14.5,13 Q14.5,13.207 14.354,13.354 Q14.207,13.5 14,13.5 L13.5,13.5 L13.5,15 Q13.5,15.207 13.354,15.354 Q13.207,15.5 13,15.5 Q12.793,15.5 12.646,15.354 Q12.5,15.207 12.5,15 L12.5,13.5 L12,13.5 Q11.793,13.5 11.646,13.354 Q11.5,13.207 11.5,13 L11.5,15 Q11.5,15.207 11.354,15.354 Q11.207,15.5 11,15.5 Q10.793,15.5 10.646,15.354 L9.5,14.207 L9.5,15 Q9.5,15.207 9.354,15.354 Q9.207,15.5 9,15.5 Q8.793,15.5 8.646,15.354 Q8.5,15.207 8.5,15 L8.5,13 Q8.5,13.207 8.354,13.354 Q8.207,13.5 8,13.5 L7.5,13.5 L7.5,15 Q7.5,15.207 7.354,15.354 Q7.207,15.5 7,15.5 Q6.793,15.5 6.646,15.354 Q6.5,15.207 6.5,15 L6.5,13.5 L6,13.5 Q5.793,13.5 5.646,13.354 Q5.5,13.207 5.5,13 Q5.5,12.793 5.646,12.646 Q5.793,12.5 6,12.5 Z"/>
</svg>

