<svg xmlns="http://www.w3.org/2000/svg" width="24" height="24" viewBox="0 0 24 24">
  <defs/>
  <path fill="#212135" d="M6.447,0.106 C5.953,-0.141 5.353,0.059 5.106,0.553 C4.859,1.047 5.059,1.648 5.553,1.895 L9.13,3.683 C9.315,3.776 9.253,4.058 9.046,4.069 C1.683,4.46 0,6.66 0,14 C0,22.235 2.118,24 12,24 C21.882,24 24,22.235 24,14 C24,6.66 22.317,4.46 14.954,4.069 C14.747,4.058 14.685,3.776 14.87,3.683 L18.447,1.895 C18.941,1.648 19.141,1.047 18.894,0.553 C18.647,0.059 18.047,-0.141 17.553,0.106 L12.089,2.837 C12.033,2.866 11.967,2.866 11.911,2.837 L6.447,0.106 Z"/>
</svg>

