<svg xmlns="http://www.w3.org/2000/svg" width="24" height="24" viewBox="0 0 24 24">
  <defs/>
  <path fill="#212135" d="M2.294,5.912 Q3.574,4.846 5.956,4.404 Q8.14,4 12,4 Q15.86,4 18.044,4.404 Q20.426,4.846 21.706,5.912 Q24,7.824 24,14 Q24,20.176 21.706,22.088 Q20.426,23.154 18.044,23.596 Q15.86,24 12,24 Q8.14,24 5.956,23.596 Q3.574,23.154 2.294,22.088 Q0,20.176 0,14 Q0,7.824 2.294,5.912 Z M2,14 Q2,19.239 3.575,20.552 Q4.452,21.283 6.32,21.629 Q8.323,22 12,22 Q15.677,22 17.68,21.629 Q19.548,21.283 20.425,20.552 Q22,19.239 22,14 Q22,8.761 20.425,7.448 Q19.548,6.717 17.68,6.371 Q15.676,6 12,6 Q8.324,6 6.32,6.371 Q4.452,6.717 3.575,7.448 Q2,8.76 2,14 Z"/>
  <path fill="#212135" d="M6.447,0.106 L12,2.882 L17.553,0.106 Q17.923,-0.08 18.316,0.051 Q18.709,0.182 18.894,0.553 Q19.08,0.923 18.949,1.316 Q18.818,1.709 18.447,1.894 L12.447,4.894 Q12,5.118 11.553,4.894 L5.553,1.894 Q5.182,1.709 5.051,1.316 Q4.92,0.923 5.106,0.553 Q5.291,0.182 5.684,0.051 Q6.077,-0.08 6.447,0.106 Z"/>
</svg>

