<svg xmlns="http://www.w3.org/2000/svg" width="24" height="24" viewBox="0 0 24 24">
  <defs/>
  <path fill="#212135" d="M24,10.667 C24,16.444 23,20 18.5,20 C16.095,20 15.38,21.142 14.714,22.206 C14.134,23.133 13.591,24 12,24 C10.41,24 9.867,23.133 9.287,22.206 C8.62,21.142 7.905,20 5.5,20 C1,20 0,16.331 0,10.667 C0,1.883 2.118,0 12,0 C21.882,0 24,1.778 24,10.667 Z M17.522,9.147 C17.052,8.86 16.439,9.006 16.149,9.474 L16.149,9.475 L16.148,9.477 L16.139,9.491 C16.128,9.507 16.111,9.533 16.086,9.568 C16.064,9.599 16.038,9.635 16.006,9.677 C15.965,9.731 15.915,9.793 15.858,9.86 C15.653,10.103 15.37,10.382 15.038,10.591 C14.71,10.798 14.372,10.912 14.026,10.899 C13.808,10.891 13.538,10.83 13.218,10.65 C13.046,10.554 12.859,10.423 12.658,10.247 C11.804,9.5 10.923,9.136 10.052,9.102 C9.193,9.069 8.46,9.361 7.896,9.716 C7.334,10.07 6.903,10.509 6.617,10.845 C6.472,11.015 6.359,11.166 6.281,11.277 C6.242,11.333 6.211,11.379 6.188,11.413 C6.177,11.43 6.168,11.444 6.161,11.455 L6.153,11.469 L6.149,11.474 L6.148,11.476 L6.148,11.477 C5.859,11.948 6.007,12.564 6.478,12.853 C6.948,13.141 7.562,12.994 7.851,12.526 L7.861,12.509 C7.872,12.493 7.89,12.467 7.914,12.432 C7.964,12.361 8.041,12.258 8.142,12.14 C8.348,11.897 8.63,11.618 8.962,11.409 C9.29,11.202 9.628,11.087 9.975,11.101 C10.227,11.111 10.551,11.191 10.941,11.446 C11.068,11.529 11.201,11.63 11.342,11.752 C12.196,12.5 13.077,12.864 13.948,12.897 C14.807,12.931 15.54,12.639 16.104,12.283 C16.666,11.93 17.097,11.491 17.383,11.155 C17.528,10.985 17.641,10.834 17.719,10.723 C17.758,10.667 17.789,10.621 17.812,10.587 C17.817,10.579 17.821,10.572 17.826,10.565 C17.831,10.558 17.835,10.551 17.839,10.545 L17.847,10.531 L17.851,10.526 L17.852,10.524 L17.853,10.522 C18.141,10.051 17.993,9.436 17.522,9.147 Z M7,12 C6.147,11.478 6.148,11.477 6.148,11.477 L7,12 Z"/>
</svg>

