<svg xmlns="http://www.w3.org/2000/svg" width="24" height="24" viewBox="0 0 24 24">
  <defs/>
  <path fill="#212135" d="M10,15 C10,16.105 10.895,17 12,17 C13.105,17 14,16.105 14,15 C14,13.896 13.105,13 12,13 C10.895,13 10,13.896 10,15 Z"/>
  <path fill="#212135" d="M9.255,3.296 C8.736,3.901 8.298,4.801 8.096,6.119 C9.239,6.035 10.534,6 12,6 C21.882,6 24,7.589 24,15 C24,22.412 21.882,24 12,24 C2.118,24 0,22.412 0,15 C0,9.405 1.207,7.128 6.051,6.349 C6.249,4.48 6.841,3.039 7.736,1.994 C8.729,0.836 10.02,0.253 11.324,0.068 C12.614,-0.116 13.929,0.087 15.049,0.503 C16.156,0.915 17.171,1.571 17.796,2.391 C18.13,2.831 18.045,3.458 17.606,3.793 C17.166,4.127 16.539,4.042 16.204,3.603 C15.876,3.172 15.225,2.702 14.353,2.378 C13.494,2.06 12.517,1.918 11.605,2.048 C10.706,2.176 9.884,2.562 9.255,3.296 Z M8,15 C8,17.209 9.791,19 12,19 C14.209,19 16,17.209 16,15 C16,12.791 14.209,11 12,11 C9.791,11 8,12.791 8,15 Z"/>
</svg>

