<svg xmlns="http://www.w3.org/2000/svg" width="12" height="18" viewBox="0 0 12 18">
  <defs/>
  <path fill="#212135" d="M0.293,5.293 L5.293,0.293 Q5.434,0.152 5.617,0.076 Q5.801,0 6,0 Q6.174,0 6.337,0.058 Q6.36,0.067 6.383,0.076 Q6.543,0.143 6.671,0.259 Q6.69,0.275 6.707,0.293 L11.707,5.293 Q11.848,5.434 11.924,5.617 Q12,5.801 12,6 Q12,6.199 11.924,6.383 Q11.848,6.566 11.707,6.707 Q11.566,6.848 11.383,6.924 Q11.199,7 11,7 Q10.801,7 10.617,6.924 Q10.434,6.848 10.293,6.707 L7,3.414 L7,17 Q7,17.199 6.924,17.383 Q6.848,17.566 6.707,17.707 Q6.566,17.848 6.383,17.924 Q6.199,18 6,18 Q5.801,18 5.617,17.924 Q5.434,17.848 5.293,17.707 Q5.152,17.566 5.076,17.383 Q5,17.199 5,17 L5,3.414 L1.707,6.707 Q1.566,6.848 1.383,6.924 Q1.199,7 1,7 Q0.801,7 0.617,6.924 Q0.434,6.848 0.293,6.707 Q0.152,6.566 0.076,6.383 Q0,6.199 0,6 Q0,5.801 0.076,5.617 Q0.152,5.434 0.293,5.293 Z"/>
</svg>

