<svg xmlns="http://www.w3.org/2000/svg" width="14" height="8" viewBox="0 0 14 8">
  <defs/>
  <path fill="#212135" d="M0.293,6.293 L6.293,0.293 Q6.434,0.152 6.617,0.076 Q6.801,0 7,0 Q7.199,0 7.383,0.076 Q7.566,0.152 7.707,0.293 L13.707,6.293 Q13.848,6.434 13.924,6.617 Q14,6.801 14,7 Q14,7.199 13.924,7.383 Q13.848,7.566 13.707,7.707 Q13.566,7.848 13.383,7.924 Q13.199,8 13,8 Q12.801,8 12.617,7.924 Q12.434,7.848 12.293,7.707 L7,2.414 L1.707,7.707 Q1.566,7.848 1.383,7.924 Q1.199,8 1,8 Q0.801,8 0.617,7.924 Q0.434,7.848 0.293,7.707 Q0.152,7.566 0.076,7.383 Q0,7.199 0,7 Q0,6.801 0.076,6.617 Q0.152,6.434 0.293,6.293 Z"/>
</svg>

