<svg xmlns="http://www.w3.org/2000/svg" width="24" height="24" viewBox="0 0 24 24">
  <defs/>
  <path fill="#212135" d="M12,24 C2.118,24 0,21.882 0,12 C0,2.118 2.118,0 12,0 C21.882,0 24,2.118 24,12 C24,21.882 21.882,24 12,24 Z M16.707,13.293 L12.707,9.293 C12.317,8.902 11.683,8.902 11.293,9.293 L7.293,13.293 C6.902,13.683 6.902,14.317 7.293,14.707 C7.683,15.098 8.317,15.098 8.707,14.707 L12,11.414 L15.293,14.707 C15.683,15.098 16.317,15.098 16.707,14.707 C17.098,14.317 17.098,13.683 16.707,13.293 Z"/>
</svg>

