<svg xmlns="http://www.w3.org/2000/svg" width="16" height="18" viewBox="0 0 16 18">
  <defs/>
  <path fill="#212135" d="M1.707,11.293 L5,14.586 L5,1 Q5,0.586 5.293,0.293 Q5.586,0 6,0 Q6.414,0 6.707,0.293 Q7,0.586 7,1 L7,17 Q7,17.414 6.707,17.707 Q6.414,18 6,18 Q5.586,18 5.293,17.707 L0.293,12.707 Q0,12.414 0,12 Q0,11.586 0.293,11.293 Q0.586,11 1,11 Q1.414,11 1.707,11.293 Z"/>
  <path fill="#212135" d="M14.293,6.707 L11,3.414 L11,17 Q11,17.414 10.707,17.707 Q10.414,18 10,18 Q9.586,18 9.293,17.707 Q9,17.414 9,17 L9,1 Q9,0.586 9.293,0.293 Q9.586,0 10,0 Q10.414,0 10.707,0.293 L15.707,5.293 Q16,5.586 16,6 Q16,6.414 15.707,6.707 Q15.414,7 15,7 Q14.586,7 14.293,6.707 Z"/>
</svg>

