<svg xmlns="http://www.w3.org/2000/svg" width="22" height="18" viewBox="0 0 22 18">
  <defs/>
  <path fill="#212135" d="M1.707,11.293 L5,14.586 L5,1 Q5,0.586 5.293,0.293 Q5.586,0 6,0 Q6.414,0 6.707,0.293 Q7,0.586 7,1 L7,14.586 L10.293,11.293 Q10.586,11 11,11 Q11.414,11 11.707,11.293 Q12,11.586 12,12 Q12,12.414 11.707,12.707 L6.707,17.707 Q6.414,18 6,18 Q5.638,18 5.368,17.776 Q5.33,17.744 5.293,17.707 L0.293,12.707 Q0,12.414 0,12 Q0,11.586 0.293,11.293 Q0.586,11 1,11 Q1.414,11 1.707,11.293 Z"/>
  <path fill="#212135" d="M10.293,5.293 L15.293,0.293 Q15.586,0 16,0 Q16.414,0 16.707,0.293 L21.707,5.293 Q22,5.586 22,6 Q22,6.414 21.707,6.707 Q21.414,7 21,7 Q20.586,7 20.293,6.707 L17,3.414 L17,17 Q17,17.414 16.707,17.707 Q16.414,18 16,18 Q15.586,18 15.293,17.707 Q15,17.414 15,17 L15,3.414 L11.707,6.707 Q11.414,7 11,7 Q10.586,7 10.293,6.707 Q10,6.414 10,6 Q10,5.586 10.293,5.293 Z"/>
</svg>

