<svg xmlns="http://www.w3.org/2000/svg" width="24" height="26" viewBox="0 0 24 26">
  <defs/>
  <path fill="#212135" d="M16.293,6.707 L13,3.414 L13,15 Q13,15.414 12.707,15.707 Q12.414,16 12,16 Q11.586,16 11.293,15.707 Q11,15.414 11,15 L11,3.414 L7.707,6.707 Q7.414,7 7,7 Q6.586,7 6.293,6.707 Q6,6.414 6,6 Q6,5.586 6.293,5.293 L11.293,0.293 Q11.586,0 12,0 Q12.362,0 12.632,0.224 Q12.67,0.256 12.707,0.293 L17.707,5.293 Q18,5.586 18,6 Q18,6.414 17.707,6.707 Q17.414,7 17,7 Q16.586,7 16.293,6.707 Z"/>
  <path fill="#212135" d="M5,9.296 C5,9.748 4.699,10.137 4.286,10.321 C3.973,10.461 3.722,10.612 3.519,10.77 C2.581,11.496 2,12.882 2,16.706 C2,20.529 2.581,21.915 3.519,22.642 C4.042,23.047 4.876,23.409 6.295,23.653 C7.714,23.897 9.564,24 12,24 C14.436,24 16.286,23.897 17.705,23.653 C19.124,23.409 19.958,23.047 20.481,22.642 C21.419,21.915 22,20.529 22,16.706 C22,12.882 21.419,11.496 20.481,10.77 C20.278,10.612 20.027,10.461 19.714,10.321 C19.301,10.137 19,9.748 19,9.296 C19,8.629 19.631,8.131 20.251,8.378 C23.193,9.548 24,11.981 24,16.706 C24,24.36 21.882,26 12,26 C2.118,26 0,24.36 0,16.706 C0,11.981 0.807,9.548 3.749,8.378 C4.369,8.131 5,8.629 5,9.296 Z"/>
</svg>

