<svg xmlns="http://www.w3.org/2000/svg" width="29" height="25" viewBox="0 0 29 25">
  <defs/>
  <path fill="#212135" d="M9.841,16.747 L13.816,13.27 Q13.938,13.153 14.085,13.087 Q14.116,13.073 14.147,13.061 Q14.313,12.998 14.5,13 Q14.687,12.998 14.853,13.061 Q14.884,13.073 14.915,13.087 Q15.062,13.153 15.184,13.27 L19.159,16.747 Q19.47,17.02 19.498,17.433 Q19.525,17.847 19.253,18.159 Q18.98,18.47 18.567,18.498 Q18.153,18.525 17.841,18.253 L15.5,16.204 L15.5,24 Q15.5,24.414 15.207,24.707 Q14.914,25 14.5,25 Q14.086,25 13.793,24.707 Q13.5,24.414 13.5,24 L13.5,16.204 L11.159,18.253 Q10.847,18.525 10.433,18.498 Q10.02,18.47 9.747,18.159 Q9.475,17.847 9.502,17.433 Q9.53,17.02 9.841,16.747 Z"/>
  <path fill="#212135" d="M9.681,8.312 Q9.334,9.363 9.335,9.998 Q9.335,10.839 9.659,11.615 Q9.818,11.998 9.66,12.381 Q9.503,12.764 9.12,12.923 Q8.738,13.082 8.355,12.925 Q7.972,12.767 7.813,12.385 Q7.336,11.24 7.335,10 Q7.334,9.042 7.783,7.684 Q7.913,7.291 8.283,7.105 Q8.653,6.918 9.046,7.049 Q9.439,7.179 9.625,7.549 Q9.812,7.919 9.681,8.312 Z"/>
  <path fill="#212135" d="M18,0 C24.041,0 29,4.948 29,10.991 C29,15.467 26.226,19.448 22.292,21.139 C22.282,21.143 22.278,21.145 22.278,21.145 C22.278,21.145 22.363,21.108 22.363,21.107 L22.362,21.108 C21.769,21.338 21.023,20.847 21.001,20.211 C21,20.197 21,20.231 21,20.231 L21,20.226 C21,20.184 21,20.163 21,20.153 C21.009,19.747 21.201,19.448 21.566,19.272 C21.576,19.268 21.609,19.253 21.675,19.222 C24.793,17.801 27,14.598 27,10.991 C27,6.055 22.939,2 18,2 C14.11,2 10.909,4.525 9.703,8.058 C9.547,8.514 9.088,8.794 8.61,8.724 C8.33,8.682 8.043,8.661 7.75,8.661 C4.594,8.661 2,11.342 2,14.488 C2,17.213 4.196,19.481 7.004,19.922 C7.549,20.008 8,20.448 8,21 C8,21.552 7.55,22.006 7.002,21.94 C3.225,21.481 0,18.46 0,14.488 C0,10.277 3.45,6.661 7.75,6.661 C7.956,6.661 8.146,6.542 8.232,6.354 C9.938,2.628 13.594,0 18,0 Z M18.23,22 C18.151,22.001 18.073,22.001 17.994,22 Z"/>
</svg>

