<svg xmlns="http://www.w3.org/2000/svg" width="25" height="24" viewBox="0 0 25 24">
  <defs/>
  <path fill="#212135" d="M4.909,6 C4.909,9.314 7.546,12 10.8,12 C14.053,12 16.69,9.314 16.69,6 C16.69,2.686 14.053,0 10.8,0 C7.546,0 4.909,2.686 4.909,6 Z"/>
  <path fill="#212135" d="M0,19 C0,23.117 1.906,24 10.8,24 C19.693,24 21.599,23.117 21.599,19 C21.599,14.883 19.693,14 10.8,14 C1.906,14 0,14.883 0,19 Z"/>
  <path fill="#212135" d="M23.324,7.293 C23.707,6.902 24.329,6.902 24.712,7.293 C25.096,7.683 25.096,8.317 24.712,8.707 L20.75,12.743 C20.548,12.949 20.279,13.047 20.014,13.035 C19.772,13.029 19.533,12.931 19.348,12.743 L17.959,11.329 C17.576,10.938 17.576,10.305 17.959,9.914 C18.343,9.524 18.965,9.524 19.348,9.914 L20.049,10.629 L23.324,7.293 Z"/>
</svg>

