<svg xmlns="http://www.w3.org/2000/svg" width="26" height="24" viewBox="0 0 26 24">
  <defs/>
  <path fill="#212135" d="M5,6 C5,9.314 7.686,12 11,12 C14.314,12 17,9.314 17,6 C17,2.686 14.314,0 11,0 C7.686,0 5,2.686 5,6 Z"/>
  <path fill="#212135" d="M0,19 C0,23.117 1.942,24 11,24 C20.058,24 22,23.117 22,19 C22,14.883 20.058,14 11,14 C1.942,14 0,14.883 0,19 Z"/>
  <path fill="#212135" d="M18,10 C18,9.448 18.448,9 19,9 L21,9 L21,7 C21,6.448 21.448,6 22,6 C22.552,6 23,6.448 23,7 L23,9 L25,9 C25.552,9 26,9.448 26,10 C26,10.552 25.552,11 25,11 L23,11 L23,13 C23,13.552 22.552,14 22,14 C21.448,14 21,13.552 21,13 L21,11 L19,11 C18.448,11 18,10.552 18,10 Z"/>
</svg>

