<svg xmlns="http://www.w3.org/2000/svg" width="25" height="24" viewBox="0 0 25 24">
  <defs/>
  <path fill="#212135" d="M10.947,12 C7.649,12 4.976,9.314 4.976,6 C4.976,2.686 7.649,0 10.947,0 C14.245,0 16.918,2.686 16.918,6 C16.918,9.314 14.245,12 10.947,12 Z"/>
  <path fill="#212135" d="M10.947,24 C1.932,24 0,23.117 0,19 C0,14.883 1.932,14 10.947,14 C19.962,14 21.894,14.883 21.894,19 C21.894,23.117 19.962,24 10.947,24 Z"/>
  <path fill="#212135" d="M19.079,12.828 C18.69,12.438 18.69,11.805 19.079,11.414 L20.486,10 L19.079,8.586 C18.69,8.195 18.69,7.562 19.079,7.172 C19.468,6.781 20.098,6.781 20.486,7.172 L21.894,8.586 L23.301,7.172 C23.69,6.781 24.32,6.781 24.709,7.172 C25.097,7.562 25.097,8.195 24.709,8.586 L23.301,10 L24.709,11.414 C25.097,11.805 25.097,12.438 24.709,12.828 C24.32,13.219 23.69,13.219 23.301,12.828 L21.894,11.414 L20.486,12.828 C20.098,13.219 19.468,13.219 19.079,12.828 Z"/>
</svg>

