<svg xmlns="http://www.w3.org/2000/svg" width="24" height="24" viewBox="0 0 24 24">
  <defs/>
  <path fill="#212135" d="M9.317,1.333 C10.664,-0.444 13.336,-0.444 14.684,1.333 L15.806,2.813 L17.645,2.56 C19.855,2.256 21.744,4.145 21.44,6.355 L21.187,8.194 L22.667,9.317 C24.444,10.664 24.444,13.336 22.667,14.684 L21.187,15.806 L21.44,17.645 C21.744,19.855 19.855,21.744 17.645,21.44 L15.806,21.187 L14.684,22.667 C13.336,24.444 10.664,24.444 9.317,22.667 L8.194,21.187 L6.355,21.44 C4.145,21.744 2.256,19.855 2.56,17.645 L2.813,15.806 L1.333,14.684 C-0.444,13.336 -0.444,10.664 1.333,9.317 L2.813,8.194 L2.56,6.355 C2.256,4.145 4.145,2.256 6.355,2.56 L8.194,2.813 Z M16.707,10.707 C17.098,10.317 17.098,9.683 16.707,9.293 C16.317,8.902 15.683,8.902 15.293,9.293 L11,13.586 L9.707,12.293 C9.317,11.902 8.683,11.902 8.293,12.293 C7.902,12.683 7.902,13.317 8.293,13.707 L10.293,15.707 C10.683,16.098 11.317,16.098 11.707,15.707 Z"/>
</svg>

