<svg xmlns="http://www.w3.org/2000/svg" width="29" height="20" viewBox="0 0 29 20">
  <defs/>
  <path fill="#212135" d="M11,20 C1.941,20 0,18.235 0,10 C0,1.765 1.941,0 11,0 C17.069,0 19.943,0.792 21.18,3.792 C22.831,2.518 24.362,1.895 25.692,2.014 C26.505,2.087 27.2,2.436 27.718,3.011 C28.223,3.57 28.518,4.292 28.652,5.066 C29.114,7.732 29.116,11.902 28.657,14.565 C28.548,15.495 28.284,16.331 27.784,16.958 C27.247,17.631 26.5,17.982 25.647,17.999 C24.84,18.016 23.988,17.737 23.133,17.282 C22.539,16.964 21.91,16.544 21.251,16.027 C20.056,19.176 17.189,20 11,20 Z M21.778,13.868 C22.65,14.625 23.419,15.167 24.074,15.517 C24.77,15.887 25.273,16.007 25.606,16 C25.892,15.994 26.07,15.899 26.221,15.711 C26.402,15.483 26.588,15.053 26.673,14.309 L26.676,14.279 L26.682,14.25 C27.106,11.817 27.106,7.858 26.681,5.408 C26.593,4.9 26.422,4.559 26.234,4.351 C26.06,4.158 25.834,4.035 25.514,4.006 C24.814,3.944 23.557,4.339 21.745,5.914 C21.927,7.057 22,8.407 22,10 C22,11.492 21.936,12.772 21.778,13.868 Z"/>
</svg>

