<svg xmlns="http://www.w3.org/2000/svg" width="24" height="24" viewBox="0 0 24 24">
  <defs/>
  <path fill="#212135" d="M-0.093,11.038 L0.008,11.027 Q0.131,4.333 2.405,2.187 Q4.721,0 12,0 Q19.279,0 21.595,2.187 Q23.932,4.393 23.997,11.401 Q24.001,11.851 23.981,12.032 Q23.96,12.213 23.872,12.584 Q21.902,20.847 13.152,23.681 Q12.474,23.901 12,23.901 Q11.526,23.901 10.848,23.681 Q2.327,20.921 0.236,13.014 L0.131,13.025 Q-0.28,13.072 -0.604,12.814 Q-0.928,12.555 -0.975,12.144 Q-1.021,11.732 -0.763,11.408 Q-0.505,11.084 -0.093,11.038 Z M2.006,11.807 L2.006,11.807 L2.006,11.807 Q2.013,11.868 2.073,12.12 Q3.783,19.29 11.464,21.779 Q11.842,21.901 12,21.901 Q12.158,21.901 12.536,21.779 Q20.217,19.29 21.927,12.12 Q21.987,11.868 21.994,11.807 Q22,11.747 21.997,11.419 Q21.94,5.263 20.222,3.641 Q18.484,2 12,2 Q5.516,2 3.778,3.641 Q2.06,5.263 2.003,11.42 Q2,11.747 2.006,11.807 Z"/>
  <path fill="#212135" d="M15.707,9.707 L13.414,12 L15.707,14.293 C16.098,14.683 16.098,15.317 15.707,15.707 C15.317,16.098 14.683,16.098 14.293,15.707 L12,13.414 L9.707,15.707 C9.317,16.098 8.683,16.098 8.293,15.707 C7.902,15.317 7.902,14.683 8.293,14.293 L10.586,12 L8.293,9.707 C7.902,9.317 7.902,8.683 8.293,8.293 C8.683,7.902 9.317,7.902 9.707,8.293 L12,10.586 L14.293,8.293 C14.683,7.902 15.317,7.902 15.707,8.293 C16.098,8.683 16.098,9.317 15.707,9.707 Z"/>
</svg>

