<svg xmlns="http://www.w3.org/2000/svg" width="24" height="24" viewBox="0 0 24 24">
  <defs/>
  <path fill="#212135" d="M23.982,12.082 C23.962,12.264 23.932,12.388 23.873,12.637 C22.093,20.132 15.773,22.927 13.152,23.779 C12.7,23.927 12.474,24 12,24 C11.526,24 11.3,23.927 10.848,23.779 C8.227,22.927 1.907,20.132 0.127,12.637 C0.068,12.388 0.038,12.264 0.018,12.082 C-0.003,11.899 -0.001,11.749 0.002,11.448 L0.002,11.448 C0.089,2.04 2.32,0 12,0 C21.68,0 23.911,2.04 23.998,11.448 C24.001,11.749 24.003,11.899 23.982,12.082 Z M12,6.025 C11.448,6.025 11,6.474 11,7.029 L11,13.054 C11,13.608 11.448,14.058 12,14.058 C12.552,14.058 13,13.608 13,13.054 L13,7.029 C13,6.474 12.552,6.025 12,6.025 Z M11,16.066 C11,16.621 11.448,17.07 12,17.07 C12.552,17.07 13,16.621 13,16.066 C13,15.512 12.552,15.062 12,15.062 C11.448,15.062 11,15.512 11,16.066 Z"/>
</svg>

