<svg xmlns="http://www.w3.org/2000/svg" width="24" height="24" viewBox="0 0 24 24">
  <defs/>
  <path fill="#212135" d="M4.364,12 Q4.417,7.881 6.136,6.136 Q7.884,4.364 12,4.364 Q16.13,4.364 17.89,6.136 Q19.636,7.895 19.636,12 Q19.637,16.105 17.89,17.864 Q16.13,19.636 12,19.636 Q7.856,19.636 6.083,17.864 Q4.311,16.091 4.364,12 Z M6.364,12.026 Q6.321,15.273 7.498,16.449 Q8.685,17.636 12,17.636 Q15.298,17.636 16.471,16.455 Q17.636,15.281 17.637,12 Q17.637,8.719 16.471,7.545 Q15.298,6.364 12,6.364 Q8.721,6.364 7.561,7.54 Q6.407,8.711 6.364,12.026 Z"/>
  <path fill="#212135" d="M17.971,1.475 C18.361,1.084 18.994,1.084 19.385,1.475 L20.928,3.017 L22.471,4.56 C22.861,4.951 22.861,5.584 22.471,5.974 C22.08,6.365 21.447,6.365 21.056,5.974 L20.221,5.139 L18.614,6.746 C18.223,7.136 17.59,7.136 17.199,6.746 C16.809,6.355 16.809,5.722 17.199,5.332 L18.806,3.725 L17.971,2.889 C17.58,2.498 17.58,1.865 17.971,1.475 Z M1.475,5.975 C1.084,5.584 1.084,4.951 1.475,4.56 L3.017,3.018 L4.56,1.475 C4.951,1.084 5.584,1.084 5.974,1.475 C6.365,1.865 6.365,2.498 5.974,2.889 L5.139,3.725 L6.746,5.332 C7.136,5.722 7.136,6.355 6.746,6.746 C6.355,7.136 5.722,7.136 5.332,6.746 L3.725,5.139 L2.889,5.975 C2.498,6.365 1.865,6.365 1.475,5.975 Z M22.471,19.385 L19.385,22.471 C18.994,22.861 18.361,22.861 17.971,22.471 C17.58,22.08 17.58,21.447 17.971,21.056 L18.806,20.221 L17.199,18.614 C16.809,18.223 16.809,17.59 17.199,17.199 C17.59,16.809 18.223,16.809 18.614,17.199 L20.221,18.806 L21.056,17.971 C21.447,17.58 22.08,17.58 22.471,17.971 C22.861,18.361 22.861,18.994 22.471,19.385 Z M9.818,0.091 L14.182,0.091 C14.734,0.091 15.182,0.539 15.182,1.091 C15.182,1.643 14.734,2.091 14.182,2.091 L13,2.091 L13,4.364 C13,4.916 12.552,5.364 12,5.364 C11.448,5.364 11,4.916 11,4.364 L11,2.091 L9.818,2.091 C9.266,2.091 8.818,1.643 8.818,1.091 C8.818,0.539 9.266,0.091 9.818,0.091 Z M1.091,8.818 C1.643,8.818 2.091,9.266 2.091,9.818 L2.091,11 L4.364,11 C4.916,11 5.364,11.448 5.364,12 C5.364,12.552 4.916,13 4.364,13 L2.091,13 L2.091,14.182 C2.091,14.734 1.643,15.182 1.091,15.182 C0.539,15.182 0.091,14.734 0.091,14.182 L0.091,9.818 C0.091,9.266 0.539,8.818 1.091,8.818 Z M4.56,22.471 L1.475,19.385 C1.084,18.994 1.084,18.361 1.475,17.971 C1.865,17.58 2.498,17.58 2.889,17.971 L3.725,18.806 L5.332,17.199 C5.722,16.809 6.355,16.809 6.746,17.199 C7.136,17.59 7.136,18.223 6.746,18.614 L5.139,20.221 L5.975,21.056 C6.365,21.447 6.365,22.08 5.975,22.471 C5.584,22.861 4.951,22.861 4.56,22.471 Z M9.818,23.909 C9.266,23.909 8.818,23.461 8.818,22.909 C8.818,22.357 9.266,21.909 9.818,21.909 L11,21.909 L11,19.636 C11,19.084 11.448,18.636 12,18.636 C12.552,18.636 13,19.084 13,19.636 L13,21.909 L14.182,21.909 C14.734,21.909 15.182,22.357 15.182,22.909 C15.182,23.461 14.734,23.909 14.182,23.909 Z M23.909,9.818 L23.909,14.182 C23.909,14.734 23.461,15.182 22.909,15.182 C22.357,15.182 21.909,14.734 21.909,14.182 L21.909,13 L19.636,13 C19.084,13 18.636,12.552 18.636,12 C18.636,11.448 19.084,11 19.636,11 L21.909,11 L21.909,9.818 C21.909,9.266 22.357,8.818 22.909,8.818 C23.461,8.818 23.909,9.266 23.909,9.818 Z"/>
</svg>

