<svg xmlns="http://www.w3.org/2000/svg" width="24" height="24" viewBox="0 0 24 24">
  <defs/>
  <path fill="#212135" d="M15.273,1.108 C15.273,0.496 14.777,0 14.165,0 L9.835,0 C9.223,0 8.727,0.496 8.727,1.108 C8.727,1.72 9.223,2.216 9.835,2.216 L10.909,2.216 L10.909,4.45 L10.909,4.465 C9.345,4.561 8.105,4.876 7.144,5.444 C7.098,5.365 7.042,5.29 6.975,5.222 L4.774,2.986 L5.289,2.463 C5.715,2.031 5.715,1.329 5.289,0.896 C4.863,0.463 4.172,0.463 3.746,0.896 L1.168,3.515 C0.742,3.948 0.742,4.649 1.168,5.082 C1.594,5.515 2.285,5.515 2.711,5.082 L3.231,4.554 L5.432,6.789 C5.48,6.838 5.531,6.881 5.585,6.919 C4.901,7.947 4.529,9.32 4.407,11.084 C4.387,11.083 4.367,11.082 4.346,11.082 L2.199,11.082 L2.182,11.082 L2.182,9.957 C2.182,9.354 1.693,8.866 1.091,8.866 C0.488,8.866 0,9.354 0,9.957 L0,14.424 C0,15.027 0.488,15.515 1.091,15.515 C1.693,15.515 2.182,15.027 2.182,14.424 L2.182,13.299 L2.199,13.299 L4.346,13.299 C4.358,13.299 4.37,13.299 4.382,13.298 C4.465,15.01 4.812,16.353 5.465,17.371 C5.454,17.382 5.443,17.393 5.432,17.404 L3.329,19.54 L2.708,18.91 C2.282,18.477 1.592,18.477 1.166,18.91 C0.74,19.343 0.74,20.045 1.166,20.477 L3.951,23.307 C4.377,23.74 5.068,23.74 5.494,23.307 C5.92,22.875 5.92,22.173 5.494,21.74 L4.871,21.108 L6.974,18.971 C6.998,18.948 7.02,18.923 7.04,18.898 C8.025,19.491 9.303,19.819 10.909,19.916 L10.909,19.931 L10.909,21.784 L9.835,21.784 C9.223,21.784 8.727,22.28 8.727,22.892 C8.727,23.504 9.223,24 9.835,24 L14.165,24 C14.777,24 15.273,23.504 15.273,22.892 C15.273,22.28 14.777,21.784 14.165,21.784 L13.091,21.784 L13.091,19.931 L13.091,19.916 C14.609,19.823 15.828,19.524 16.783,18.99 L18.812,21.051 L18.262,21.61 C17.836,22.043 17.836,22.744 18.262,23.177 C18.688,23.61 19.379,23.61 19.805,23.177 L22.425,20.515 C22.851,20.082 22.851,19.381 22.425,18.948 C21.999,18.515 21.309,18.515 20.883,18.948 L20.355,19.484 L18.412,17.51 C19.121,16.477 19.5,15.089 19.605,13.298 C19.621,13.298 19.637,13.299 19.654,13.299 L21.801,13.299 L21.818,13.299 L21.818,14.424 C21.818,15.027 22.307,15.515 22.909,15.515 C23.512,15.515 24,15.027 24,14.424 L24,9.957 C24,9.354 23.512,8.866 22.909,8.866 C22.307,8.866 21.818,9.354 21.818,9.957 L21.818,11.082 L21.801,11.082 L19.654,11.082 C19.637,11.082 19.621,11.083 19.605,11.083 C19.496,9.23 19.094,7.808 18.337,6.764 L20.454,4.614 L21.311,5.485 C21.737,5.918 22.428,5.918 22.854,5.485 C23.28,5.052 23.28,4.351 22.854,3.918 L19.6,0.612 C19.174,0.179 18.483,0.179 18.057,0.612 C17.631,1.045 17.631,1.746 18.057,2.179 L18.911,3.046 L16.772,5.22 C16.736,5.255 16.704,5.293 16.675,5.332 C15.736,4.834 14.552,4.554 13.091,4.465 L13.091,4.45 L13.091,2.216 L14.165,2.216 C14.777,2.216 15.273,1.72 15.273,1.108 Z"/>
</svg>

