<svg xmlns="http://www.w3.org/2000/svg" width="24" height="24" viewBox="0 0 24 24">
  <defs/>
  <path fill="#212135" d="M23.982,12.082 C23.962,12.264 23.932,12.388 23.873,12.637 C22.093,20.132 15.773,22.927 13.152,23.779 C12.7,23.927 12.474,24 12,24 C11.526,24 11.3,23.927 10.848,23.779 C8.227,22.927 1.907,20.132 0.127,12.637 C0.068,12.388 0.038,12.264 0.018,12.082 C-0.003,11.899 -0.001,11.749 0.002,11.448 L0.002,11.448 C0.089,2.04 2.32,0 12,0 C21.68,0 23.911,2.04 23.998,11.448 C24.001,11.749 24.003,11.899 23.982,12.082 Z M15.708,8.327 C15.317,7.935 14.684,7.935 14.293,8.327 L12,10.63 L9.707,8.327 C9.316,7.935 8.683,7.935 8.293,8.327 C7.902,8.719 7.902,9.355 8.293,9.747 L10.586,12.05 L8.293,14.352 C7.902,14.744 7.902,15.38 8.293,15.772 C8.683,16.164 9.316,16.164 9.707,15.772 L12,13.47 L14.293,15.772 C14.684,16.164 15.317,16.164 15.708,15.772 C16.098,15.38 16.098,14.744 15.708,14.352 L13.414,12.05 L15.708,9.747 C16.098,9.355 16.098,8.719 15.708,8.327 Z"/>
</svg>

