<svg xmlns="http://www.w3.org/2000/svg" width="24" height="24" viewBox="0 0 24 24">
  <defs/>
  <path fill="#212135" d="M-0.093,11.038 L0.008,11.027 Q0.131,4.333 2.405,2.187 Q4.721,0 12,0 Q19.279,0 21.595,2.187 Q23.932,4.393 23.997,11.401 Q24.001,11.851 23.981,12.032 Q23.96,12.213 23.872,12.584 Q21.902,20.847 13.152,23.681 Q12.474,23.901 12,23.901 Q11.526,23.901 10.848,23.681 Q2.327,20.921 0.236,13.014 L0.131,13.025 Q-0.28,13.072 -0.604,12.814 Q-0.928,12.555 -0.975,12.144 Q-1.021,11.732 -0.763,11.408 Q-0.505,11.084 -0.093,11.038 Z M2.006,11.807 L2.006,11.807 L2.006,11.807 Q2.013,11.868 2.073,12.12 Q3.783,19.29 11.464,21.779 Q11.842,21.901 12,21.901 Q12.158,21.901 12.536,21.779 Q20.217,19.29 21.927,12.12 Q21.987,11.868 21.994,11.807 Q22,11.747 21.997,11.419 Q21.94,5.263 20.222,3.641 Q18.484,2 12,2 Q5.516,2 3.778,3.641 Q2.06,5.263 2.003,11.42 Q2,11.747 2.006,11.807 Z"/>
  <path fill="#212135" d="M13,7 L13,13 C13,13.552 12.552,14 12,14 C11.448,14 11,13.552 11,13 L11,7 C11,6.448 11.448,6 12,6 C12.552,6 13,6.448 13,7 Z M12,15 C12.552,15 13,15.448 13,16 C13,16.552 12.552,17 12,17 C11.448,17 11,16.552 11,16 C11,15.448 11.448,15 12,15 Z"/>
</svg>

