<svg xmlns="http://www.w3.org/2000/svg" width="29" height="20" viewBox="0 0 29 20">
  <defs/>
  <path fill="#212135" d="M7.392,15.714 Q3.298,15.714 1.529,14.143 Q0,12.785 0,10.001 Q0,7.308 1.726,5.857 Q3.599,4.284 7.392,4.284 Q9.16,4.284 10.322,3.614 Q11.111,3.16 11.923,2.142 L12.176,1.82 L12.178,1.819 Q12.826,0.992 13.228,0.669 Q14.063,0 15.272,0 Q16.611,0 17.562,0.759 Q18.454,1.47 19.015,2.856 Q20,5.292 20,10.001 Q20,14.711 19.015,17.145 Q18.454,18.531 17.562,19.242 Q16.611,20 15.272,20 Q14.068,20 13.302,19.33 Q12.953,19.025 12.428,18.285 L12.426,18.282 Q12.234,18.012 12.12,17.857 Q11.378,16.847 10.544,16.383 Q9.34,15.714 7.392,15.714 Z M7.392,13.714 Q9.859,13.714 11.516,14.636 Q12.731,15.311 13.731,16.672 Q13.855,16.841 14.057,17.124 L14.059,17.128 Q14.448,17.675 14.618,17.825 Q14.819,18 15.272,18 Q15.911,18 16.316,17.678 Q16.797,17.294 17.161,16.395 Q18,14.321 18,10.001 Q18,5.681 17.161,3.607 Q16.797,2.706 16.315,2.322 Q15.911,2 15.272,2 Q14.766,2 14.479,2.23 Q14.257,2.408 13.751,3.054 L13.748,3.057 L13.487,3.388 Q12.439,4.704 11.32,5.348 Q9.694,6.284 7.392,6.284 Q4.328,6.284 3.013,7.389 Q2,8.24 2,10.001 Q2,11.886 2.857,12.647 Q4.058,13.714 7.392,13.714 Z"/>
  <path fill="#212135" d="M22,9 L24,9 L24,7 Q24,6.586 24.293,6.293 Q24.586,6 25,6 Q25.414,6 25.707,6.293 Q26,6.586 26,7 L26,9 L28,9 Q28.414,9 28.707,9.293 Q29,9.586 29,10 Q29,10.414 28.707,10.707 Q28.414,11 28,11 L26,11 L26,13 Q26,13.414 25.707,13.707 Q25.414,14 25,14 Q24.586,14 24.293,13.707 Q24,13.414 24,13 L24,11 L22,11 Q21.586,11 21.293,10.707 Q21,10.414 21,10 Q21,9.586 21.293,9.293 Q21.586,9 22,9 Z"/>
</svg>

