<svg xmlns="http://www.w3.org/2000/svg" width="29" height="21" viewBox="0 0 29 21">
  <defs/>
  <path fill="#212135" d="M7.207,16.499 Q3.216,16.499 1.491,14.85 Q0,13.424 0,10.502 Q0,7.673 1.683,6.15 Q3.509,4.498 7.207,4.498 Q8.931,4.498 10.064,3.795 Q10.833,3.318 11.625,2.249 L11.873,1.911 Q12.504,1.043 12.897,0.703 Q13.711,0 14.89,0 Q16.196,0 17.123,0.797 Q17.993,1.543 18.54,2.999 Q19.5,5.556 19.5,10.502 Q19.5,15.446 18.54,18.002 Q17.993,19.457 17.123,20.204 Q16.195,21 14.89,21 Q13.717,21 12.97,20.297 Q12.63,19.977 12.117,19.199 L12.116,19.198 Q11.93,18.915 11.817,18.75 Q11.093,17.69 10.28,17.202 Q9.107,16.499 7.207,16.499 Z M7.207,14.499 Q9.66,14.499 11.308,15.487 Q12.498,16.199 13.469,17.622 Q13.591,17.801 13.786,18.097 L13.787,18.098 Q14.171,18.681 14.34,18.841 Q14.51,19 14.89,19 Q15.455,19 15.82,18.686 Q16.301,18.274 16.667,17.299 Q17.5,15.083 17.5,10.502 Q17.5,5.919 16.667,3.703 Q16.301,2.727 15.82,2.314 Q15.455,2 14.89,2 Q14.455,2 14.205,2.216 Q13.986,2.405 13.487,3.092 L13.233,3.439 Q12.213,4.816 11.118,5.495 Q9.5,6.498 7.207,6.498 Q4.28,6.498 3.025,7.633 Q2,8.561 2,10.502 Q2,12.569 2.873,13.404 Q4.018,14.499 7.207,14.499 Z"/>
  <path fill="#212135" d="M25.327,2.352 Q26.576,3.822 27.179,5.063 Q28.565,7.918 28.565,10.5 Q28.565,13.082 27.179,15.937 Q26.576,17.178 25.327,18.648 Q25.059,18.963 24.646,18.997 Q24.233,19.03 23.917,18.762 Q23.602,18.494 23.568,18.081 Q23.535,17.668 23.803,17.352 Q24.888,16.076 25.38,15.063 Q26.565,12.622 26.565,10.5 Q26.565,8.378 25.38,5.937 Q24.888,4.924 23.803,3.648 Q23.535,3.332 23.568,2.919 Q23.602,2.506 23.917,2.238 Q24.233,1.97 24.646,2.003 Q25.059,2.037 25.327,2.352 Z"/>
  <path fill="#212135" d="M23.355,6.481 Q23.799,7.213 24.016,7.839 Q24.5,9.234 24.5,10.5 Q24.5,11.766 24.016,13.161 Q23.799,13.787 23.355,14.519 Q23.14,14.873 22.737,14.971 Q22.335,15.07 21.981,14.855 Q21.627,14.64 21.529,14.237 Q21.43,13.835 21.645,13.481 Q21.979,12.931 22.127,12.506 Q22.5,11.429 22.5,10.5 Q22.5,9.571 22.127,8.494 Q21.979,8.069 21.645,7.519 Q21.43,7.165 21.529,6.763 Q21.627,6.36 21.981,6.145 Q22.335,5.93 22.737,6.029 Q23.14,6.127 23.355,6.481 Z"/>
</svg>

