<svg xmlns="http://www.w3.org/2000/svg" width="29" height="20" viewBox="0 0 29 20">
  <defs/>
  <path fill="#212135" d="M7.392,15.714 C1.614,15.714 0,13.428 0,10.001 C0,6.574 2.139,4.284 7.392,4.284 C10.252,4.284 11.244,3.014 12.147,1.857 C12.903,0.889 13.597,0 15.272,0 C18.949,0 20,4.284 20,10.001 C20,15.719 18.949,20 15.272,20 C13.64,20 13.043,19.156 12.378,18.217 C11.545,17.04 10.607,15.714 7.392,15.714 Z"/>
  <path fill="#212135" d="M21,10 C21,9.448 21.448,9 22,9 L24,9 L24,7 C24,6.448 24.448,6 25,6 C25.552,6 26,6.448 26,7 L26,9 L28,9 C28.552,9 29,9.448 29,10 C29,10.552 28.552,11 28,11 L26,11 L26,13 C26,13.552 25.552,14 25,14 C24.448,14 24,13.552 24,13 L24,11 L22,11 C21.448,11 21,10.552 21,10 Z"/>
</svg>

