<svg xmlns="http://www.w3.org/2000/svg" width="25" height="21" viewBox="0 0 25 21">
  <defs/>
  <path fill="#212135" d="M0,10.502 C0,14.1 1.605,16.499 7.354,16.499 C10.552,16.499 11.486,17.892 12.315,19.128 C12.976,20.114 13.571,21 15.194,21 C18.853,21 19.898,16.505 19.898,10.502 C19.898,4.498 18.853,0 15.194,0 C13.527,0 12.837,0.933 12.085,1.95 C11.187,3.164 10.2,4.498 7.354,4.498 C2.128,4.498 0,6.903 0,10.502 Z"/>
  <path fill="#212135" d="M23.831,6.481 C23.539,6.009 22.911,5.859 22.43,6.145 C21.948,6.432 21.794,7.047 22.087,7.519 L22.089,7.522 L22.099,7.538 C22.108,7.554 22.122,7.577 22.14,7.607 C22.175,7.668 22.225,7.754 22.28,7.855 C22.395,8.067 22.511,8.305 22.578,8.494 C22.837,9.227 22.959,9.677 22.959,10.5 C22.959,11.323 22.837,11.773 22.578,12.506 C22.511,12.695 22.395,12.933 22.28,13.145 C22.225,13.246 22.175,13.332 22.14,13.393 C22.122,13.423 22.108,13.446 22.099,13.461 L22.089,13.478 L22.087,13.481 C21.795,13.953 21.948,14.568 22.43,14.855 C22.911,15.141 23.539,14.991 23.831,14.519 L23.031,14.043 C23.831,14.519 23.831,14.519 23.831,14.519 L23.834,14.515 L23.839,14.507 L23.854,14.481 C23.868,14.46 23.886,14.429 23.908,14.391 C23.953,14.315 24.014,14.208 24.082,14.083 C24.212,13.843 24.387,13.497 24.506,13.161 C24.809,12.305 25,11.623 25,10.5 C25,9.377 24.809,8.695 24.506,7.839 C24.387,7.503 24.212,7.157 24.082,6.917 C24.014,6.792 23.953,6.685 23.908,6.609 C23.886,6.571 23.868,6.54 23.854,6.519 L23.839,6.493 L23.834,6.485 L23.831,6.481 C23.831,6.481 23.831,6.481 22.959,7 L23.831,6.481 Z"/>
</svg>

