<svg xmlns="http://www.w3.org/2000/svg" width="29" height="21" viewBox="0 0 29 21">
  <defs/>
  <path fill="#212135" d="M7.317,16.499 C1.597,16.499 0,14.1 0,10.502 C0,6.903 2.117,4.498 7.317,4.498 C10.148,4.498 11.13,3.164 12.024,1.95 C12.772,0.933 13.459,0 15.117,0 C18.757,0 19.797,4.498 19.797,10.502 C19.797,16.505 18.757,21 15.117,21 C13.502,21 12.911,20.114 12.253,19.128 C11.428,17.892 10.499,16.499 7.317,16.499 Z"/>
  <path fill="#212135" d="M24.282,2.238 C24.709,1.88 25.349,1.932 25.713,2.352 L24.939,3 C25.713,2.352 25.713,2.352 25.713,2.352 L25.714,2.354 L25.718,2.358 L25.73,2.372 L25.772,2.423 C25.809,2.466 25.86,2.527 25.923,2.605 C26.049,2.759 26.223,2.976 26.416,3.231 C26.791,3.728 27.272,4.413 27.593,5.063 C28.467,6.836 29,8.205 29,10.5 C29,12.795 28.467,14.164 27.593,15.937 C27.272,16.587 26.791,17.272 26.416,17.77 C26.223,18.024 26.049,18.241 25.923,18.395 C25.86,18.473 25.809,18.534 25.772,18.577 L25.73,18.628 L25.718,18.642 L25.714,18.646 L25.713,18.647 C25.713,18.647 25.713,18.648 24.939,18 L25.713,18.648 C25.349,19.069 24.709,19.12 24.282,18.762 C23.854,18.404 23.802,17.773 24.165,17.353 L24.167,17.351 L24.175,17.341 L24.21,17.3 C24.241,17.264 24.286,17.209 24.343,17.14 C24.456,17.002 24.613,16.805 24.787,16.576 C25.142,16.105 25.531,15.54 25.766,15.063 C26.57,13.432 26.97,12.376 26.97,10.5 C26.97,8.625 26.57,7.568 25.766,5.937 C25.531,5.46 25.142,4.895 24.787,4.424 C24.613,4.195 24.456,3.998 24.343,3.86 C24.286,3.791 24.241,3.736 24.21,3.7 L24.175,3.659 L24.167,3.65 L24.166,3.648 C23.802,3.227 23.854,2.596 24.282,2.238 Z"/>
  <path fill="#212135" d="M23.71,6.481 C23.419,6.009 22.795,5.859 22.316,6.145 C21.837,6.432 21.684,7.047 21.975,7.519 L21.977,7.522 L21.987,7.538 C21.996,7.554 22.01,7.577 22.027,7.607 C22.063,7.668 22.112,7.754 22.167,7.855 C22.281,8.067 22.397,8.305 22.464,8.494 C22.721,9.227 22.843,9.677 22.843,10.5 C22.843,11.323 22.721,11.773 22.464,12.506 C22.397,12.695 22.281,12.933 22.167,13.145 C22.112,13.246 22.063,13.332 22.027,13.393 C22.01,13.423 21.996,13.446 21.987,13.461 L21.977,13.478 L21.975,13.481 C21.684,13.953 21.837,14.568 22.316,14.855 C22.795,15.141 23.419,14.991 23.71,14.519 L22.914,14.043 C23.71,14.519 23.71,14.519 23.71,14.519 L23.713,14.515 L23.718,14.507 L23.733,14.481 C23.747,14.46 23.765,14.429 23.787,14.391 C23.831,14.315 23.892,14.208 23.96,14.083 C24.09,13.843 24.264,13.497 24.382,13.161 C24.683,12.305 24.873,11.623 24.873,10.5 C24.873,9.377 24.683,8.695 24.382,7.839 C24.264,7.503 24.09,7.157 23.96,6.917 C23.892,6.792 23.831,6.685 23.787,6.609 C23.765,6.571 23.747,6.54 23.733,6.519 L23.718,6.493 L23.713,6.485 L23.71,6.481 C23.71,6.481 23.71,6.481 22.843,7 L23.71,6.481 Z"/>
</svg>

