<svg xmlns="http://www.w3.org/2000/svg" width="29" height="20" viewBox="0 0 29 20">
  <defs/>
  <path fill="#212135" d="M0,10.001 C0,13.428 1.614,15.714 7.392,15.714 C10.607,15.714 11.545,17.04 12.378,18.217 C13.043,19.156 13.64,20 15.272,20 C18.949,20 20,15.719 20,10.001 C20,4.284 18.949,0 15.272,0 C13.597,0 12.903,0.889 12.147,1.857 C11.244,3.014 10.252,4.284 7.392,4.284 C2.139,4.284 0,6.574 0,10.001 Z"/>
  <path fill="#212135" d="M22,9 C21.448,9 21,9.448 21,10 C21,10.552 21.448,11 22,11 L28,11 C28.552,11 29,10.552 29,10 C29,9.448 28.552,9 28,9 L22,9 Z"/>
</svg>

