<svg xmlns="http://www.w3.org/2000/svg" width="24" height="24" viewBox="0 0 24 24">
  <defs/>
  <path fill="#212135" d="M0,12 Q0,8.14 0.485,5.956 Q1.015,3.574 2.294,2.294 Q3.574,1.015 5.956,0.485 Q8.14,0 12,0 Q18.396,0 20.81,1.57 Q23.346,3.221 23.832,8 Q24,9.651 24,12 Q24,14.349 23.832,16 Q23.346,20.779 20.81,22.43 Q18.396,24 12,24 Q8.14,24 5.956,23.515 Q3.574,22.985 2.294,21.706 Q1.015,20.426 0.485,18.044 Q0,15.86 0,12 Z M2,12 Q2,15.64 2.438,17.61 Q2.841,19.424 3.708,20.292 Q4.576,21.159 6.39,21.562 Q8.36,22 12,22 Q17.803,22 19.719,20.753 Q21.453,19.624 21.842,15.798 Q22,14.248 22,12 Q22,9.752 21.842,8.202 Q21.453,4.375 19.719,3.247 Q17.803,2 12,2 Q8.359,2 6.39,2.438 Q4.576,2.841 3.708,3.708 Q2.841,4.576 2.438,6.39 Q2,8.359 2,12 Z"/>
</svg>

