<svg xmlns="http://www.w3.org/2000/svg" width="24" height="24" viewBox="0 0 24 24">
  <defs/>
  <path fill="#212135" d="M0,12 C0,21.882 2.118,24 12,24 C19.761,24 22.733,22.694 23.651,17.347 C23.682,17.166 23.542,17 23.358,17 L17,17 C16.343,17 15.693,16.871 15.087,16.619 C14.48,16.368 13.929,16 13.464,15.536 C13,15.071 12.632,14.52 12.381,13.913 C12.129,13.307 12,12.657 12,12 C12,11.343 12.129,10.693 12.381,10.087 C12.632,9.48 13,8.929 13.464,8.464 C13.929,8 14.48,7.632 15.087,7.381 C15.693,7.129 16.343,7 17,7 L23.358,7 C23.542,7 23.682,6.834 23.651,6.653 C22.733,1.306 19.761,0 12,0 C2.118,0 0,2.118 0,12 Z"/>
  <path fill="#212135" d="M24,12 C24,12.981 23.979,13.886 23.932,14.719 C23.923,14.877 23.792,15 23.634,15 L17,15 C16.606,15 16.216,14.922 15.852,14.772 C15.488,14.621 15.157,14.4 14.879,14.121 C14.6,13.843 14.379,13.512 14.228,13.148 C14.078,12.784 14,12.394 14,12 C14,11.606 14.078,11.216 14.228,10.852 C14.379,10.488 14.6,10.157 14.879,9.879 C15.157,9.6 15.488,9.379 15.852,9.228 C16.216,9.078 16.606,9 17,9 L23.634,9 C23.792,9 23.923,9.123 23.932,9.281 C23.979,10.114 24,11.019 24,12 Z M18,11 C17.448,11 17,11.448 17,12 C17,12.552 17.448,13 18,13 L20,13 C20.552,13 21,12.552 21,12 C21,11.448 20.552,11 20,11 Z"/>
</svg>

