<svg xmlns="http://www.w3.org/2000/svg" width="20" height="26" viewBox="0 0 20 26">
  <defs/>
  <path fill="#212135" d="M4.23,1.73 C5.311,0.65 7.125,0 10,0 C12.875,0 14.689,0.65 15.77,1.73 C16.859,2.82 16.999,4.146 17,4.995 C19.35,6.15 20,8.503 20,13 C20,17.497 19.35,19.85 17,21.005 C16.999,21.854 16.859,23.18 15.77,24.27 C14.689,25.35 12.875,26 10,26 C7.125,26 5.311,25.35 4.23,24.27 C3.141,23.18 3.001,21.854 3,21.005 C0.65,19.85 0,17.497 0,13 C0,8.503 0.65,6.15 3,4.995 C3.001,4.146 3.141,2.82 4.23,1.73 Z M3.25,18.793 C3.626,19.132 4.239,19.452 5.356,19.675 C6.484,19.9 7.982,20 10,20 C12.018,20 13.516,19.9 14.644,19.675 C15.761,19.452 16.374,19.132 16.75,18.793 C17.494,18.124 18,16.755 18,13 C18,9.245 17.494,7.876 16.75,7.207 C16.374,6.868 15.761,6.548 14.644,6.325 C13.516,6.099 12.018,6 10,6 C7.982,6 6.484,6.099 5.356,6.325 C4.239,6.548 3.626,6.868 3.25,7.207 C2.506,7.876 2,9.245 2,13 C2,16.755 2.506,18.124 3.25,18.793 Z M14.951,21.653 C13.642,21.905 12.015,22 10,22 C7.985,22 6.358,21.905 5.049,21.653 C5.121,22.084 5.289,22.5 5.645,22.855 C6.189,23.4 7.375,24 10,24 C12.625,24 13.811,23.4 14.355,22.855 C14.711,22.5 14.879,22.084 14.951,21.653 Z M5.645,3.145 C5.289,3.5 5.121,3.916 5.049,4.347 C6.358,4.095 7.985,4 10,4 C12.015,4 13.642,4.095 14.951,4.347 C14.879,3.916 14.711,3.5 14.355,3.145 C13.811,2.6 12.625,2 10,2 C7.375,2 6.189,2.6 5.645,3.145 Z"/>
  <path fill="#212135" d="M11,9 L11,12 L15,12 Q15.414,12 15.707,12.293 Q16,12.586 16,13 Q16,13.414 15.707,13.707 Q15.414,14 15,14 L11,14 Q9,14 9,12 L9,9 Q9,8.586 9.293,8.293 Q9.586,8 10,8 Q10.414,8 10.707,8.293 Q11,8.586 11,9 Z"/>
</svg>

