<svg xmlns="http://www.w3.org/2000/svg" width="20" height="24" viewBox="0 0 20 24">
  <defs/>
  <path fill="#212135" d="M4.003,3.603 C4.007,3.552 4.01,3.493 4.013,3.419 L4.014,3.409 C4.018,3.319 4.023,3.206 4.033,3.089 C4.054,2.846 4.096,2.538 4.216,2.215 C4.479,1.504 5.038,0.924 5.992,0.547 C6.895,0.19 8.178,0 10,0 C11.822,0 13.105,0.19 14.008,0.547 C14.962,0.924 15.521,1.504 15.784,2.215 C15.904,2.538 15.946,2.846 15.967,3.089 C15.977,3.206 15.982,3.319 15.986,3.409 L15.987,3.419 C15.99,3.493 15.993,3.552 15.997,3.603 C19.171,4.575 20,6.92 20,12 C20,17.081 19.17,19.425 15.995,20.397 C15.992,20.441 15.99,20.492 15.987,20.554 L15.986,20.564 C15.982,20.654 15.976,20.766 15.967,20.883 C15.946,21.127 15.904,21.435 15.785,21.759 C15.524,22.47 14.969,23.058 14.013,23.442 C13.108,23.806 11.823,24 10,24 C8.177,24 6.892,23.806 5.987,23.442 C5.031,23.058 4.476,22.47 4.215,21.759 C4.096,21.435 4.054,21.127 4.033,20.883 C4.023,20.766 4.018,20.654 4.014,20.564 L4.013,20.554 C4.01,20.492 4.008,20.441 4.005,20.397 C0.83,19.425 0,17.081 0,12 C0,6.92 0.829,4.575 4.003,3.603 Z M9,7 L9,12 C9,12.552 9.448,13 10,13 L15,13 C15.552,13 16,12.552 16,12 C16,11.448 15.552,11 15,11 L11,11 L11,7 C11,6.448 10.552,6 10,6 C9.448,6 9,6.448 9,7 Z M13.968,3.194 C13.955,3.07 13.935,2.981 13.909,2.91 C13.871,2.809 13.78,2.607 13.272,2.406 C12.713,2.185 11.724,2 10,2 C8.276,2 7.287,2.185 6.728,2.406 C6.22,2.607 6.129,2.809 6.091,2.91 C6.065,2.981 6.045,3.07 6.032,3.194 C7.15,3.055 8.462,3 10,3 C11.538,3 12.851,3.055 13.968,3.194 Z M10,21 C8.463,21 7.152,20.945 6.035,20.806 C6.048,20.917 6.067,21.001 6.092,21.069 C6.132,21.178 6.228,21.383 6.733,21.587 C7.29,21.811 8.278,22 10,22 C11.722,22 12.71,21.811 13.267,21.587 C13.772,21.383 13.868,21.178 13.908,21.069 C13.933,21.001 13.952,20.917 13.965,20.806 C12.848,20.945 11.537,21 10,21 Z"/>
</svg>

