<svg xmlns="http://www.w3.org/2000/svg" width="24" height="24" viewBox="0 0 24 24">
  <defs/>
  <path fill="#212135" d="M0,12 C0,18.5 0.917,21.641 4.357,23.03 C4.67,23.156 5,22.916 5,22.578 L5,9.5 C5,9.224 4.776,9 4.5,9 L0.554,9 C0.29,9 0.072,9.204 0.058,9.468 C0.018,10.249 0,11.092 0,12 Z"/>
  <path fill="#212135" d="M12,24 C10.24,24 8.726,23.933 7.426,23.766 C7.181,23.735 7,23.524 7,23.277 L7,9.5 C7,9.224 7.224,9 7.5,9 L23.446,9 C23.71,9 23.928,9.204 23.942,9.468 C23.982,10.249 24,11.092 24,12 C24,21.882 21.882,24 12,24 Z"/>
  <path fill="#212135" d="M12,0 C19.649,0 22.647,1.269 23.611,6.426 C23.667,6.727 23.432,7 23.126,7 L0.874,7 C0.568,7 0.333,6.727 0.389,6.426 C1.353,1.269 4.351,0 12,0 Z M10,4 C10,4.552 10.448,5 11,5 C11.552,5 12,4.552 12,4 C12,3.448 11.552,3 11,3 C10.448,3 10,3.448 10,4 Z M8,5 C8.552,5 9,4.552 9,4 C9,3.448 8.552,3 8,3 C7.448,3 7,3.448 7,4 C7,4.552 7.448,5 8,5 Z M5,5 C5.552,5 6,4.552 6,4 C6,3.448 5.552,3 5,3 C4.448,3 4,3.448 4,4 C4,4.552 4.448,5 5,5 Z"/>
</svg>

