<svg xmlns="http://www.w3.org/2000/svg" width="24" height="24" viewBox="0 0 24 24">
  <defs/>
  <path fill="#212135" d="M0,12 Q0,9.651 0.168,8 Q0.654,3.221 3.19,1.57 Q5.604,0 12,0 Q18.396,0 20.81,1.57 Q23.346,3.221 23.832,8 Q24,9.651 24,12 Q24,15.86 23.515,18.044 Q22.985,20.427 21.706,21.706 Q20.427,22.985 18.044,23.515 Q15.86,24 12,24 Q8.175,24 6,23.524 Q2.484,22.756 1.2,20.156 Q0,17.729 0,12 Z M2,12 Q2,17.262 2.992,19.27 Q3.851,21.007 6.427,21.57 Q8.391,22 12,22 Q15.64,22 17.61,21.562 Q19.424,21.159 20.292,20.292 Q21.159,19.424 21.562,17.61 Q22,15.64 22,12 Q22,9.752 21.842,8.202 Q21.453,4.375 19.719,3.247 Q17.803,2 12,2 Q6.197,2 4.281,3.247 Q2.547,4.376 2.158,8.202 Q2,9.752 2,12 Z"/>
  <path fill="#212135" d="M5,5 C5,5.552 5.448,6 6,6 C6.552,6 7,5.552 7,5 C7,4.448 6.552,4 6,4 C5.448,4 5,4.448 5,5 Z"/>
  <path fill="#212135" d="M8,5 C8,5.552 8.448,6 9,6 C9.552,6 10,5.552 10,5 C10,4.448 9.552,4 9,4 C8.448,4 8,4.448 8,5 Z"/>
  <path fill="#212135" d="M11,5 C11,5.552 11.448,6 12,6 C12.552,6 13,5.552 13,5 C13,4.448 12.552,4 12,4 C11.448,4 11,4.448 11,5 Z"/>
</svg>

