<svg xmlns="http://www.w3.org/2000/svg" width="24" height="24" viewBox="0 0 24 24">
  <defs/>
  <path fill="#212135" d="M0,12 Q0,10.392 0.215,9 Q0.912,4.5 3.858,2.25 Q6.804,0 12,0 Q17.196,0 20.142,2.25 Q23.088,4.5 23.785,9 Q24,10.393 24,12 Q24,13.607 23.785,15 Q23.088,19.5 20.142,21.75 Q17.196,24 12,24 Q6.804,24 3.858,21.75 Q0.912,19.5 0.215,15 Q0,13.608 0,12 Z M2,12 Q2,13.454 2.192,14.694 Q2.765,18.399 5.072,20.161 Q7.48,22 12,22 Q16.52,22 18.928,20.161 Q21.235,18.399 21.808,14.694 Q22,13.454 22,12 Q22,10.546 21.808,9.306 Q21.235,5.601 18.928,3.839 Q16.52,2 12,2 Q7.48,2 5.072,3.839 Q2.765,5.601 2.192,9.306 Q2,10.546 2,12 Z"/>
  <path fill="#212135" d="M16,12 Q16,16.651 14.828,20.278 Q14.268,22.013 13.557,22.979 Q12.806,24 12,24 Q11.194,24 10.443,22.979 Q9.732,22.013 9.172,20.278 Q8,16.652 8,12 Q8,7.348 9.172,3.722 Q9.732,1.987 10.443,1.021 Q11.194,0 12,0 Q12.806,0 13.557,1.021 Q14.268,1.987 14.828,3.722 Q16,7.348 16,12 Z M14,12 Q14,7.663 12.925,4.337 Q12.489,2.985 12,2.282 Q11.511,2.985 11.075,4.337 Q10,7.663 10,12 Q10,16.337 11.075,19.663 Q11.511,21.015 12,21.719 Q12.489,21.015 12.925,19.663 Q14,16.336 14,12 Z"/>
</svg>

