<svg xmlns="http://www.w3.org/2000/svg" width="24" height="24" viewBox="0 0 24 24">
  <defs/>
  <path fill="#212135" d="M14.253,15.924 C14.55,15.924 14.781,16.181 14.746,16.475 C14.511,18.408 14.128,20.108 13.65,21.458 C13.242,22.613 12.801,23.405 12.412,23.87 C12.344,23.952 12.241,23.997 12.134,23.997 C12.089,23.997 12.045,23.998 12,23.998 C11.955,23.998 11.911,23.997 11.866,23.997 C11.759,23.997 11.656,23.952 11.588,23.87 C11.199,23.405 10.758,22.613 10.35,21.458 C9.872,20.108 9.489,18.408 9.254,16.475 C9.218,16.181 9.45,15.924 9.747,15.924 L14.253,15.924 Z"/>
  <path fill="#212135" d="M17.271,15.924 C17.014,15.924 16.799,16.119 16.771,16.375 C16.484,18.957 15.942,21.219 15.228,22.926 C15.071,23.301 15.378,23.722 15.777,23.639 C19.837,22.786 22.393,20.417 23.447,16.53 C23.53,16.221 23.292,15.924 22.972,15.924 L17.271,15.924 Z"/>
  <path fill="#212135" d="M23.946,13.452 C23.928,13.709 23.712,13.905 23.454,13.905 L17.484,13.905 C17.199,13.905 16.972,13.668 16.981,13.383 C16.994,12.972 17,12.555 17,12.135 C17,11.546 16.987,10.967 16.963,10.397 C16.95,10.11 17.178,9.869 17.465,9.869 L23.454,9.869 C23.712,9.869 23.928,10.065 23.946,10.322 C23.982,10.826 24,11.347 24,11.887 C24,12.427 23.982,12.948 23.946,13.452 Z"/>
  <path fill="#212135" d="M14.978,13.429 C14.969,13.695 14.749,13.905 14.482,13.905 L9.518,13.905 C9.251,13.905 9.031,13.695 9.022,13.429 C9.007,13.004 9,12.572 9,12.135 C9,11.524 9.014,10.924 9.042,10.339 C9.055,10.075 9.274,9.869 9.538,9.869 L14.462,9.869 C14.726,9.869 14.945,10.075 14.958,10.339 C14.986,10.924 15,11.524 15,12.135 C15,12.572 14.993,13.004 14.978,13.429 Z"/>
  <path fill="#212135" d="M6.516,13.905 C6.801,13.905 7.028,13.668 7.019,13.383 C7.007,12.972 7,12.555 7,12.135 C7,11.546 7.013,10.967 7.037,10.397 C7.05,10.11 6.822,9.869 6.535,9.869 L0.546,9.869 C0.288,9.869 0.072,10.065 0.054,10.322 C0.018,10.826 0,11.347 0,11.887 C0,12.427 0.018,12.948 0.054,13.452 C0.072,13.709 0.288,13.905 0.546,13.905 L6.516,13.905 Z"/>
  <path fill="#212135" d="M1.028,15.924 C0.708,15.924 0.47,16.221 0.553,16.53 C1.607,20.417 4.163,22.786 8.223,23.639 C8.622,23.722 8.929,23.301 8.772,22.926 C8.058,21.219 7.516,18.957 7.229,16.375 C7.201,16.119 6.986,15.924 6.729,15.924 L1.028,15.924 Z"/>
  <path fill="#212135" d="M13.65,2.811 C14.086,4.043 14.444,5.566 14.681,7.291 C14.722,7.588 14.489,7.85 14.189,7.85 L9.811,7.85 C9.511,7.85 9.278,7.588 9.319,7.291 C9.556,5.566 9.914,4.043 10.35,2.811 C10.758,1.657 11.199,0.864 11.588,0.399 C11.664,0.308 11.731,0.238 11.789,0.183 C11.91,0.068 12.09,0.068 12.211,0.183 C12.269,0.238 12.336,0.308 12.412,0.399 C12.801,0.864 13.242,1.657 13.65,2.811 Z"/>
  <path fill="#212135" d="M16.713,7.406 C16.745,7.659 16.958,7.85 17.213,7.85 L22.972,7.85 C23.292,7.85 23.53,7.553 23.447,7.244 C22.373,3.282 19.738,0.897 15.54,0.088 C15.13,0.009 14.826,0.46 15.004,0.838 C15.781,2.491 16.382,4.768 16.713,7.406 Z"/>
  <path fill="#212135" d="M0.553,7.244 C0.47,7.553 0.708,7.85 1.028,7.85 L6.787,7.85 C7.042,7.85 7.255,7.659 7.287,7.406 C7.618,4.768 8.219,2.491 8.996,0.838 C9.174,0.46 8.87,0.009 8.46,0.088 C4.262,0.897 1.627,3.282 0.553,7.244 Z"/>
</svg>

