<svg xmlns="http://www.w3.org/2000/svg" width="24" height="24" viewBox="0 0 24 24">
  <defs/>
  <path fill="#212135" d="M2.609,2.413 Q5.111,0 11.478,0 Q17.845,0 20.348,2.413 Q22.957,4.929 22.957,11.478 Q22.956,18.028 20.348,20.544 Q17.845,22.956 11.478,22.956 Q5.111,22.956 2.609,20.544 Q0,18.028 0,11.478 Q0,4.929 2.609,2.413 Z M2,11.478 Q2,17.178 3.997,19.104 Q5.918,20.956 11.478,20.957 Q17.038,20.957 18.96,19.104 Q20.956,17.178 20.956,11.478 Q20.956,5.778 18.96,3.853 Q17.038,2 11.478,2 Q5.918,2 3.997,3.853 Q2,5.778 2,11.478 Z"/>
  <path fill="#212135" d="M22.249,23.664 L19.641,21.055 Q19.348,20.762 19.348,20.348 Q19.348,19.934 19.641,19.641 Q19.934,19.348 20.348,19.348 Q20.762,19.348 21.055,19.641 L23.664,22.249 Q23.956,22.542 23.956,22.956 Q23.956,23.371 23.664,23.664 Q23.371,23.956 22.956,23.956 Q22.542,23.956 22.249,23.664 Z"/>
  <path fill="#212135" d="M8.348,10.478 L10.478,10.478 L10.478,8.348 Q10.478,7.934 10.771,7.641 Q11.064,7.348 11.478,7.348 Q11.893,7.348 12.185,7.641 Q12.478,7.934 12.478,8.348 L12.478,10.478 L14.609,10.478 Q15.023,10.478 15.316,10.771 Q15.609,11.064 15.609,11.478 Q15.609,11.893 15.316,12.185 Q15.023,12.478 14.609,12.478 L12.478,12.478 L12.478,14.609 Q12.478,15.023 12.185,15.316 Q11.893,15.609 11.478,15.609 Q11.064,15.609 10.771,15.316 Q10.478,15.023 10.478,14.609 L10.478,12.478 L8.348,12.478 Q7.934,12.478 7.641,12.185 Q7.348,11.893 7.348,11.478 Q7.348,11.064 7.641,10.771 Q7.934,10.478 8.348,10.478 Z"/>
</svg>

