<svg xmlns="http://www.w3.org/2000/svg" width="24" height="24" viewBox="0 0 24 24">
  <defs/>
  <path fill="#212135" d="M0,11.356 C0,2.581 3.097,0 11.356,0 C19.615,0 22.712,2.581 22.712,11.356 C22.712,15.065 22.159,17.667 20.896,19.436 L23.698,22.238 C24.101,22.641 24.101,23.295 23.698,23.698 C23.295,24.101 22.641,24.101 22.238,23.698 L19.441,20.901 C17.63,22.211 14.993,22.712 11.356,22.712 C3.097,22.712 0,20.131 0,11.356 Z M8.259,10.323 C7.689,10.323 7.226,10.786 7.226,11.356 C7.226,11.926 7.689,12.388 8.259,12.388 L14.453,12.388 C15.023,12.388 15.485,11.926 15.485,11.356 C15.485,10.786 15.023,10.323 14.453,10.323 Z"/>
</svg>

